M48
;Layer_Color=9474304
;FILE_FORMAT=4:4
METRIC
;TYPE=PLATED
T1F00S00C0.2500
T2F00S00C0.5000
T3F00S00C0.9000
T4F00S00C3.2000
%
T01
X-00087662Y-00039656
X-00061246Y-00030258
X-00021750Y00005142
X-00015018Y00008188
X-00008750Y00000476
X00010802Y00014192
X00007842Y-00057182
X00022066Y-00095282
X00000000Y-00104000
X-00024924Y00053308
X00037500Y00063048
X00066262Y00036544
X-00095028Y00062706
X00049752Y00069564
T02
X00082600Y-00025401
Y-00000000
Y00025399
X00108000
Y-00000000
Y-00025401
T03
X-00109000Y-00038200
Y-00012800
Y00012600
Y00038000
T04
X-00100000Y-00100000
X00100000
Y00100000
X-00100000
M30
