G04 Layer_Color=128*
%FSLAX44Y44*%
%MOMM*%
G71*
G01*
G75*
%ADD10R,0.6350X1.2700*%
%ADD11R,1.0160X0.8636*%
G04:AMPARAMS|DCode=13|XSize=1mm|YSize=0.9mm|CornerRadius=0.1125mm|HoleSize=0mm|Usage=FLASHONLY|Rotation=0.000|XOffset=0mm|YOffset=0mm|HoleType=Round|Shape=RoundedRectangle|*
%AMROUNDEDRECTD13*
21,1,1.0000,0.6750,0,0,0.0*
21,1,0.7750,0.9000,0,0,0.0*
1,1,0.2250,0.3875,-0.3375*
1,1,0.2250,-0.3875,-0.3375*
1,1,0.2250,-0.3875,0.3375*
1,1,0.2250,0.3875,0.3375*
%
%ADD13ROUNDEDRECTD13*%
%ADD21R,0.6000X1.5500*%
%ADD22R,1.2000X1.8000*%
%ADD23O,0.5500X1.6500*%
%ADD24O,1.6500X0.5500*%
D10*
X-55079Y-85000D02*
D03*
X-44919D02*
D03*
X-55079Y-67000D02*
D03*
X-44919D02*
D03*
D11*
X-17526Y-103750D02*
D03*
X17500D02*
D03*
X-17526Y-86110D02*
D03*
X17500D02*
D03*
D13*
X63000Y26500D02*
D03*
Y9500D02*
D03*
X63000Y-21500D02*
D03*
Y-4500D02*
D03*
X-63000Y-15500D02*
D03*
Y1500D02*
D03*
D21*
X17500Y75000D02*
D03*
X7500D02*
D03*
X-2500D02*
D03*
X-12500D02*
D03*
D22*
X30500Y114000D02*
D03*
X-25500D02*
D03*
D23*
X28000Y42000D02*
D03*
X20000D02*
D03*
X12000D02*
D03*
X4000D02*
D03*
X-4000D02*
D03*
X-12000D02*
D03*
X-20000D02*
D03*
X-28000D02*
D03*
Y-42000D02*
D03*
X-20000D02*
D03*
X-12000D02*
D03*
X-4000D02*
D03*
X4000D02*
D03*
X12000D02*
D03*
X20000D02*
D03*
X28000D02*
D03*
D24*
X-42000Y28000D02*
D03*
Y20000D02*
D03*
Y12000D02*
D03*
Y4000D02*
D03*
Y-4000D02*
D03*
Y-12000D02*
D03*
Y-20000D02*
D03*
Y-28000D02*
D03*
X42000D02*
D03*
Y-20000D02*
D03*
Y-12000D02*
D03*
Y-4000D02*
D03*
Y4000D02*
D03*
Y12000D02*
D03*
Y20000D02*
D03*
Y28000D02*
D03*
M02*
