G04 Layer_Physical_Order=1*
G04 Layer_Color=255*
%FSLAX44Y44*%
%MOMM*%
G71*
G01*
G75*
%ADD10R,0.6350X1.2700*%
%ADD11R,1.0160X0.8636*%
%ADD12R,0.4064X1.6510*%
G04:AMPARAMS|DCode=13|XSize=1mm|YSize=0.9mm|CornerRadius=0.1125mm|HoleSize=0mm|Usage=FLASHONLY|Rotation=0.000|XOffset=0mm|YOffset=0mm|HoleType=Round|Shape=RoundedRectangle|*
%AMROUNDEDRECTD13*
21,1,1.0000,0.6750,0,0,0.0*
21,1,0.7750,0.9000,0,0,0.0*
1,1,0.2250,0.3875,-0.3375*
1,1,0.2250,-0.3875,-0.3375*
1,1,0.2250,-0.3875,0.3375*
1,1,0.2250,0.3875,0.3375*
%
%ADD13ROUNDEDRECTD13*%
G04:AMPARAMS|DCode=14|XSize=1mm|YSize=0.9mm|CornerRadius=0.1125mm|HoleSize=0mm|Usage=FLASHONLY|Rotation=90.000|XOffset=0mm|YOffset=0mm|HoleType=Round|Shape=RoundedRectangle|*
%AMROUNDEDRECTD14*
21,1,1.0000,0.6750,0,0,90.0*
21,1,0.7750,0.9000,0,0,90.0*
1,1,0.2250,0.3375,0.3875*
1,1,0.2250,0.3375,-0.3875*
1,1,0.2250,-0.3375,-0.3875*
1,1,0.2250,-0.3375,0.3875*
%
%ADD14ROUNDEDRECTD14*%
%ADD15C,0.2000*%
%ADD16C,0.6000*%
%ADD17C,3.6000*%
%ADD18R,1.5000X1.5000*%
%ADD19C,1.5000*%
%ADD20C,0.5000*%
G36*
X-100000Y122176D02*
X98772D01*
X100000Y122176D01*
X100000Y122176D01*
X100000Y122176D01*
Y122176D01*
X101234Y122088D01*
X104333Y121783D01*
X108499Y120519D01*
X112339Y118467D01*
X115705Y115705D01*
X118467Y112339D01*
X120519Y108499D01*
X121783Y104333D01*
X122088Y101234D01*
X122176Y100000D01*
X122176D01*
X122176Y100000D01*
Y-98772D01*
X122176Y-100000D01*
X122176Y-100000D01*
X122176Y-100000D01*
X122176D01*
X122088Y-101234D01*
X121783Y-104333D01*
X120519Y-108499D01*
X118467Y-112339D01*
X115705Y-115705D01*
X112339Y-118467D01*
X108499Y-120519D01*
X104333Y-121783D01*
X101234Y-122088D01*
X100000Y-122176D01*
Y-122176D01*
X100000Y-122176D01*
X-98772D01*
X-100000Y-122176D01*
X-100000Y-122176D01*
X-100000Y-122176D01*
Y-122176D01*
X-101234Y-122088D01*
X-104333Y-121783D01*
X-108499Y-120519D01*
X-112339Y-118467D01*
X-115705Y-115705D01*
X-118467Y-112339D01*
X-120519Y-108499D01*
X-121783Y-104333D01*
X-122088Y-101234D01*
X-122176Y-100000D01*
X-122176D01*
X-122176Y-100000D01*
Y98772D01*
X-122176Y100000D01*
X-122176Y100000D01*
X-122176Y100000D01*
X-122176D01*
X-122088Y101234D01*
X-121783Y104333D01*
X-120519Y108499D01*
X-118467Y112339D01*
X-115705Y115705D01*
X-112339Y118467D01*
X-108499Y120519D01*
X-104333Y121783D01*
X-101234Y122088D01*
X-100000Y122176D01*
Y122176D01*
X-100000Y122176D01*
D02*
G37*
%LPC*%
G36*
X108000Y-20812D02*
X106244Y-21162D01*
X104756Y-22156D01*
X103761Y-23645D01*
X103412Y-25401D01*
X103761Y-27156D01*
X104756Y-28645D01*
X106244Y-29639D01*
X108000Y-29989D01*
X109756Y-29639D01*
X111245Y-28645D01*
X112239Y-27156D01*
X112588Y-25401D01*
X112239Y-23645D01*
X111245Y-22156D01*
X109756Y-21162D01*
X108000Y-20812D01*
D02*
G37*
G36*
X87996Y-26670D02*
X83870D01*
Y-30796D01*
X84762Y-30619D01*
X86594Y-29395D01*
X87819Y-27562D01*
X87996Y-26670D01*
D02*
G37*
G36*
X7842Y-53104D02*
X6281Y-53414D01*
X4958Y-54298D01*
X4734Y-54633D01*
X-12478D01*
X-13454Y-54827D01*
X-14280Y-55380D01*
X-19303Y-60402D01*
X-19855Y-61229D01*
X-20049Y-62204D01*
Y-80292D01*
X-24080D01*
Y-91928D01*
X-10920D01*
Y-80292D01*
X-14951D01*
Y-63260D01*
X-11422Y-59731D01*
X4734D01*
X4958Y-60066D01*
X6281Y-60950D01*
X7842Y-61260D01*
X9403Y-60950D01*
X10726Y-60066D01*
X11610Y-58743D01*
X11920Y-57182D01*
X11610Y-55621D01*
X10726Y-54298D01*
X9403Y-53414D01*
X7842Y-53104D01*
D02*
G37*
G36*
X-110270Y-2841D02*
X-111621Y-3018D01*
X-114063Y-4030D01*
X-116161Y-5640D01*
X-117770Y-7737D01*
X-118782Y-10179D01*
X-118960Y-11530D01*
X-110270D01*
Y-2841D01*
D02*
G37*
G36*
X-99041Y-14070D02*
X-107730D01*
Y-22759D01*
X-106379Y-22582D01*
X-103937Y-21570D01*
X-101839Y-19961D01*
X-100230Y-17863D01*
X-99219Y-15421D01*
X-99041Y-14070D01*
D02*
G37*
G36*
X-110270D02*
X-118960D01*
X-118782Y-15421D01*
X-117770Y-17863D01*
X-116161Y-19961D01*
X-114063Y-21570D01*
X-111621Y-22582D01*
X-110270Y-22759D01*
Y-14070D01*
D02*
G37*
G36*
X-109000Y-29122D02*
X-111349Y-29432D01*
X-113539Y-30339D01*
X-115419Y-31781D01*
X-116861Y-33661D01*
X-117768Y-35851D01*
X-118078Y-38200D01*
X-117768Y-40550D01*
X-116861Y-42739D01*
X-115419Y-44619D01*
X-113539Y-46062D01*
X-111349Y-46968D01*
X-109000Y-47278D01*
X-106651Y-46968D01*
X-104661Y-46144D01*
X-45253Y-105552D01*
X-44426Y-106105D01*
X-43450Y-106299D01*
X-24080D01*
Y-109568D01*
X-10920D01*
Y-97932D01*
X-24080D01*
Y-101201D01*
X-42394D01*
X-101056Y-42539D01*
X-100232Y-40550D01*
X-99922Y-38200D01*
X-100232Y-35851D01*
X-101139Y-33661D01*
X-102581Y-31781D01*
X-104461Y-30339D01*
X-106651Y-29432D01*
X-109000Y-29122D01*
D02*
G37*
G36*
X100000Y-80406D02*
X96177Y-80782D01*
X92501Y-81897D01*
X89114Y-83708D01*
X86145Y-86145D01*
X83708Y-89114D01*
X81897Y-92501D01*
X80782Y-96177D01*
X80406Y-100000D01*
X80782Y-103822D01*
X81897Y-107498D01*
X83708Y-110886D01*
X86145Y-113855D01*
X89114Y-116292D01*
X92501Y-118103D01*
X96177Y-119218D01*
X100000Y-119594D01*
X103822Y-119218D01*
X107498Y-118103D01*
X110886Y-116292D01*
X113855Y-113855D01*
X116292Y-110886D01*
X118103Y-107498D01*
X119218Y-103822D01*
X119594Y-100000D01*
X119218Y-96177D01*
X118103Y-92501D01*
X116292Y-89114D01*
X113855Y-86145D01*
X110886Y-83708D01*
X107498Y-81897D01*
X103822Y-80782D01*
X100000Y-80406D01*
D02*
G37*
G36*
X-100000D02*
X-103822Y-80782D01*
X-107498Y-81897D01*
X-110886Y-83708D01*
X-113855Y-86145D01*
X-116292Y-89114D01*
X-118103Y-92501D01*
X-119218Y-96177D01*
X-119594Y-100000D01*
X-119218Y-103822D01*
X-118103Y-107498D01*
X-116292Y-110886D01*
X-113855Y-113855D01*
X-110886Y-116292D01*
X-107498Y-118103D01*
X-103822Y-119218D01*
X-100000Y-119594D01*
X-96177Y-119218D01*
X-92501Y-118103D01*
X-89114Y-116292D01*
X-86145Y-113855D01*
X-83708Y-110886D01*
X-81897Y-107498D01*
X-80782Y-103822D01*
X-80406Y-100000D01*
X-80782Y-96177D01*
X-81897Y-92501D01*
X-83708Y-89114D01*
X-86145Y-86145D01*
X-89114Y-83708D01*
X-92501Y-81897D01*
X-96177Y-80782D01*
X-100000Y-80406D01*
D02*
G37*
G36*
X25146Y-79252D02*
X18796D01*
Y-84840D01*
X25146D01*
Y-79252D01*
D02*
G37*
G36*
X16256D02*
X9906D01*
Y-84840D01*
X16256D01*
Y-79252D01*
D02*
G37*
G36*
X25146Y-87380D02*
X17526D01*
X9906D01*
Y-92968D01*
X17390D01*
X18195Y-94238D01*
X17988Y-95282D01*
X18066Y-95677D01*
X15811Y-97932D01*
X10946D01*
Y-109568D01*
X24106D01*
Y-98730D01*
X24950Y-98166D01*
X25834Y-96843D01*
X26144Y-95282D01*
X25834Y-93721D01*
X25146Y-92692D01*
Y-87380D01*
D02*
G37*
G36*
X-107730Y-2841D02*
Y-11530D01*
X-99041D01*
X-99219Y-10179D01*
X-100230Y-7737D01*
X-101839Y-5640D01*
X-103937Y-4030D01*
X-106379Y-3018D01*
X-107730Y-2841D01*
D02*
G37*
G36*
X49752Y73642D02*
X48191Y73332D01*
X46868Y72448D01*
X46135Y71351D01*
X4540D01*
X3565Y71157D01*
X2738Y70604D01*
X-23552Y44314D01*
X-23722Y44060D01*
X-24290Y44173D01*
X-36862D01*
X-37838Y43979D01*
X-38664Y43426D01*
X-42483Y39608D01*
X-43753Y40134D01*
Y54850D01*
X-62175D01*
Y39150D01*
X-60049D01*
Y34980D01*
X-64302Y30726D01*
X-64855Y29899D01*
X-65049Y28924D01*
Y22051D01*
X-66375D01*
X-67399Y21848D01*
X-68267Y21267D01*
X-68847Y20399D01*
X-69051Y19375D01*
Y18549D01*
X-73448D01*
Y19375D01*
X-73652Y20399D01*
X-74232Y21267D01*
X-75101Y21848D01*
X-76125Y22051D01*
X-83875D01*
X-85113Y23100D01*
Y50474D01*
X-76446Y59141D01*
X-34362D01*
X-28924Y53703D01*
X-29002Y53308D01*
X-28692Y51747D01*
X-27808Y50424D01*
X-26485Y49540D01*
X-24924Y49230D01*
X-23363Y49540D01*
X-22040Y50424D01*
X-21156Y51747D01*
X-20846Y53308D01*
X-21156Y54869D01*
X-22040Y56192D01*
X-23363Y57076D01*
X-24924Y57386D01*
X-25319Y57308D01*
X-31504Y63492D01*
X-32331Y64045D01*
X-33306Y64239D01*
X-77502D01*
X-78477Y64045D01*
X-79304Y63492D01*
X-89464Y53332D01*
X-90017Y52505D01*
X-90211Y51530D01*
Y-36548D01*
X-90546Y-36772D01*
X-91430Y-38095D01*
X-91740Y-39656D01*
X-91430Y-41217D01*
X-90546Y-42540D01*
X-89223Y-43424D01*
X-87662Y-43734D01*
X-86101Y-43424D01*
X-84778Y-42540D01*
X-83894Y-41217D01*
X-83584Y-39656D01*
X-83894Y-38095D01*
X-84778Y-36772D01*
X-85113Y-36548D01*
Y-8866D01*
X-84131Y-8061D01*
X-83875Y-8112D01*
X-81270D01*
Y-1000D01*
X-80000D01*
Y270D01*
X-72388D01*
Y2375D01*
X-72673Y3805D01*
X-73000Y4295D01*
Y11500D01*
X-73561Y12061D01*
X-73448Y12625D01*
Y13451D01*
X-69051D01*
Y12625D01*
X-68939Y12061D01*
X-69500Y11500D01*
Y4295D01*
X-69827Y3805D01*
X-70111Y2375D01*
Y270D01*
X-54888D01*
Y2375D01*
X-55172Y3805D01*
X-55500Y4295D01*
Y5576D01*
X-55243Y5842D01*
X-54230Y6429D01*
X-53626Y6309D01*
X-52000D01*
Y4295D01*
X-52327Y3805D01*
X-52612Y2375D01*
Y270D01*
X-37388D01*
Y2375D01*
X-37673Y3805D01*
X-38000Y4295D01*
Y6309D01*
X-28734D01*
X-27759Y6503D01*
X-26932Y7056D01*
X-26564Y7423D01*
X-25518Y6703D01*
X-25828Y5142D01*
X-25518Y3581D01*
X-24634Y2258D01*
X-24299Y2034D01*
Y-20745D01*
X-31782D01*
Y-40255D01*
X-4799D01*
Y-41434D01*
X-4649Y-42187D01*
X-5085Y-43018D01*
X-5432Y-43457D01*
X-44442D01*
X-57246Y-30653D01*
X-57168Y-30258D01*
X-57478Y-28697D01*
X-58362Y-27374D01*
X-59685Y-26490D01*
X-61246Y-26180D01*
X-62807Y-26490D01*
X-64130Y-27374D01*
X-65014Y-28697D01*
X-65324Y-30258D01*
X-65014Y-31819D01*
X-64130Y-33142D01*
X-62807Y-34026D01*
X-61246Y-34336D01*
X-60851Y-34258D01*
X-47300Y-47808D01*
X-46473Y-48361D01*
X-45498Y-48555D01*
X54070D01*
X55045Y-48361D01*
X55872Y-47808D01*
X76174Y-27506D01*
X77595Y-27882D01*
X78606Y-29395D01*
X80439Y-30619D01*
X81330Y-30796D01*
Y-25401D01*
X82600D01*
Y-24130D01*
X87996D01*
X87819Y-23239D01*
X86594Y-21406D01*
X85081Y-20395D01*
X84706Y-18975D01*
X101131Y-2549D01*
X104291D01*
X104756Y-3245D01*
X106244Y-4239D01*
X108000Y-4589D01*
X109756Y-4239D01*
X111245Y-3245D01*
X112239Y-1756D01*
X112588Y-0D01*
X112239Y1755D01*
X111245Y3244D01*
X109756Y4238D01*
X108000Y4588D01*
X106244Y4238D01*
X104756Y3244D01*
X104291Y2549D01*
X100076D01*
X99100Y2354D01*
X98273Y1802D01*
X53014Y-43457D01*
X42208D01*
X41682Y-42187D01*
X68064Y-15804D01*
X68617Y-14977D01*
X68811Y-14002D01*
Y33436D01*
X69146Y33660D01*
X70030Y34983D01*
X70340Y36544D01*
X70030Y38105D01*
X69146Y39428D01*
X67823Y40312D01*
X66262Y40622D01*
X64701Y40312D01*
X63378Y39428D01*
X62494Y38105D01*
X62184Y36544D01*
X62494Y34983D01*
X63378Y33660D01*
X63713Y33436D01*
Y-12946D01*
X37774Y-38885D01*
X33892D01*
Y-20745D01*
X28328D01*
Y-19705D01*
X25026D01*
Y-30500D01*
X22486D01*
Y-19705D01*
X18676D01*
Y-30500D01*
X16136D01*
Y-19705D01*
X13351D01*
Y11084D01*
X13686Y11308D01*
X14570Y12631D01*
X14880Y14192D01*
X14570Y15753D01*
X13686Y17076D01*
X12363Y17960D01*
X10802Y18270D01*
X9241Y17960D01*
X7918Y17076D01*
X7034Y15753D01*
X6724Y14192D01*
X7034Y12631D01*
X7918Y11308D01*
X8253Y11084D01*
Y-20745D01*
X-6201D01*
Y-2632D01*
X-5866Y-2408D01*
X-4982Y-1085D01*
X-4671Y476D01*
X-4982Y2037D01*
X-5866Y3360D01*
X-7189Y4244D01*
X-8750Y4554D01*
X-10310Y4244D01*
X-11088Y3724D01*
X-12325Y4269D01*
X-12330Y5173D01*
X-12134Y5304D01*
X-11250Y6627D01*
X-10940Y8188D01*
X-11250Y9749D01*
X-12134Y11072D01*
X-13457Y11956D01*
X-15018Y12266D01*
X-16579Y11956D01*
X-17902Y11072D01*
X-18786Y9749D01*
X-18830Y9529D01*
X-20189Y8910D01*
X-21750Y9220D01*
X-23311Y8910D01*
X-24032Y9956D01*
X-13448Y20539D01*
X-13154Y20979D01*
X33892D01*
Y40489D01*
X13351D01*
Y46371D01*
X14065Y47035D01*
X15232Y47233D01*
X16101Y46652D01*
X17125Y46449D01*
X23875D01*
X24439Y46561D01*
X25000Y46000D01*
X32205D01*
X32695Y45673D01*
X34125Y45388D01*
X36230D01*
Y53000D01*
X37500D01*
Y54270D01*
X44612D01*
Y56875D01*
X44327Y58305D01*
X43517Y59517D01*
X42305Y60328D01*
X42090Y60846D01*
X42248Y61081D01*
X42386Y61778D01*
X32614D01*
X32752Y61081D01*
X32788Y61029D01*
X31948Y60000D01*
X25000D01*
X24439Y59439D01*
X23875Y59552D01*
X17125D01*
X16101Y59348D01*
X15232Y58768D01*
X14652Y57899D01*
X14448Y56875D01*
Y54990D01*
X14168Y54802D01*
X9000Y49635D01*
X8447Y48808D01*
X8253Y47832D01*
Y40489D01*
X-18470D01*
X-18898Y41759D01*
X5596Y66253D01*
X32053D01*
X32786Y65212D01*
X32746Y64983D01*
X32614Y64318D01*
X42386D01*
X42254Y64983D01*
X42214Y65212D01*
X42947Y66253D01*
X47507D01*
X48191Y65796D01*
X49752Y65486D01*
X50147Y65564D01*
X80051Y35660D01*
Y29108D01*
X79356Y28644D01*
X78361Y27155D01*
X78012Y25399D01*
X78361Y23644D01*
X79356Y22155D01*
X80844Y21161D01*
X82600Y20811D01*
X84356Y21161D01*
X85845Y22155D01*
X86839Y23644D01*
X87188Y25399D01*
X86839Y27155D01*
X85845Y28644D01*
X85149Y29108D01*
Y36716D01*
X84955Y37691D01*
X84403Y38518D01*
X53752Y69169D01*
X53830Y69564D01*
X53520Y71125D01*
X52636Y72448D01*
X51313Y73332D01*
X49752Y73642D01*
D02*
G37*
G36*
X-95028Y66784D02*
X-96589Y66474D01*
X-97912Y65590D01*
X-98796Y64267D01*
X-99106Y62706D01*
X-99028Y62311D01*
X-99624Y61714D01*
X-100177Y60887D01*
X-100371Y59912D01*
Y47000D01*
X-118000D01*
Y29000D01*
X-100371D01*
Y24834D01*
X-104661Y20544D01*
X-106651Y21368D01*
X-109000Y21678D01*
X-111349Y21368D01*
X-113539Y20461D01*
X-115419Y19019D01*
X-116861Y17139D01*
X-117768Y14949D01*
X-118078Y12600D01*
X-117768Y10250D01*
X-116861Y8061D01*
X-115419Y6181D01*
X-113539Y4739D01*
X-111349Y3832D01*
X-109000Y3522D01*
X-106651Y3832D01*
X-104461Y4739D01*
X-102581Y6181D01*
X-101139Y8061D01*
X-100232Y10250D01*
X-99922Y12600D01*
X-100232Y14949D01*
X-101056Y16939D01*
X-96020Y21976D01*
X-95467Y22803D01*
X-95273Y23778D01*
Y58426D01*
X-95028Y58628D01*
X-93467Y58938D01*
X-92144Y59822D01*
X-91260Y61145D01*
X-90950Y62706D01*
X-91260Y64267D01*
X-92144Y65590D01*
X-93467Y66474D01*
X-95028Y66784D01*
D02*
G37*
G36*
X100000Y119594D02*
X96177Y119218D01*
X92501Y118103D01*
X89114Y116292D01*
X86145Y113855D01*
X83708Y110886D01*
X81897Y107498D01*
X80782Y103822D01*
X80406Y100000D01*
X80782Y96177D01*
X81897Y92501D01*
X83708Y89114D01*
X86145Y86145D01*
X89114Y83708D01*
X92501Y81897D01*
X96177Y80782D01*
X100000Y80406D01*
X103822Y80782D01*
X107498Y81897D01*
X110886Y83708D01*
X113855Y86145D01*
X116292Y89114D01*
X118103Y92501D01*
X119218Y96177D01*
X119594Y100000D01*
X119218Y103822D01*
X118103Y107498D01*
X116292Y110886D01*
X113855Y113855D01*
X110886Y116292D01*
X107498Y118103D01*
X103822Y119218D01*
X100000Y119594D01*
D02*
G37*
G36*
X-100000D02*
X-103822Y119218D01*
X-107498Y118103D01*
X-110886Y116292D01*
X-113855Y113855D01*
X-116292Y110886D01*
X-118103Y107498D01*
X-119218Y103822D01*
X-119594Y100000D01*
X-119218Y96177D01*
X-118103Y92501D01*
X-116292Y89114D01*
X-113855Y86145D01*
X-110886Y83708D01*
X-107498Y81897D01*
X-103822Y80782D01*
X-100000Y80406D01*
X-96177Y80782D01*
X-92501Y81897D01*
X-89114Y83708D01*
X-86145Y86145D01*
X-83708Y89114D01*
X-81897Y92501D01*
X-80782Y96177D01*
X-80406Y100000D01*
X-80782Y103822D01*
X-81897Y107498D01*
X-83708Y110886D01*
X-86145Y113855D01*
X-89114Y116292D01*
X-92501Y118103D01*
X-96177Y119218D01*
X-100000Y119594D01*
D02*
G37*
G36*
X44612Y51730D02*
X38770D01*
Y45388D01*
X40875D01*
X42305Y45673D01*
X43517Y46483D01*
X44327Y47695D01*
X44612Y49125D01*
Y51730D01*
D02*
G37*
G36*
X108000Y29988D02*
X106244Y29638D01*
X104756Y28644D01*
X103761Y27155D01*
X103412Y25399D01*
X103761Y23644D01*
X104756Y22155D01*
X106244Y21161D01*
X108000Y20811D01*
X109756Y21161D01*
X111245Y22155D01*
X112239Y23644D01*
X112588Y25399D01*
X112239Y27155D01*
X111245Y28644D01*
X109756Y29638D01*
X108000Y29988D01*
D02*
G37*
G36*
X-54888Y-2270D02*
X-61230D01*
Y-8112D01*
X-58625D01*
X-57195Y-7827D01*
X-55982Y-7017D01*
X-55172Y-5805D01*
X-54888Y-4375D01*
Y-2270D01*
D02*
G37*
G36*
X-63770D02*
X-70111D01*
Y-4375D01*
X-69827Y-5805D01*
X-69017Y-7017D01*
X-67805Y-7827D01*
X-66375Y-8112D01*
X-63770D01*
Y-2270D01*
D02*
G37*
G36*
X-72388D02*
X-78730D01*
Y-8112D01*
X-76125D01*
X-74695Y-7827D01*
X-73482Y-7017D01*
X-72673Y-5805D01*
X-72388Y-4375D01*
Y-2270D01*
D02*
G37*
G36*
X82600Y4588D02*
X80844Y4238D01*
X79356Y3244D01*
X78361Y1755D01*
X78012Y-0D01*
X78361Y-1756D01*
X79356Y-3245D01*
X80844Y-4239D01*
X82600Y-4589D01*
X84356Y-4239D01*
X85845Y-3245D01*
X86839Y-1756D01*
X87188Y-0D01*
X86839Y1755D01*
X85845Y3244D01*
X84356Y4238D01*
X82600Y4588D01*
D02*
G37*
G36*
X-37388Y-2270D02*
X-43730D01*
Y-8112D01*
X-41125D01*
X-39695Y-7827D01*
X-38483Y-7017D01*
X-37673Y-5805D01*
X-37388Y-4375D01*
Y-2270D01*
D02*
G37*
G36*
X-46270D02*
X-52612D01*
Y-4375D01*
X-52327Y-5805D01*
X-51518Y-7017D01*
X-50305Y-7827D01*
X-48875Y-8112D01*
X-46270D01*
Y-2270D01*
D02*
G37*
%LPD*%
G36*
X-31782Y20979D02*
X-21877D01*
X-21391Y19806D01*
X-29790Y11407D01*
X-37587D01*
X-38478Y12479D01*
X-38449Y12625D01*
Y19375D01*
X-38653Y20399D01*
X-39233Y21267D01*
X-40101Y21848D01*
X-41125Y22051D01*
X-42451D01*
Y32430D01*
X-35806Y39075D01*
X-31782D01*
Y20979D01*
D02*
G37*
D10*
X-48428Y47000D02*
D03*
X-57500D02*
D03*
D11*
X17526Y-103750D02*
D03*
X-17500D02*
D03*
X17526Y-86110D02*
D03*
X-17500D02*
D03*
D12*
X-28250Y30734D02*
D03*
X-21750D02*
D03*
X-15250D02*
D03*
X-2250D02*
D03*
X-8750D02*
D03*
X4250D02*
D03*
X10802D02*
D03*
X17406D02*
D03*
X23756D02*
D03*
X30360D02*
D03*
X-28250Y-30500D02*
D03*
X-21750D02*
D03*
X-15250D02*
D03*
X-8750D02*
D03*
X-2250D02*
D03*
X4250D02*
D03*
X10802D02*
D03*
X17406D02*
D03*
X23756D02*
D03*
X30360D02*
D03*
D13*
X-80000Y16000D02*
D03*
Y-1000D02*
D03*
X-62500Y16000D02*
D03*
Y-1000D02*
D03*
X-45000Y16000D02*
D03*
Y-1000D02*
D03*
D14*
X37500Y53000D02*
D03*
X20500D02*
D03*
D15*
X-80000Y16000D02*
X-62500D01*
Y28924D01*
X-57500Y33924D01*
Y47000D01*
Y12732D02*
X-53626Y8858D01*
X-28734D01*
X-15250Y22342D01*
Y30734D01*
X-48428Y36174D02*
X-45000Y32746D01*
X-48428Y36174D02*
Y47000D01*
X-45000Y33486D02*
X-36862Y41624D01*
X-24290D01*
X-21750Y39084D01*
Y30734D02*
Y39084D01*
X17526Y-103750D02*
Y-99822D01*
X22066Y-95282D01*
X-109000Y-38200D02*
X-43450Y-103750D01*
X-17500D01*
X-12478Y-57182D02*
X7842D01*
X-17500Y-62204D02*
X-12478Y-57182D01*
X-17500Y-86110D02*
Y-62204D01*
X-2250Y-41434D02*
Y-30500D01*
Y-41434D02*
X38830D01*
X66262Y-14002D01*
Y36544D01*
X82600Y25399D02*
Y36716D01*
X-8750Y-30500D02*
Y476D01*
X10802Y-30500D02*
Y14192D01*
X-21750Y-30500D02*
Y5142D01*
X-15250Y7956D02*
X-15018Y8188D01*
X-15250Y-30500D02*
Y7956D01*
X100076Y-0D02*
X108000D01*
X54070Y-46006D02*
X100076Y-0D01*
X-45498Y-46006D02*
X54070D01*
X-61246Y-30258D02*
X-45498Y-46006D01*
X15970Y53000D02*
X20500D01*
X10802Y47832D02*
X15970Y53000D01*
X10802Y30734D02*
Y47832D01*
X37500Y53000D02*
Y63048D01*
X-109000Y12600D02*
X-97822Y23778D01*
Y59912D01*
X-95028Y62706D01*
X-33306Y61690D02*
X-24924Y53308D01*
X-77502Y61690D02*
X-33306D01*
X-87662Y51530D02*
X-77502Y61690D01*
X-87662Y-39656D02*
Y51530D01*
X50514Y68802D02*
X82600Y36716D01*
X-21750Y42512D02*
X4540Y68802D01*
X-57500Y12732D02*
Y33924D01*
X-45000Y16000D02*
Y32746D01*
Y33486D01*
X-21750Y39084D02*
Y42512D01*
X4540Y68802D02*
X50514D01*
X49752Y69564D02*
X50514Y68802D01*
D16*
X108000Y25399D02*
D03*
X82600D02*
D03*
X108000Y-0D02*
D03*
X82600D02*
D03*
X108000Y-25401D02*
D03*
X82600D02*
D03*
D17*
X-100000Y-100000D02*
D03*
X100000D02*
D03*
Y100000D02*
D03*
X-100000D02*
D03*
D18*
X-109000Y38000D02*
D03*
D19*
Y12600D02*
D03*
Y-12800D02*
D03*
Y-38200D02*
D03*
D20*
X22066Y-95282D02*
D03*
X7842Y-57182D02*
D03*
X66262Y36544D02*
D03*
X49752Y69564D02*
D03*
X-8750Y476D02*
D03*
X10802Y14192D02*
D03*
X-21750Y5142D02*
D03*
X-15018Y8188D02*
D03*
X-61246Y-30258D02*
D03*
X37500Y63048D02*
D03*
X-95028Y62706D02*
D03*
X-24924Y53308D02*
D03*
X-87662Y-39656D02*
D03*
X0Y-104000D02*
D03*
M02*
