G04 Layer_Physical_Order=1*
G04 Layer_Color=255*
%FSLAX44Y44*%
%MOMM*%
G71*
G01*
G75*
%ADD10R,0.6350X1.2700*%
%ADD11R,1.0160X0.8636*%
%ADD12R,0.4064X1.6510*%
G04:AMPARAMS|DCode=13|XSize=1mm|YSize=0.9mm|CornerRadius=0.1125mm|HoleSize=0mm|Usage=FLASHONLY|Rotation=0.000|XOffset=0mm|YOffset=0mm|HoleType=Round|Shape=RoundedRectangle|*
%AMROUNDEDRECTD13*
21,1,1.0000,0.6750,0,0,0.0*
21,1,0.7750,0.9000,0,0,0.0*
1,1,0.2250,0.3875,-0.3375*
1,1,0.2250,-0.3875,-0.3375*
1,1,0.2250,-0.3875,0.3375*
1,1,0.2250,0.3875,0.3375*
%
%ADD13ROUNDEDRECTD13*%
G04:AMPARAMS|DCode=14|XSize=1mm|YSize=0.9mm|CornerRadius=0.1125mm|HoleSize=0mm|Usage=FLASHONLY|Rotation=90.000|XOffset=0mm|YOffset=0mm|HoleType=Round|Shape=RoundedRectangle|*
%AMROUNDEDRECTD14*
21,1,1.0000,0.6750,0,0,90.0*
21,1,0.7750,0.9000,0,0,90.0*
1,1,0.2250,0.3375,0.3875*
1,1,0.2250,0.3375,-0.3875*
1,1,0.2250,-0.3375,-0.3875*
1,1,0.2250,-0.3375,0.3875*
%
%ADD14ROUNDEDRECTD14*%
%ADD15C,0.2000*%
%ADD16C,0.2500*%
%ADD17C,0.6000*%
%ADD18C,3.6000*%
%ADD19R,1.8796X1.8796*%
%ADD20C,1.8796*%
%ADD21C,0.5000*%
G36*
X-31782Y40489D02*
Y20979D01*
X-24605D01*
X-24355Y20789D01*
X-23978Y19627D01*
X-29968Y13637D01*
X-35450D01*
X-36425Y13443D01*
X-37179Y12939D01*
X-37478Y13003D01*
X-38449Y13490D01*
Y19375D01*
X-38653Y20399D01*
X-39233Y21267D01*
X-40101Y21848D01*
X-41125Y22051D01*
X-45196D01*
Y39150D01*
X-43753D01*
Y40768D01*
X-32936D01*
X-31782Y40489D01*
D02*
G37*
G36*
X-100000Y122176D02*
X98772D01*
X100000Y122176D01*
X100000Y122176D01*
X100000Y122176D01*
Y122176D01*
X101234Y122088D01*
X104333Y121783D01*
X108499Y120519D01*
X112339Y118467D01*
X115705Y115705D01*
X118467Y112339D01*
X120519Y108499D01*
X121783Y104333D01*
X122088Y101234D01*
X122176Y100000D01*
X122176D01*
X122176Y100000D01*
Y-98772D01*
X122176Y-100000D01*
X122176Y-100000D01*
X122176Y-100000D01*
X122176D01*
X122088Y-101234D01*
X121783Y-104333D01*
X120519Y-108499D01*
X118467Y-112339D01*
X115705Y-115705D01*
X112339Y-118467D01*
X108499Y-120519D01*
X104333Y-121783D01*
X101234Y-122088D01*
X100000Y-122176D01*
Y-122176D01*
X100000Y-122176D01*
X-98772D01*
X-100000Y-122176D01*
X-100000Y-122176D01*
X-100000Y-122176D01*
Y-122176D01*
X-101234Y-122088D01*
X-104333Y-121783D01*
X-108499Y-120519D01*
X-112339Y-118467D01*
X-115705Y-115705D01*
X-118467Y-112339D01*
X-120519Y-108499D01*
X-121783Y-104333D01*
X-122088Y-101234D01*
X-122176Y-100000D01*
X-122176D01*
X-122176Y-100000D01*
Y-40990D01*
X-120906Y-40906D01*
X-120887Y-41045D01*
X-119789Y-43696D01*
X-118042Y-45972D01*
X-115766Y-47719D01*
X-113115Y-48818D01*
X-110434Y-49170D01*
X-54053Y-105552D01*
X-53226Y-106105D01*
X-52250Y-106299D01*
X-24080D01*
Y-109568D01*
X-20048D01*
X-19855Y-110539D01*
X-19303Y-111366D01*
X-16312Y-114356D01*
X-15486Y-114909D01*
X-14510Y-115103D01*
X14392D01*
X14616Y-115438D01*
X15939Y-116322D01*
X17500Y-116632D01*
X19061Y-116322D01*
X20384Y-115438D01*
X20608Y-115103D01*
X46446D01*
X47421Y-114909D01*
X48248Y-114356D01*
X116802Y-45802D01*
X117355Y-44975D01*
X117549Y-44000D01*
Y26414D01*
X117355Y27390D01*
X116802Y28216D01*
X79402Y65616D01*
X70604Y74414D01*
X69777Y74967D01*
X68802Y75161D01*
X6444D01*
X5469Y74967D01*
X4642Y74414D01*
X-22750Y47023D01*
X-22823Y47008D01*
X-23733Y46401D01*
X-23757Y46376D01*
X-43753D01*
Y54850D01*
X-62175D01*
Y39150D01*
X-60049D01*
Y22055D01*
X-60053Y22051D01*
X-66375D01*
X-67399Y21848D01*
X-68267Y21267D01*
X-68847Y20399D01*
X-69051Y19375D01*
Y18549D01*
X-73448D01*
Y19375D01*
X-73652Y20399D01*
X-74232Y21267D01*
X-75101Y21848D01*
X-76125Y22051D01*
X-83875D01*
X-84899Y21848D01*
X-85767Y21267D01*
X-86348Y20399D01*
X-86551Y19375D01*
Y12625D01*
X-86439Y12061D01*
X-87000Y11500D01*
Y4295D01*
X-87327Y3805D01*
X-87612Y2375D01*
Y270D01*
X-72388D01*
Y2375D01*
X-72673Y3805D01*
X-73000Y4295D01*
Y11500D01*
X-73561Y12061D01*
X-73448Y12625D01*
Y13451D01*
X-69051D01*
Y12625D01*
X-68939Y12061D01*
X-69500Y11500D01*
Y4295D01*
X-69827Y3805D01*
X-70111Y2375D01*
Y270D01*
X-54888D01*
Y2375D01*
X-55089Y3386D01*
X-54215Y4324D01*
X-53221Y4141D01*
X-52479Y3044D01*
X-52612Y2375D01*
Y270D01*
X-37388D01*
Y2375D01*
X-37673Y3805D01*
X-38000Y4295D01*
Y5021D01*
X-37735Y5198D01*
X-34394Y8539D01*
X-28912D01*
X-27936Y8733D01*
X-27110Y9286D01*
X-26323Y10072D01*
X-25351Y9777D01*
X-25028Y9571D01*
X-23991Y8018D01*
X-22324Y6904D01*
X-21627Y6766D01*
Y11652D01*
X-20357D01*
Y12922D01*
X-15471D01*
X-15610Y13619D01*
X-16724Y15286D01*
X-17734Y15961D01*
X-17349Y17231D01*
X-15250D01*
X-14275Y17425D01*
X-13448Y17978D01*
X-12895Y18805D01*
X-12701Y19780D01*
Y20979D01*
X33892D01*
Y40489D01*
X13351D01*
Y46371D01*
X14065Y47035D01*
X15232Y47233D01*
X16101Y46652D01*
X17125Y46449D01*
X23875D01*
X24439Y46561D01*
X25000Y46000D01*
X32205D01*
X32695Y45673D01*
X34125Y45388D01*
X36230D01*
Y53000D01*
Y60612D01*
X34125D01*
X32695Y60328D01*
X32205Y60000D01*
X25000D01*
X24439Y59439D01*
X23875Y59552D01*
X17125D01*
X16101Y59348D01*
X15232Y58768D01*
X14652Y57899D01*
X14448Y56875D01*
Y54990D01*
X14168Y54802D01*
X11374Y52009D01*
X11044Y52040D01*
X10529Y52730D01*
X6270D01*
Y49114D01*
X6967Y49252D01*
X7419Y49555D01*
X8190Y48995D01*
X8426Y48700D01*
X8253Y47832D01*
Y40489D01*
X-19201D01*
Y43283D01*
X-19160Y43345D01*
X-19145Y43418D01*
X7500Y70063D01*
X67746D01*
X75051Y62758D01*
Y18709D01*
X74356Y18244D01*
X73361Y16755D01*
X73012Y15000D01*
X73361Y13244D01*
X74356Y11755D01*
X75844Y10761D01*
X77600Y10412D01*
X79356Y10761D01*
X80844Y11755D01*
X81839Y13244D01*
X82188Y15000D01*
X81839Y16755D01*
X80844Y18244D01*
X80149Y18709D01*
Y56001D01*
X81322Y56487D01*
X112451Y25358D01*
Y-42944D01*
X45390Y-110005D01*
X25195D01*
X24106Y-109568D01*
Y-97932D01*
X21850D01*
X21683Y-97619D01*
X21304Y-96662D01*
X21578Y-95282D01*
X21371Y-94238D01*
X22176Y-92968D01*
X25146D01*
Y-87380D01*
X17526D01*
X9906D01*
Y-92968D01*
X12824D01*
X13629Y-94238D01*
X13422Y-95282D01*
X13696Y-96662D01*
X13317Y-97619D01*
X13150Y-97932D01*
X10946D01*
Y-109568D01*
X9857Y-110005D01*
X-9831D01*
X-10920Y-109568D01*
Y-97932D01*
X-24080D01*
Y-101201D01*
X-51194D01*
X-104038Y-48358D01*
X-103954Y-47091D01*
X-102498Y-45972D01*
X-100751Y-43696D01*
X-99653Y-41045D01*
X-99278Y-38200D01*
X-99653Y-35355D01*
X-100751Y-32704D01*
X-102498Y-30427D01*
X-104774Y-28681D01*
X-107425Y-27582D01*
X-110270Y-27208D01*
X-113115Y-27582D01*
X-115766Y-28681D01*
X-118042Y-30427D01*
X-119789Y-32704D01*
X-120887Y-35355D01*
X-120906Y-35494D01*
X-122176Y-35410D01*
Y9810D01*
X-120906Y9894D01*
X-120887Y9755D01*
X-119789Y7104D01*
X-118042Y4827D01*
X-115766Y3081D01*
X-113115Y1982D01*
X-110270Y1608D01*
X-107425Y1982D01*
X-104774Y3081D01*
X-102498Y4827D01*
X-100751Y7104D01*
X-99653Y9755D01*
X-99278Y12600D01*
X-99338Y13057D01*
X-75198Y37198D01*
X-74645Y38024D01*
X-74451Y39000D01*
Y57944D01*
X-41944Y90451D01*
X-12969D01*
X-12768Y89439D01*
X-11884Y88116D01*
X-10561Y87232D01*
X-9000Y86922D01*
X-7439Y87232D01*
X-6116Y88116D01*
X-5232Y89439D01*
X-4922Y91000D01*
X-5232Y92561D01*
X-6116Y93884D01*
X-7439Y94768D01*
X-9000Y95078D01*
X-9470Y94985D01*
X-10024Y95355D01*
X-11000Y95549D01*
X-43000D01*
X-43976Y95355D01*
X-44802Y94802D01*
X-78802Y60802D01*
X-79355Y59975D01*
X-79549Y59000D01*
Y40056D01*
X-100399Y19206D01*
X-101666Y19289D01*
X-102498Y20373D01*
X-104774Y22119D01*
X-107425Y23217D01*
X-110270Y23592D01*
X-113115Y23217D01*
X-115766Y22119D01*
X-118042Y20373D01*
X-119789Y18096D01*
X-120887Y15445D01*
X-120906Y15306D01*
X-122176Y15390D01*
Y98772D01*
X-122176Y100000D01*
X-122176Y100000D01*
X-122176Y100000D01*
X-122176D01*
X-122088Y101234D01*
X-121783Y104333D01*
X-120519Y108499D01*
X-118467Y112339D01*
X-115705Y115705D01*
X-112339Y118467D01*
X-108499Y120519D01*
X-104333Y121783D01*
X-101234Y122088D01*
X-100000Y122176D01*
Y122176D01*
X-100000Y122176D01*
D02*
G37*
%LPC*%
G36*
X78870Y-30404D02*
Y-34530D01*
X82996D01*
X82819Y-33639D01*
X81594Y-31806D01*
X79762Y-30582D01*
X78870Y-30404D01*
D02*
G37*
G36*
X76330D02*
X75438Y-30582D01*
X73606Y-31806D01*
X72382Y-33639D01*
X72204Y-34530D01*
X76330D01*
Y-30404D01*
D02*
G37*
G36*
X103000Y-31212D02*
X101244Y-31561D01*
X99756Y-32556D01*
X98761Y-34044D01*
X98412Y-35800D01*
X98761Y-37556D01*
X99756Y-39045D01*
X101244Y-40039D01*
X103000Y-40388D01*
X104756Y-40039D01*
X106244Y-39045D01*
X107239Y-37556D01*
X107588Y-35800D01*
X107239Y-34044D01*
X106244Y-32556D01*
X104756Y-31561D01*
X103000Y-31212D01*
D02*
G37*
G36*
X-109000Y-14070D02*
X-119604D01*
X-119361Y-15917D01*
X-118158Y-18821D01*
X-116244Y-21314D01*
X-113750Y-23228D01*
X-110847Y-24431D01*
X-109000Y-24674D01*
Y-14070D01*
D02*
G37*
G36*
Y-926D02*
X-110847Y-1169D01*
X-113750Y-2372D01*
X-116244Y-4286D01*
X-118158Y-6780D01*
X-119361Y-9683D01*
X-119604Y-11530D01*
X-109000D01*
Y-926D01*
D02*
G37*
G36*
X-106460D02*
Y-11530D01*
X-95856D01*
X-96099Y-9683D01*
X-97302Y-6780D01*
X-99216Y-4286D01*
X-101709Y-2372D01*
X-104614Y-1169D01*
X-106460Y-926D01*
D02*
G37*
G36*
X-95856Y-14070D02*
X-106460D01*
Y-24674D01*
X-104614Y-24431D01*
X-101709Y-23228D01*
X-99216Y-21314D01*
X-97302Y-18821D01*
X-96099Y-15917D01*
X-95856Y-14070D01*
D02*
G37*
G36*
X103000Y-5812D02*
X101244Y-6161D01*
X99756Y-7156D01*
X98761Y-8644D01*
X98412Y-10400D01*
X98761Y-12156D01*
X99756Y-13645D01*
X101244Y-14639D01*
X103000Y-14988D01*
X104756Y-14639D01*
X106244Y-13645D01*
X107239Y-12156D01*
X107588Y-10400D01*
X107239Y-8644D01*
X106244Y-7156D01*
X104756Y-6161D01*
X103000Y-5812D01*
D02*
G37*
G36*
X25146Y-79252D02*
X18796D01*
Y-84840D01*
X25146D01*
Y-79252D01*
D02*
G37*
G36*
X38000Y-922D02*
X36439Y-1232D01*
X35116Y-2116D01*
X34232Y-3439D01*
X33922Y-5000D01*
X34232Y-6561D01*
X35116Y-7884D01*
X35451Y-8108D01*
Y-47892D01*
X35116Y-48116D01*
X34232Y-49439D01*
X33922Y-51000D01*
X34232Y-52561D01*
X35116Y-53884D01*
X36439Y-54768D01*
X38000Y-55078D01*
X39561Y-54768D01*
X40884Y-53884D01*
X41768Y-52561D01*
X42078Y-51000D01*
X41768Y-49439D01*
X40884Y-48116D01*
X40549Y-47892D01*
Y-8108D01*
X40884Y-7884D01*
X41768Y-6561D01*
X42078Y-5000D01*
X41768Y-3439D01*
X40884Y-2116D01*
X39561Y-1232D01*
X38000Y-922D01*
D02*
G37*
G36*
X-100000Y-80406D02*
X-103822Y-80782D01*
X-107498Y-81897D01*
X-110886Y-83708D01*
X-113855Y-86145D01*
X-116292Y-89114D01*
X-118103Y-92501D01*
X-119218Y-96177D01*
X-119594Y-100000D01*
X-119218Y-103822D01*
X-118103Y-107498D01*
X-116292Y-110886D01*
X-113855Y-113855D01*
X-110886Y-116292D01*
X-107498Y-118103D01*
X-103822Y-119218D01*
X-100000Y-119594D01*
X-96177Y-119218D01*
X-92501Y-118103D01*
X-89114Y-116292D01*
X-86145Y-113855D01*
X-83708Y-110886D01*
X-81897Y-107498D01*
X-80782Y-103822D01*
X-80406Y-100000D01*
X-80782Y-96177D01*
X-81897Y-92501D01*
X-83708Y-89114D01*
X-86145Y-86145D01*
X-89114Y-83708D01*
X-92501Y-81897D01*
X-96177Y-80782D01*
X-100000Y-80406D01*
D02*
G37*
G36*
X100000D02*
X96177Y-80782D01*
X92501Y-81897D01*
X89114Y-83708D01*
X86145Y-86145D01*
X83708Y-89114D01*
X81897Y-92501D01*
X80782Y-96177D01*
X80406Y-100000D01*
X80782Y-103822D01*
X81897Y-107498D01*
X83708Y-110886D01*
X86145Y-113855D01*
X89114Y-116292D01*
X92501Y-118103D01*
X96177Y-119218D01*
X100000Y-119594D01*
X103822Y-119218D01*
X107498Y-118103D01*
X110886Y-116292D01*
X113855Y-113855D01*
X116292Y-110886D01*
X118103Y-107498D01*
X119218Y-103822D01*
X119594Y-100000D01*
X119218Y-96177D01*
X118103Y-92501D01*
X116292Y-89114D01*
X113855Y-86145D01*
X110886Y-83708D01*
X107498Y-81897D01*
X103822Y-80782D01*
X100000Y-80406D01*
D02*
G37*
G36*
X76330Y-37070D02*
X72204D01*
X72382Y-37962D01*
X73606Y-39794D01*
X75438Y-41019D01*
X76330Y-41196D01*
Y-37070D01*
D02*
G37*
G36*
X82996D02*
X78870D01*
Y-41196D01*
X79762Y-41019D01*
X81594Y-39794D01*
X82819Y-37962D01*
X82996Y-37070D01*
D02*
G37*
G36*
X22486Y-19705D02*
X18676D01*
Y-30500D01*
Y-41295D01*
X22486D01*
Y-30500D01*
Y-19705D01*
D02*
G37*
G36*
X28328D02*
X25026D01*
Y-30500D01*
Y-41295D01*
X28328D01*
Y-40255D01*
X33892D01*
Y-20745D01*
X28328D01*
Y-19705D01*
D02*
G37*
G36*
X44612Y51730D02*
X38770D01*
Y45388D01*
X40875D01*
X42305Y45673D01*
X43517Y46483D01*
X44327Y47695D01*
X44612Y49125D01*
Y51730D01*
D02*
G37*
G36*
X3730Y52730D02*
X114D01*
X252Y52034D01*
X1366Y50366D01*
X3034Y49252D01*
X3730Y49114D01*
Y52730D01*
D02*
G37*
G36*
X103000Y19588D02*
X101244Y19239D01*
X99756Y18244D01*
X99291Y17549D01*
X94756D01*
X93780Y17355D01*
X92953Y16802D01*
X61577Y-14574D01*
X61182Y-14496D01*
X59621Y-14806D01*
X58298Y-15690D01*
X57414Y-17013D01*
X57104Y-18574D01*
X57414Y-20135D01*
X58298Y-21458D01*
X59621Y-22342D01*
X61182Y-22652D01*
X62743Y-22342D01*
X64066Y-21458D01*
X64950Y-20135D01*
X65260Y-18574D01*
X65182Y-18179D01*
X71923Y-11437D01*
X73301Y-11855D01*
X73361Y-12156D01*
X74356Y-13645D01*
X75844Y-14639D01*
X77600Y-14988D01*
X79356Y-14639D01*
X80844Y-13645D01*
X81839Y-12156D01*
X82188Y-10400D01*
X81839Y-8644D01*
X80844Y-7156D01*
X79356Y-6161D01*
X79055Y-6102D01*
X78637Y-4724D01*
X95812Y12451D01*
X99291D01*
X99756Y11755D01*
X101244Y10761D01*
X103000Y10412D01*
X104756Y10761D01*
X106244Y11755D01*
X107239Y13244D01*
X107588Y15000D01*
X107239Y16755D01*
X106244Y18244D01*
X104756Y19239D01*
X103000Y19588D01*
D02*
G37*
G36*
X-96832Y48898D02*
X-118628D01*
Y27102D01*
X-96832D01*
Y48898D01*
D02*
G37*
G36*
X40875Y60612D02*
X38770D01*
Y54270D01*
X44612D01*
Y56875D01*
X44327Y58305D01*
X43517Y59517D01*
X42305Y60328D01*
X40875Y60612D01*
D02*
G37*
G36*
X-100000Y119594D02*
X-103822Y119218D01*
X-107498Y118103D01*
X-110886Y116292D01*
X-113855Y113855D01*
X-116292Y110886D01*
X-118103Y107498D01*
X-119218Y103822D01*
X-119594Y100000D01*
X-119218Y96177D01*
X-118103Y92501D01*
X-116292Y89114D01*
X-113855Y86145D01*
X-110886Y83708D01*
X-107498Y81897D01*
X-103822Y80782D01*
X-100000Y80406D01*
X-96177Y80782D01*
X-92501Y81897D01*
X-89114Y83708D01*
X-86145Y86145D01*
X-83708Y89114D01*
X-81897Y92501D01*
X-80782Y96177D01*
X-80406Y100000D01*
X-80782Y103822D01*
X-81897Y107498D01*
X-83708Y110886D01*
X-86145Y113855D01*
X-89114Y116292D01*
X-92501Y118103D01*
X-96177Y119218D01*
X-100000Y119594D01*
D02*
G37*
G36*
X100000D02*
X96177Y119218D01*
X92501Y118103D01*
X89114Y116292D01*
X86145Y113855D01*
X83708Y110886D01*
X81897Y107498D01*
X80782Y103822D01*
X80406Y100000D01*
X80782Y96177D01*
X81897Y92501D01*
X83708Y89114D01*
X86145Y86145D01*
X89114Y83708D01*
X92501Y81897D01*
X96177Y80782D01*
X100000Y80406D01*
X103822Y80782D01*
X107498Y81897D01*
X110886Y83708D01*
X113855Y86145D01*
X116292Y89114D01*
X118103Y92501D01*
X119218Y96177D01*
X119594Y100000D01*
X119218Y103822D01*
X118103Y107498D01*
X116292Y110886D01*
X113855Y113855D01*
X110886Y116292D01*
X107498Y118103D01*
X103822Y119218D01*
X100000Y119594D01*
D02*
G37*
G36*
X3730Y58886D02*
X3034Y58748D01*
X1366Y57634D01*
X252Y55967D01*
X114Y55270D01*
X3730D01*
Y58886D01*
D02*
G37*
G36*
X6270D02*
Y55270D01*
X9886D01*
X9748Y55967D01*
X8634Y57634D01*
X6967Y58748D01*
X6270Y58886D01*
D02*
G37*
G36*
X-81270Y-2270D02*
X-87612D01*
Y-4375D01*
X-87327Y-5805D01*
X-86517Y-7017D01*
X-85305Y-7827D01*
X-83875Y-8112D01*
X-81270D01*
Y-2270D01*
D02*
G37*
G36*
X-72388D02*
X-78730D01*
Y-8112D01*
X-76125D01*
X-74695Y-7827D01*
X-73482Y-7017D01*
X-72673Y-5805D01*
X-72388Y-4375D01*
Y-2270D01*
D02*
G37*
G36*
X-63770D02*
X-70111D01*
Y-4375D01*
X-69827Y-5805D01*
X-69017Y-7017D01*
X-67805Y-7827D01*
X-66375Y-8112D01*
X-63770D01*
Y-2270D01*
D02*
G37*
G36*
X-54888D02*
X-61230D01*
Y-8112D01*
X-58625D01*
X-57195Y-7827D01*
X-55982Y-7017D01*
X-55172Y-5805D01*
X-54888Y-4375D01*
Y-2270D01*
D02*
G37*
G36*
X-15471Y10382D02*
X-19087D01*
Y6766D01*
X-18391Y6904D01*
X-16724Y8018D01*
X-15610Y9686D01*
X-15471Y10382D01*
D02*
G37*
G36*
X5382Y2945D02*
X-26528D01*
X-27503Y2751D01*
X-28330Y2199D01*
X-36389Y-5860D01*
X-37559Y-5235D01*
X-37388Y-4375D01*
Y-2270D01*
X-43730D01*
Y-8112D01*
X-41125D01*
X-39933Y-7874D01*
X-39312Y-8408D01*
X-38998Y-8885D01*
X-39157Y-9684D01*
Y-11996D01*
X-39492Y-12220D01*
X-40376Y-13543D01*
X-40686Y-15104D01*
X-40376Y-16665D01*
X-39492Y-17988D01*
X-38169Y-18872D01*
X-36608Y-19182D01*
X-36434Y-19147D01*
X-35347Y-20226D01*
Y-48202D01*
X-35153Y-49177D01*
X-34600Y-50004D01*
X-27906Y-56698D01*
X-27079Y-57251D01*
X-26104Y-57445D01*
X-8896D01*
X-7921Y-57251D01*
X-7094Y-56698D01*
X-448Y-50052D01*
X105Y-49225D01*
X222Y-48639D01*
X1149Y-48122D01*
X1569Y-48059D01*
X1951Y-48344D01*
Y-70444D01*
X-9747Y-82142D01*
X-10920Y-81656D01*
Y-80292D01*
X-24080D01*
Y-91451D01*
X-27944D01*
X-34000Y-85395D01*
X-33921Y-85000D01*
X-34232Y-83439D01*
X-35116Y-82116D01*
X-36439Y-81232D01*
X-38000Y-80922D01*
X-39561Y-81232D01*
X-40884Y-82116D01*
X-41768Y-83439D01*
X-42078Y-85000D01*
X-41768Y-86561D01*
X-40884Y-87884D01*
X-39561Y-88768D01*
X-38000Y-89079D01*
X-37605Y-89000D01*
X-30802Y-95802D01*
X-29976Y-96355D01*
X-29000Y-96549D01*
X-6000D01*
X-5024Y-96355D01*
X-4198Y-95802D01*
X8733Y-82872D01*
X9906Y-83358D01*
Y-84840D01*
X16256D01*
Y-79252D01*
X13581D01*
X12549Y-78000D01*
Y-54108D01*
X12884Y-53884D01*
X13768Y-52561D01*
X14078Y-51000D01*
X13768Y-49439D01*
X12884Y-48116D01*
X11561Y-47232D01*
X10000Y-46922D01*
X8966Y-47127D01*
X8203Y-45984D01*
X8268Y-45887D01*
X8578Y-44326D01*
X8268Y-42765D01*
X7439Y-41525D01*
X7535Y-41090D01*
X7893Y-40255D01*
X12834D01*
Y-41295D01*
X16136D01*
Y-30500D01*
Y-19705D01*
X13351D01*
Y-5024D01*
X13157Y-4049D01*
X12605Y-3222D01*
X7184Y2199D01*
X6357Y2751D01*
X5382Y2945D01*
D02*
G37*
G36*
X-46270Y-2270D02*
X-52612D01*
Y-4375D01*
X-52327Y-5805D01*
X-51518Y-7017D01*
X-50305Y-7827D01*
X-48875Y-8112D01*
X-46270D01*
Y-2270D01*
D02*
G37*
%LPD*%
G36*
X8253Y-6080D02*
Y-20745D01*
X-6201D01*
Y-19000D01*
X-6395Y-18025D01*
X-6947Y-17198D01*
X-19146Y-4999D01*
X-19068Y-4604D01*
X-19303Y-3423D01*
X-18562Y-2153D01*
X4326D01*
X8253Y-6080D01*
D02*
G37*
%LPC*%
G36*
X0Y-10922D02*
X-1561Y-11232D01*
X-2884Y-12116D01*
X-3768Y-13440D01*
X-4078Y-15000D01*
X-3768Y-16561D01*
X-2884Y-17884D01*
X-1561Y-18768D01*
X0Y-19079D01*
X1561Y-18768D01*
X2884Y-17884D01*
X3768Y-16561D01*
X4078Y-15000D01*
X3768Y-13440D01*
X2884Y-12116D01*
X1561Y-11232D01*
X0Y-10922D01*
D02*
G37*
%LPD*%
D10*
X-48428Y47000D02*
D03*
X-57500D02*
D03*
D11*
X17526Y-103750D02*
D03*
X-17500D02*
D03*
X17526Y-86110D02*
D03*
X-17500D02*
D03*
D12*
X-28250Y30734D02*
D03*
X-21750D02*
D03*
X-15250D02*
D03*
X-2250D02*
D03*
X-8750D02*
D03*
X4250D02*
D03*
X10802D02*
D03*
X17406D02*
D03*
X23756D02*
D03*
X30360D02*
D03*
X-28250Y-30500D02*
D03*
X-21750D02*
D03*
X-15250D02*
D03*
X-8750D02*
D03*
X-2250D02*
D03*
X4250D02*
D03*
X10802D02*
D03*
X17406D02*
D03*
X23756D02*
D03*
X30360D02*
D03*
D13*
X-80000Y16000D02*
D03*
Y-1000D02*
D03*
X-62500Y16000D02*
D03*
Y-1000D02*
D03*
X-45000Y16000D02*
D03*
Y-1000D02*
D03*
D14*
X37500Y53000D02*
D03*
X20500D02*
D03*
D15*
X-80000Y16000D02*
X-62500D01*
X17406Y-30500D02*
X23756D01*
Y-50324D02*
Y-30500D01*
Y-50324D02*
X33662Y-60230D01*
X53170D01*
X77600Y-35800D01*
X-15250Y19780D02*
Y30734D01*
X-21750D02*
Y44418D01*
X6444Y72612D01*
X68802D01*
X77600Y63814D01*
Y15000D02*
Y63814D01*
X-22812Y-42991D02*
X-21750Y-41929D01*
Y-30500D01*
X-15250Y-47552D02*
X-13748Y-49054D01*
X-15250Y-47552D02*
Y-30500D01*
X15970Y53000D02*
X20500D01*
X10802Y47832D02*
X15970Y53000D01*
X10802Y30734D02*
Y47832D01*
X-32798Y-19590D02*
X-29750Y-16542D01*
Y-10500D01*
X-36608Y-15104D02*
Y-9684D01*
X-26528Y396D01*
X5382D01*
X10802Y-5024D01*
Y-30500D02*
Y-5024D01*
X-17500Y-109564D02*
Y-103750D01*
Y-109564D02*
X-14510Y-112554D01*
X17500D01*
X94756Y15000D02*
X103000D01*
X61182Y-18574D02*
X94756Y15000D01*
X3944Y7588D02*
X17406Y-5874D01*
Y-30500D02*
Y-5874D01*
X37500Y21244D02*
Y53000D01*
X27908Y11652D02*
X37500Y21244D01*
X-20357Y11652D02*
X27908D01*
X-23146Y-4604D02*
X-8750Y-19000D01*
Y-30500D02*
Y-19000D01*
X17500Y-95282D02*
X17526Y-95308D01*
Y-103750D02*
Y-95308D01*
X-80000Y-1000D02*
X-62500D01*
X-45000D01*
X-42588D02*
X-34000Y7588D01*
X-45000Y-1000D02*
X-42588D01*
X-34000Y7588D02*
X3944D01*
X-62500Y16000D02*
X-53500Y7000D01*
X-39538D01*
X-35450Y11088D01*
X-28912D01*
X-21000Y19000D01*
Y19780D01*
X-15250D01*
X-62500Y16000D02*
X-57500Y21000D01*
Y47000D01*
X38000Y-51000D02*
Y-5000D01*
X-29000Y-94000D02*
X-6000D01*
X10000Y-78000D01*
Y-51000D01*
X77600Y63814D02*
X115000Y26414D01*
X17500Y-112554D02*
X46446D01*
X115000Y-44000D01*
Y26414D01*
X-107730Y-12800D02*
X-99800D01*
X-88000Y-1000D01*
X-80000D01*
X-110270Y12600D02*
X-103400D01*
X-77000Y39000D01*
Y59000D01*
X-43000Y93000D01*
X-11000D01*
X-9000Y91000D01*
X-17500Y-86110D02*
X-10110D01*
X4500Y-71500D01*
Y-44326D01*
X-32798Y-48202D02*
Y-19590D01*
Y-48202D02*
X-26104Y-54896D01*
X-8896D01*
X-2250Y-48250D01*
Y-30500D01*
X-110270Y-45730D02*
Y-38200D01*
Y-45730D02*
X-52250Y-103750D01*
X-17500D01*
X-38000Y-85000D02*
X-29000Y-94000D01*
D16*
X-22596Y43572D02*
X-21750Y44418D01*
X-48000Y19000D02*
X-45000Y16000D01*
X-48000Y19000D02*
Y43572D01*
X-22596D01*
D17*
X103000Y15000D02*
D03*
X77600D02*
D03*
X103000Y-10400D02*
D03*
X77600D02*
D03*
X103000Y-35800D02*
D03*
X77600D02*
D03*
D18*
X-100000Y-100000D02*
D03*
X100000D02*
D03*
Y100000D02*
D03*
X-100000D02*
D03*
D19*
X-107730Y38000D02*
D03*
D20*
X-110270Y12600D02*
D03*
X-107730Y-12800D02*
D03*
X-110270Y-38200D02*
D03*
D21*
X-22812Y-42991D02*
D03*
X-13748Y-49054D02*
D03*
X-29750Y-10500D02*
D03*
X-36608Y-15104D02*
D03*
X17500Y-112554D02*
D03*
X61182Y-18574D02*
D03*
X-20357Y11652D02*
D03*
X-23146Y-4604D02*
D03*
X17500Y-95282D02*
D03*
X38000Y-5000D02*
D03*
Y-51000D02*
D03*
X4500Y-44326D02*
D03*
X10000Y-51000D02*
D03*
X5000Y54000D02*
D03*
X0Y-15000D02*
D03*
X-9000Y91000D02*
D03*
X-38000Y-85000D02*
D03*
M02*
