G04 Layer_Physical_Order=2*
G04 Layer_Color=16711680*
%FSLAX44Y44*%
%MOMM*%
G71*
G01*
G75*
%ADD10R,0.6350X1.2700*%
%ADD11R,1.0160X0.8636*%
G04:AMPARAMS|DCode=13|XSize=1mm|YSize=0.9mm|CornerRadius=0.1125mm|HoleSize=0mm|Usage=FLASHONLY|Rotation=0.000|XOffset=0mm|YOffset=0mm|HoleType=Round|Shape=RoundedRectangle|*
%AMROUNDEDRECTD13*
21,1,1.0000,0.6750,0,0,0.0*
21,1,0.7750,0.9000,0,0,0.0*
1,1,0.2250,0.3875,-0.3375*
1,1,0.2250,-0.3875,-0.3375*
1,1,0.2250,-0.3875,0.3375*
1,1,0.2250,0.3875,0.3375*
%
%ADD13ROUNDEDRECTD13*%
%ADD15C,0.2000*%
%ADD17C,3.6000*%
%ADD18R,1.5000X1.5000*%
%ADD19C,1.5000*%
%ADD20C,0.5000*%
%ADD21R,0.6000X1.5500*%
%ADD22R,1.2000X1.8000*%
%ADD23O,0.5500X1.6500*%
%ADD24O,1.6500X0.5500*%
%ADD25C,1.6000*%
G36*
X94701Y46664D02*
Y-14650D01*
X94895Y-15626D01*
X95448Y-16453D01*
X99674Y-20679D01*
X98745Y-22920D01*
X98418Y-25401D01*
X98745Y-27880D01*
X99702Y-30192D01*
X101225Y-32176D01*
X103209Y-33699D01*
X105520Y-34656D01*
X108000Y-34983D01*
X110480Y-34656D01*
X112791Y-33699D01*
X114776Y-32176D01*
X114834Y-32099D01*
X116037Y-32508D01*
Y-65270D01*
X112704Y-68603D01*
X62089D01*
X61563Y-67333D01*
X73144Y-55752D01*
X73697Y-54925D01*
X73891Y-53949D01*
Y-33322D01*
X74637Y-33069D01*
X75161Y-32977D01*
X77285Y-34607D01*
X79849Y-35669D01*
X81330Y-35864D01*
Y-25401D01*
Y-14937D01*
X79849Y-15132D01*
X77285Y-16194D01*
X75161Y-17823D01*
X74637Y-17732D01*
X73891Y-17479D01*
Y-12315D01*
X77878Y-8327D01*
X80120Y-9256D01*
X82600Y-9582D01*
X85080Y-9256D01*
X87391Y-8299D01*
X89376Y-6776D01*
X90899Y-4791D01*
X91856Y-2481D01*
X92182Y-0D01*
X91856Y2480D01*
X90899Y4791D01*
X89376Y6775D01*
X87391Y8298D01*
X85080Y9255D01*
X82600Y9581D01*
X80120Y9255D01*
X77809Y8298D01*
X75825Y6775D01*
X74302Y4791D01*
X73345Y2480D01*
X73018Y-0D01*
X73345Y-2481D01*
X74274Y-4723D01*
X71882Y-7114D01*
X70612Y-6588D01*
Y-5770D01*
X63000D01*
Y-3230D01*
X70612D01*
Y-1125D01*
X70328Y305D01*
X69517Y1517D01*
X68305Y2327D01*
X68028Y2383D01*
X67921Y3431D01*
X67958Y3691D01*
X68767Y4232D01*
X69347Y5100D01*
X69551Y6125D01*
Y12151D01*
X71901D01*
X72876Y12345D01*
X73703Y12898D01*
X77878Y17073D01*
X80120Y16144D01*
X82600Y15818D01*
X85080Y16144D01*
X87391Y17101D01*
X89376Y18624D01*
X90899Y20608D01*
X91856Y22919D01*
X92182Y25399D01*
X91856Y27880D01*
X90899Y30190D01*
X89376Y32175D01*
X87391Y33698D01*
X85080Y34655D01*
X82600Y34981D01*
X80120Y34655D01*
X77809Y33698D01*
X75825Y32175D01*
X74302Y30190D01*
X73345Y27880D01*
X73018Y25399D01*
X73345Y22919D01*
X74274Y20677D01*
X71270Y17674D01*
X70000Y18200D01*
Y21205D01*
X70327Y21695D01*
X70611Y23125D01*
Y25230D01*
X63000D01*
Y27770D01*
X70611D01*
Y29875D01*
X70327Y31305D01*
X69580Y32423D01*
X69146Y33520D01*
Y33660D01*
X70030Y34983D01*
X70340Y36544D01*
X70030Y38105D01*
X69146Y39428D01*
X67823Y40312D01*
X66262Y40622D01*
X64701Y40312D01*
X63378Y39428D01*
X63154Y39093D01*
X52546D01*
X51571Y38899D01*
X50744Y38346D01*
X45664Y33266D01*
X45111Y32439D01*
X45090Y32333D01*
X36500D01*
X34842Y32003D01*
X33436Y31064D01*
X32497Y29658D01*
X32167Y28000D01*
X32497Y26342D01*
X33436Y24936D01*
X33886Y24635D01*
Y23365D01*
X33436Y23064D01*
X32497Y21658D01*
X32167Y20000D01*
X32497Y18342D01*
X33017Y17563D01*
X32845Y15920D01*
X32686Y15814D01*
X31819Y14516D01*
X30549Y14901D01*
Y33092D01*
X31064Y33436D01*
X32003Y34842D01*
X32333Y36500D01*
Y47500D01*
X32039Y48981D01*
X32364Y49832D01*
X32587Y50251D01*
X91114D01*
X94701Y46664D01*
D02*
G37*
G36*
X-28803Y54308D02*
X-29002Y53308D01*
X-28692Y51747D01*
X-28715Y51691D01*
X-29658Y51503D01*
X-31064Y50564D01*
X-32003Y49158D01*
X-32333Y47500D01*
Y37670D01*
X-33603Y37144D01*
X-36261Y39802D01*
X-37088Y40355D01*
X-38064Y40549D01*
X-100000D01*
Y47000D01*
X-99025Y47711D01*
X-38252D01*
X-37277Y47905D01*
X-36450Y48458D01*
X-29974Y54934D01*
X-28803Y54308D01*
D02*
G37*
G36*
X-37272Y33603D02*
X-37798Y32333D01*
X-47500D01*
X-49158Y32003D01*
X-50564Y31064D01*
X-51503Y29658D01*
X-51833Y28000D01*
X-51503Y26342D01*
X-50564Y24936D01*
X-50114Y24635D01*
Y23365D01*
X-50564Y23064D01*
X-51503Y21658D01*
X-51833Y20000D01*
X-51503Y18342D01*
X-50564Y16936D01*
X-50114Y16635D01*
Y15365D01*
X-50564Y15064D01*
X-51503Y13658D01*
X-51833Y12000D01*
X-51503Y10342D01*
X-50983Y9563D01*
X-51155Y7920D01*
X-51314Y7814D01*
X-52483Y6064D01*
X-52641Y5270D01*
X-42000D01*
X-31359D01*
X-31517Y6064D01*
X-32686Y7814D01*
X-32845Y7920D01*
X-33017Y9563D01*
X-32497Y10342D01*
X-32437Y10640D01*
X-31222Y11009D01*
X-25750Y5537D01*
X-25828Y5142D01*
X-25518Y3581D01*
X-24634Y2258D01*
X-23311Y1374D01*
X-21750Y1064D01*
X-20189Y1374D01*
X-18866Y2258D01*
X-17982Y3581D01*
X-17938Y3801D01*
X-16579Y4420D01*
X-15018Y4110D01*
X-13457Y4420D01*
X-12134Y5304D01*
X-11250Y6627D01*
X-10940Y8188D01*
X-11250Y9749D01*
X-12134Y11072D01*
X-13457Y11956D01*
X-15018Y12266D01*
X-15413Y12188D01*
X-30616Y27391D01*
X-30090Y28661D01*
X-6382D01*
X-5407Y28855D01*
X-4580Y29408D01*
X-2198Y31790D01*
X-1645Y32617D01*
X-1566Y33015D01*
X-936Y33436D01*
X-635Y33886D01*
X635D01*
X936Y33436D01*
X2342Y32497D01*
X4000Y32167D01*
X5658Y32497D01*
X7064Y33436D01*
X7365Y33886D01*
X8635D01*
X8936Y33436D01*
X10342Y32497D01*
X12000Y32167D01*
X13658Y32497D01*
X15064Y33436D01*
X15287Y33769D01*
X16553Y33844D01*
X16879Y33520D01*
X16936Y33436D01*
X17025Y33377D01*
X17451Y32954D01*
Y24446D01*
X11197Y18192D01*
X10802Y18270D01*
X9241Y17960D01*
X7918Y17076D01*
X7034Y15753D01*
X6724Y14192D01*
X7034Y12631D01*
X7918Y11308D01*
X9241Y10424D01*
X10802Y10114D01*
X12363Y10424D01*
X13686Y11308D01*
X14570Y12631D01*
X14880Y14192D01*
X14802Y14587D01*
X21802Y21588D01*
X22355Y22414D01*
X22549Y23390D01*
Y33092D01*
X23064Y33436D01*
X23287Y33769D01*
X24553Y33844D01*
X24879Y33520D01*
X24936Y33436D01*
X25024Y33377D01*
X25451Y32954D01*
Y12454D01*
X16022Y3025D01*
X-5642D01*
X-5866Y3360D01*
X-7189Y4244D01*
X-8750Y4554D01*
X-10310Y4244D01*
X-11634Y3360D01*
X-12518Y2037D01*
X-12828Y476D01*
X-12518Y-1085D01*
X-11634Y-2408D01*
X-10310Y-3292D01*
X-8750Y-3602D01*
X-7189Y-3292D01*
X-5866Y-2408D01*
X-5642Y-2073D01*
X17078D01*
X18053Y-1879D01*
X18880Y-1326D01*
X29802Y9596D01*
X30178Y10158D01*
X31270Y10104D01*
X31499Y10023D01*
X31517Y9936D01*
X32686Y8186D01*
X32238Y7005D01*
X31866Y6549D01*
X31210D01*
X30235Y6355D01*
X29408Y5802D01*
X28855Y4975D01*
X28661Y4000D01*
Y-9451D01*
X3904D01*
X2928Y-9645D01*
X2102Y-10198D01*
X-5152Y-17451D01*
X-33092D01*
X-33436Y-16936D01*
X-33886Y-16635D01*
Y-15365D01*
X-33436Y-15064D01*
X-32497Y-13658D01*
X-32167Y-12000D01*
X-32497Y-10342D01*
X-33436Y-8936D01*
X-33886Y-8635D01*
Y-7365D01*
X-33436Y-7064D01*
X-32497Y-5658D01*
X-32167Y-4000D01*
X-32497Y-2342D01*
X-33017Y-1563D01*
X-32845Y80D01*
X-32686Y186D01*
X-31517Y1936D01*
X-31359Y2730D01*
X-42000D01*
X-52641D01*
X-52483Y1936D01*
X-51314Y186D01*
X-51155Y80D01*
X-50983Y-1563D01*
X-51503Y-2342D01*
X-51833Y-4000D01*
X-51503Y-5658D01*
X-50564Y-7064D01*
X-50114Y-7365D01*
Y-8635D01*
X-50564Y-8936D01*
X-51503Y-10342D01*
X-51833Y-12000D01*
X-51545Y-13451D01*
X-52069Y-13939D01*
X-52592Y-14199D01*
X-53094Y-13698D01*
X-53920Y-13145D01*
X-54896Y-12951D01*
X-56449D01*
Y-12125D01*
X-56561Y-11561D01*
X-56000Y-11000D01*
Y-3795D01*
X-55673Y-3305D01*
X-55388Y-1875D01*
Y230D01*
X-70612D01*
Y-1875D01*
X-70328Y-3305D01*
X-70000Y-3796D01*
Y-11000D01*
X-69439Y-11561D01*
X-69552Y-12125D01*
Y-12951D01*
X-86300D01*
X-87275Y-13145D01*
X-88102Y-13698D01*
X-104661Y-30256D01*
X-106651Y-29432D01*
X-109000Y-29122D01*
X-111349Y-29432D01*
X-113539Y-30339D01*
X-115339Y-31720D01*
X-115881Y-31624D01*
X-116609Y-31377D01*
Y-21217D01*
X-115339Y-20591D01*
X-114063Y-21570D01*
X-111621Y-22582D01*
X-110270Y-22759D01*
Y-12800D01*
Y-2841D01*
X-111621Y-3018D01*
X-114063Y-4030D01*
X-115339Y-5009D01*
X-116609Y-4383D01*
Y5777D01*
X-115881Y6024D01*
X-115339Y6120D01*
X-113539Y4739D01*
X-111349Y3832D01*
X-109000Y3522D01*
X-106651Y3832D01*
X-104461Y4739D01*
X-102581Y6181D01*
X-101139Y8061D01*
X-100232Y10250D01*
X-99922Y12600D01*
X-100232Y14949D01*
X-101139Y17139D01*
X-102581Y19019D01*
X-104461Y20461D01*
X-106651Y21368D01*
X-109000Y21678D01*
X-111349Y21368D01*
X-113539Y20461D01*
X-115339Y19080D01*
X-115881Y19176D01*
X-116609Y19423D01*
Y29000D01*
X-100000D01*
Y35451D01*
X-39120D01*
X-37272Y33603D01*
D02*
G37*
G36*
X56000Y-17000D02*
X56561Y-17561D01*
X56449Y-18125D01*
Y-24875D01*
X56652Y-25899D01*
X57233Y-26768D01*
X58101Y-27348D01*
X59125Y-27552D01*
X66875D01*
X67523Y-27423D01*
X68540Y-28014D01*
X68793Y-28278D01*
Y-52893D01*
X58163Y-63523D01*
X-11422D01*
X-17451Y-57494D01*
Y-50908D01*
X-16936Y-50564D01*
X-16635Y-50114D01*
X-15365D01*
X-15064Y-50564D01*
X-13658Y-51503D01*
X-12000Y-51833D01*
X-10342Y-51503D01*
X-8936Y-50564D01*
X-8635Y-50114D01*
X-7365D01*
X-7064Y-50564D01*
X-5658Y-51503D01*
X-4000Y-51833D01*
X-2342Y-51503D01*
X-936Y-50564D01*
X-635Y-50114D01*
X635D01*
X936Y-50564D01*
X2342Y-51503D01*
X4000Y-51833D01*
X5658Y-51503D01*
X7064Y-50564D01*
X7365Y-50114D01*
X8635D01*
X8936Y-50564D01*
X9257Y-50779D01*
X9337Y-52082D01*
X8237Y-53182D01*
X7842Y-53104D01*
X6281Y-53414D01*
X4958Y-54298D01*
X4074Y-55621D01*
X3764Y-57182D01*
X4074Y-58743D01*
X4958Y-60066D01*
X6281Y-60950D01*
X7842Y-61260D01*
X9403Y-60950D01*
X10726Y-60066D01*
X11610Y-58743D01*
X11920Y-57182D01*
X11842Y-56787D01*
X13802Y-54826D01*
X14355Y-54000D01*
X14549Y-53024D01*
Y-50908D01*
X15064Y-50564D01*
X15365Y-50114D01*
X16635D01*
X16936Y-50564D01*
X18342Y-51503D01*
X20000Y-51833D01*
X21658Y-51503D01*
X23064Y-50564D01*
X23365Y-50114D01*
X24635D01*
X24936Y-50564D01*
X26342Y-51503D01*
X28000Y-51833D01*
X29658Y-51503D01*
X31064Y-50564D01*
X32003Y-49158D01*
X32333Y-47500D01*
Y-36500D01*
X32003Y-34842D01*
X31064Y-33436D01*
X29658Y-32497D01*
X28000Y-32167D01*
X26342Y-32497D01*
X24936Y-33436D01*
X24635Y-33886D01*
X23365D01*
X23064Y-33436D01*
X21658Y-32497D01*
X20000Y-32167D01*
X18342Y-32497D01*
X16936Y-33436D01*
X16635Y-33886D01*
X15365D01*
X15064Y-33436D01*
X13658Y-32497D01*
X12000Y-32167D01*
X10342Y-32497D01*
X8936Y-33436D01*
X8635Y-33886D01*
X7365D01*
X7064Y-33436D01*
X5658Y-32497D01*
X4000Y-32167D01*
X2342Y-32497D01*
X936Y-33436D01*
X635Y-33886D01*
X-635D01*
X-936Y-33436D01*
X-2342Y-32497D01*
X-4000Y-32167D01*
X-5658Y-32497D01*
X-7064Y-33436D01*
X-7365Y-33886D01*
X-8635D01*
X-8936Y-33436D01*
X-10342Y-32497D01*
X-12000Y-32167D01*
X-13658Y-32497D01*
X-15064Y-33436D01*
X-15365Y-33886D01*
X-16635D01*
X-16936Y-33436D01*
X-18342Y-32497D01*
X-20000Y-32167D01*
X-21658Y-32497D01*
X-23064Y-33436D01*
X-23365Y-33886D01*
X-24635D01*
X-24936Y-33436D01*
X-26342Y-32497D01*
X-28000Y-32167D01*
X-29658Y-32497D01*
X-31064Y-33436D01*
X-32003Y-34842D01*
X-32333Y-36500D01*
Y-47500D01*
X-32003Y-49158D01*
X-31064Y-50564D01*
X-30549Y-50908D01*
Y-56937D01*
X-31819Y-57322D01*
X-32012Y-57034D01*
X-55050Y-33995D01*
X-55877Y-33443D01*
X-56852Y-33249D01*
X-56906D01*
X-57585Y-31979D01*
X-57478Y-31819D01*
X-57225Y-30549D01*
X-50908D01*
X-50564Y-31064D01*
X-49158Y-32003D01*
X-47500Y-32333D01*
X-36500D01*
X-34842Y-32003D01*
X-33436Y-31064D01*
X-32497Y-29658D01*
X-32167Y-28000D01*
X-32497Y-26342D01*
X-33436Y-24936D01*
X-33769Y-24713D01*
X-33844Y-23447D01*
X-33520Y-23121D01*
X-33436Y-23064D01*
X-33377Y-22975D01*
X-32954Y-22549D01*
X-4096D01*
X-3121Y-22355D01*
X-2294Y-21802D01*
X4960Y-14549D01*
X33092D01*
X33436Y-15064D01*
X33886Y-15365D01*
Y-16635D01*
X33436Y-16936D01*
X32497Y-18342D01*
X32167Y-20000D01*
X32497Y-21658D01*
X33436Y-23064D01*
X33886Y-23365D01*
Y-24635D01*
X33436Y-24936D01*
X32497Y-26342D01*
X32167Y-28000D01*
X32497Y-29658D01*
X33436Y-31064D01*
X34842Y-32003D01*
X36500Y-32333D01*
X47500D01*
X49158Y-32003D01*
X50564Y-31064D01*
X51503Y-29658D01*
X51833Y-28000D01*
X51503Y-26342D01*
X50564Y-24936D01*
X50114Y-24635D01*
Y-23365D01*
X50564Y-23064D01*
X51503Y-21658D01*
X51833Y-20000D01*
X51503Y-18342D01*
X50564Y-16936D01*
X50231Y-16713D01*
X50156Y-15447D01*
X50479Y-15121D01*
X50564Y-15064D01*
X50623Y-14975D01*
X51046Y-14549D01*
X56000D01*
Y-17000D01*
D02*
G37*
G36*
X-69552Y-18875D02*
X-69348Y-19899D01*
X-68768Y-20768D01*
X-67899Y-21348D01*
X-67748Y-21378D01*
X-67330Y-22756D01*
X-68147Y-23573D01*
X-68699Y-24400D01*
X-68893Y-25376D01*
Y-32731D01*
X-68699Y-33707D01*
X-68147Y-34534D01*
X-66747Y-35934D01*
X-67233Y-37107D01*
X-84554D01*
X-84778Y-36772D01*
X-86101Y-35888D01*
X-87662Y-35578D01*
X-89223Y-35888D01*
X-90546Y-36772D01*
X-91430Y-38095D01*
X-91740Y-39656D01*
X-91430Y-41217D01*
X-90546Y-42540D01*
X-89223Y-43424D01*
X-87662Y-43734D01*
X-86101Y-43424D01*
X-84778Y-42540D01*
X-84554Y-42205D01*
X-59000D01*
X-55365Y-45840D01*
X-55851Y-47013D01*
X-103615D01*
X-104046Y-45743D01*
X-102581Y-44619D01*
X-101139Y-42739D01*
X-100232Y-40550D01*
X-99922Y-38200D01*
X-100232Y-35851D01*
X-101056Y-33861D01*
X-85244Y-18049D01*
X-69552D01*
Y-18875D01*
D02*
G37*
G36*
X-100000Y122176D02*
X-33000D01*
Y103500D01*
X-18000D01*
Y122176D01*
X23000D01*
Y103500D01*
X38000D01*
Y122176D01*
X98772D01*
X100000Y122176D01*
X100000Y122176D01*
X100000Y122176D01*
Y122176D01*
X101234Y122088D01*
X104333Y121783D01*
X108499Y120519D01*
X112339Y118467D01*
X115705Y115705D01*
X118467Y112339D01*
X120519Y108499D01*
X121783Y104333D01*
X122088Y101234D01*
X122176Y100000D01*
X122176D01*
X122176Y100000D01*
Y16182D01*
X121001Y15824D01*
X120906Y15842D01*
X120388Y16616D01*
X116327Y20677D01*
X117256Y22919D01*
X117582Y25399D01*
X117256Y27880D01*
X116299Y30190D01*
X114776Y32175D01*
X112791Y33698D01*
X110480Y34655D01*
X108000Y34981D01*
X105520Y34655D01*
X103209Y33698D01*
X101225Y32175D01*
X101002Y31884D01*
X99799Y32292D01*
Y47720D01*
X99605Y48695D01*
X99052Y49522D01*
X93972Y54602D01*
X93146Y55155D01*
X92170Y55349D01*
X4000D01*
X3025Y55155D01*
X2198Y54602D01*
X1645Y53775D01*
X1451Y52800D01*
Y50908D01*
X936Y50564D01*
X713Y50231D01*
X-553Y50156D01*
X-879Y50479D01*
X-936Y50564D01*
X-1025Y50623D01*
X-1451Y51046D01*
Y52800D01*
X-1645Y53775D01*
X-2198Y54602D01*
X-9951Y62356D01*
Y65750D01*
X-8000D01*
Y65750D01*
X-7000D01*
Y65750D01*
X1960D01*
Y64710D01*
X6230D01*
Y75000D01*
Y85290D01*
X1960D01*
Y84250D01*
X49D01*
Y85312D01*
X-145Y86287D01*
X-698Y87114D01*
X-4385Y90802D01*
X-5212Y91355D01*
X-6188Y91549D01*
X-17000D01*
X-17975Y91355D01*
X-18802Y90802D01*
X-23454Y86150D01*
X-24007Y85323D01*
X-24201Y84348D01*
Y65255D01*
X-91920D01*
X-92144Y65590D01*
X-93467Y66474D01*
X-95028Y66784D01*
X-96589Y66474D01*
X-97912Y65590D01*
X-98796Y64267D01*
X-99106Y62706D01*
X-98796Y61145D01*
X-97912Y59822D01*
X-96589Y58938D01*
X-95028Y58628D01*
X-93467Y58938D01*
X-92144Y59822D01*
X-91920Y60157D01*
X-33619D01*
X-33133Y58984D01*
X-39308Y52809D01*
X-116110D01*
X-117085Y52615D01*
X-117912Y52062D01*
X-120906Y49069D01*
X-121140Y49083D01*
X-122176Y49482D01*
Y98772D01*
X-122176Y100000D01*
X-122176Y100000D01*
X-122176Y100000D01*
X-122176D01*
X-122088Y101234D01*
X-121783Y104333D01*
X-120519Y108499D01*
X-118467Y112339D01*
X-115705Y115705D01*
X-112339Y118467D01*
X-108499Y120519D01*
X-104333Y121783D01*
X-101234Y122088D01*
X-100000Y122176D01*
Y122176D01*
X-100000Y122176D01*
D02*
G37*
G36*
X-117802Y-51364D02*
X-116975Y-51917D01*
X-116000Y-52111D01*
X-54174D01*
X-49445Y-56840D01*
X-49971Y-58110D01*
X-53809D01*
Y-67000D01*
X-55079D01*
Y-68270D01*
X-60794D01*
Y-75890D01*
X-60794D01*
Y-76110D01*
X-60794D01*
Y-83730D01*
X-55079D01*
Y-85000D01*
X-53809D01*
Y-93890D01*
X-49364D01*
Y-92850D01*
X-40244D01*
Y-86834D01*
X-40198Y-86803D01*
X-37346Y-83950D01*
X-36793Y-83124D01*
X-36599Y-82148D01*
Y-69137D01*
X-36463Y-69033D01*
X-35329Y-68670D01*
X-25762Y-78237D01*
X-25146Y-79252D01*
Y-84840D01*
X-17526D01*
X-9906D01*
Y-83814D01*
X-8733Y-83328D01*
X10104Y-102164D01*
X10359Y-102335D01*
X10586Y-102542D01*
X10920Y-102745D01*
Y-109568D01*
X24080D01*
Y-98747D01*
X24950Y-98166D01*
X25834Y-96843D01*
X26144Y-95282D01*
X25834Y-93721D01*
X24950Y-92398D01*
X24080Y-91817D01*
Y-80292D01*
X10920D01*
Y-91928D01*
X15303D01*
X15698Y-92519D01*
X18066Y-94887D01*
X17988Y-95282D01*
X18262Y-96662D01*
X17883Y-97619D01*
X17716Y-97932D01*
X13081D01*
X-9660Y-75192D01*
X-9990Y-74971D01*
X-9605Y-73701D01*
X113760D01*
X114735Y-73507D01*
X115562Y-72954D01*
X120388Y-68128D01*
X120906Y-67354D01*
X121001Y-67336D01*
X122176Y-67694D01*
Y-98772D01*
X122176Y-100000D01*
X122176Y-100000D01*
X122176Y-100000D01*
X122176D01*
X122088Y-101234D01*
X121783Y-104333D01*
X120519Y-108499D01*
X118467Y-112339D01*
X115705Y-115705D01*
X112339Y-118467D01*
X108499Y-120519D01*
X104333Y-121783D01*
X101234Y-122088D01*
X100000Y-122176D01*
Y-122176D01*
X100000Y-122176D01*
X-98772D01*
X-100000Y-122176D01*
X-100000Y-122176D01*
X-100000Y-122176D01*
Y-122176D01*
X-101234Y-122088D01*
X-104333Y-121783D01*
X-108499Y-120519D01*
X-112339Y-118467D01*
X-115705Y-115705D01*
X-118467Y-112339D01*
X-120519Y-108499D01*
X-121783Y-104333D01*
X-122088Y-101234D01*
X-122176Y-100000D01*
X-122176D01*
X-122176Y-100000D01*
Y-48674D01*
X-121140Y-48275D01*
X-120906Y-48261D01*
X-117802Y-51364D01*
D02*
G37*
%LPC*%
G36*
X-56349Y-58110D02*
X-60794D01*
Y-65730D01*
X-56349D01*
Y-58110D01*
D02*
G37*
G36*
X-100000Y-80406D02*
X-103822Y-80782D01*
X-107498Y-81897D01*
X-110886Y-83708D01*
X-113855Y-86145D01*
X-116292Y-89114D01*
X-118103Y-92501D01*
X-119218Y-96177D01*
X-119594Y-100000D01*
X-119218Y-103822D01*
X-118103Y-107498D01*
X-116292Y-110886D01*
X-113855Y-113855D01*
X-110886Y-116292D01*
X-107498Y-118103D01*
X-103822Y-119218D01*
X-100000Y-119594D01*
X-96177Y-119218D01*
X-92501Y-118103D01*
X-89114Y-116292D01*
X-86145Y-113855D01*
X-83708Y-110886D01*
X-81897Y-107498D01*
X-80782Y-103822D01*
X-80406Y-100000D01*
X-80782Y-96177D01*
X-81897Y-92501D01*
X-83708Y-89114D01*
X-86145Y-86145D01*
X-89114Y-83708D01*
X-92501Y-81897D01*
X-96177Y-80782D01*
X-100000Y-80406D01*
D02*
G37*
G36*
X93064Y-26670D02*
X83870D01*
Y-35864D01*
X85352Y-35669D01*
X87916Y-34607D01*
X90118Y-32918D01*
X91807Y-30716D01*
X92869Y-28152D01*
X93064Y-26670D01*
D02*
G37*
G36*
X-9906Y-87380D02*
X-16256D01*
Y-92968D01*
X-9906D01*
Y-87380D01*
D02*
G37*
G36*
X-10946Y-97932D02*
X-24106D01*
Y-109568D01*
X-10946D01*
Y-97932D01*
D02*
G37*
G36*
X-56349Y-86270D02*
X-60794D01*
Y-93890D01*
X-56349D01*
Y-86270D01*
D02*
G37*
G36*
X-18796Y-87380D02*
X-25146D01*
Y-92968D01*
X-18796D01*
Y-87380D01*
D02*
G37*
G36*
X100000Y-80406D02*
X96177Y-80782D01*
X92501Y-81897D01*
X89114Y-83708D01*
X86145Y-86145D01*
X83708Y-89114D01*
X81897Y-92501D01*
X80782Y-96177D01*
X80406Y-100000D01*
X80782Y-103822D01*
X81897Y-107498D01*
X83708Y-110886D01*
X86145Y-113855D01*
X89114Y-116292D01*
X92501Y-118103D01*
X96177Y-119218D01*
X100000Y-119594D01*
X103822Y-119218D01*
X107498Y-118103D01*
X110886Y-116292D01*
X113855Y-113855D01*
X116292Y-110886D01*
X118103Y-107498D01*
X119218Y-103822D01*
X119594Y-100000D01*
X119218Y-96177D01*
X118103Y-92501D01*
X116292Y-89114D01*
X113855Y-86145D01*
X110886Y-83708D01*
X107498Y-81897D01*
X103822Y-80782D01*
X100000Y-80406D01*
D02*
G37*
G36*
X42386Y61778D02*
X38770D01*
Y58162D01*
X39467Y58300D01*
X41134Y59414D01*
X42248Y61081D01*
X42386Y61778D01*
D02*
G37*
G36*
X36230D02*
X32614D01*
X32752Y61081D01*
X33866Y59414D01*
X35534Y58300D01*
X36230Y58162D01*
Y61778D01*
D02*
G37*
G36*
X13040Y85290D02*
X8770D01*
Y75000D01*
Y64710D01*
X13040D01*
Y65750D01*
X22000D01*
Y67015D01*
X32562D01*
X33241Y65745D01*
X32752Y65014D01*
X32614Y64318D01*
X42386D01*
X42248Y65014D01*
X41759Y65745D01*
X42438Y67015D01*
X46644D01*
X46868Y66680D01*
X48191Y65796D01*
X49752Y65486D01*
X51313Y65796D01*
X52636Y66680D01*
X53520Y68003D01*
X53830Y69564D01*
X53520Y71125D01*
X52636Y72448D01*
X51313Y73332D01*
X49752Y73642D01*
X48191Y73332D01*
X46868Y72448D01*
X46644Y72113D01*
X22000D01*
Y84250D01*
X13040D01*
Y85290D01*
D02*
G37*
G36*
X100000Y119594D02*
X96177Y119218D01*
X92501Y118103D01*
X89114Y116292D01*
X86145Y113855D01*
X83708Y110886D01*
X81897Y107498D01*
X80782Y103822D01*
X80406Y100000D01*
X80782Y96177D01*
X81897Y92501D01*
X83708Y89114D01*
X86145Y86145D01*
X89114Y83708D01*
X92501Y81897D01*
X96177Y80782D01*
X100000Y80406D01*
X103822Y80782D01*
X107498Y81897D01*
X110886Y83708D01*
X113855Y86145D01*
X116292Y89114D01*
X118103Y92501D01*
X119218Y96177D01*
X119594Y100000D01*
X119218Y103822D01*
X118103Y107498D01*
X116292Y110886D01*
X113855Y113855D01*
X110886Y116292D01*
X107498Y118103D01*
X103822Y119218D01*
X100000Y119594D01*
D02*
G37*
G36*
X-100000D02*
X-103822Y119218D01*
X-107498Y118103D01*
X-110886Y116292D01*
X-113855Y113855D01*
X-116292Y110886D01*
X-118103Y107498D01*
X-119218Y103822D01*
X-119594Y100000D01*
X-119218Y96177D01*
X-118103Y92501D01*
X-116292Y89114D01*
X-113855Y86145D01*
X-110886Y83708D01*
X-107498Y81897D01*
X-103822Y80782D01*
X-100000Y80406D01*
X-96177Y80782D01*
X-92501Y81897D01*
X-89114Y83708D01*
X-86145Y86145D01*
X-83708Y89114D01*
X-81897Y92501D01*
X-80782Y96177D01*
X-80406Y100000D01*
X-80782Y103822D01*
X-81897Y107498D01*
X-83708Y110886D01*
X-86145Y113855D01*
X-89114Y116292D01*
X-92501Y118103D01*
X-96177Y119218D01*
X-100000Y119594D01*
D02*
G37*
G36*
X-99041Y-14070D02*
X-107730D01*
Y-22759D01*
X-106379Y-22582D01*
X-103937Y-21570D01*
X-101839Y-19961D01*
X-100230Y-17863D01*
X-99219Y-15421D01*
X-99041Y-14070D01*
D02*
G37*
G36*
X83870Y-14937D02*
Y-24130D01*
X93064D01*
X92869Y-22649D01*
X91807Y-20085D01*
X90118Y-17883D01*
X87916Y-16194D01*
X85352Y-15132D01*
X83870Y-14937D01*
D02*
G37*
G36*
X-107730Y-2841D02*
Y-11530D01*
X-99041D01*
X-99219Y-10179D01*
X-100230Y-7737D01*
X-101839Y-5640D01*
X-103937Y-4030D01*
X-106379Y-3018D01*
X-107730Y-2841D01*
D02*
G37*
G36*
X-59125Y8611D02*
X-61730D01*
Y2770D01*
X-55388D01*
Y4875D01*
X-55673Y6305D01*
X-56483Y7517D01*
X-57695Y8327D01*
X-59125Y8611D01*
D02*
G37*
G36*
X-64270D02*
X-66875D01*
X-68305Y8327D01*
X-69517Y7517D01*
X-70328Y6305D01*
X-70612Y4875D01*
Y2770D01*
X-64270D01*
Y8611D01*
D02*
G37*
%LPD*%
D10*
X-55079Y-85000D02*
D03*
X-44919D02*
D03*
X-55079Y-67000D02*
D03*
X-44919D02*
D03*
D11*
X-17526Y-103750D02*
D03*
X17500D02*
D03*
X-17526Y-86110D02*
D03*
X17500D02*
D03*
D13*
X63000Y26500D02*
D03*
Y9500D02*
D03*
X63000Y-21500D02*
D03*
Y-4500D02*
D03*
X-63000Y-15500D02*
D03*
Y1500D02*
D03*
D15*
Y-15500D02*
X-54896D01*
X-50396Y-20000D01*
X-42000D01*
X42000Y4000D02*
X49498D01*
X54998Y9500D01*
X63000D01*
X-55079Y-85000D02*
Y-67000D01*
X42000Y-4000D02*
X52038D01*
X52538Y-4500D01*
X63000D01*
X31210Y4000D02*
X42000D01*
X31210Y-9684D02*
Y4000D01*
Y-9684D02*
X33526Y-12000D01*
X-4000Y33592D02*
Y42000D01*
X-6382Y31210D02*
X-4000Y33592D01*
X-31274Y31210D02*
X-6382D01*
X-38064Y38000D02*
X-31274Y31210D01*
X-109000Y38000D02*
X-38064D01*
X17500Y-90716D02*
X22066Y-95282D01*
X17500Y-90716D02*
Y-86110D01*
X63000Y25622D02*
Y26500D01*
X50260Y12882D02*
X63000Y25622D01*
X42000Y12000D02*
X50260D01*
X12000Y-53024D02*
Y-42000D01*
X7842Y-57182D02*
X12000Y-53024D01*
X-20000Y-58550D02*
Y-42000D01*
Y-58550D02*
X-12478Y-66072D01*
X59219D01*
X71342Y-53949D01*
Y-11259D01*
X82600Y-0D01*
X-109000Y-38200D02*
X-86300Y-15500D01*
X-63000D01*
X52546Y36544D02*
X66262D01*
X47466Y31464D02*
X52546Y36544D01*
X42000Y28000D02*
X47466D01*
X63000Y-4500D02*
Y-3334D01*
X79002Y12668D02*
X85058D01*
X93186Y20796D01*
Y31972D01*
X89122Y36036D02*
X93186Y31972D01*
X76030Y36036D02*
X89122D01*
X71396Y31402D02*
X76030Y36036D01*
X63000Y26500D02*
Y31402D01*
X82600Y-25401D02*
X93186Y-14815D01*
Y6572D01*
X89122Y10636D02*
X93186Y6572D01*
X71088D02*
X75152Y10636D01*
X68802Y-4500D02*
X71088Y-2214D01*
X63000Y-4500D02*
X68802D01*
X108000Y25399D02*
X118586Y14814D01*
Y-66326D02*
Y14814D01*
X113760Y-71152D02*
X118586Y-66326D01*
X-19336Y-71152D02*
X113760D01*
X-28000Y-62488D02*
X-19336Y-71152D01*
X-28000Y-62488D02*
Y-42000D01*
X42000Y-12000D02*
X60674D01*
X63000Y-14326D01*
Y-21500D02*
Y-14326D01*
X17500Y69564D02*
Y75000D01*
X28000Y11398D02*
Y42000D01*
X17078Y476D02*
X28000Y11398D01*
X-8750Y476D02*
X17078D01*
X10802Y14192D02*
X20000Y23390D01*
Y42000D01*
X-42000Y20000D02*
X-36608D01*
X-21750Y5142D01*
X-42000Y-20000D02*
X-4096D01*
X3904Y-12000D01*
X-42000Y28000D02*
X-34830D01*
X-15018Y8188D01*
X97250Y-14650D02*
X108000Y-25401D01*
X97250Y-14650D02*
Y47720D01*
X92170Y52800D02*
X97250Y47720D01*
X4000Y52800D02*
X92170D01*
X4000Y42000D02*
Y52800D01*
X-61246Y-30258D02*
X-58988Y-28000D01*
X-42000D01*
X7500Y65422D02*
Y75000D01*
Y65422D02*
X9874Y63048D01*
X37500D01*
X-4000Y42000D02*
Y52800D01*
X-12500Y61300D02*
X-4000Y52800D01*
X-12500Y61300D02*
Y75000D01*
X-95028Y62706D02*
X-21652D01*
X-12000Y42000D02*
Y53054D01*
X-20000Y42000D02*
Y48308D01*
X-19924Y48384D01*
Y55798D01*
X-22638Y58513D02*
X-19924Y55798D01*
X-30000Y58513D02*
X-22638D01*
X-38252Y50260D02*
X-30000Y58513D01*
X-116110Y50260D02*
X-38252D01*
X-119158Y47212D02*
X-116110Y50260D01*
X-53118Y-49562D02*
X-44919Y-57761D01*
Y-67000D02*
Y-57761D01*
X-2500Y75000D02*
Y85312D01*
X-28000Y42000D02*
Y47466D01*
X-24924Y50542D01*
Y53308D01*
X-87662Y-39656D02*
X-57944D01*
X-39148Y-58452D01*
X11906Y-100362D02*
X17500Y-103750D01*
X-11462Y-76994D02*
X11906Y-100362D01*
X-23400Y-76994D02*
X-11462D01*
X-33814Y-66580D02*
X-23400Y-76994D01*
X-33814Y-66580D02*
Y-58836D01*
X-56852Y-35798D02*
X-33814Y-58836D01*
X-63278Y-35798D02*
X-56852D01*
X-66344Y-32731D02*
X-63278Y-35798D01*
X-66344Y-32731D02*
Y-25376D01*
X-63000Y-22032D01*
Y-15500D01*
X63000Y9500D02*
Y14700D01*
X71901D02*
X82600Y25399D01*
X3904Y-12000D02*
X33526D01*
X42000D01*
X17500Y69564D02*
X49752D01*
X63000Y14700D02*
X71901D01*
X71088Y-2214D02*
Y4754D01*
Y6572D01*
X63000Y-3334D02*
X71088Y4754D01*
X76970Y10636D01*
X79002Y12668D01*
X50260Y12000D02*
Y12882D01*
X63000Y31402D02*
X71396D01*
X75152Y10636D02*
X76970D01*
X89122D01*
X47466Y28000D02*
Y31464D01*
X-63000Y1500D02*
X-57500D01*
X-55000Y4000D01*
X-42000D01*
X-6188Y89000D02*
X-2500Y85312D01*
X-17000Y89000D02*
X-6188D01*
X-21652Y84348D02*
X-17000Y89000D01*
X-21652Y62706D02*
Y84348D01*
Y62706D02*
X-12000Y53054D01*
X-44919Y-85000D02*
X-42000D01*
X-39148Y-82148D01*
Y-58452D01*
X-119158Y-46404D02*
X-116000Y-49562D01*
X-119158Y-46404D02*
Y47212D01*
X-116000Y-49562D02*
X-53118D01*
D17*
X-100000Y-100000D02*
D03*
X100000D02*
D03*
Y100000D02*
D03*
X-100000D02*
D03*
D18*
X-109000Y38000D02*
D03*
D19*
Y12600D02*
D03*
Y-12800D02*
D03*
Y-38200D02*
D03*
D20*
X22066Y-95282D02*
D03*
X7842Y-57182D02*
D03*
X66262Y36544D02*
D03*
X49752Y69564D02*
D03*
X-8750Y476D02*
D03*
X10802Y14192D02*
D03*
X-21750Y5142D02*
D03*
X-15018Y8188D02*
D03*
X-61246Y-30258D02*
D03*
X37500Y63048D02*
D03*
X-95028Y62706D02*
D03*
X-24924Y53308D02*
D03*
X-87662Y-39656D02*
D03*
X0Y-104000D02*
D03*
D21*
X17500Y75000D02*
D03*
X7500D02*
D03*
X-2500D02*
D03*
X-12500D02*
D03*
D22*
X30500Y114000D02*
D03*
X-25500D02*
D03*
D23*
X28000Y42000D02*
D03*
X20000D02*
D03*
X12000D02*
D03*
X4000D02*
D03*
X-4000D02*
D03*
X-12000D02*
D03*
X-20000D02*
D03*
X-28000D02*
D03*
Y-42000D02*
D03*
X-20000D02*
D03*
X-12000D02*
D03*
X-4000D02*
D03*
X4000D02*
D03*
X12000D02*
D03*
X20000D02*
D03*
X28000D02*
D03*
D24*
X-42000Y28000D02*
D03*
Y20000D02*
D03*
Y12000D02*
D03*
Y4000D02*
D03*
Y-4000D02*
D03*
Y-12000D02*
D03*
Y-20000D02*
D03*
Y-28000D02*
D03*
X42000D02*
D03*
Y-20000D02*
D03*
Y-12000D02*
D03*
Y-4000D02*
D03*
Y4000D02*
D03*
Y12000D02*
D03*
Y20000D02*
D03*
Y28000D02*
D03*
D25*
X108000Y25399D02*
D03*
X82600D02*
D03*
X108000Y-0D02*
D03*
X82600D02*
D03*
X108000Y-25401D02*
D03*
X82600D02*
D03*
M02*
