G04 Layer_Physical_Order=2*
G04 Layer_Color=16711680*
%FSLAX44Y44*%
%MOMM*%
G71*
G01*
G75*
%ADD10R,0.6350X1.2700*%
%ADD11R,1.0160X0.8636*%
G04:AMPARAMS|DCode=14|XSize=1mm|YSize=0.9mm|CornerRadius=0.1125mm|HoleSize=0mm|Usage=FLASHONLY|Rotation=90.000|XOffset=0mm|YOffset=0mm|HoleType=Round|Shape=RoundedRectangle|*
%AMROUNDEDRECTD14*
21,1,1.0000,0.6750,0,0,90.0*
21,1,0.7750,0.9000,0,0,90.0*
1,1,0.2250,0.3375,0.3875*
1,1,0.2250,0.3375,-0.3875*
1,1,0.2250,-0.3375,-0.3875*
1,1,0.2250,-0.3375,0.3875*
%
%ADD14ROUNDEDRECTD14*%
%ADD15C,0.2000*%
%ADD18C,3.6000*%
%ADD19R,1.8796X1.8796*%
%ADD20C,1.8796*%
%ADD21C,0.5000*%
%ADD22R,0.6000X1.5500*%
%ADD23R,1.2000X1.8000*%
%ADD24R,1.7000X1.7000*%
%ADD25O,0.2000X0.7500*%
%ADD26O,0.7500X0.2000*%
%ADD27C,1.6000*%
G36*
X-100000Y122176D02*
X-33000D01*
Y103500D01*
X-18000D01*
Y122176D01*
X23000D01*
Y103500D01*
X38000D01*
Y122176D01*
X98772D01*
X100000Y122176D01*
X100000Y122176D01*
X100000Y122176D01*
Y122176D01*
X101234Y122088D01*
X104333Y121783D01*
X108499Y120519D01*
X112339Y118467D01*
X115705Y115705D01*
X118467Y112339D01*
X120519Y108499D01*
X121783Y104333D01*
X122088Y101234D01*
X122176Y100000D01*
X122176D01*
X122176Y100000D01*
Y-98772D01*
X122176Y-100000D01*
X122176Y-100000D01*
X122176Y-100000D01*
X122176D01*
X122088Y-101234D01*
X121783Y-104333D01*
X120519Y-108499D01*
X118467Y-112339D01*
X115705Y-115705D01*
X112339Y-118467D01*
X108499Y-120519D01*
X104333Y-121783D01*
X101234Y-122088D01*
X100000Y-122176D01*
Y-122176D01*
X100000Y-122176D01*
X-98772D01*
X-100000Y-122176D01*
X-100000Y-122176D01*
X-100000Y-122176D01*
Y-122176D01*
X-101234Y-122088D01*
X-104333Y-121783D01*
X-108499Y-120519D01*
X-112339Y-118467D01*
X-115705Y-115705D01*
X-118467Y-112339D01*
X-120519Y-108499D01*
X-121783Y-104333D01*
X-122088Y-101234D01*
X-122176Y-100000D01*
X-122176D01*
X-122176Y-100000D01*
Y-40990D01*
X-120906Y-40906D01*
X-120887Y-41045D01*
X-119789Y-43696D01*
X-118042Y-45972D01*
X-115766Y-47719D01*
X-113115Y-48818D01*
X-110270Y-49192D01*
X-107425Y-48818D01*
X-104774Y-47719D01*
X-102498Y-45972D01*
X-100751Y-43696D01*
X-99653Y-41045D01*
X-99278Y-38200D01*
X-99653Y-35355D01*
X-100751Y-32704D01*
X-102498Y-30427D01*
X-104774Y-28681D01*
X-107425Y-27582D01*
X-110270Y-27208D01*
X-113115Y-27582D01*
X-115766Y-28681D01*
X-118042Y-30427D01*
X-119789Y-32704D01*
X-120887Y-35355D01*
X-120906Y-35494D01*
X-122176Y-35410D01*
Y9810D01*
X-120906Y9894D01*
X-120887Y9755D01*
X-119789Y7104D01*
X-118042Y4827D01*
X-115766Y3081D01*
X-113115Y1982D01*
X-110270Y1608D01*
X-107425Y1982D01*
X-104774Y3081D01*
X-102498Y4827D01*
X-100751Y7104D01*
X-99653Y9755D01*
X-99278Y12600D01*
X-99653Y15445D01*
X-100751Y18096D01*
X-102498Y20373D01*
X-104774Y22119D01*
X-107425Y23217D01*
X-110270Y23592D01*
X-113115Y23217D01*
X-115766Y22119D01*
X-118042Y20373D01*
X-119789Y18096D01*
X-120887Y15445D01*
X-120906Y15306D01*
X-122176Y15390D01*
Y98772D01*
X-122176Y100000D01*
X-122176Y100000D01*
X-122176Y100000D01*
X-122176D01*
X-122088Y101234D01*
X-121783Y104333D01*
X-120519Y108499D01*
X-118467Y112339D01*
X-115705Y115705D01*
X-112339Y118467D01*
X-108499Y120519D01*
X-104333Y121783D01*
X-101234Y122088D01*
X-100000Y122176D01*
Y122176D01*
X-100000Y122176D01*
D02*
G37*
%LPC*%
G36*
X-95856Y-14070D02*
X-106460D01*
Y-24674D01*
X-104614Y-24431D01*
X-101709Y-23228D01*
X-99216Y-21314D01*
X-97302Y-18821D01*
X-96099Y-15917D01*
X-95856Y-14070D01*
D02*
G37*
G36*
X-109000D02*
X-119604D01*
X-119361Y-15917D01*
X-118158Y-18821D01*
X-116244Y-21314D01*
X-113750Y-23228D01*
X-110847Y-24431D01*
X-109000Y-24674D01*
Y-14070D01*
D02*
G37*
G36*
Y-926D02*
X-110847Y-1169D01*
X-113750Y-2372D01*
X-116244Y-4286D01*
X-118158Y-6780D01*
X-119361Y-9683D01*
X-119604Y-11530D01*
X-109000D01*
Y-926D01*
D02*
G37*
G36*
X-9906Y-87380D02*
X-16256D01*
Y-92968D01*
X-9906D01*
Y-87380D01*
D02*
G37*
G36*
X88064Y-37070D02*
X78870D01*
Y-46264D01*
X80351Y-46069D01*
X82915Y-45007D01*
X85117Y-43317D01*
X86807Y-41116D01*
X87869Y-38552D01*
X88064Y-37070D01*
D02*
G37*
G36*
X-9906Y-79252D02*
X-16256D01*
Y-84840D01*
X-9906D01*
Y-79252D01*
D02*
G37*
G36*
X-18796D02*
X-25146D01*
Y-84840D01*
X-18796D01*
Y-79252D01*
D02*
G37*
G36*
X-56350Y-58110D02*
X-60795D01*
Y-65730D01*
X-56350D01*
Y-58110D01*
D02*
G37*
G36*
X76330Y-37070D02*
X67136D01*
X67331Y-38552D01*
X68393Y-41116D01*
X70083Y-43317D01*
X72285Y-45007D01*
X74849Y-46069D01*
X76330Y-46264D01*
Y-37070D01*
D02*
G37*
G36*
X38000Y-46922D02*
X36439Y-47232D01*
X35116Y-48116D01*
X34232Y-49439D01*
X33922Y-51000D01*
X34000Y-51395D01*
X20944Y-64451D01*
X-38998D01*
X-39000Y-64451D01*
X-40245D01*
Y-59150D01*
X-49365D01*
Y-58110D01*
X-53810D01*
Y-67000D01*
X-55080D01*
Y-68270D01*
X-60795D01*
Y-74840D01*
X-60795Y-75890D01*
X-60795Y-77160D01*
Y-93890D01*
X-49365D01*
Y-92850D01*
X-40245D01*
Y-89722D01*
X-38975Y-88885D01*
X-38000Y-89079D01*
X-36439Y-88768D01*
X-35116Y-87884D01*
X-34232Y-86561D01*
X-33921Y-85000D01*
X-34232Y-83439D01*
X-35116Y-82116D01*
X-36439Y-81232D01*
X-38000Y-80922D01*
X-38975Y-81116D01*
X-40245Y-80278D01*
Y-77150D01*
X-49082D01*
X-49336Y-76000D01*
X-49082Y-74850D01*
X-40245D01*
Y-69549D01*
X-39002D01*
X-39000Y-69549D01*
X22000D01*
X22975Y-69355D01*
X23802Y-68802D01*
X37605Y-55000D01*
X38000Y-55078D01*
X39561Y-54768D01*
X40884Y-53884D01*
X41768Y-52561D01*
X42078Y-51000D01*
X41768Y-49439D01*
X40884Y-48116D01*
X39561Y-47232D01*
X38000Y-46922D01*
D02*
G37*
G36*
X-106460Y-926D02*
Y-11530D01*
X-95856D01*
X-96099Y-9683D01*
X-97302Y-6780D01*
X-99216Y-4286D01*
X-101709Y-2372D01*
X-104614Y-1169D01*
X-106460Y-926D01*
D02*
G37*
G36*
X-100000Y-80406D02*
X-103822Y-80782D01*
X-107498Y-81897D01*
X-110886Y-83708D01*
X-113855Y-86145D01*
X-116292Y-89114D01*
X-118103Y-92501D01*
X-119218Y-96177D01*
X-119594Y-100000D01*
X-119218Y-103822D01*
X-118103Y-107498D01*
X-116292Y-110886D01*
X-113855Y-113855D01*
X-110886Y-116292D01*
X-107498Y-118103D01*
X-103822Y-119218D01*
X-100000Y-119594D01*
X-96177Y-119218D01*
X-92501Y-118103D01*
X-89114Y-116292D01*
X-86145Y-113855D01*
X-83708Y-110886D01*
X-81897Y-107498D01*
X-80782Y-103822D01*
X-80406Y-100000D01*
X-80782Y-96177D01*
X-81897Y-92501D01*
X-83708Y-89114D01*
X-86145Y-86145D01*
X-89114Y-83708D01*
X-92501Y-81897D01*
X-96177Y-80782D01*
X-100000Y-80406D01*
D02*
G37*
G36*
X100000D02*
X96177Y-80782D01*
X92501Y-81897D01*
X89114Y-83708D01*
X86145Y-86145D01*
X83708Y-89114D01*
X81897Y-92501D01*
X80782Y-96177D01*
X80406Y-100000D01*
X80782Y-103822D01*
X81897Y-107498D01*
X83708Y-110886D01*
X86145Y-113855D01*
X89114Y-116292D01*
X92501Y-118103D01*
X96177Y-119218D01*
X100000Y-119594D01*
X103822Y-119218D01*
X107498Y-118103D01*
X110886Y-116292D01*
X113855Y-113855D01*
X116292Y-110886D01*
X118103Y-107498D01*
X119218Y-103822D01*
X119594Y-100000D01*
X119218Y-96177D01*
X118103Y-92501D01*
X116292Y-89114D01*
X113855Y-86145D01*
X110886Y-83708D01*
X107498Y-81897D01*
X103822Y-80782D01*
X100000Y-80406D01*
D02*
G37*
G36*
X-100000Y119594D02*
X-103822Y119218D01*
X-107498Y118103D01*
X-110886Y116292D01*
X-113855Y113855D01*
X-116292Y110886D01*
X-118103Y107498D01*
X-119218Y103822D01*
X-119594Y100000D01*
X-119218Y96177D01*
X-118103Y92501D01*
X-116292Y89114D01*
X-113855Y86145D01*
X-110886Y83708D01*
X-107498Y81897D01*
X-103822Y80782D01*
X-100000Y80406D01*
X-96177Y80782D01*
X-92501Y81897D01*
X-89114Y83708D01*
X-86145Y86145D01*
X-83708Y89114D01*
X-81897Y92501D01*
X-80782Y96177D01*
X-80406Y100000D01*
X-80782Y103822D01*
X-81897Y107498D01*
X-83708Y110886D01*
X-86145Y113855D01*
X-89114Y116292D01*
X-92501Y118103D01*
X-96177Y119218D01*
X-100000Y119594D01*
D02*
G37*
G36*
X-9000Y95078D02*
X-10561Y94768D01*
X-11884Y93884D01*
X-12768Y92561D01*
X-13078Y91000D01*
X-12768Y89439D01*
X-11884Y88116D01*
X-10561Y87232D01*
X-9000Y86922D01*
X-8605Y87000D01*
X-7125Y85520D01*
X-7651Y84250D01*
X-8000D01*
Y84250D01*
X-17000D01*
Y84250D01*
X-17810Y83915D01*
X-22697Y88802D01*
X-23524Y89355D01*
X-24500Y89549D01*
X-58730D01*
X-59705Y89355D01*
X-60532Y88802D01*
X-100437Y48898D01*
X-118628D01*
Y27102D01*
X-96832D01*
Y45293D01*
X-57674Y84451D01*
X-25556D01*
X-17000Y75895D01*
Y65750D01*
X-15049D01*
Y63556D01*
X-16802Y61802D01*
X-17355Y60975D01*
X-17549Y60000D01*
Y17248D01*
X-18819Y16485D01*
X-19087Y16538D01*
Y11652D01*
X-20357D01*
Y10382D01*
X-25243D01*
X-25105Y9686D01*
X-23991Y8018D01*
X-22324Y6904D01*
X-21634Y6767D01*
X-21216Y5389D01*
X-23660Y2945D01*
X-31608D01*
X-32583Y2751D01*
X-33410Y2199D01*
X-43490Y-7882D01*
X-44043Y-8709D01*
X-44237Y-9684D01*
Y-46362D01*
X-44043Y-47338D01*
X-43490Y-48165D01*
X-32853Y-58802D01*
X-32026Y-59355D01*
X-31050Y-59549D01*
X14000D01*
X14976Y-59355D01*
X15802Y-58802D01*
X19802Y-54802D01*
X20355Y-53975D01*
X20549Y-53000D01*
Y-26750D01*
X20714Y-26549D01*
X70257D01*
X70562Y-27089D01*
X70575Y-27708D01*
X70510Y-27955D01*
X70083Y-28283D01*
X68393Y-30485D01*
X67331Y-33049D01*
X67136Y-34530D01*
X77600D01*
X88064D01*
X87869Y-33049D01*
X86807Y-30485D01*
X85117Y-28283D01*
X84690Y-27955D01*
X84629Y-27724D01*
X84660Y-27049D01*
X84944Y-26549D01*
X89400D01*
X90376Y-26355D01*
X91203Y-25802D01*
X98278Y-18727D01*
X100520Y-19656D01*
X103000Y-19982D01*
X105480Y-19656D01*
X107791Y-18699D01*
X109687Y-17244D01*
X110312Y-17358D01*
X110957Y-17577D01*
Y-24239D01*
X107722Y-27473D01*
X105480Y-26545D01*
X103000Y-26218D01*
X100520Y-26545D01*
X98209Y-27502D01*
X96225Y-29025D01*
X94702Y-31009D01*
X93745Y-33320D01*
X93418Y-35800D01*
X93745Y-38280D01*
X94702Y-40591D01*
X96225Y-42576D01*
X98209Y-44099D01*
X100520Y-45056D01*
X103000Y-45382D01*
X105480Y-45056D01*
X107791Y-44099D01*
X109775Y-42576D01*
X111298Y-40591D01*
X112255Y-38280D01*
X112582Y-35800D01*
X112255Y-33320D01*
X111327Y-31078D01*
X115308Y-27097D01*
X115861Y-26270D01*
X116055Y-25294D01*
Y-3842D01*
X115861Y-2867D01*
X115308Y-2040D01*
X111244Y2024D01*
X110417Y2577D01*
X109442Y2771D01*
X97250D01*
X96275Y2577D01*
X95448Y2024D01*
X90622Y-2802D01*
X90069Y-3629D01*
X89875Y-4604D01*
Y-10914D01*
X88171Y-12618D01*
X86968Y-12025D01*
X87182Y-10400D01*
X86855Y-7920D01*
X85927Y-5678D01*
X89908Y-1697D01*
X90461Y-870D01*
X90655Y106D01*
Y19780D01*
X90461Y20756D01*
X89908Y21582D01*
X24376Y87114D01*
X23549Y87667D01*
X22574Y87861D01*
X-286D01*
X-1261Y87667D01*
X-1741Y87346D01*
X-5000Y90605D01*
X-4922Y91000D01*
X-5232Y92561D01*
X-6116Y93884D01*
X-7439Y94768D01*
X-9000Y95078D01*
D02*
G37*
G36*
X100000Y119594D02*
X96177Y119218D01*
X92501Y118103D01*
X89114Y116292D01*
X86145Y113855D01*
X83708Y110886D01*
X81897Y107498D01*
X80782Y103822D01*
X80406Y100000D01*
X80782Y96177D01*
X81897Y92501D01*
X83708Y89114D01*
X86145Y86145D01*
X89114Y83708D01*
X92501Y81897D01*
X96177Y80782D01*
X100000Y80406D01*
X103822Y80782D01*
X107498Y81897D01*
X110886Y83708D01*
X113855Y86145D01*
X116292Y89114D01*
X118103Y92501D01*
X119218Y96177D01*
X119594Y100000D01*
X119218Y103822D01*
X118103Y107498D01*
X116292Y110886D01*
X113855Y113855D01*
X110886Y116292D01*
X107498Y118103D01*
X103822Y119218D01*
X100000Y119594D01*
D02*
G37*
G36*
X103000Y24582D02*
X100520Y24255D01*
X98209Y23298D01*
X96225Y21775D01*
X94702Y19791D01*
X93745Y17480D01*
X93418Y15000D01*
X93745Y12520D01*
X94702Y10209D01*
X96225Y8224D01*
X98209Y6701D01*
X100520Y5744D01*
X103000Y5418D01*
X105480Y5744D01*
X107791Y6701D01*
X109775Y8224D01*
X111298Y10209D01*
X112255Y12520D01*
X112582Y15000D01*
X112255Y17480D01*
X111298Y19791D01*
X109775Y21775D01*
X107791Y23298D01*
X105480Y24255D01*
X103000Y24582D01*
D02*
G37*
G36*
X-18796Y-87380D02*
X-25146D01*
Y-92968D01*
X-18796D01*
Y-87380D01*
D02*
G37*
G36*
X-21627Y16538D02*
X-22324Y16400D01*
X-23991Y15286D01*
X-25105Y13619D01*
X-25243Y12922D01*
X-21627D01*
Y16538D01*
D02*
G37*
G36*
X24080Y-80292D02*
X10920D01*
Y-91928D01*
X13403D01*
X14082Y-93198D01*
X13732Y-93721D01*
X13422Y-95282D01*
X13696Y-96662D01*
X13317Y-97619D01*
X13150Y-97932D01*
X10920D01*
Y-109568D01*
X13157D01*
X13836Y-110838D01*
X13732Y-110993D01*
X13422Y-112554D01*
X13732Y-114115D01*
X14616Y-115438D01*
X15939Y-116322D01*
X17500Y-116632D01*
X19061Y-116322D01*
X20384Y-115438D01*
X21268Y-114115D01*
X21578Y-112554D01*
X21268Y-110993D01*
X21164Y-110838D01*
X21843Y-109568D01*
X24080D01*
Y-97932D01*
X21850D01*
X21683Y-97619D01*
X21304Y-96662D01*
X21578Y-95282D01*
X21268Y-93721D01*
X20918Y-93198D01*
X21597Y-91928D01*
X24080D01*
Y-80292D01*
D02*
G37*
G36*
X-10946Y-97932D02*
X-24106D01*
Y-109568D01*
X-10946D01*
Y-97932D01*
D02*
G37*
%LPD*%
G36*
X78621Y25660D02*
X78059Y24521D01*
X77600Y24582D01*
X75120Y24255D01*
X72809Y23298D01*
X70825Y21775D01*
X69302Y19791D01*
X68345Y17480D01*
X68222Y16549D01*
X16052D01*
Y17875D01*
X15848Y18899D01*
X15268Y19768D01*
X14400Y20348D01*
X13376Y20551D01*
X12550D01*
Y22828D01*
X12549Y22831D01*
Y25449D01*
X13375D01*
X14399Y25652D01*
X15267Y26232D01*
X15848Y27101D01*
X16051Y28125D01*
Y35875D01*
X15848Y36899D01*
X15267Y37768D01*
X14399Y38348D01*
X13375Y38551D01*
X12549D01*
Y48442D01*
X19303Y55196D01*
X19855Y56023D01*
X20049Y56998D01*
Y65750D01*
X22000D01*
Y80622D01*
X23173Y81108D01*
X78621Y25660D01*
D02*
G37*
G36*
X8770Y64710D02*
X13040D01*
Y65750D01*
X14951D01*
Y58054D01*
X11345Y54447D01*
X9967Y54865D01*
X9748Y55967D01*
X8634Y57634D01*
X6967Y58748D01*
X6270Y58886D01*
Y54000D01*
Y49031D01*
X7443Y48171D01*
X7451Y48152D01*
Y38551D01*
X6625D01*
X6061Y38439D01*
X5500Y39000D01*
X-1705D01*
X-2195Y39327D01*
X-3625Y39612D01*
X-5730D01*
Y32000D01*
X-8270D01*
Y39612D01*
X-10375D01*
X-11181Y39451D01*
X-12451Y40307D01*
Y58944D01*
X-10697Y60698D01*
X-10145Y61525D01*
X-9951Y62500D01*
Y65750D01*
X-8000D01*
Y65750D01*
X-7000D01*
Y65750D01*
X1960D01*
Y64710D01*
X6230D01*
Y75000D01*
X8770D01*
Y64710D01*
D02*
G37*
G36*
X-23981Y-18236D02*
X-23563Y-19614D01*
X-24615Y-20666D01*
X-25167Y-21493D01*
X-25361Y-22468D01*
Y-39884D01*
X-25696Y-40108D01*
X-26580Y-41431D01*
X-26891Y-42991D01*
X-26580Y-44552D01*
X-25696Y-45875D01*
X-24373Y-46759D01*
X-22812Y-47070D01*
X-21251Y-46759D01*
X-19928Y-45875D01*
X-19044Y-44552D01*
X-18734Y-42991D01*
X-19044Y-41431D01*
X-19928Y-40108D01*
X-20263Y-39884D01*
Y-27022D01*
X-18993Y-26343D01*
X-18976Y-26355D01*
X-18000Y-26549D01*
X-16297D01*
Y-45946D01*
X-16632Y-46170D01*
X-17516Y-47493D01*
X-17826Y-49054D01*
X-17516Y-50615D01*
X-16632Y-51938D01*
X-15309Y-52822D01*
X-13748Y-53132D01*
X-12187Y-52822D01*
X-10864Y-51938D01*
X-9980Y-50615D01*
X-9670Y-49054D01*
X-9980Y-47493D01*
X-10864Y-46170D01*
X-11199Y-45946D01*
Y-36065D01*
X-9981Y-35359D01*
X-9929Y-35365D01*
X-9000Y-35549D01*
X-8025Y-35355D01*
X-7198Y-34803D01*
X-6302D01*
X-5475Y-35355D01*
X-4500Y-35549D01*
X-3524Y-35355D01*
X-3135Y-35095D01*
X-2250Y-34901D01*
X-1365Y-35095D01*
X-975Y-35355D01*
X0Y-35549D01*
X681Y-35414D01*
X1615Y-35929D01*
X1951Y-36231D01*
Y-41219D01*
X1616Y-41442D01*
X732Y-42765D01*
X421Y-44326D01*
X732Y-45887D01*
X1616Y-47210D01*
X2939Y-48094D01*
X4500Y-48404D01*
X5181Y-48269D01*
X5487Y-48472D01*
X6232Y-49439D01*
X5922Y-51000D01*
X6232Y-52561D01*
X6647Y-53181D01*
X5968Y-54451D01*
X-29994D01*
X-39139Y-45307D01*
Y-19635D01*
X-37869Y-18931D01*
X-36608Y-19182D01*
X-36034Y-19068D01*
X-35853Y-19189D01*
X-34877Y-19384D01*
X-26711D01*
X-25736Y-19189D01*
X-24909Y-18637D01*
X-24420Y-18149D01*
X-23981Y-18236D01*
D02*
G37*
G36*
X69302Y10209D02*
X70825Y8224D01*
X72809Y6701D01*
X75120Y5744D01*
X77600Y5418D01*
X80080Y5744D01*
X82391Y6701D01*
X84287Y8156D01*
X84913Y8042D01*
X85557Y7823D01*
Y1161D01*
X82322Y-2074D01*
X80080Y-1145D01*
X77600Y-818D01*
X75120Y-1145D01*
X72809Y-2102D01*
X70825Y-3625D01*
X70404Y-4173D01*
X49974D01*
X48998Y-4367D01*
X48172Y-4920D01*
X45140Y-7951D01*
X42366D01*
X41687Y-6681D01*
X41768Y-6561D01*
X42078Y-5000D01*
X41768Y-3439D01*
X40884Y-2116D01*
X39561Y-1232D01*
X38000Y-922D01*
X36439Y-1232D01*
X35116Y-2116D01*
X34232Y-3439D01*
X34230Y-3451D01*
X12654D01*
X12339Y-3289D01*
X11712Y-2663D01*
X11549Y-2345D01*
Y3000D01*
X11355Y3975D01*
X10802Y4802D01*
X9975Y5355D01*
X9000Y5549D01*
X8319Y5414D01*
X7385Y5929D01*
X7107Y6179D01*
X7123Y7448D01*
X13376D01*
X14400Y7652D01*
X15268Y8232D01*
X15848Y9101D01*
X16052Y10125D01*
Y11451D01*
X68787D01*
X69302Y10209D01*
D02*
G37*
%LPC*%
G36*
X3730Y58886D02*
X3034Y58748D01*
X1366Y57634D01*
X252Y55967D01*
X114Y55270D01*
X3730D01*
Y58886D01*
D02*
G37*
G36*
Y52730D02*
X114D01*
X252Y52034D01*
X1366Y50366D01*
X3034Y49252D01*
X3730Y49114D01*
Y52730D01*
D02*
G37*
%LPD*%
D10*
X-55080Y-85000D02*
D03*
X-44920D02*
D03*
X-55080Y-67000D02*
D03*
X-44920D02*
D03*
D11*
X-17526Y-103750D02*
D03*
X17500D02*
D03*
X-17526Y-86110D02*
D03*
X17500D02*
D03*
D14*
X-7000Y14000D02*
D03*
X10000D02*
D03*
X10000Y32000D02*
D03*
X-7000D02*
D03*
D15*
X10000Y14000D02*
Y22828D01*
X10000Y22829D02*
X10000Y22828D01*
X10000Y22829D02*
Y32000D01*
Y49498D01*
X17500Y56998D01*
Y75000D01*
X77600Y-10400D02*
X88106Y106D01*
Y19780D01*
X22574Y85312D02*
X88106Y19780D01*
X-286Y85312D02*
X22574D01*
X-2500Y83098D02*
X-286Y85312D01*
X-19844Y-19500D02*
X-15250D01*
X-22812Y-22468D02*
X-19844Y-19500D01*
X-22812Y-42991D02*
Y-22468D01*
X-15250Y-24000D02*
X-13748D01*
X15250Y-10500D02*
X46196D01*
X49974Y-6722D01*
X-29750Y-10500D02*
X-15250D01*
X-24877Y-15000D02*
X-15250D01*
X-26711Y-16835D02*
X-24877Y-15000D01*
X-34877Y-16835D02*
X-26711D01*
X-36608Y-15104D02*
X-34877Y-16835D01*
X-41688Y-9684D02*
X-31608Y396D01*
X17500Y-112554D02*
Y-103750D01*
X0Y-7929D02*
Y250D01*
X3536Y-18535D02*
X5000Y-17071D01*
X4500Y-44326D02*
Y-30250D01*
X60256Y-19500D02*
X61182Y-18574D01*
X15250Y-19500D02*
X60256D01*
X103000Y-35800D02*
X113506Y-25294D01*
Y-3842D01*
X109442Y222D02*
X113506Y-3842D01*
X97250Y222D02*
X109442D01*
X92424Y-4604D02*
X97250Y222D01*
X92424Y-11970D02*
Y-4604D01*
X15250Y-15000D02*
X56184D01*
X-75602Y11652D02*
X-20357D01*
X-21750Y-6000D02*
X-15250D01*
X-23146Y-4604D02*
X-21750Y-6000D01*
X17500Y-95282D02*
Y-86110D01*
X-13748Y-49054D02*
Y-24000D01*
X5000Y-17071D02*
Y-12929D01*
X0Y-7929D02*
X5000Y-12929D01*
X-31608Y396D02*
X-22604D01*
X-15000Y8000D01*
Y60000D02*
X-12500Y62500D01*
Y75000D01*
X-15000Y8000D02*
Y60000D01*
X7500Y56500D02*
Y75000D01*
X-7000Y42000D02*
X7500Y56500D01*
X-7000Y14000D02*
Y32000D01*
Y42000D01*
Y11000D02*
Y14000D01*
Y11000D02*
X0Y4000D01*
Y250D02*
Y4000D01*
X4500Y250D02*
Y8499D01*
X10000Y14000D01*
X76600D02*
X77600Y15000D01*
X10000Y14000D02*
X76600D01*
X56184Y-15000D02*
X58184Y-13000D01*
X63740D01*
X89400Y-24000D02*
X103000Y-10400D01*
X63740Y-13000D02*
X71240Y-20500D01*
X83894D02*
X92424Y-11970D01*
X71240Y-20500D02*
X72850D01*
X73251Y-20900D01*
X81949D01*
X82350Y-20500D01*
X83894D01*
X15250Y-24000D02*
X71401D01*
X71801Y-24400D01*
X83399D01*
X83799Y-24000D01*
X89400D01*
X-42690Y-67000D02*
X-39000D01*
X15250Y-6000D02*
X38000D01*
X-41688Y-46362D02*
X-31050Y-57000D01*
X-41688Y-46362D02*
Y-9684D01*
X15250Y-24000D02*
X18000Y-26750D01*
X-31050Y-57000D02*
X14000D01*
X18000Y-53000D01*
Y-26750D01*
X9000Y-51000D02*
X9500Y-51500D01*
X9000Y-51000D02*
Y-46897D01*
X9500Y-46397D01*
Y-42255D01*
X9000Y-41755D02*
X9500Y-42255D01*
X9000Y-41755D02*
Y-30250D01*
X-107730Y-12800D02*
X-100054D01*
X-75602Y11652D01*
X-44920Y-85000D02*
X-38000D01*
X-107730Y38000D02*
X-58730Y87000D01*
X-24500D01*
X-12500Y75000D01*
X-110270Y12600D02*
X-104870Y18000D01*
X-9000Y91000D02*
X-2500Y84500D01*
Y75000D02*
Y83098D01*
Y84500D01*
X73922Y-6722D02*
X77600Y-10400D01*
X49974Y-6722D02*
X73922D01*
X-52920Y-85000D02*
X-44920D01*
X-52920Y-67000D02*
X-44920D01*
X-39000Y-67000D02*
X22000D01*
X38000Y-51000D01*
X-54810Y-76000D02*
X-27636D01*
X-17526Y-86110D01*
X-54810Y-85000D02*
Y-76000D01*
Y-67000D01*
D18*
X-100000Y-100000D02*
D03*
X100000D02*
D03*
Y100000D02*
D03*
X-100000D02*
D03*
D19*
X-107730Y38000D02*
D03*
D20*
X-110270Y12600D02*
D03*
X-107730Y-12800D02*
D03*
X-110270Y-38200D02*
D03*
D21*
X-22812Y-42991D02*
D03*
X-13748Y-49054D02*
D03*
X-29750Y-10500D02*
D03*
X-36608Y-15104D02*
D03*
X17500Y-112554D02*
D03*
X61182Y-18574D02*
D03*
X-20357Y11652D02*
D03*
X-23146Y-4604D02*
D03*
X17500Y-95282D02*
D03*
X38000Y-5000D02*
D03*
Y-51000D02*
D03*
X4500Y-44326D02*
D03*
X10000Y-51000D02*
D03*
X5000Y54000D02*
D03*
X0Y-15000D02*
D03*
X-9000Y91000D02*
D03*
X-38000Y-85000D02*
D03*
D22*
X17500Y75000D02*
D03*
X7500D02*
D03*
X-2500D02*
D03*
X-12500D02*
D03*
D23*
X30500Y114000D02*
D03*
X-25500D02*
D03*
D24*
X0Y-15000D02*
D03*
D25*
X-9000Y-30250D02*
D03*
X-4500D02*
D03*
X0D02*
D03*
X4500D02*
D03*
X9000D02*
D03*
Y250D02*
D03*
X4500D02*
D03*
X0D02*
D03*
X-4500D02*
D03*
X-9000D02*
D03*
D26*
X15250Y-24000D02*
D03*
Y-19500D02*
D03*
Y-15000D02*
D03*
Y-10500D02*
D03*
Y-6000D02*
D03*
X-15250D02*
D03*
Y-10500D02*
D03*
Y-15000D02*
D03*
Y-19500D02*
D03*
Y-24000D02*
D03*
D27*
X103000Y15000D02*
D03*
X77600D02*
D03*
X103000Y-10400D02*
D03*
X77600D02*
D03*
X103000Y-35800D02*
D03*
X77600D02*
D03*
M02*
