G04 Layer_Color=128*
%FSLAX44Y44*%
%MOMM*%
G71*
G01*
G75*
%ADD10R,0.6350X1.2700*%
%ADD11R,1.0160X0.8636*%
G04:AMPARAMS|DCode=14|XSize=1mm|YSize=0.9mm|CornerRadius=0.1125mm|HoleSize=0mm|Usage=FLASHONLY|Rotation=90.000|XOffset=0mm|YOffset=0mm|HoleType=Round|Shape=RoundedRectangle|*
%AMROUNDEDRECTD14*
21,1,1.0000,0.6750,0,0,90.0*
21,1,0.7750,0.9000,0,0,90.0*
1,1,0.2250,0.3375,0.3875*
1,1,0.2250,0.3375,-0.3875*
1,1,0.2250,-0.3375,-0.3875*
1,1,0.2250,-0.3375,0.3875*
%
%ADD14ROUNDEDRECTD14*%
%ADD22R,0.6000X1.5500*%
%ADD23R,1.2000X1.8000*%
%ADD24R,1.7000X1.7000*%
%ADD25O,0.2000X0.7500*%
%ADD26O,0.7500X0.2000*%
D10*
X-55080Y-85000D02*
D03*
X-44920D02*
D03*
X-55080Y-67000D02*
D03*
X-44920D02*
D03*
D11*
X-17526Y-103750D02*
D03*
X17500D02*
D03*
X-17526Y-86110D02*
D03*
X17500D02*
D03*
D14*
X-7000Y14000D02*
D03*
X10000D02*
D03*
X10000Y32000D02*
D03*
X-7000D02*
D03*
D22*
X17500Y75000D02*
D03*
X7500D02*
D03*
X-2500D02*
D03*
X-12500D02*
D03*
D23*
X30500Y114000D02*
D03*
X-25500D02*
D03*
D24*
X0Y-15000D02*
D03*
D25*
X-9000Y-30250D02*
D03*
X-4500D02*
D03*
X0D02*
D03*
X4500D02*
D03*
X9000D02*
D03*
Y250D02*
D03*
X4500D02*
D03*
X0D02*
D03*
X-4500D02*
D03*
X-9000D02*
D03*
D26*
X15250Y-24000D02*
D03*
Y-19500D02*
D03*
Y-15000D02*
D03*
Y-10500D02*
D03*
Y-6000D02*
D03*
X-15250D02*
D03*
Y-10500D02*
D03*
Y-15000D02*
D03*
Y-19500D02*
D03*
Y-24000D02*
D03*
M02*
