M48
;Layer_Color=9474304
;FILE_FORMAT=4:4
METRIC
;TYPE=PLATED
T1F00S00C0.2000
T2F00S00C0.2500
T3F00S00C0.3000
T4F00S00C1.0160
T5F00S00C3.2000
%
T01
X00000000Y-00015000
T02
X-00038000Y-00085000
X-00022812Y-00042991
X-00013748Y-00049054
X00004500Y-00044326
X00010000Y-00051000
X00038000
Y-00005000
X00061182Y-00018574
X-00023146Y-00004604
X-00029750Y-00010500
X-00036608Y-00015104
X-00020357Y00011652
X00005000Y00054000
X00017500Y-00095282
Y-00112554
X-00009000Y00091000
T03
X00077600Y-00035800
Y-00010400
Y00015000
X00103000
Y-00010400
Y-00035800
T04
X-00110270Y-00038200
X-00107730Y-00012800
X-00110270Y00012600
X-00107730Y00038000
T05
X-00100000Y-00100000
X00100000
Y00100000
X-00100000
M30
