G04 Layer_Color=65535*
%FSLAX44Y44*%
%MOMM*%
G71*
G01*
G75*
%ADD15C,0.2000*%
%ADD26C,0.2032*%
%ADD27C,0.1270*%
%ADD28C,0.1800*%
%ADD29C,0.1500*%
G36*
X2540Y-95000D02*
X0D01*
Y-92460D01*
X2540D01*
Y-95000D01*
D02*
G37*
D15*
X-121700Y-50900D02*
X-96300D01*
X-121700D02*
Y50700D01*
X-96300Y-50900D02*
Y50700D01*
X-121700D02*
X-96300D01*
D26*
X-21774Y-13780D02*
G03*
X-21774Y-13780I-2286J0D01*
G01*
X-31500Y-20000D02*
Y20066D01*
D27*
X19050Y-114000D02*
Y-111000D01*
X-19000Y-114000D02*
X19050D01*
X-19000D02*
Y-111000D01*
X19050Y-78998D02*
Y-75950D01*
X-19000D02*
X19050D01*
X-19000Y-78998D02*
Y-75950D01*
X-84762Y5722D02*
X-75238D01*
X-84762Y9278D02*
X-75238D01*
X-67262Y5722D02*
X-57738D01*
X-67262Y9278D02*
X-57738D01*
X-49762Y5722D02*
X-40238D01*
X-49762Y9278D02*
X-40238D01*
X27476Y48936D02*
X30524D01*
X27476Y57064D02*
X30524D01*
D28*
X-65700Y92800D02*
Y101797D01*
X-62701Y98798D01*
X-59702Y101797D01*
Y92800D01*
X-55203D02*
X-52204D01*
X-50705Y94299D01*
Y97298D01*
X-52204Y98798D01*
X-55203D01*
X-56703Y97298D01*
Y94299D01*
X-55203Y92800D01*
X-41708Y101797D02*
Y92800D01*
X-46206D01*
X-47706Y94299D01*
Y97298D01*
X-46206Y98798D01*
X-41708D01*
X-38709D02*
Y94299D01*
X-37209Y92800D01*
X-32711D01*
Y98798D01*
X-29712Y92800D02*
X-26713D01*
X-28212D01*
Y101797D01*
X-29712D01*
X-17716Y92800D02*
X-20715D01*
X-22214Y94299D01*
Y97298D01*
X-20715Y98798D01*
X-17716D01*
X-16216Y97298D01*
Y95799D01*
X-22214D01*
X-4220Y101797D02*
Y95799D01*
X-1221Y92800D01*
X1778Y95799D01*
Y101797D01*
X4777Y100298D02*
X6277Y101797D01*
X9276D01*
X10775Y100298D01*
Y94299D01*
X9276Y92800D01*
X6277D01*
X4777Y94299D01*
Y100298D01*
X13774Y92800D02*
Y94299D01*
X15274D01*
Y92800D01*
X13774D01*
X21272Y100298D02*
X22771Y101797D01*
X25770D01*
X27270Y100298D01*
Y98798D01*
X25770Y97298D01*
X24271D01*
X25770D01*
X27270Y95799D01*
Y94299D01*
X25770Y92800D01*
X22771D01*
X21272Y94299D01*
X30269Y92800D02*
Y98798D01*
X33268Y101797D01*
X36267Y98798D01*
Y92800D01*
Y97298D01*
X30269D01*
X-65700Y111215D02*
Y120212D01*
X-62701Y117213D01*
X-59702Y120212D01*
Y111215D01*
X-55203Y117213D02*
X-52204D01*
X-50705Y115714D01*
Y111215D01*
X-55203D01*
X-56703Y112715D01*
X-55203Y114214D01*
X-50705D01*
X-44707Y108216D02*
X-43207D01*
X-41708Y109716D01*
Y117213D01*
X-46206D01*
X-47706Y115714D01*
Y112715D01*
X-46206Y111215D01*
X-41708D01*
X-38709D02*
Y117213D01*
X-34210D01*
X-32711Y115714D01*
Y111215D01*
X-25213D02*
X-28212D01*
X-29712Y112715D01*
Y115714D01*
X-28212Y117213D01*
X-25213D01*
X-23714Y115714D01*
Y114214D01*
X-29712D01*
X-19215Y118713D02*
Y117213D01*
X-20715D01*
X-17716D01*
X-19215D01*
Y112715D01*
X-17716Y111215D01*
X-13217D02*
X-10218D01*
X-11717D01*
Y117213D01*
X-13217D01*
X279D02*
X-4220D01*
X-5719Y115714D01*
Y112715D01*
X-4220Y111215D01*
X279D01*
X18273Y120212D02*
X12275D01*
Y111215D01*
X18273D01*
X12275Y115714D02*
X15274D01*
X21272Y111215D02*
Y117213D01*
X25770D01*
X27270Y115714D01*
Y111215D01*
X36267Y117213D02*
X31768D01*
X30269Y115714D01*
Y112715D01*
X31768Y111215D01*
X36267D01*
X40766D02*
X43765D01*
X45264Y112715D01*
Y115714D01*
X43765Y117213D01*
X40766D01*
X39266Y115714D01*
Y112715D01*
X40766Y111215D01*
X54261Y120212D02*
Y111215D01*
X49763D01*
X48263Y112715D01*
Y115714D01*
X49763Y117213D01*
X54261D01*
X61759Y111215D02*
X58760D01*
X57260Y112715D01*
Y115714D01*
X58760Y117213D01*
X61759D01*
X63258Y115714D01*
Y114214D01*
X57260D01*
X66257Y117213D02*
Y111215D01*
Y114214D01*
X67757Y115714D01*
X69256Y117213D01*
X70756D01*
D29*
X-45580Y36311D02*
X-46913Y37643D01*
X-49579D01*
X-50912Y36311D01*
Y30979D01*
X-49579Y29646D01*
X-46913D01*
X-45580Y30979D01*
X-42915Y29646D02*
X-40249D01*
X-41582D01*
Y37643D01*
X-42915Y36311D01*
X-63066Y36137D02*
X-64399Y37469D01*
X-67065D01*
X-68398Y36137D01*
Y30805D01*
X-67065Y29472D01*
X-64399D01*
X-63066Y30805D01*
X-55069Y29472D02*
X-60401D01*
X-55069Y34804D01*
Y36137D01*
X-56402Y37469D01*
X-59068D01*
X-60401Y36137D01*
X-80792Y36270D02*
X-82125Y37603D01*
X-84791D01*
X-86124Y36270D01*
Y30939D01*
X-84791Y29606D01*
X-82125D01*
X-80792Y30939D01*
X-78127Y36270D02*
X-76794Y37603D01*
X-74128D01*
X-72795Y36270D01*
Y34938D01*
X-74128Y33605D01*
X-75461D01*
X-74128D01*
X-72795Y32272D01*
Y30939D01*
X-74128Y29606D01*
X-76794D01*
X-78127Y30939D01*
X-31020Y54701D02*
Y48037D01*
X-29687Y46704D01*
X-27021D01*
X-25688Y48037D01*
Y54701D01*
X-23023Y46704D02*
X-20357D01*
X-21690D01*
Y54701D01*
X-23023Y53369D01*
X51022Y48990D02*
Y56987D01*
X55021D01*
X56354Y55655D01*
Y52989D01*
X55021Y51656D01*
X51022D01*
X53688D02*
X56354Y48990D01*
X59019D02*
X61685D01*
X60352D01*
Y56987D01*
X59019Y55655D01*
X-78000Y50665D02*
X-76667Y51997D01*
X-74001D01*
X-72668Y50665D01*
Y49332D01*
X-74001Y47999D01*
X-75334D01*
X-74001D01*
X-72668Y46666D01*
Y45333D01*
X-74001Y44000D01*
X-76667D01*
X-78000Y45333D01*
X-70003Y51997D02*
Y46666D01*
X-67337Y44000D01*
X-64671Y46666D01*
Y51997D01*
M02*
