G04 Layer_Color=8388736*
%FSLAX44Y44*%
%MOMM*%
G71*
G01*
G75*
%ADD30R,0.8382X1.4732*%
%ADD31R,1.2192X1.0668*%
%ADD32R,0.6096X1.8542*%
G04:AMPARAMS|DCode=33|XSize=1.2032mm|YSize=1.1032mm|CornerRadius=0.2141mm|HoleSize=0mm|Usage=FLASHONLY|Rotation=0.000|XOffset=0mm|YOffset=0mm|HoleType=Round|Shape=RoundedRectangle|*
%AMROUNDEDRECTD33*
21,1,1.2032,0.6750,0,0,0.0*
21,1,0.7750,1.1032,0,0,0.0*
1,1,0.4282,0.3875,-0.3375*
1,1,0.4282,-0.3875,-0.3375*
1,1,0.4282,-0.3875,0.3375*
1,1,0.4282,0.3875,0.3375*
%
%ADD33ROUNDEDRECTD33*%
G04:AMPARAMS|DCode=34|XSize=1.2032mm|YSize=1.1032mm|CornerRadius=0.2141mm|HoleSize=0mm|Usage=FLASHONLY|Rotation=90.000|XOffset=0mm|YOffset=0mm|HoleType=Round|Shape=RoundedRectangle|*
%AMROUNDEDRECTD34*
21,1,1.2032,0.6750,0,0,90.0*
21,1,0.7750,1.1032,0,0,90.0*
1,1,0.4282,0.3375,0.3875*
1,1,0.4282,0.3375,-0.3875*
1,1,0.4282,-0.3375,-0.3875*
1,1,0.4282,-0.3375,0.3875*
%
%ADD34ROUNDEDRECTD34*%
%ADD35C,0.8032*%
%ADD36C,3.8032*%
%ADD37R,1.7032X1.7032*%
%ADD38C,1.7032*%
%ADD39C,0.7032*%
D30*
X-48428Y47000D02*
D03*
X-57500D02*
D03*
D31*
X17526Y-103750D02*
D03*
X-17500D02*
D03*
X17526Y-86110D02*
D03*
X-17500D02*
D03*
D32*
X-28250Y30734D02*
D03*
X-21750D02*
D03*
X-15250D02*
D03*
X-2250D02*
D03*
X-8750D02*
D03*
X4250D02*
D03*
X10802D02*
D03*
X17406D02*
D03*
X23756D02*
D03*
X30360D02*
D03*
X-28250Y-30500D02*
D03*
X-21750D02*
D03*
X-15250D02*
D03*
X-8750D02*
D03*
X-2250D02*
D03*
X4250D02*
D03*
X10802D02*
D03*
X17406D02*
D03*
X23756D02*
D03*
X30360D02*
D03*
D33*
X-80000Y16000D02*
D03*
Y-1000D02*
D03*
X-62500Y16000D02*
D03*
Y-1000D02*
D03*
X-45000Y16000D02*
D03*
Y-1000D02*
D03*
D34*
X37500Y53000D02*
D03*
X20500D02*
D03*
D35*
X108000Y25399D02*
D03*
X82600D02*
D03*
X108000Y-0D02*
D03*
X82600D02*
D03*
X108000Y-25401D02*
D03*
X82600D02*
D03*
D36*
X-100000Y-100000D02*
D03*
X100000D02*
D03*
Y100000D02*
D03*
X-100000D02*
D03*
D37*
X-109000Y38000D02*
D03*
D38*
Y12600D02*
D03*
Y-12800D02*
D03*
Y-38200D02*
D03*
D39*
X22066Y-95282D02*
D03*
X7842Y-57182D02*
D03*
X66262Y36544D02*
D03*
X49752Y69564D02*
D03*
X-8750Y476D02*
D03*
X10802Y14192D02*
D03*
X-21750Y5142D02*
D03*
X-15018Y8188D02*
D03*
X-61246Y-30258D02*
D03*
X37500Y63048D02*
D03*
X-95028Y62706D02*
D03*
X-24924Y53308D02*
D03*
X-87662Y-39656D02*
D03*
X0Y-104000D02*
D03*
M02*
