G04 Layer_Color=8388736*
%FSLAX44Y44*%
%MOMM*%
G71*
G01*
G75*
%ADD32R,0.8382X1.4732*%
%ADD33R,1.2192X1.0668*%
%ADD34R,0.6096X1.8542*%
G04:AMPARAMS|DCode=35|XSize=1.2032mm|YSize=1.1032mm|CornerRadius=0.2141mm|HoleSize=0mm|Usage=FLASHONLY|Rotation=0.000|XOffset=0mm|YOffset=0mm|HoleType=Round|Shape=RoundedRectangle|*
%AMROUNDEDRECTD35*
21,1,1.2032,0.6750,0,0,0.0*
21,1,0.7750,1.1032,0,0,0.0*
1,1,0.4282,0.3875,-0.3375*
1,1,0.4282,-0.3875,-0.3375*
1,1,0.4282,-0.3875,0.3375*
1,1,0.4282,0.3875,0.3375*
%
%ADD35ROUNDEDRECTD35*%
G04:AMPARAMS|DCode=36|XSize=1.2032mm|YSize=1.1032mm|CornerRadius=0.2141mm|HoleSize=0mm|Usage=FLASHONLY|Rotation=90.000|XOffset=0mm|YOffset=0mm|HoleType=Round|Shape=RoundedRectangle|*
%AMROUNDEDRECTD36*
21,1,1.2032,0.6750,0,0,90.0*
21,1,0.7750,1.1032,0,0,90.0*
1,1,0.4282,0.3375,0.3875*
1,1,0.4282,0.3375,-0.3875*
1,1,0.4282,-0.3375,-0.3875*
1,1,0.4282,-0.3375,0.3875*
%
%ADD36ROUNDEDRECTD36*%
%ADD37C,0.8032*%
%ADD38C,3.8032*%
%ADD39R,2.0828X2.0828*%
%ADD40C,2.0828*%
%ADD41C,0.7032*%
D32*
X-48428Y47000D02*
D03*
X-57500D02*
D03*
D33*
X17526Y-103750D02*
D03*
X-17500D02*
D03*
X17526Y-86110D02*
D03*
X-17500D02*
D03*
D34*
X-28250Y30734D02*
D03*
X-21750D02*
D03*
X-15250D02*
D03*
X-2250D02*
D03*
X-8750D02*
D03*
X4250D02*
D03*
X10802D02*
D03*
X17406D02*
D03*
X23756D02*
D03*
X30360D02*
D03*
X-28250Y-30500D02*
D03*
X-21750D02*
D03*
X-15250D02*
D03*
X-8750D02*
D03*
X-2250D02*
D03*
X4250D02*
D03*
X10802D02*
D03*
X17406D02*
D03*
X23756D02*
D03*
X30360D02*
D03*
D35*
X-80000Y16000D02*
D03*
Y-1000D02*
D03*
X-62500Y16000D02*
D03*
Y-1000D02*
D03*
X-45000Y16000D02*
D03*
Y-1000D02*
D03*
D36*
X37500Y53000D02*
D03*
X20500D02*
D03*
D37*
X103000Y15000D02*
D03*
X77600D02*
D03*
X103000Y-10400D02*
D03*
X77600D02*
D03*
X103000Y-35800D02*
D03*
X77600D02*
D03*
D38*
X-100000Y-100000D02*
D03*
X100000D02*
D03*
Y100000D02*
D03*
X-100000D02*
D03*
D39*
X-107730Y38000D02*
D03*
D40*
X-110270Y12600D02*
D03*
X-107730Y-12800D02*
D03*
X-110270Y-38200D02*
D03*
D41*
X-22812Y-42991D02*
D03*
X-13748Y-49054D02*
D03*
X-29750Y-10500D02*
D03*
X-36608Y-15104D02*
D03*
X17500Y-112554D02*
D03*
X61182Y-18574D02*
D03*
X-20357Y11652D02*
D03*
X-23146Y-4604D02*
D03*
X17500Y-95282D02*
D03*
X38000Y-5000D02*
D03*
Y-51000D02*
D03*
X4500Y-44326D02*
D03*
X10000Y-51000D02*
D03*
X5000Y54000D02*
D03*
X0Y-15000D02*
D03*
X-9000Y91000D02*
D03*
X-38000Y-85000D02*
D03*
M02*
