G04 Layer_Physical_Order=1*
G04 Layer_Color=255*
%FSLAX44Y44*%
%MOMM*%
G71*
G01*
G75*
G04:AMPARAMS|DCode=10|XSize=1mm|YSize=0.9mm|CornerRadius=0.1125mm|HoleSize=0mm|Usage=FLASHONLY|Rotation=0.000|XOffset=0mm|YOffset=0mm|HoleType=Round|Shape=RoundedRectangle|*
%AMROUNDEDRECTD10*
21,1,1.0000,0.6750,0,0,0.0*
21,1,0.7750,0.9000,0,0,0.0*
1,1,0.2250,0.3875,-0.3375*
1,1,0.2250,-0.3875,-0.3375*
1,1,0.2250,-0.3875,0.3375*
1,1,0.2250,0.3875,0.3375*
%
%ADD10ROUNDEDRECTD10*%
%ADD11R,0.6350X1.2700*%
%ADD12R,0.4064X1.6510*%
%ADD13R,1.0160X0.8636*%
%ADD14C,0.2500*%
%ADD15C,0.2000*%
%ADD16C,0.2032*%
%ADD17C,0.3000*%
%ADD18C,1.2000*%
%ADD19C,3.6000*%
%ADD20C,1.5000*%
%ADD21C,0.5000*%
%ADD22C,0.6000*%
G36*
X25000Y246176D02*
X223772D01*
X225000Y246176D01*
X225000Y246176D01*
X225000Y246176D01*
Y246176D01*
X226234Y246088D01*
X229333Y245783D01*
X233499Y244519D01*
X237339Y242467D01*
X240705Y239705D01*
X243467Y236339D01*
X245519Y232499D01*
X246783Y228333D01*
X247088Y225234D01*
X247176Y224000D01*
X247176D01*
X247176Y224000D01*
Y25228D01*
X247176Y24000D01*
X247176Y24000D01*
X247176Y24000D01*
X247176D01*
X247088Y22766D01*
X246783Y19667D01*
X245519Y15501D01*
X243467Y11661D01*
X240705Y8295D01*
X237339Y5533D01*
X233499Y3481D01*
X229333Y2217D01*
X226234Y1912D01*
X225000Y1824D01*
Y1824D01*
X225000Y1824D01*
X26228D01*
X25000Y1824D01*
X25000Y1824D01*
X25000Y1824D01*
Y1824D01*
X23766Y1912D01*
X20667Y2217D01*
X16501Y3481D01*
X12661Y5533D01*
X9295Y8295D01*
X6533Y11661D01*
X4481Y15501D01*
X3217Y19667D01*
X2912Y22766D01*
X2824Y24000D01*
X2824D01*
X2824Y24000D01*
Y96414D01*
X4094Y96940D01*
X9249Y91786D01*
X8138Y90339D01*
X7232Y88149D01*
X6922Y85800D01*
X7232Y83450D01*
X8138Y81261D01*
X9581Y79381D01*
X11461Y77938D01*
X13650Y77032D01*
X16000Y76722D01*
X18349Y77032D01*
X20539Y77938D01*
X22419Y79381D01*
X23861Y81261D01*
X24768Y83450D01*
X25078Y85800D01*
X24768Y88149D01*
X23861Y90339D01*
X22419Y92219D01*
X20539Y93661D01*
X18349Y94568D01*
X16000Y94878D01*
X14310Y94655D01*
X7804Y101161D01*
Y103486D01*
X9074Y103859D01*
X10937Y102430D01*
X13379Y101418D01*
X14730Y101241D01*
Y111200D01*
Y121159D01*
X13379Y120982D01*
X10937Y119970D01*
X9074Y118540D01*
X7804Y118914D01*
Y130411D01*
X9074Y130842D01*
X9581Y130181D01*
X11461Y128738D01*
X13650Y127832D01*
X16000Y127522D01*
X18349Y127832D01*
X20084Y128550D01*
X46196Y102438D01*
Y76000D01*
X46410Y74927D01*
X47017Y74017D01*
X75017Y46017D01*
X75927Y45410D01*
X77000Y45196D01*
X150839D01*
X151940Y44094D01*
X151922Y44000D01*
X152232Y42439D01*
X153116Y41116D01*
X154439Y40232D01*
X156000Y39922D01*
X157561Y40232D01*
X158884Y41116D01*
X159768Y42439D01*
X160078Y44000D01*
X159768Y45561D01*
X159453Y46032D01*
X160369Y46947D01*
X161439Y46232D01*
X163000Y45922D01*
X164561Y46232D01*
X165884Y47116D01*
X166768Y48439D01*
X167078Y50000D01*
X166768Y51561D01*
X166019Y52681D01*
X166249Y53449D01*
X166573Y53951D01*
X194500D01*
X195476Y54145D01*
X196302Y54698D01*
X224802Y83198D01*
X225355Y84024D01*
X225549Y85000D01*
Y93904D01*
X226819Y94335D01*
X227651Y93251D01*
X229218Y92049D01*
X231042Y91293D01*
X233000Y91035D01*
X234958Y91293D01*
X236782Y92049D01*
X238349Y93251D01*
X239551Y94818D01*
X240307Y96642D01*
X240565Y98600D01*
X240307Y100558D01*
X239551Y102382D01*
X238349Y103949D01*
X236782Y105151D01*
X234958Y105907D01*
X233000Y106165D01*
X231042Y105907D01*
X229788Y105388D01*
X229069Y106464D01*
X234803Y112198D01*
X235355Y113025D01*
X235549Y114000D01*
Y116938D01*
X236782Y117449D01*
X238349Y118651D01*
X239551Y120218D01*
X240307Y122042D01*
X240565Y124000D01*
X240307Y125958D01*
X239551Y127782D01*
X238349Y129349D01*
X236782Y130551D01*
X234958Y131307D01*
X233000Y131565D01*
X231042Y131307D01*
X229218Y130551D01*
X227651Y129349D01*
X226449Y127782D01*
X225693Y125958D01*
X225435Y124000D01*
X225693Y122042D01*
X226449Y120218D01*
X227651Y118651D01*
X229218Y117449D01*
X230451Y116938D01*
Y115056D01*
X223222Y107827D01*
X222049Y108313D01*
Y134843D01*
X229809Y142604D01*
X231042Y142093D01*
X233000Y141835D01*
X234958Y142093D01*
X236782Y142849D01*
X238349Y144051D01*
X239551Y145618D01*
X240307Y147442D01*
X240565Y149400D01*
X240307Y151358D01*
X239551Y153182D01*
X238349Y154749D01*
X236782Y155951D01*
X234958Y156707D01*
X233000Y156965D01*
X231042Y156707D01*
X229218Y155951D01*
X227651Y154749D01*
X226449Y153182D01*
X225693Y151358D01*
X225435Y149400D01*
X225693Y147442D01*
X226204Y146208D01*
X217698Y137702D01*
X217145Y136875D01*
X216951Y135899D01*
Y101659D01*
X215681Y101407D01*
X215060Y102907D01*
X213691Y104691D01*
X211907Y106060D01*
X209829Y106920D01*
X208870Y107046D01*
Y98600D01*
Y90154D01*
X209829Y90280D01*
X211907Y91140D01*
X213691Y92509D01*
X215060Y94293D01*
X215681Y95793D01*
X216951Y95541D01*
Y89556D01*
X189944Y62549D01*
X181813D01*
X181327Y63722D01*
X194802Y77198D01*
X195355Y78025D01*
X195549Y79000D01*
Y106944D01*
X205399Y116794D01*
X205642Y116693D01*
X207600Y116435D01*
X209558Y116693D01*
X211382Y117449D01*
X212949Y118651D01*
X214151Y120218D01*
X214907Y122042D01*
X215165Y124000D01*
X214907Y125958D01*
X214151Y127782D01*
X212949Y129349D01*
X211382Y130551D01*
X209558Y131307D01*
X207600Y131565D01*
X205642Y131307D01*
X203818Y130551D01*
X202251Y129349D01*
X201049Y127782D01*
X200293Y125958D01*
X200035Y124000D01*
X200293Y122042D01*
X201049Y120218D01*
X201294Y119899D01*
X191198Y109802D01*
X190645Y108975D01*
X190451Y108000D01*
Y80056D01*
X176944Y66549D01*
X95056D01*
X93336Y68269D01*
X93239Y68756D01*
X92244Y70244D01*
X90756Y71239D01*
X89000Y71588D01*
X87244Y71239D01*
X85819Y70287D01*
X85464Y70360D01*
X84549Y70724D01*
Y77291D01*
X85244Y77756D01*
X86239Y79244D01*
X86588Y81000D01*
X86239Y82756D01*
X85244Y84244D01*
X83756Y85239D01*
X82000Y85588D01*
X80244Y85239D01*
X78756Y84244D01*
X77761Y82756D01*
X77412Y81000D01*
X77761Y79244D01*
X78756Y77756D01*
X79451Y77291D01*
Y65000D01*
X79464Y64937D01*
X78293Y64312D01*
X69425Y73180D01*
X69588Y74000D01*
X69239Y75756D01*
X68244Y77244D01*
X66756Y78239D01*
X65000Y78588D01*
X63244Y78239D01*
X61756Y77244D01*
X60859Y75902D01*
X60136Y75566D01*
X59571Y75395D01*
X55804Y79161D01*
Y125000D01*
X55590Y126073D01*
X54983Y126982D01*
X24050Y157915D01*
X24768Y159650D01*
X25078Y162000D01*
X24768Y164349D01*
X23861Y166539D01*
X22419Y168419D01*
X20539Y169861D01*
X18349Y170768D01*
X16000Y171078D01*
X13650Y170768D01*
X11461Y169861D01*
X9581Y168419D01*
X9074Y167758D01*
X7804Y168189D01*
Y173839D01*
X16161Y182196D01*
X45000D01*
X46073Y182410D01*
X46983Y183017D01*
X56023Y192058D01*
X57196Y191572D01*
Y167000D01*
X57410Y165927D01*
X58017Y165017D01*
X73017Y150017D01*
X73927Y149410D01*
X74771Y149242D01*
X75092Y148908D01*
X75225Y148717D01*
X75597Y147926D01*
X75388Y146875D01*
Y144770D01*
X83000D01*
Y143500D01*
X84270D01*
Y136388D01*
X86875D01*
X87926Y136597D01*
X89196Y135857D01*
Y133161D01*
X87468Y131433D01*
X86875Y131551D01*
X79125D01*
X78101Y131348D01*
X77232Y130767D01*
X76652Y129899D01*
X76449Y128875D01*
Y122125D01*
X76561Y121561D01*
X76000Y121000D01*
Y113795D01*
X75673Y113305D01*
X75388Y111875D01*
Y109770D01*
X90612D01*
Y111875D01*
X90327Y113305D01*
X90000Y113795D01*
Y121000D01*
X89439Y121561D01*
X89551Y122125D01*
Y125586D01*
X93983Y130017D01*
X105233Y141267D01*
X105840Y142177D01*
X106054Y143250D01*
Y144979D01*
X132998D01*
Y134111D01*
X132761Y133756D01*
X132412Y132000D01*
X132761Y130244D01*
X133756Y128756D01*
X135244Y127761D01*
X137000Y127412D01*
X138676Y127745D01*
X138949Y127742D01*
X139946Y127209D01*
Y122372D01*
X139756Y122244D01*
X138761Y120756D01*
X138412Y119000D01*
X138761Y117244D01*
X139756Y115756D01*
X141244Y114761D01*
X143000Y114412D01*
X144756Y114761D01*
X146244Y115756D01*
X147239Y117244D01*
X147588Y119000D01*
X147239Y120756D01*
X146244Y122244D01*
X146205Y122271D01*
X146236Y122907D01*
X146577Y123196D01*
X147540Y123702D01*
X149000Y123412D01*
X150756Y123761D01*
X152244Y124756D01*
X153239Y126244D01*
X153588Y128000D01*
X153239Y129756D01*
X152244Y131244D01*
X151804Y131539D01*
Y144979D01*
X158892D01*
Y164489D01*
X112554D01*
Y167250D01*
X112340Y168323D01*
X111733Y169233D01*
X107983Y172983D01*
X107073Y173590D01*
X106000Y173804D01*
X87000D01*
X85927Y173590D01*
X85017Y172983D01*
X81017Y168983D01*
X80722Y168540D01*
X79243Y168222D01*
X71304Y176161D01*
Y183150D01*
X82247D01*
Y187196D01*
X125069D01*
X125543Y185926D01*
X124761Y184756D01*
X124412Y183000D01*
X124761Y181244D01*
X125756Y179756D01*
X127244Y178761D01*
X129000Y178412D01*
X129820Y178575D01*
X136198Y172198D01*
X137025Y171645D01*
X138000Y171451D01*
X186291D01*
X186756Y170756D01*
X188244Y169761D01*
X190000Y169412D01*
X191756Y169761D01*
X193244Y170756D01*
X194239Y172244D01*
X194588Y174000D01*
X194239Y175756D01*
X193244Y177244D01*
X191756Y178239D01*
X190000Y178588D01*
X188244Y178239D01*
X186756Y177244D01*
X186291Y176549D01*
X184634D01*
X183955Y177819D01*
X184239Y178244D01*
X184588Y180000D01*
X184239Y181756D01*
X183244Y183244D01*
X182930Y183454D01*
Y184982D01*
X182983Y185017D01*
X187063Y189097D01*
X187670Y190007D01*
X187884Y191080D01*
Y191150D01*
X189755D01*
Y206850D01*
X180635D01*
Y207890D01*
X169205D01*
Y205361D01*
X168519Y205153D01*
X167935Y205034D01*
X166162Y206219D01*
X165270Y206396D01*
Y201000D01*
Y195604D01*
X166162Y195781D01*
X167935Y196966D01*
X168519Y196847D01*
X169205Y196639D01*
Y190110D01*
X168062Y189804D01*
X156937D01*
X156884Y189884D01*
X155561Y190768D01*
X154000Y191078D01*
X152439Y190768D01*
X151116Y189884D01*
X150232Y188561D01*
X149922Y187000D01*
X150232Y185439D01*
X151116Y184116D01*
X151180Y184074D01*
X150794Y182804D01*
X143161D01*
X133982Y191983D01*
X133073Y192591D01*
X132000Y192804D01*
X82247D01*
Y198850D01*
X80376D01*
Y200428D01*
X80162Y201501D01*
X79555Y202411D01*
X77983Y203983D01*
X77073Y204590D01*
X76000Y204804D01*
X62000D01*
X60927Y204590D01*
X60017Y203983D01*
X58017Y201983D01*
X43839Y187804D01*
X15000D01*
X13927Y187590D01*
X13017Y186983D01*
X4094Y178060D01*
X2824Y178586D01*
Y222772D01*
X2824Y224000D01*
X2824Y224000D01*
X2824Y224000D01*
X2824D01*
X2912Y225234D01*
X3217Y228333D01*
X4481Y232499D01*
X6533Y236339D01*
X9295Y239705D01*
X12661Y242467D01*
X16501Y244519D01*
X20667Y245783D01*
X23766Y246088D01*
X25000Y246176D01*
Y246176D01*
X25000Y246176D01*
D02*
G37*
G36*
X9581Y155581D02*
X11461Y154138D01*
X13650Y153232D01*
X16000Y152922D01*
X18349Y153232D01*
X20084Y153950D01*
X50196Y123839D01*
Y108028D01*
X49023Y107542D01*
X24050Y132515D01*
X24768Y134250D01*
X25078Y136600D01*
X24768Y138949D01*
X23861Y141139D01*
X22419Y143019D01*
X20539Y144461D01*
X18349Y145368D01*
X16000Y145678D01*
X13650Y145368D01*
X11461Y144461D01*
X9581Y143019D01*
X9074Y142358D01*
X7804Y142789D01*
Y155811D01*
X9074Y156242D01*
X9581Y155581D01*
D02*
G37*
%LPC*%
G36*
X225000Y243594D02*
X221177Y243218D01*
X217501Y242103D01*
X214114Y240292D01*
X211145Y237855D01*
X208708Y234886D01*
X206897Y231498D01*
X205782Y227822D01*
X205406Y224000D01*
X205782Y220177D01*
X206897Y216501D01*
X208708Y213114D01*
X211145Y210145D01*
X214114Y207708D01*
X217501Y205897D01*
X221177Y204782D01*
X225000Y204405D01*
X228822Y204782D01*
X232498Y205897D01*
X235886Y207708D01*
X238855Y210145D01*
X241292Y213114D01*
X243103Y216501D01*
X244218Y220177D01*
X244594Y224000D01*
X244218Y227822D01*
X243103Y231498D01*
X241292Y234886D01*
X238855Y237855D01*
X235886Y240292D01*
X232498Y242103D01*
X228822Y243218D01*
X225000Y243594D01*
D02*
G37*
G36*
X25000D02*
X21177Y243218D01*
X17502Y242103D01*
X14114Y240292D01*
X11145Y237855D01*
X8708Y234886D01*
X6897Y231498D01*
X5782Y227822D01*
X5406Y224000D01*
X5782Y220177D01*
X6897Y216501D01*
X8708Y213114D01*
X11145Y210145D01*
X14114Y207708D01*
X17502Y205897D01*
X21177Y204782D01*
X25000Y204405D01*
X28823Y204782D01*
X32499Y205897D01*
X35886Y207708D01*
X38856Y210145D01*
X41292Y213114D01*
X43103Y216501D01*
X44218Y220177D01*
X44595Y224000D01*
X44218Y227822D01*
X43103Y231498D01*
X41292Y234886D01*
X38856Y237855D01*
X35886Y240292D01*
X32499Y242103D01*
X28823Y243218D01*
X25000Y243594D01*
D02*
G37*
G36*
X162730Y206396D02*
X161838Y206219D01*
X160006Y204994D01*
X158781Y203162D01*
X158604Y202270D01*
X162730D01*
Y206396D01*
D02*
G37*
G36*
Y199730D02*
X158604D01*
X158781Y198838D01*
X160006Y197006D01*
X161838Y195781D01*
X162730Y195604D01*
Y199730D01*
D02*
G37*
G36*
X189270Y159396D02*
Y155270D01*
X193396D01*
X193219Y156162D01*
X191994Y157994D01*
X190162Y159219D01*
X189270Y159396D01*
D02*
G37*
G36*
X186730D02*
X185838Y159219D01*
X184006Y157994D01*
X182781Y156162D01*
X182604Y155270D01*
X186730D01*
Y159396D01*
D02*
G37*
G36*
X193396Y152730D02*
X189270D01*
Y148604D01*
X190162Y148781D01*
X191994Y150006D01*
X193219Y151838D01*
X193396Y152730D01*
D02*
G37*
G36*
X186730D02*
X182604D01*
X182781Y151838D01*
X184006Y150006D01*
X185838Y148781D01*
X186730Y148604D01*
Y152730D01*
D02*
G37*
G36*
X207600Y156965D02*
X205642Y156707D01*
X203818Y155951D01*
X202251Y154749D01*
X201049Y153182D01*
X200293Y151358D01*
X200035Y149400D01*
X200293Y147442D01*
X201049Y145618D01*
X202251Y144051D01*
X203818Y142849D01*
X205642Y142093D01*
X207600Y141835D01*
X209558Y142093D01*
X211382Y142849D01*
X212949Y144051D01*
X214151Y145618D01*
X214907Y147442D01*
X215165Y149400D01*
X214907Y151358D01*
X214151Y153182D01*
X212949Y154749D01*
X211382Y155951D01*
X209558Y156707D01*
X207600Y156965D01*
D02*
G37*
G36*
X81730Y142230D02*
X75388D01*
Y140125D01*
X75673Y138695D01*
X76483Y137483D01*
X77695Y136673D01*
X79125Y136388D01*
X81730D01*
Y142230D01*
D02*
G37*
G36*
X181270Y123396D02*
Y119270D01*
X185396D01*
X185219Y120162D01*
X183994Y121994D01*
X182162Y123219D01*
X181270Y123396D01*
D02*
G37*
G36*
X178730D02*
X177838Y123219D01*
X176006Y121994D01*
X174781Y120162D01*
X174604Y119270D01*
X178730D01*
Y123396D01*
D02*
G37*
G36*
X185396Y116730D02*
X181270D01*
Y112604D01*
X182162Y112781D01*
X183994Y114006D01*
X185219Y115838D01*
X185396Y116730D01*
D02*
G37*
G36*
X178730D02*
X174604D01*
X174781Y115838D01*
X176006Y114006D01*
X177838Y112781D01*
X178730Y112604D01*
Y116730D01*
D02*
G37*
G36*
X17270Y121159D02*
Y112470D01*
X25959D01*
X25782Y113821D01*
X24770Y116263D01*
X23161Y118361D01*
X21063Y119970D01*
X18621Y120982D01*
X17270Y121159D01*
D02*
G37*
G36*
X90612Y107230D02*
X84270D01*
Y101388D01*
X86875D01*
X88305Y101673D01*
X89517Y102483D01*
X90327Y103695D01*
X90612Y105125D01*
Y107230D01*
D02*
G37*
G36*
X81730D02*
X75388D01*
Y105125D01*
X75673Y103695D01*
X76483Y102483D01*
X77695Y101673D01*
X79125Y101388D01*
X81730D01*
Y107230D01*
D02*
G37*
G36*
X25959Y109930D02*
X17270D01*
Y101241D01*
X18621Y101418D01*
X21063Y102430D01*
X23161Y104039D01*
X24770Y106137D01*
X25782Y108579D01*
X25959Y109930D01*
D02*
G37*
G36*
X206330Y107046D02*
X205371Y106920D01*
X203293Y106060D01*
X201509Y104691D01*
X200140Y102907D01*
X199280Y100829D01*
X199153Y99870D01*
X206330D01*
Y107046D01*
D02*
G37*
G36*
Y97330D02*
X199153D01*
X199280Y96371D01*
X200140Y94293D01*
X201509Y92509D01*
X203293Y91140D01*
X205371Y90280D01*
X206330Y90154D01*
Y97330D01*
D02*
G37*
G36*
X146978Y104295D02*
X143676D01*
Y93500D01*
Y82705D01*
X146978D01*
Y83745D01*
X158892D01*
Y103255D01*
X146978D01*
Y104295D01*
D02*
G37*
G36*
X116000Y122078D02*
X114439Y121768D01*
X113116Y120884D01*
X112232Y119561D01*
X111922Y118000D01*
X112232Y116439D01*
X113116Y115116D01*
X113196Y115063D01*
Y103255D01*
X93218D01*
Y83745D01*
X137834D01*
Y82705D01*
X141136D01*
Y93500D01*
Y104295D01*
X138804D01*
Y107000D01*
X138590Y108073D01*
X137983Y108983D01*
X137060Y109906D01*
X137078Y110000D01*
X136768Y111561D01*
X135884Y112884D01*
X134561Y113768D01*
X133000Y114078D01*
X131439Y113768D01*
X130116Y112884D01*
X129232Y111561D01*
X128922Y110000D01*
X129232Y108439D01*
X130116Y107116D01*
X131439Y106232D01*
X133000Y105922D01*
X133196Y104686D01*
Y103255D01*
X125554D01*
Y109813D01*
X125634Y109866D01*
X126518Y111189D01*
X126828Y112750D01*
X126518Y114311D01*
X125634Y115634D01*
X124311Y116518D01*
X122750Y116828D01*
X121189Y116518D01*
X121061Y116433D01*
X119918Y117196D01*
X120078Y118000D01*
X119768Y119561D01*
X118884Y120884D01*
X117561Y121768D01*
X116000Y122078D01*
D02*
G37*
G36*
X128270Y41396D02*
Y37270D01*
X132396D01*
X132219Y38162D01*
X130994Y39994D01*
X129162Y41219D01*
X128270Y41396D01*
D02*
G37*
G36*
X125730D02*
X124838Y41219D01*
X123006Y39994D01*
X121781Y38162D01*
X121604Y37270D01*
X125730D01*
Y41396D01*
D02*
G37*
G36*
X150146Y42748D02*
X143796D01*
Y37160D01*
X150146D01*
Y42748D01*
D02*
G37*
G36*
X141256D02*
X134906D01*
Y37160D01*
X141256D01*
Y42748D01*
D02*
G37*
G36*
X132396Y34730D02*
X128270D01*
Y30604D01*
X129162Y30781D01*
X130994Y32006D01*
X132219Y33838D01*
X132396Y34730D01*
D02*
G37*
G36*
X125730D02*
X121604D01*
X121781Y33838D01*
X123006Y32006D01*
X124838Y30781D01*
X125730Y30604D01*
Y34730D01*
D02*
G37*
G36*
X150146Y34620D02*
X143796D01*
Y29032D01*
X150146D01*
Y34620D01*
D02*
G37*
G36*
X141256D02*
X134906D01*
Y29032D01*
X141256D01*
Y34620D01*
D02*
G37*
G36*
X114080Y41708D02*
X100920D01*
Y30072D01*
X109187D01*
X111739Y27520D01*
X111636Y27000D01*
X111966Y25338D01*
X111947Y25048D01*
X111424Y24068D01*
X100920D01*
Y12432D01*
X114080D01*
Y15446D01*
X121712D01*
X122006Y15006D01*
X123494Y14011D01*
X125250Y13662D01*
X127006Y14011D01*
X128495Y15006D01*
X129489Y16494D01*
X129838Y18250D01*
X129489Y20006D01*
X128495Y21495D01*
X127006Y22489D01*
X125250Y22838D01*
X123494Y22489D01*
X122006Y21495D01*
X121712Y21054D01*
X115441D01*
X115362Y21288D01*
X116197Y22376D01*
X116315Y22430D01*
X117980Y22761D01*
X119468Y23756D01*
X120463Y25244D01*
X120812Y27000D01*
X120463Y28756D01*
X119468Y30244D01*
X117980Y31239D01*
X116224Y31588D01*
X115704Y31485D01*
X114080Y33109D01*
Y41708D01*
D02*
G37*
G36*
X149106Y24068D02*
X135946D01*
Y12432D01*
X149106D01*
Y24068D01*
D02*
G37*
G36*
X225000Y43595D02*
X221177Y43218D01*
X217501Y42103D01*
X214114Y40292D01*
X211145Y37856D01*
X208708Y34886D01*
X206897Y31499D01*
X205782Y27823D01*
X205406Y24000D01*
X205782Y20178D01*
X206897Y16502D01*
X208708Y13114D01*
X211145Y10145D01*
X214114Y7708D01*
X217501Y5897D01*
X221177Y4782D01*
X225000Y4406D01*
X228822Y4782D01*
X232498Y5897D01*
X235886Y7708D01*
X238855Y10145D01*
X241292Y13114D01*
X243103Y16502D01*
X244218Y20178D01*
X244594Y24000D01*
X244218Y27823D01*
X243103Y31499D01*
X241292Y34886D01*
X238855Y37856D01*
X235886Y40292D01*
X232498Y42103D01*
X228822Y43218D01*
X225000Y43595D01*
D02*
G37*
G36*
X25000D02*
X21177Y43218D01*
X17502Y42103D01*
X14114Y40292D01*
X11145Y37856D01*
X8708Y34886D01*
X6897Y31499D01*
X5782Y27823D01*
X5406Y24000D01*
X5782Y20178D01*
X6897Y16502D01*
X8708Y13114D01*
X11145Y10145D01*
X14114Y7708D01*
X17502Y5897D01*
X21177Y4782D01*
X25000Y4406D01*
X28823Y4782D01*
X32499Y5897D01*
X35886Y7708D01*
X38856Y10145D01*
X41292Y13114D01*
X43103Y16502D01*
X44218Y20178D01*
X44595Y24000D01*
X44218Y27823D01*
X43103Y31499D01*
X41292Y34886D01*
X38856Y37856D01*
X35886Y40292D01*
X32499Y42103D01*
X28823Y43218D01*
X25000Y43595D01*
D02*
G37*
%LPD*%
D10*
X83000Y108500D02*
D03*
Y125500D02*
D03*
Y143500D02*
D03*
Y160500D02*
D03*
D11*
X185080Y199000D02*
D03*
X174920D02*
D03*
X77572Y191000D02*
D03*
X68500D02*
D03*
D12*
X96750Y154734D02*
D03*
X103250D02*
D03*
X109750D02*
D03*
X122750D02*
D03*
X116250D02*
D03*
X129250D02*
D03*
X135802D02*
D03*
X142406D02*
D03*
X148756D02*
D03*
X155360D02*
D03*
X96750Y93500D02*
D03*
X103250D02*
D03*
X109750D02*
D03*
X116250D02*
D03*
X122750D02*
D03*
X129250D02*
D03*
X135802D02*
D03*
X142406D02*
D03*
X148756D02*
D03*
X155360D02*
D03*
D13*
X142526Y18250D02*
D03*
X107500D02*
D03*
X142526Y35890D02*
D03*
X107500D02*
D03*
D14*
X185080Y191080D02*
Y199000D01*
X181000Y187000D02*
X185080Y191080D01*
X154000Y187000D02*
X181000D01*
X152000Y48000D02*
X156000Y44000D01*
X77000Y48000D02*
X152000D01*
X49000Y76000D02*
X77000Y48000D01*
X78118Y52750D02*
X160250D01*
X59250Y71618D02*
X78118Y52750D01*
X16000Y162000D02*
X53000Y125000D01*
Y78000D02*
Y125000D01*
Y78000D02*
X59250Y71750D01*
Y71618D02*
Y71750D01*
X160250Y52750D02*
X163000Y50000D01*
X16000Y136600D02*
X49000Y103600D01*
Y76000D02*
Y103600D01*
X45000Y185000D02*
X62000Y202000D01*
X15000Y185000D02*
X45000D01*
X5000Y175000D02*
X15000Y185000D01*
X5000Y100000D02*
Y175000D01*
Y100000D02*
X16000Y89000D01*
Y85800D02*
Y89000D01*
X87000Y171000D02*
X106000D01*
X83000Y167000D02*
X87000Y171000D01*
X83000Y160500D02*
Y167000D01*
X109750Y154734D02*
Y167250D01*
X106000Y171000D02*
X109750Y167250D01*
X77572Y191000D02*
Y200428D01*
X76000Y202000D02*
X77572Y200428D01*
X62000Y202000D02*
X76000D01*
X75000Y152000D02*
X89000D01*
X60000Y167000D02*
X75000Y152000D01*
X60000Y167000D02*
Y200000D01*
X62000Y202000D01*
X73000Y118500D02*
X83000Y108500D01*
X73000Y118500D02*
Y140000D01*
X76500Y143500D01*
X83000D01*
X85500Y125500D02*
X92000Y132000D01*
X83000Y125500D02*
X85500D01*
X92000Y132000D02*
X103250Y143250D01*
X92000Y132000D02*
Y145276D01*
X91968Y145308D02*
X92000Y145276D01*
X91968Y145308D02*
Y149032D01*
X89000Y152000D02*
X91968Y149032D01*
X103250Y154734D02*
X103250Y154734D01*
X103250Y143250D02*
Y154734D01*
X68500Y175000D02*
Y190000D01*
Y175000D02*
X83000Y160500D01*
Y91000D02*
Y108500D01*
X142406Y82406D02*
Y93500D01*
X139000Y79000D02*
X142406Y82406D01*
X95000Y79000D02*
X139000D01*
X83000Y91000D02*
X95000Y79000D01*
X135802Y93500D02*
X136000Y93698D01*
Y107000D01*
X133000Y110000D02*
X136000Y107000D01*
X122750Y93500D02*
Y112750D01*
X116000Y93750D02*
X116250Y93500D01*
X116000Y93750D02*
Y118000D01*
X168000Y199000D02*
X172424D01*
X166000Y201000D02*
X168000Y199000D01*
X164000Y201000D02*
X166000D01*
X77572Y190000D02*
X132000D01*
X142000Y180000D01*
X180000D01*
X148756Y154734D02*
X149000Y154490D01*
Y128000D02*
Y154490D01*
X142750Y119250D02*
X143000Y119000D01*
X142750Y119250D02*
Y154390D01*
X142406Y154734D02*
X142750Y154390D01*
X135802Y133198D02*
Y154734D01*
Y133198D02*
X137000Y132000D01*
X107500Y35724D02*
Y35890D01*
Y35724D02*
X116224Y27000D01*
X107500Y18250D02*
X125250D01*
D15*
X82500Y56500D02*
X194500D01*
X65000Y74000D02*
X82500Y56500D01*
X87000Y60000D02*
X191000D01*
X82000Y65000D02*
X87000Y60000D01*
X94000Y64000D02*
X178000D01*
X91000Y67000D02*
X94000Y64000D01*
X219500Y135899D02*
X233000Y149399D01*
X219500Y88500D02*
Y135899D01*
X191000Y60000D02*
X219500Y88500D01*
X223000Y104000D02*
X233000Y114000D01*
X223000Y85000D02*
Y104000D01*
X194500Y56500D02*
X223000Y85000D01*
X82000Y65000D02*
Y81000D01*
X89000Y67000D02*
X91000D01*
X178000Y64000D02*
X193000Y79000D01*
Y108000D01*
X207600Y122600D01*
Y124000D01*
X233000Y114000D02*
Y124000D01*
X129000Y183000D02*
X138000Y174000D01*
X190000D01*
D16*
X176190Y199000D02*
X183810D01*
D17*
X127000Y36000D02*
X127110Y35890D01*
X142526D01*
D18*
X207600Y98600D02*
D03*
X233000D02*
D03*
X207600Y124000D02*
D03*
X233000D02*
D03*
X207600Y149400D02*
D03*
X233000D02*
D03*
D19*
X25000Y24000D02*
D03*
X225000D02*
D03*
Y224000D02*
D03*
X25000D02*
D03*
D20*
X16000Y162000D02*
D03*
Y136600D02*
D03*
Y111200D02*
D03*
Y85800D02*
D03*
D21*
X154000Y187000D02*
D03*
X163000Y50000D02*
D03*
X156000Y44000D02*
D03*
X133000Y110000D02*
D03*
X122750Y112750D02*
D03*
X116000Y118000D02*
D03*
D22*
X89000Y67000D02*
D03*
X164000Y201000D02*
D03*
X180000Y180000D02*
D03*
X82000Y81000D02*
D03*
X65000Y74000D02*
D03*
X129000Y183000D02*
D03*
X190000Y174000D02*
D03*
X149000Y128000D02*
D03*
X143000Y119000D02*
D03*
X137000Y132000D02*
D03*
X116224Y27000D02*
D03*
X125250Y18250D02*
D03*
X127000Y36000D02*
D03*
X180000Y118000D02*
D03*
X188000Y154000D02*
D03*
M02*
