M48
;Layer_Color=9474304
;FILE_FORMAT=4:4
METRIC
;TYPE=PLATED
T1F00S00C0.2500
T2F00S00C0.3000
T3F00S00C0.6000
T4F00S00C0.9500
T5F00S00C3.2000
%
T01
X00156000Y00044000
X00163000Y00050000
X00133000Y00110000
X00122750Y00112750
X00116000Y00118000
X00154000Y00187000
T02
X00065000Y00074000
X00082000Y00081000
X00089000Y00067000
X00116224Y00027000
X00125250Y00018250
X00127000Y00036000
X00143000Y00119000
X00149000Y00128000
X00137000Y00132000
X00180000Y00118000
X00188000Y00154000
X00190000Y00174000
X00180000Y00180000
X00129000Y00183000
X00164000Y00201000
T03
X00207600Y00098600
X00233000
Y00124000
X00207600
Y00149400
X00233000
T04
X00016000Y00085800
Y00111200
Y00136600
Y00162000
T05
X00025000Y00024000
X00225000
Y00224000
X00025000
M30
