G04 Layer_Color=128*
%FSLAX44Y44*%
%MOMM*%
G71*
G01*
G75*
G04:AMPARAMS|DCode=10|XSize=1mm|YSize=0.9mm|CornerRadius=0.1125mm|HoleSize=0mm|Usage=FLASHONLY|Rotation=0.000|XOffset=0mm|YOffset=0mm|HoleType=Round|Shape=RoundedRectangle|*
%AMROUNDEDRECTD10*
21,1,1.0000,0.6750,0,0,0.0*
21,1,0.7750,0.9000,0,0,0.0*
1,1,0.2250,0.3875,-0.3375*
1,1,0.2250,-0.3875,-0.3375*
1,1,0.2250,-0.3875,0.3375*
1,1,0.2250,0.3875,0.3375*
%
%ADD10ROUNDEDRECTD10*%
%ADD11R,0.6350X1.2700*%
%ADD13R,1.0160X0.8636*%
G04:AMPARAMS|DCode=23|XSize=1.4mm|YSize=1mm|CornerRadius=0.125mm|HoleSize=0mm|Usage=FLASHONLY|Rotation=0.000|XOffset=0mm|YOffset=0mm|HoleType=Round|Shape=RoundedRectangle|*
%AMROUNDEDRECTD23*
21,1,1.4000,0.7500,0,0,0.0*
21,1,1.1500,1.0000,0,0,0.0*
1,1,0.2500,0.5750,-0.3750*
1,1,0.2500,-0.5750,-0.3750*
1,1,0.2500,-0.5750,0.3750*
1,1,0.2500,0.5750,0.3750*
%
%ADD23ROUNDEDRECTD23*%
%ADD24O,0.5500X1.6500*%
%ADD25O,1.6500X0.5500*%
%ADD26R,0.6000X1.5500*%
%ADD27R,1.2000X1.8000*%
D10*
X62000Y125500D02*
D03*
Y108500D02*
D03*
X205000Y170500D02*
D03*
Y187500D02*
D03*
X188000Y95500D02*
D03*
Y112500D02*
D03*
X188000Y128500D02*
D03*
Y145500D02*
D03*
D11*
X70000Y189000D02*
D03*
X80160D02*
D03*
X70000Y207000D02*
D03*
X80160D02*
D03*
D13*
X107474Y18250D02*
D03*
X142500D02*
D03*
X107474Y35890D02*
D03*
X142500D02*
D03*
D23*
X180000Y208000D02*
D03*
Y190000D02*
D03*
D24*
X153000Y166000D02*
D03*
X145000D02*
D03*
X137000D02*
D03*
X129000D02*
D03*
X121000D02*
D03*
X113000D02*
D03*
X105000D02*
D03*
X97000D02*
D03*
Y82000D02*
D03*
X105000D02*
D03*
X113000D02*
D03*
X121000D02*
D03*
X129000D02*
D03*
X137000D02*
D03*
X145000D02*
D03*
X153000D02*
D03*
D25*
X83000Y152000D02*
D03*
Y144000D02*
D03*
Y136000D02*
D03*
Y128000D02*
D03*
Y120000D02*
D03*
Y112000D02*
D03*
Y104000D02*
D03*
Y96000D02*
D03*
X167000D02*
D03*
Y104000D02*
D03*
Y112000D02*
D03*
Y120000D02*
D03*
Y128000D02*
D03*
Y136000D02*
D03*
Y144000D02*
D03*
Y152000D02*
D03*
D26*
X142500Y199000D02*
D03*
X132500D02*
D03*
X122500D02*
D03*
X112500D02*
D03*
D27*
X155500Y238000D02*
D03*
X99500D02*
D03*
M02*
