G04 Layer_Color=65535*
%FSLAX44Y44*%
%MOMM*%
G71*
G01*
G75*
%ADD16C,0.2032*%
%ADD30C,0.1270*%
%ADD31C,0.2540*%
%ADD32C,0.1800*%
%ADD33C,0.1500*%
G36*
X98741Y75872D02*
X98975D01*
X99114Y75861D01*
X99184D01*
X99243Y75849D01*
X99359D01*
X99499Y75837D01*
X99522D01*
X99557Y75826D01*
X99604D01*
X99721Y75814D01*
X99849Y75791D01*
Y75779D01*
X99860Y75756D01*
X99872Y75721D01*
X99884Y75674D01*
X99907Y75604D01*
X99930Y75522D01*
X99965Y75441D01*
X100000Y75336D01*
X100070Y75091D01*
X100164Y74823D01*
X100257Y74508D01*
X100373Y74170D01*
X100490Y73809D01*
X100607Y73436D01*
X100735Y73039D01*
X100863Y72631D01*
X101131Y71827D01*
X101260Y71419D01*
X101388Y71034D01*
X101399Y71011D01*
X101423Y70941D01*
X101446Y70836D01*
X101493Y70696D01*
X101551Y70521D01*
X101621Y70311D01*
X101691Y70090D01*
X101772Y69833D01*
X101866Y69565D01*
X101959Y69285D01*
X102146Y68691D01*
X102344Y68096D01*
X102437Y67804D01*
X102530Y67513D01*
Y67501D01*
X102542Y67466D01*
X102565Y67396D01*
X102600Y67315D01*
X102624Y67210D01*
X102670Y67093D01*
X102717Y66965D01*
X102764Y66814D01*
X102868Y66487D01*
X102973Y66149D01*
X103090Y65788D01*
X103207Y65449D01*
Y65438D01*
X103218Y65414D01*
X103230Y65368D01*
X103253Y65298D01*
X103277Y65228D01*
X103312Y65135D01*
X103370Y64925D01*
X103451Y64680D01*
X103533Y64423D01*
X103615Y64167D01*
X103696Y63910D01*
X103708Y63887D01*
X103720Y63840D01*
X103743Y63759D01*
X103778Y63666D01*
X103813Y63549D01*
X103859Y63421D01*
X103941Y63164D01*
Y63153D01*
X103964Y63106D01*
X103988Y63048D01*
X104011Y62966D01*
X104046Y62873D01*
X104069Y62768D01*
X104139Y62558D01*
Y62546D01*
X104151Y62511D01*
X104174Y62465D01*
X104186Y62395D01*
X104244Y62243D01*
X104303Y62068D01*
Y62057D01*
X104314Y62033D01*
X104326Y61987D01*
X104349Y61940D01*
X104384Y61812D01*
X104419Y61672D01*
Y61660D01*
X104431Y61649D01*
X104454Y61579D01*
X104489Y61474D01*
X104536Y61346D01*
X104582Y61182D01*
X104641Y61019D01*
X104687Y60856D01*
X104746Y60693D01*
X104757Y60669D01*
X104769Y60611D01*
X104804Y60518D01*
X104850Y60390D01*
X104897Y60215D01*
X104967Y60005D01*
X105060Y59760D01*
X105154Y59468D01*
Y59457D01*
X105177Y59410D01*
X105200Y59340D01*
X105224Y59235D01*
X105259Y59119D01*
X105305Y58991D01*
X105352Y58839D01*
X105398Y58676D01*
X105410Y58652D01*
X105422Y58594D01*
X105457Y58501D01*
X105492Y58384D01*
X105538Y58233D01*
X105597Y58058D01*
X105655Y57871D01*
X105725Y57661D01*
X105702D01*
X105632Y57638D01*
X105538Y57627D01*
X105410Y57603D01*
X105340D01*
X105305Y57592D01*
X105189D01*
X105049Y57580D01*
X104932D01*
X104804Y57568D01*
X104571D01*
X104454Y57557D01*
X104104D01*
X103988Y57568D01*
X103766D01*
X103650Y57580D01*
X103591D01*
X103545Y57592D01*
X103428D01*
X103312Y57603D01*
X103288D01*
X103218Y57615D01*
X103113Y57638D01*
X103008Y57661D01*
Y57673D01*
X102997Y57685D01*
X102985Y57720D01*
X102973Y57766D01*
X102938Y57883D01*
X102892Y58035D01*
X102845Y58198D01*
X102787Y58384D01*
X102729Y58571D01*
X102670Y58757D01*
Y58781D01*
X102647Y58839D01*
X102624Y58921D01*
X102589Y59037D01*
X102554Y59154D01*
X102519Y59294D01*
X102472Y59434D01*
X102425Y59562D01*
Y59573D01*
X102414Y59608D01*
X102402Y59667D01*
X102379Y59737D01*
X102332Y59888D01*
X102274Y60040D01*
Y60051D01*
X102262Y60075D01*
X102250Y60110D01*
X102239Y60168D01*
X102216Y60285D01*
X102181Y60401D01*
Y60413D01*
X102169Y60424D01*
X102157Y60494D01*
X102122Y60599D01*
X102087Y60716D01*
X102052Y60833D01*
X102017Y60949D01*
X101982Y61031D01*
Y61066D01*
X101971Y61089D01*
X101959Y61112D01*
X101947Y61159D01*
X101936Y61217D01*
X101901Y61311D01*
X101866Y61451D01*
X101842Y61532D01*
X101807Y61625D01*
X101772Y61730D01*
X101738Y61847D01*
X94847D01*
Y61835D01*
X94824Y61777D01*
X94801Y61695D01*
X94766Y61590D01*
X94731Y61439D01*
X94672Y61252D01*
X94614Y61042D01*
X94544Y60798D01*
X94463Y60518D01*
X94369Y60215D01*
X94264Y59865D01*
X94159Y59492D01*
X94043Y59084D01*
X93915Y58641D01*
X93775Y58163D01*
X93623Y57661D01*
X93600D01*
X93565Y57650D01*
X93518Y57638D01*
X93413Y57627D01*
X93285Y57603D01*
X93262D01*
X93180Y57592D01*
X93087D01*
X92970Y57580D01*
X92865D01*
X92760Y57568D01*
X92527D01*
X92422Y57557D01*
X92084D01*
X91956Y57568D01*
X91735D01*
X91606Y57580D01*
X91583D01*
X91501Y57592D01*
X91408D01*
X91292Y57603D01*
X91268D01*
X91198Y57615D01*
X91105Y57638D01*
X91000Y57661D01*
Y57673D01*
X91012Y57696D01*
X91023Y57731D01*
X91035Y57778D01*
X91058Y57848D01*
X91082Y57930D01*
X91117Y58011D01*
X91152Y58116D01*
X91222Y58349D01*
X91315Y58629D01*
X91420Y58932D01*
X91525Y59270D01*
X91641Y59632D01*
X91770Y60016D01*
X91898Y60413D01*
X92026Y60809D01*
X92294Y61625D01*
X92422Y62022D01*
X92551Y62407D01*
Y62418D01*
X92562Y62430D01*
X92586Y62500D01*
X92609Y62605D01*
X92655Y62745D01*
X92714Y62931D01*
X92784Y63129D01*
X92854Y63362D01*
X92935Y63619D01*
X93029Y63887D01*
X93122Y64167D01*
X93308Y64762D01*
X93507Y65356D01*
X93600Y65659D01*
X93693Y65939D01*
Y65951D01*
X93705Y65986D01*
X93728Y66056D01*
X93763Y66137D01*
X93786Y66242D01*
X93833Y66359D01*
X93868Y66487D01*
X93926Y66639D01*
X94020Y66953D01*
X94136Y67291D01*
X94253Y67653D01*
X94358Y67991D01*
Y68003D01*
X94369Y68026D01*
X94381Y68073D01*
X94404Y68142D01*
X94428Y68212D01*
X94463Y68306D01*
X94533Y68516D01*
X94614Y68760D01*
X94696Y69017D01*
X94777Y69273D01*
X94859Y69530D01*
X94871Y69553D01*
X94882Y69600D01*
X94906Y69682D01*
X94941Y69786D01*
X94976Y69903D01*
X95022Y70031D01*
X95104Y70288D01*
Y70299D01*
X95127Y70346D01*
X95150Y70404D01*
X95174Y70486D01*
X95209Y70579D01*
X95232Y70672D01*
X95302Y70882D01*
Y70894D01*
X95314Y70929D01*
X95337Y70987D01*
X95360Y71045D01*
X95407Y71209D01*
X95465Y71384D01*
Y71395D01*
X95477Y71419D01*
X95489Y71465D01*
X95500Y71512D01*
X95547Y71640D01*
X95594Y71768D01*
Y71780D01*
X95605Y71792D01*
X95628Y71862D01*
X95652Y71967D01*
X95698Y72106D01*
X95745Y72258D01*
X95803Y72421D01*
X95850Y72585D01*
X95908Y72748D01*
X95920Y72771D01*
X95932Y72829D01*
X95967Y72923D01*
X96013Y73063D01*
X96072Y73237D01*
X96141Y73447D01*
X96223Y73692D01*
X96316Y73983D01*
Y73995D01*
X96340Y74042D01*
X96363Y74112D01*
X96386Y74205D01*
X96421Y74322D01*
X96468Y74461D01*
X96515Y74601D01*
X96561Y74765D01*
X96573Y74788D01*
X96585Y74846D01*
X96619Y74939D01*
X96666Y75056D01*
X96713Y75208D01*
X96771Y75382D01*
X96829Y75581D01*
X96899Y75791D01*
X96923D01*
X97004Y75802D01*
X97109Y75826D01*
X97237Y75837D01*
X97307D01*
X97354Y75849D01*
X97471D01*
X97610Y75861D01*
X97680D01*
X97727Y75872D01*
X98065D01*
X98123Y75884D01*
X98613D01*
X98741Y75872D01*
D02*
G37*
G36*
X116416Y70684D02*
X116521Y70672D01*
X116719D01*
X116835Y70661D01*
X116894D01*
X116940Y70649D01*
X117045D01*
X117162Y70637D01*
X117185D01*
X117255Y70626D01*
X117348Y70614D01*
X117453Y70591D01*
Y70567D01*
Y70509D01*
Y70404D01*
Y70276D01*
Y70113D01*
Y69915D01*
Y69705D01*
Y69472D01*
Y69227D01*
Y68959D01*
Y68411D01*
Y67851D01*
Y67303D01*
Y67291D01*
Y67245D01*
Y67163D01*
Y67070D01*
Y66953D01*
Y66802D01*
Y66650D01*
Y66475D01*
Y66289D01*
Y66102D01*
Y65694D01*
Y65286D01*
Y64890D01*
Y64878D01*
Y64855D01*
Y64808D01*
Y64750D01*
Y64680D01*
Y64598D01*
Y64400D01*
Y64179D01*
Y63934D01*
Y63689D01*
Y63444D01*
Y63432D01*
Y63421D01*
Y63386D01*
Y63339D01*
Y63234D01*
Y63083D01*
Y62920D01*
Y62745D01*
Y62558D01*
Y62383D01*
Y62372D01*
Y62337D01*
Y62278D01*
Y62220D01*
Y62045D01*
Y61870D01*
Y61859D01*
Y61835D01*
Y61789D01*
Y61730D01*
Y61590D01*
Y61451D01*
Y61439D01*
Y61416D01*
Y61381D01*
Y61334D01*
Y61229D01*
Y61112D01*
Y61101D01*
Y61089D01*
Y61031D01*
Y60938D01*
Y60833D01*
Y60821D01*
Y60774D01*
Y60693D01*
Y60611D01*
Y60506D01*
Y60390D01*
Y60168D01*
Y60156D01*
Y60110D01*
Y60051D01*
Y59946D01*
Y59830D01*
Y59678D01*
Y59503D01*
Y59305D01*
Y59294D01*
Y59270D01*
Y59212D01*
Y59154D01*
Y59072D01*
Y58979D01*
Y58769D01*
Y58757D01*
Y58711D01*
Y58652D01*
Y58559D01*
Y58454D01*
Y58338D01*
Y58198D01*
Y58058D01*
X117430D01*
X117372Y58035D01*
X117290Y58011D01*
X117174Y57988D01*
X117022Y57953D01*
X116859Y57906D01*
X116684Y57860D01*
X116497Y57813D01*
X116474D01*
X116404Y57790D01*
X116299Y57766D01*
X116148Y57743D01*
X115984Y57708D01*
X115786Y57661D01*
X115576Y57627D01*
X115343Y57580D01*
X115320D01*
X115285Y57568D01*
X115238D01*
X115122Y57545D01*
X114958Y57522D01*
X114772Y57487D01*
X114562Y57463D01*
X114340Y57428D01*
X114107Y57405D01*
X114049D01*
X114002Y57393D01*
X113874D01*
X113711Y57382D01*
X113513Y57370D01*
X113303D01*
X113070Y57358D01*
X112603D01*
X112440Y57370D01*
X112254D01*
X112055Y57382D01*
X111834Y57393D01*
X111612Y57405D01*
X111589D01*
X111554Y57417D01*
X111519D01*
X111403Y57428D01*
X111263Y57452D01*
X111088Y57475D01*
X110890Y57498D01*
X110691Y57533D01*
X110482Y57568D01*
X110458D01*
X110388Y57592D01*
X110283Y57615D01*
X110155Y57650D01*
X109992Y57696D01*
X109817Y57755D01*
X109444Y57895D01*
X109421Y57906D01*
X109362Y57930D01*
X109269Y57988D01*
X109152Y58046D01*
X109012Y58128D01*
X108861Y58221D01*
X108709Y58326D01*
X108546Y58443D01*
X108523Y58454D01*
X108476Y58501D01*
X108395Y58571D01*
X108301Y58664D01*
X108185Y58781D01*
X108068Y58921D01*
X107940Y59072D01*
X107812Y59235D01*
X107800Y59259D01*
X107753Y59317D01*
X107695Y59410D01*
X107613Y59538D01*
X107520Y59690D01*
X107427Y59865D01*
X107334Y60075D01*
X107240Y60285D01*
Y60296D01*
X107229Y60308D01*
X107217Y60343D01*
X107205Y60390D01*
X107159Y60518D01*
X107112Y60681D01*
X107054Y60879D01*
X106996Y61112D01*
X106937Y61381D01*
X106891Y61660D01*
Y61672D01*
Y61695D01*
X106879Y61742D01*
X106867Y61800D01*
X106856Y61870D01*
Y61952D01*
X106844Y62057D01*
X106832Y62173D01*
X106809Y62430D01*
X106786Y62721D01*
X106774Y63048D01*
X106762Y63409D01*
Y63421D01*
Y63456D01*
Y63514D01*
Y63596D01*
Y63689D01*
Y63794D01*
Y63922D01*
Y64050D01*
Y64342D01*
Y64668D01*
Y64983D01*
Y65298D01*
Y65310D01*
Y65333D01*
Y65379D01*
Y65426D01*
Y65496D01*
Y65578D01*
Y65764D01*
Y65986D01*
Y66219D01*
Y66452D01*
Y66685D01*
Y66708D01*
Y66767D01*
Y66848D01*
Y66953D01*
Y67082D01*
Y67221D01*
Y67501D01*
Y67513D01*
Y67560D01*
Y67618D01*
Y67699D01*
Y67793D01*
Y67898D01*
Y68108D01*
Y68119D01*
Y68142D01*
Y68189D01*
Y68236D01*
Y68376D01*
Y68551D01*
Y68726D01*
Y68889D01*
Y69029D01*
Y69087D01*
Y69134D01*
Y69145D01*
Y69169D01*
Y69227D01*
Y69297D01*
Y69402D01*
Y69530D01*
Y69693D01*
Y69880D01*
Y69891D01*
Y69903D01*
Y69961D01*
Y70066D01*
Y70183D01*
Y70194D01*
Y70218D01*
Y70253D01*
Y70299D01*
Y70428D01*
Y70591D01*
X106797D01*
X106856Y70602D01*
X106926Y70614D01*
X107007D01*
X107112Y70626D01*
X107240Y70649D01*
X107392Y70661D01*
X107462D01*
X107509Y70672D01*
X107742D01*
X107812Y70684D01*
X107905Y70696D01*
X108091D01*
X108185Y70684D01*
X108290Y70672D01*
X108511D01*
X108639Y70661D01*
X108663D01*
X108744Y70649D01*
X108849D01*
X108966Y70637D01*
X108989D01*
X109059Y70626D01*
X109152Y70614D01*
X109269Y70591D01*
Y70579D01*
Y70544D01*
Y70486D01*
Y70416D01*
Y70323D01*
Y70218D01*
Y70090D01*
Y69961D01*
Y69670D01*
Y69355D01*
Y69040D01*
Y68726D01*
Y68714D01*
Y68691D01*
Y68656D01*
Y68597D01*
Y68527D01*
Y68446D01*
Y68259D01*
Y68049D01*
Y67816D01*
Y67583D01*
Y67350D01*
Y67326D01*
Y67280D01*
Y67186D01*
Y67082D01*
Y66965D01*
Y66825D01*
Y66557D01*
Y66545D01*
Y66499D01*
Y66440D01*
Y66359D01*
Y66266D01*
Y66161D01*
Y65962D01*
Y65951D01*
Y65927D01*
Y65881D01*
Y65834D01*
Y65694D01*
Y65531D01*
Y65356D01*
Y65193D01*
Y65053D01*
Y64995D01*
Y64948D01*
Y64936D01*
Y64913D01*
Y64855D01*
Y64785D01*
Y64680D01*
Y64563D01*
Y64412D01*
Y64225D01*
Y64214D01*
Y64202D01*
Y64132D01*
Y64039D01*
Y63910D01*
Y63899D01*
Y63875D01*
Y63840D01*
Y63794D01*
Y63666D01*
Y63502D01*
Y63491D01*
Y63479D01*
Y63444D01*
Y63397D01*
Y63293D01*
X109281Y63141D01*
Y62966D01*
X109292Y62780D01*
X109316Y62395D01*
Y62372D01*
X109327Y62313D01*
X109339Y62220D01*
X109362Y62103D01*
X109386Y61964D01*
X109409Y61812D01*
X109490Y61509D01*
Y61486D01*
X109514Y61439D01*
X109537Y61369D01*
X109560Y61264D01*
X109607Y61159D01*
X109654Y61042D01*
X109770Y60798D01*
X109782Y60786D01*
X109805Y60751D01*
X109840Y60693D01*
X109887Y60611D01*
X110015Y60436D01*
X110167Y60250D01*
X110178Y60238D01*
X110213Y60215D01*
X110260Y60168D01*
X110318Y60121D01*
X110388Y60063D01*
X110482Y60005D01*
X110668Y59877D01*
X110680Y59865D01*
X110715Y59853D01*
X110773Y59818D01*
X110855Y59783D01*
X110948Y59748D01*
X111053Y59702D01*
X111286Y59632D01*
X111298D01*
X111344Y59620D01*
X111403Y59597D01*
X111496Y59585D01*
X111601Y59562D01*
X111717Y59538D01*
X111846Y59515D01*
X111986Y59492D01*
X112055D01*
X112125Y59480D01*
X112230D01*
X112347Y59468D01*
X112487D01*
X112790Y59457D01*
X113023D01*
X113186Y59468D01*
X113373D01*
X113571Y59480D01*
X113979Y59515D01*
X114002D01*
X114072Y59527D01*
X114177Y59550D01*
X114317Y59573D01*
X114469Y59597D01*
X114644Y59632D01*
X114993Y59725D01*
Y59748D01*
Y59795D01*
Y59888D01*
Y59993D01*
Y60133D01*
Y60308D01*
Y60483D01*
Y60693D01*
Y60903D01*
Y61136D01*
Y61614D01*
Y62092D01*
Y62570D01*
Y62581D01*
Y62628D01*
Y62686D01*
Y62780D01*
Y62884D01*
Y63001D01*
Y63141D01*
Y63293D01*
Y63631D01*
Y63980D01*
Y64342D01*
Y64692D01*
Y64703D01*
Y64727D01*
Y64762D01*
Y64808D01*
Y64948D01*
Y65111D01*
Y65310D01*
Y65519D01*
Y65729D01*
Y65939D01*
Y65951D01*
Y65962D01*
Y66032D01*
Y66126D01*
Y66254D01*
Y66394D01*
Y66545D01*
Y66697D01*
Y66848D01*
Y66860D01*
Y66895D01*
Y66942D01*
Y67000D01*
Y67140D01*
Y67291D01*
Y67303D01*
Y67326D01*
Y67361D01*
Y67408D01*
Y67525D01*
Y67653D01*
Y67664D01*
Y67676D01*
Y67711D01*
Y67758D01*
Y67874D01*
Y68014D01*
Y68166D01*
Y68317D01*
Y68469D01*
Y68586D01*
Y68597D01*
Y68644D01*
Y68702D01*
Y68807D01*
Y68924D01*
Y69087D01*
Y69285D01*
Y69507D01*
Y69518D01*
Y69542D01*
Y69588D01*
Y69647D01*
Y69716D01*
Y69798D01*
Y69973D01*
Y69985D01*
Y70020D01*
Y70078D01*
Y70148D01*
Y70241D01*
Y70346D01*
Y70463D01*
Y70591D01*
X115017D01*
X115075Y70602D01*
X115168Y70626D01*
X115285Y70637D01*
X115308D01*
X115378Y70649D01*
X115483D01*
X115611Y70661D01*
X115635D01*
X115716Y70672D01*
X115949D01*
X116019Y70684D01*
X116113Y70696D01*
X116322D01*
X116416Y70684D01*
D02*
G37*
G36*
X140631Y73902D02*
X140666Y73844D01*
X140724Y73750D01*
X140806Y73622D01*
Y73610D01*
X140782Y73599D01*
X140771Y73564D01*
X140736Y73517D01*
X140689Y73447D01*
X140642Y73377D01*
X140584Y73284D01*
X140514Y73191D01*
X140444Y73074D01*
X140351Y72934D01*
X140258Y72794D01*
X140153Y72643D01*
X140048Y72468D01*
X139920Y72281D01*
X139791Y72083D01*
X139651Y71873D01*
X139500Y71652D01*
X139348Y71407D01*
X139185Y71162D01*
X139010Y70894D01*
X138824Y70614D01*
X138625Y70323D01*
X138427Y70008D01*
X138217Y69693D01*
X137996Y69355D01*
X137763Y69005D01*
X137529Y68644D01*
X137285Y68271D01*
X137028Y67886D01*
X136760Y67490D01*
X136480Y67070D01*
X136200Y66639D01*
X136212D01*
X136235Y66650D01*
X136294Y66662D01*
X136795D01*
X136946Y66650D01*
X137121Y66639D01*
X137308Y66615D01*
X137693Y66557D01*
X137716D01*
X137786Y66534D01*
X137879Y66510D01*
X138007Y66475D01*
X138147Y66440D01*
X138311Y66382D01*
X138649Y66254D01*
X138672Y66242D01*
X138719Y66219D01*
X138800Y66172D01*
X138905Y66114D01*
X139033Y66044D01*
X139162Y65962D01*
X139430Y65776D01*
X139441Y65764D01*
X139488Y65729D01*
X139558Y65671D01*
X139651Y65589D01*
X139745Y65508D01*
X139850Y65403D01*
X140071Y65158D01*
X140083Y65146D01*
X140118Y65100D01*
X140176Y65041D01*
X140234Y64948D01*
X140316Y64855D01*
X140398Y64727D01*
X140479Y64598D01*
X140561Y64458D01*
X140572Y64447D01*
X140596Y64388D01*
X140631Y64318D01*
X140689Y64225D01*
X140747Y64109D01*
X140806Y63969D01*
X140922Y63677D01*
X140934Y63654D01*
X140945Y63607D01*
X140969Y63526D01*
X141004Y63421D01*
X141039Y63304D01*
X141074Y63164D01*
X141132Y62861D01*
Y62849D01*
X141144Y62791D01*
X141155Y62710D01*
X141167Y62616D01*
X141179Y62488D01*
X141190Y62360D01*
X141202Y62057D01*
Y62045D01*
Y62022D01*
Y61975D01*
Y61917D01*
Y61847D01*
X141190Y61765D01*
Y61567D01*
X141167Y61334D01*
X141144Y61077D01*
X141109Y60821D01*
X141062Y60553D01*
Y60541D01*
X141050Y60518D01*
Y60483D01*
X141039Y60436D01*
X141015Y60378D01*
X141004Y60296D01*
X140957Y60133D01*
X140887Y59935D01*
X140817Y59713D01*
X140736Y59480D01*
X140631Y59259D01*
Y59247D01*
X140619Y59235D01*
X140607Y59200D01*
X140584Y59165D01*
X140514Y59049D01*
X140444Y58909D01*
X140339Y58746D01*
X140234Y58559D01*
X140106Y58373D01*
X139978Y58186D01*
X139966Y58163D01*
X139908Y58105D01*
X139826Y58011D01*
X139721Y57895D01*
X139593Y57766D01*
X139453Y57627D01*
X139290Y57475D01*
X139115Y57323D01*
X139092Y57312D01*
X139033Y57253D01*
X138928Y57183D01*
X138800Y57090D01*
X138637Y56985D01*
X138462Y56869D01*
X138264Y56752D01*
X138066Y56647D01*
X138054D01*
X138042Y56635D01*
X138007Y56624D01*
X137972Y56600D01*
X137856Y56554D01*
X137704Y56484D01*
X137518Y56414D01*
X137308Y56332D01*
X137086Y56251D01*
X136853Y56181D01*
X136842D01*
X136830Y56169D01*
X136795D01*
X136748Y56157D01*
X136620Y56122D01*
X136445Y56076D01*
X136247Y56041D01*
X136025Y55994D01*
X135781Y55948D01*
X135524Y55901D01*
X135489D01*
X135454Y55889D01*
X135408D01*
X135338Y55878D01*
X135268D01*
X135093Y55866D01*
X134883Y55843D01*
X134638Y55831D01*
X134382Y55819D01*
X133880D01*
X133729Y55831D01*
X133542D01*
X133332Y55843D01*
X133111Y55854D01*
X132889Y55866D01*
X132866D01*
X132831Y55878D01*
X132784D01*
X132668Y55889D01*
X132528Y55913D01*
X132353Y55924D01*
X132155Y55959D01*
X131747Y56018D01*
X131723D01*
X131653Y56041D01*
X131537Y56064D01*
X131397Y56087D01*
X131222Y56122D01*
X131036Y56169D01*
X130639Y56274D01*
X130628D01*
X130616Y56286D01*
X130546Y56309D01*
X130429Y56332D01*
X130289Y56379D01*
X130126Y56437D01*
X129940Y56496D01*
X129543Y56647D01*
Y56659D01*
X129555Y56694D01*
Y56752D01*
X129567Y56822D01*
X129590Y56904D01*
X129602Y56997D01*
X129648Y57195D01*
Y57207D01*
X129660Y57242D01*
X129683Y57300D01*
X129706Y57370D01*
X129730Y57452D01*
X129765Y57545D01*
X129835Y57731D01*
Y57743D01*
X129858Y57778D01*
X129870Y57825D01*
X129905Y57895D01*
X129940Y57976D01*
X129975Y58070D01*
X130056Y58256D01*
X130068Y58268D01*
X130080Y58303D01*
X130103Y58349D01*
X130138Y58419D01*
X130173Y58489D01*
X130219Y58583D01*
X130324Y58769D01*
X130348Y58757D01*
X130394Y58746D01*
X130476Y58711D01*
X130581Y58676D01*
X130709Y58629D01*
X130849Y58583D01*
X131152Y58478D01*
X131175D01*
X131222Y58454D01*
X131304Y58431D01*
X131420Y58396D01*
X131549Y58361D01*
X131688Y58326D01*
X132015Y58233D01*
X132038D01*
X132097Y58221D01*
X132178Y58198D01*
X132295Y58174D01*
X132446Y58151D01*
X132598Y58128D01*
X132773Y58105D01*
X132959Y58081D01*
X132983D01*
X133053Y58070D01*
X133146D01*
X133286Y58058D01*
X133449Y58046D01*
X133624D01*
X133822Y58035D01*
X134207D01*
X134335Y58046D01*
X134475D01*
X134638Y58058D01*
X134965Y58081D01*
X134988D01*
X135046Y58093D01*
X135128Y58105D01*
X135244Y58128D01*
X135373Y58140D01*
X135524Y58174D01*
X135839Y58233D01*
X135862D01*
X135909Y58256D01*
X135990Y58279D01*
X136096Y58314D01*
X136224Y58349D01*
X136352Y58396D01*
X136620Y58501D01*
X136632Y58513D01*
X136678Y58536D01*
X136760Y58571D01*
X136842Y58618D01*
X136946Y58664D01*
X137063Y58734D01*
X137296Y58897D01*
X137308Y58909D01*
X137355Y58932D01*
X137413Y58979D01*
X137483Y59049D01*
X137576Y59119D01*
X137669Y59212D01*
X137856Y59422D01*
X137868Y59434D01*
X137902Y59468D01*
X137949Y59538D01*
X138007Y59608D01*
X138066Y59713D01*
X138147Y59818D01*
X138217Y59946D01*
X138287Y60075D01*
X138299Y60086D01*
X138322Y60133D01*
X138346Y60203D01*
X138392Y60308D01*
X138439Y60424D01*
X138474Y60553D01*
X138520Y60704D01*
X138555Y60856D01*
Y60879D01*
X138567Y60938D01*
X138590Y61019D01*
X138614Y61147D01*
X138625Y61287D01*
X138649Y61451D01*
X138660Y61637D01*
Y61824D01*
Y61835D01*
Y61859D01*
Y61905D01*
Y61952D01*
X138649Y62022D01*
Y62103D01*
X138625Y62290D01*
X138590Y62500D01*
X138544Y62733D01*
X138485Y62966D01*
X138392Y63188D01*
Y63199D01*
X138380Y63211D01*
X138346Y63281D01*
X138287Y63397D01*
X138206Y63526D01*
X138089Y63677D01*
X137961Y63840D01*
X137809Y63992D01*
X137623Y64144D01*
X137599Y64155D01*
X137529Y64202D01*
X137413Y64272D01*
X137273Y64353D01*
X137098Y64447D01*
X136888Y64540D01*
X136667Y64633D01*
X136422Y64715D01*
X136410D01*
X136387Y64727D01*
X136352Y64738D01*
X136305Y64750D01*
X136235Y64762D01*
X136165Y64773D01*
X135979Y64808D01*
X135757Y64843D01*
X135501Y64878D01*
X135221Y64890D01*
X134918Y64901D01*
X134592D01*
X134405Y64890D01*
X134312D01*
X134242Y64878D01*
X134090D01*
X133904Y64866D01*
X133857D01*
X133810Y64855D01*
X133740D01*
X133659Y64843D01*
X133577Y64832D01*
X133379Y64797D01*
X133367D01*
X133332Y64785D01*
X133286D01*
X133216Y64773D01*
X133064Y64738D01*
X132878Y64703D01*
X132866Y64715D01*
X132854Y64738D01*
X132831Y64785D01*
X132796Y64832D01*
X132773Y64878D01*
X132749Y64913D01*
X132726Y64936D01*
Y64948D01*
Y64960D01*
X132703Y64983D01*
X132668Y65041D01*
Y65053D01*
X132680Y65065D01*
X132703Y65100D01*
X132738Y65146D01*
X132773Y65205D01*
X132819Y65275D01*
X132866Y65356D01*
X132936Y65461D01*
X133006Y65566D01*
X133076Y65694D01*
X133169Y65823D01*
X133262Y65974D01*
X133367Y66137D01*
X133472Y66312D01*
X133601Y66499D01*
X133729Y66697D01*
X133857Y66918D01*
X134009Y67140D01*
X134160Y67385D01*
X134312Y67630D01*
X134487Y67898D01*
X134662Y68177D01*
X134848Y68469D01*
X135035Y68772D01*
X135244Y69087D01*
X135454Y69425D01*
X135664Y69763D01*
X135897Y70125D01*
X136130Y70486D01*
X136364Y70871D01*
X136620Y71267D01*
X136877Y71675D01*
X130406D01*
Y71687D01*
X130394Y71722D01*
X130383Y71768D01*
X130371Y71838D01*
X130359Y71908D01*
X130348Y72002D01*
X130324Y72188D01*
Y72200D01*
Y72235D01*
X130313Y72293D01*
Y72363D01*
Y72456D01*
X130301Y72550D01*
Y72759D01*
Y72771D01*
Y72783D01*
Y72853D01*
Y72934D01*
Y73039D01*
Y73051D01*
Y73063D01*
X130313Y73132D01*
Y73226D01*
X130324Y73342D01*
Y73354D01*
Y73366D01*
X130336Y73436D01*
Y73529D01*
X130348Y73634D01*
Y73645D01*
X130359Y73657D01*
X130371Y73727D01*
X130383Y73820D01*
X130406Y73913D01*
X140619D01*
X140631Y73902D01*
D02*
G37*
G36*
X127540Y27000D02*
X125000D01*
Y29540D01*
X127540D01*
Y27000D01*
D02*
G37*
G36*
X124927Y70871D02*
X125101D01*
X125451Y70847D01*
X125475D01*
X125533Y70836D01*
X125626Y70824D01*
X125754Y70812D01*
X125894Y70789D01*
X126057Y70766D01*
X126396Y70707D01*
X126419D01*
X126477Y70684D01*
X126570Y70672D01*
X126687Y70637D01*
X126827Y70614D01*
X126978Y70579D01*
X127282Y70498D01*
X127305D01*
X127352Y70474D01*
X127433Y70451D01*
X127538Y70428D01*
X127655Y70393D01*
X127783Y70346D01*
X128063Y70264D01*
Y70253D01*
Y70218D01*
X128051Y70171D01*
X128039Y70101D01*
X128016Y69938D01*
X127981Y69751D01*
Y69740D01*
X127969Y69705D01*
X127958Y69658D01*
X127946Y69600D01*
X127934Y69518D01*
X127911Y69437D01*
X127865Y69250D01*
Y69238D01*
X127853Y69204D01*
X127841Y69157D01*
X127830Y69099D01*
X127771Y68947D01*
X127713Y68772D01*
Y68760D01*
X127701Y68737D01*
X127678Y68691D01*
X127666Y68632D01*
X127608Y68492D01*
X127538Y68329D01*
X127526D01*
X127491Y68341D01*
X127433Y68364D01*
X127352Y68387D01*
X127258Y68422D01*
X127153Y68457D01*
X126920Y68527D01*
X126909D01*
X126862Y68539D01*
X126792Y68562D01*
X126699Y68586D01*
X126594Y68609D01*
X126477Y68644D01*
X126197Y68702D01*
X126186D01*
X126127Y68726D01*
X126057Y68737D01*
X125953Y68760D01*
X125836Y68784D01*
X125696Y68807D01*
X125405Y68854D01*
X125381D01*
X125335Y68865D01*
X125253D01*
X125148Y68877D01*
X125020Y68889D01*
X124868D01*
X124717Y68900D01*
X124390D01*
X124274Y68889D01*
X124134Y68877D01*
X123994Y68865D01*
X123679Y68819D01*
X123656D01*
X123609Y68807D01*
X123527Y68784D01*
X123423Y68749D01*
X123306Y68714D01*
X123178Y68679D01*
X122898Y68574D01*
X122886Y68562D01*
X122840Y68539D01*
X122781Y68504D01*
X122700Y68457D01*
X122618Y68387D01*
X122525Y68317D01*
X122443Y68224D01*
X122362Y68119D01*
X122350Y68108D01*
X122338Y68073D01*
X122303Y68003D01*
X122268Y67921D01*
X122233Y67816D01*
X122210Y67699D01*
X122187Y67560D01*
X122175Y67408D01*
Y67396D01*
Y67373D01*
Y67326D01*
X122187Y67280D01*
X122198Y67152D01*
X122222Y67012D01*
Y67000D01*
X122233Y66988D01*
X122257Y66907D01*
X122303Y66802D01*
X122362Y66685D01*
Y66674D01*
X122373Y66662D01*
X122420Y66592D01*
X122478Y66499D01*
X122560Y66405D01*
X122583Y66382D01*
X122641Y66324D01*
X122723Y66254D01*
X122840Y66172D01*
X122851D01*
X122863Y66161D01*
X122933Y66114D01*
X123038Y66044D01*
X123154Y65974D01*
X123166D01*
X123189Y65962D01*
X123224Y65939D01*
X123271Y65916D01*
X123388Y65869D01*
X123527Y65811D01*
X123539D01*
X123562Y65799D01*
X123597Y65788D01*
X123656Y65764D01*
X123784Y65718D01*
X123935Y65648D01*
X123947D01*
X123970Y65636D01*
X124017Y65624D01*
X124075Y65601D01*
X124215Y65554D01*
X124379Y65508D01*
X124390D01*
X124413Y65496D01*
X124460Y65484D01*
X124507Y65461D01*
X124635Y65414D01*
X124787Y65368D01*
X124938Y65310D01*
X125055Y65263D01*
X125101Y65251D01*
X125136Y65240D01*
X125160Y65228D01*
X125183D01*
X125218Y65216D01*
X125276Y65193D01*
X125370Y65170D01*
X125486Y65123D01*
X125498D01*
X125533Y65100D01*
X125591Y65088D01*
X125673Y65053D01*
X125754Y65030D01*
X125859Y64995D01*
X126069Y64913D01*
X126081D01*
X126116Y64890D01*
X126174Y64866D01*
X126244Y64832D01*
X126337Y64797D01*
X126431Y64750D01*
X126629Y64657D01*
X126640Y64645D01*
X126675Y64633D01*
X126734Y64598D01*
X126804Y64563D01*
X126967Y64458D01*
X127142Y64330D01*
X127153Y64318D01*
X127177Y64295D01*
X127223Y64260D01*
X127282Y64214D01*
X127422Y64097D01*
X127573Y63945D01*
X127585Y63934D01*
X127608Y63910D01*
X127643Y63864D01*
X127690Y63805D01*
X127795Y63666D01*
X127911Y63491D01*
X127923Y63479D01*
X127934Y63444D01*
X127969Y63397D01*
X128004Y63327D01*
X128051Y63246D01*
X128098Y63153D01*
X128203Y62943D01*
Y62931D01*
X128226Y62896D01*
X128238Y62826D01*
X128272Y62745D01*
X128296Y62651D01*
X128319Y62535D01*
X128366Y62290D01*
Y62278D01*
X128378Y62232D01*
X128389Y62150D01*
X128401Y62057D01*
X128412Y61940D01*
X128424Y61812D01*
X128436Y61672D01*
Y61521D01*
Y61497D01*
Y61439D01*
Y61346D01*
X128424Y61229D01*
X128412Y61101D01*
X128401Y60949D01*
X128343Y60623D01*
Y60599D01*
X128331Y60553D01*
X128308Y60471D01*
X128272Y60366D01*
X128238Y60238D01*
X128191Y60098D01*
X128063Y59807D01*
X128051Y59795D01*
X128028Y59748D01*
X127981Y59667D01*
X127934Y59573D01*
X127865Y59468D01*
X127783Y59352D01*
X127608Y59096D01*
X127596Y59084D01*
X127561Y59037D01*
X127503Y58979D01*
X127433Y58909D01*
X127340Y58816D01*
X127235Y58711D01*
X127107Y58606D01*
X126978Y58501D01*
X126967Y58489D01*
X126920Y58454D01*
X126850Y58408D01*
X126757Y58338D01*
X126640Y58268D01*
X126512Y58186D01*
X126361Y58105D01*
X126209Y58023D01*
X126186Y58011D01*
X126139Y57988D01*
X126057Y57953D01*
X125941Y57895D01*
X125813Y57848D01*
X125649Y57778D01*
X125486Y57720D01*
X125300Y57661D01*
X125276Y57650D01*
X125218Y57638D01*
X125113Y57615D01*
X124985Y57580D01*
X124833Y57533D01*
X124658Y57498D01*
X124460Y57463D01*
X124262Y57428D01*
X124239D01*
X124169Y57417D01*
X124064Y57405D01*
X123924Y57393D01*
X123761Y57382D01*
X123562Y57370D01*
X123353Y57358D01*
X122770D01*
X122595Y57370D01*
X122408D01*
X122000Y57393D01*
X121977D01*
X121907Y57405D01*
X121814D01*
X121685Y57428D01*
X121534Y57440D01*
X121371Y57463D01*
X121021Y57522D01*
X120998D01*
X120939Y57533D01*
X120858Y57557D01*
X120741Y57580D01*
X120601Y57603D01*
X120461Y57638D01*
X120147Y57720D01*
X120123D01*
X120077Y57731D01*
X119995Y57755D01*
X119878Y57790D01*
X119762Y57825D01*
X119622Y57860D01*
X119330Y57965D01*
Y57976D01*
Y58011D01*
X119342Y58058D01*
X119354Y58128D01*
X119365Y58279D01*
X119400Y58466D01*
Y58478D01*
X119412Y58513D01*
X119424Y58559D01*
X119435Y58629D01*
X119459Y58711D01*
X119482Y58792D01*
X119540Y58991D01*
Y59002D01*
X119552Y59037D01*
X119575Y59084D01*
X119599Y59142D01*
X119622Y59224D01*
X119645Y59305D01*
X119715Y59492D01*
Y59503D01*
X119727Y59538D01*
X119750Y59585D01*
X119773Y59655D01*
X119797Y59725D01*
X119832Y59818D01*
X119902Y60005D01*
X119913Y59993D01*
X119960Y59981D01*
X120030Y59958D01*
X120123Y59923D01*
X120228Y59877D01*
X120356Y59842D01*
X120625Y59748D01*
X120636D01*
X120694Y59737D01*
X120764Y59713D01*
X120858Y59690D01*
X120974Y59667D01*
X121114Y59632D01*
X121406Y59562D01*
X121429D01*
X121476Y59550D01*
X121557Y59538D01*
X121662Y59515D01*
X121790Y59503D01*
X121919Y59480D01*
X122222Y59445D01*
X122292D01*
X122373Y59434D01*
X122478D01*
X122606Y59422D01*
X122735D01*
X123038Y59410D01*
X123213D01*
X123306Y59422D01*
X123399D01*
X123597Y59434D01*
X123644D01*
X123702Y59445D01*
X123772Y59457D01*
X123854Y59468D01*
X123947Y59480D01*
X124145Y59527D01*
X124157D01*
X124192Y59538D01*
X124239Y59550D01*
X124309Y59573D01*
X124460Y59620D01*
X124635Y59690D01*
X124647D01*
X124670Y59702D01*
X124717Y59725D01*
X124775Y59748D01*
X124915Y59818D01*
X125066Y59900D01*
X125078D01*
X125101Y59923D01*
X125136Y59946D01*
X125183Y59981D01*
X125300Y60063D01*
X125416Y60180D01*
X125428Y60191D01*
X125440Y60203D01*
X125475Y60238D01*
X125510Y60285D01*
X125603Y60401D01*
X125696Y60529D01*
X125708Y60541D01*
X125719Y60564D01*
X125743Y60588D01*
X125766Y60634D01*
X125824Y60751D01*
X125883Y60903D01*
Y60914D01*
X125894Y60938D01*
Y60984D01*
X125906Y61031D01*
X125918Y61171D01*
X125929Y61334D01*
Y61346D01*
Y61381D01*
Y61427D01*
Y61497D01*
X125918Y61649D01*
X125894Y61812D01*
Y61824D01*
X125883Y61847D01*
X125871Y61882D01*
X125859Y61940D01*
X125813Y62057D01*
X125743Y62173D01*
Y62185D01*
X125731Y62197D01*
X125684Y62278D01*
X125614Y62372D01*
X125521Y62477D01*
Y62488D01*
X125498Y62500D01*
X125440Y62558D01*
X125358Y62640D01*
X125241Y62733D01*
X125230D01*
X125218Y62756D01*
X125183Y62768D01*
X125136Y62803D01*
X125020Y62861D01*
X124892Y62943D01*
X124880D01*
X124868Y62955D01*
X124833Y62978D01*
X124787Y63001D01*
X124670Y63059D01*
X124518Y63129D01*
X124507D01*
X124483Y63141D01*
X124437Y63164D01*
X124390Y63176D01*
X124250Y63223D01*
X124087Y63281D01*
X124075D01*
X124052Y63293D01*
X124005Y63316D01*
X123935Y63327D01*
X123784Y63374D01*
X123609Y63432D01*
X123597D01*
X123586Y63444D01*
X123504Y63467D01*
X123399Y63514D01*
X123283Y63549D01*
X123166Y63596D01*
X123073Y63631D01*
X123026Y63654D01*
X123003D01*
X122991Y63666D01*
X122968Y63677D01*
X122945Y63689D01*
X122898Y63701D01*
X122816Y63736D01*
X122723Y63771D01*
X122711D01*
X122688Y63782D01*
X122641Y63805D01*
X122595Y63817D01*
X122525Y63852D01*
X122443Y63887D01*
X122257Y63957D01*
X122035Y64050D01*
X121802Y64167D01*
X121569Y64283D01*
X121336Y64412D01*
X121324D01*
X121312Y64423D01*
X121242Y64470D01*
X121138Y64540D01*
X120998Y64633D01*
X120846Y64738D01*
X120694Y64855D01*
X120531Y64983D01*
X120391Y65123D01*
X120380Y65146D01*
X120333Y65193D01*
X120263Y65275D01*
X120182Y65379D01*
X120088Y65508D01*
X119995Y65659D01*
X119913Y65834D01*
X119832Y66021D01*
Y66032D01*
X119820Y66044D01*
X119808Y66114D01*
X119773Y66207D01*
X119750Y66347D01*
X119715Y66522D01*
X119680Y66708D01*
X119669Y66918D01*
X119657Y67152D01*
Y67163D01*
Y67186D01*
Y67233D01*
Y67303D01*
X119669Y67373D01*
Y67466D01*
X119692Y67664D01*
X119727Y67909D01*
X119785Y68166D01*
X119855Y68434D01*
X119960Y68691D01*
Y68702D01*
X119972Y68726D01*
X119995Y68760D01*
X120018Y68807D01*
X120088Y68935D01*
X120193Y69099D01*
X120321Y69285D01*
X120473Y69483D01*
X120660Y69682D01*
X120881Y69880D01*
X120893Y69891D01*
X120904Y69903D01*
X120939Y69926D01*
X120998Y69961D01*
X121056Y70008D01*
X121126Y70054D01*
X121301Y70160D01*
X121522Y70288D01*
X121779Y70416D01*
X122070Y70532D01*
X122397Y70637D01*
X122408D01*
X122443Y70649D01*
X122490Y70661D01*
X122560Y70672D01*
X122641Y70696D01*
X122746Y70719D01*
X122863Y70742D01*
X122991Y70766D01*
X123143Y70777D01*
X123294Y70801D01*
X123469Y70824D01*
X123656Y70847D01*
X124040Y70871D01*
X124472Y70882D01*
X124787D01*
X124927Y70871D01*
D02*
G37*
G36*
X148034Y76047D02*
X148244Y76035D01*
X148489Y76024D01*
X148757Y76012D01*
X149048Y75989D01*
X149363Y75954D01*
X149701Y75907D01*
X150039Y75861D01*
X150401Y75802D01*
X150750Y75732D01*
X151112Y75651D01*
X151461Y75557D01*
X151800Y75452D01*
X151823Y75441D01*
X151881Y75429D01*
X151974Y75394D01*
X152091Y75336D01*
X152243Y75278D01*
X152429Y75196D01*
X152616Y75114D01*
X152837Y75009D01*
X153059Y74881D01*
X153304Y74753D01*
X153548Y74601D01*
X153793Y74438D01*
X154050Y74263D01*
X154295Y74077D01*
X154528Y73867D01*
X154761Y73645D01*
X154773Y73634D01*
X154808Y73587D01*
X154878Y73517D01*
X154959Y73424D01*
X155052Y73307D01*
X155169Y73167D01*
X155286Y73004D01*
X155425Y72818D01*
X155565Y72608D01*
X155717Y72386D01*
X155857Y72141D01*
X156008Y71885D01*
X156148Y71605D01*
X156288Y71314D01*
X156416Y71011D01*
X156533Y70696D01*
X156545Y70672D01*
X156556Y70614D01*
X156591Y70521D01*
X156626Y70393D01*
X156673Y70229D01*
X156720Y70031D01*
X156778Y69798D01*
X156836Y69542D01*
X156883Y69262D01*
X156941Y68959D01*
X156988Y68621D01*
X157034Y68271D01*
X157069Y67898D01*
X157104Y67513D01*
X157116Y67105D01*
X157128Y66685D01*
Y66674D01*
Y66662D01*
Y66627D01*
Y66580D01*
Y66522D01*
Y66452D01*
X157116Y66289D01*
X157104Y66079D01*
X157093Y65846D01*
X157081Y65578D01*
X157058Y65286D01*
X157023Y64971D01*
X156976Y64633D01*
X156929Y64295D01*
X156871Y63945D01*
X156801Y63596D01*
X156720Y63246D01*
X156626Y62896D01*
X156521Y62558D01*
X156510Y62535D01*
X156498Y62477D01*
X156463Y62383D01*
X156405Y62267D01*
X156346Y62115D01*
X156265Y61940D01*
X156172Y61742D01*
X156067Y61532D01*
X155950Y61311D01*
X155810Y61077D01*
X155659Y60833D01*
X155495Y60588D01*
X155321Y60343D01*
X155134Y60110D01*
X154924Y59877D01*
X154703Y59655D01*
X154691Y59643D01*
X154644Y59608D01*
X154586Y59550D01*
X154493Y59468D01*
X154376Y59375D01*
X154236Y59259D01*
X154073Y59142D01*
X153886Y59002D01*
X153677Y58874D01*
X153455Y58722D01*
X153210Y58583D01*
X152942Y58443D01*
X152662Y58303D01*
X152359Y58163D01*
X152044Y58046D01*
X151718Y57930D01*
X151695Y57918D01*
X151636Y57906D01*
X151531Y57883D01*
X151403Y57836D01*
X151228Y57801D01*
X151018Y57755D01*
X150785Y57696D01*
X150517Y57650D01*
X150226Y57592D01*
X149899Y57545D01*
X149561Y57487D01*
X149188Y57452D01*
X148803Y57417D01*
X148395Y57382D01*
X147976Y57370D01*
X147533Y57358D01*
X146786D01*
X146576Y57370D01*
X146250D01*
X146133Y57382D01*
X145982Y57393D01*
X145807Y57405D01*
X145609Y57417D01*
X145399Y57428D01*
X145189Y57452D01*
X145131D01*
X145096Y57463D01*
X144979Y57475D01*
X144839Y57487D01*
X144676Y57498D01*
X144490Y57510D01*
X144117Y57545D01*
X144093D01*
X144035Y57557D01*
X143930Y57568D01*
X143813Y57580D01*
X143662Y57592D01*
X143510Y57615D01*
X143184Y57661D01*
Y57673D01*
Y57696D01*
Y57731D01*
Y57778D01*
Y57848D01*
Y57930D01*
Y58011D01*
Y58116D01*
Y58349D01*
Y58629D01*
Y58932D01*
Y59270D01*
Y59632D01*
Y60016D01*
Y60413D01*
Y60809D01*
Y61625D01*
Y62022D01*
Y62407D01*
Y62418D01*
Y62430D01*
Y62500D01*
Y62605D01*
Y62745D01*
Y62931D01*
Y63129D01*
Y63362D01*
Y63619D01*
Y63887D01*
Y64167D01*
Y64762D01*
Y65356D01*
Y65659D01*
Y65939D01*
Y65951D01*
Y65986D01*
Y66056D01*
Y66137D01*
Y66242D01*
Y66359D01*
Y66487D01*
Y66639D01*
Y66953D01*
Y67291D01*
Y67653D01*
Y67991D01*
Y68003D01*
Y68026D01*
Y68073D01*
Y68142D01*
Y68212D01*
Y68306D01*
Y68516D01*
Y68760D01*
Y69017D01*
Y69273D01*
Y69530D01*
Y69553D01*
Y69600D01*
Y69682D01*
Y69786D01*
Y69903D01*
Y70031D01*
Y70288D01*
Y70299D01*
Y70346D01*
Y70404D01*
Y70486D01*
Y70579D01*
Y70672D01*
Y70882D01*
Y70894D01*
Y70929D01*
Y70987D01*
Y71045D01*
Y71209D01*
Y71372D01*
Y71384D01*
Y71407D01*
Y71454D01*
Y71500D01*
Y71628D01*
Y71768D01*
Y71780D01*
Y71792D01*
Y71862D01*
Y71967D01*
Y72106D01*
Y72258D01*
Y72421D01*
Y72585D01*
Y72748D01*
Y72771D01*
Y72829D01*
Y72923D01*
Y73063D01*
Y73237D01*
Y73447D01*
Y73692D01*
Y73983D01*
Y73995D01*
Y74042D01*
Y74112D01*
Y74205D01*
Y74322D01*
Y74461D01*
Y74601D01*
Y74765D01*
Y74788D01*
Y74846D01*
Y74928D01*
Y75056D01*
Y75208D01*
Y75382D01*
Y75581D01*
Y75791D01*
X143324D01*
X143382Y75802D01*
X143475Y75814D01*
X143592Y75826D01*
X143743Y75837D01*
X143895Y75849D01*
X144233Y75884D01*
X144256D01*
X144315Y75896D01*
X144408Y75907D01*
X144525Y75919D01*
X144676Y75931D01*
X144851Y75942D01*
X145049Y75965D01*
X145259Y75977D01*
X145317D01*
X145364Y75989D01*
X145481D01*
X145644Y76000D01*
X145819Y76012D01*
X146029Y76024D01*
X146250Y76035D01*
X146472Y76047D01*
X146681D01*
X146833Y76059D01*
X147871D01*
X148034Y76047D01*
D02*
G37*
%LPC*%
G36*
X98287Y73342D02*
Y73331D01*
X98275Y73307D01*
X98263Y73261D01*
X98240Y73202D01*
X98217Y73121D01*
X98193Y73016D01*
X98158Y72899D01*
X98112Y72771D01*
X98065Y72608D01*
X98019Y72445D01*
X97960Y72246D01*
X97902Y72048D01*
X97832Y71815D01*
X97762Y71570D01*
X97680Y71314D01*
X97599Y71034D01*
X97506Y70731D01*
X97412Y70416D01*
X97319Y70078D01*
X97214Y69728D01*
X97097Y69355D01*
X96981Y68970D01*
X96864Y68562D01*
X96736Y68142D01*
X96608Y67699D01*
X96468Y67233D01*
X96328Y66755D01*
X96176Y66254D01*
X96025Y65741D01*
X95873Y65205D01*
X95710Y64657D01*
X95535Y64085D01*
X101061D01*
Y64097D01*
X101050Y64120D01*
X101038Y64167D01*
X101015Y64225D01*
X100991Y64307D01*
X100968Y64412D01*
X100933Y64528D01*
X100886Y64668D01*
X100840Y64820D01*
X100793Y64983D01*
X100735Y65181D01*
X100677Y65391D01*
X100607Y65613D01*
X100537Y65858D01*
X100455Y66114D01*
X100373Y66394D01*
X100280Y66697D01*
X100187Y67012D01*
X100082Y67350D01*
X99977Y67699D01*
X99872Y68073D01*
X99756Y68457D01*
X99627Y68865D01*
X99499Y69285D01*
X99371Y69728D01*
X99231Y70194D01*
X99091Y70672D01*
X98940Y71174D01*
X98788Y71687D01*
X98625Y72223D01*
X98462Y72771D01*
X98287Y73342D01*
D02*
G37*
G36*
X148081Y73774D02*
X146973D01*
X146763Y73762D01*
X146658D01*
X146588Y73750D01*
X146507D01*
X146425Y73739D01*
X146227Y73715D01*
X146133D01*
X146075Y73704D01*
X145924Y73692D01*
X145760Y73669D01*
Y73645D01*
Y73575D01*
Y73471D01*
Y73319D01*
Y73144D01*
Y72934D01*
Y72689D01*
Y72433D01*
Y72153D01*
Y71862D01*
Y71255D01*
Y70626D01*
Y70323D01*
Y70020D01*
Y70008D01*
Y69950D01*
Y69868D01*
Y69763D01*
Y69623D01*
Y69472D01*
Y69297D01*
Y69099D01*
Y68900D01*
Y68679D01*
Y68224D01*
Y67769D01*
Y67326D01*
Y67315D01*
Y67291D01*
Y67245D01*
Y67175D01*
Y67093D01*
Y67012D01*
Y66790D01*
Y66545D01*
Y66289D01*
Y66009D01*
Y65753D01*
Y65741D01*
Y65718D01*
Y65683D01*
Y65636D01*
Y65508D01*
Y65356D01*
Y65170D01*
Y64971D01*
Y64773D01*
Y64575D01*
Y64563D01*
Y64517D01*
Y64458D01*
Y64388D01*
Y64295D01*
Y64202D01*
Y64004D01*
Y63992D01*
Y63957D01*
Y63910D01*
Y63840D01*
Y63689D01*
Y63537D01*
Y63526D01*
Y63502D01*
Y63467D01*
Y63409D01*
Y63293D01*
Y63164D01*
Y63153D01*
Y63141D01*
Y63059D01*
Y62955D01*
Y62849D01*
Y62826D01*
Y62780D01*
Y62698D01*
Y62605D01*
Y62488D01*
Y62360D01*
Y62103D01*
Y62092D01*
Y62045D01*
Y61964D01*
Y61859D01*
Y61730D01*
Y61567D01*
Y61381D01*
Y61159D01*
Y61147D01*
Y61112D01*
Y61054D01*
Y60984D01*
Y60891D01*
Y60798D01*
Y60564D01*
Y60553D01*
Y60506D01*
Y60436D01*
Y60331D01*
Y60215D01*
Y60086D01*
Y59935D01*
Y59772D01*
X145819D01*
X145889Y59760D01*
X145982Y59748D01*
X146110Y59737D01*
X146262Y59725D01*
X146437Y59713D01*
X146635Y59690D01*
X146740D01*
X146798Y59678D01*
X146973D01*
X147171Y59667D01*
X147346D01*
X147428Y59655D01*
X148011D01*
X148197Y59667D01*
X148407Y59678D01*
X148652Y59690D01*
X149153Y59737D01*
X149188D01*
X149223Y59748D01*
X149270D01*
X149398Y59772D01*
X149573Y59795D01*
X149771Y59830D01*
X149981Y59877D01*
X150214Y59935D01*
X150447Y59993D01*
X150459D01*
X150471Y60005D01*
X150506D01*
X150552Y60028D01*
X150669Y60063D01*
X150820Y60110D01*
X150995Y60180D01*
X151193Y60250D01*
X151391Y60343D01*
X151590Y60448D01*
X151601D01*
X151613Y60459D01*
X151683Y60494D01*
X151776Y60564D01*
X151904Y60646D01*
X152056Y60751D01*
X152219Y60868D01*
X152394Y60996D01*
X152557Y61147D01*
X152581Y61171D01*
X152627Y61217D01*
X152721Y61299D01*
X152826Y61416D01*
X152942Y61555D01*
X153070Y61719D01*
X153210Y61894D01*
X153338Y62092D01*
Y62103D01*
X153350Y62115D01*
X153397Y62185D01*
X153467Y62302D01*
X153548Y62453D01*
X153630Y62628D01*
X153735Y62838D01*
X153828Y63071D01*
X153921Y63327D01*
Y63339D01*
X153933Y63362D01*
X153945Y63397D01*
X153956Y63444D01*
X153980Y63514D01*
X154003Y63596D01*
X154050Y63782D01*
X154108Y64004D01*
X154166Y64272D01*
X154225Y64563D01*
X154271Y64878D01*
Y64890D01*
X154283Y64913D01*
Y64960D01*
X154295Y65030D01*
X154306Y65111D01*
X154318Y65205D01*
X154330Y65310D01*
X154341Y65438D01*
X154353Y65578D01*
X154365Y65718D01*
X154376Y66044D01*
X154399Y66394D01*
Y66767D01*
Y66778D01*
Y66814D01*
Y66860D01*
Y66930D01*
Y67012D01*
X154388Y67105D01*
Y67210D01*
Y67338D01*
X154365Y67606D01*
X154341Y67898D01*
X154318Y68201D01*
X154271Y68504D01*
Y68516D01*
Y68539D01*
X154260Y68586D01*
X154248Y68644D01*
X154236Y68714D01*
X154225Y68795D01*
X154190Y68994D01*
X154131Y69215D01*
X154073Y69472D01*
X154003Y69728D01*
X153921Y69985D01*
Y69996D01*
X153910Y70020D01*
X153898Y70054D01*
X153875Y70101D01*
X153828Y70229D01*
X153758Y70381D01*
X153677Y70567D01*
X153583Y70777D01*
X153467Y70987D01*
X153338Y71197D01*
Y71209D01*
X153327Y71220D01*
X153280Y71290D01*
X153210Y71395D01*
X153117Y71523D01*
X153000Y71675D01*
X152872Y71827D01*
X152721Y72002D01*
X152569Y72165D01*
X152546Y72188D01*
X152499Y72235D01*
X152406Y72316D01*
X152289Y72410D01*
X152149Y72526D01*
X151986Y72654D01*
X151800Y72783D01*
X151613Y72899D01*
X151590Y72911D01*
X151520Y72946D01*
X151415Y73004D01*
X151275Y73074D01*
X151112Y73156D01*
X150913Y73237D01*
X150704Y73319D01*
X150482Y73389D01*
X150471D01*
X150459Y73401D01*
X150424Y73412D01*
X150377Y73424D01*
X150261Y73459D01*
X150097Y73494D01*
X149911Y73541D01*
X149689Y73587D01*
X149456Y73634D01*
X149211Y73669D01*
X149176D01*
X149141Y73680D01*
X149095D01*
X149037Y73692D01*
X148955Y73704D01*
X148780Y73727D01*
X148570Y73739D01*
X148337Y73762D01*
X148081Y73774D01*
D02*
G37*
%LPD*%
D16*
X103226Y110220D02*
G03*
X103226Y110220I-2286J0D01*
G01*
X93500Y104000D02*
Y144066D01*
D30*
X78238Y118778D02*
X87762D01*
X78238Y115222D02*
X87762D01*
X78238Y153778D02*
X87762D01*
X78238Y150222D02*
X87762D01*
X144050Y8000D02*
Y11000D01*
X106000Y8000D02*
X144050D01*
X106000D02*
Y11000D01*
X144050Y43002D02*
Y46050D01*
X106000D02*
X144050D01*
X106000Y43002D02*
Y46050D01*
D31*
X235000Y74000D02*
X250000D01*
X0Y174000D02*
X15000D01*
X0Y74000D02*
X15000D01*
X235000Y174000D02*
X250000D01*
D32*
X59300Y234916D02*
Y243913D01*
X62299Y240914D01*
X65298Y243913D01*
Y234916D01*
X69797Y240914D02*
X72796D01*
X74295Y239414D01*
Y234916D01*
X69797D01*
X68297Y236415D01*
X69797Y237915D01*
X74295D01*
X80293Y231917D02*
X81793D01*
X83292Y233416D01*
Y240914D01*
X78794D01*
X77294Y239414D01*
Y236415D01*
X78794Y234916D01*
X83292D01*
X86291D02*
Y240914D01*
X90790D01*
X92289Y239414D01*
Y234916D01*
X99787D02*
X96788D01*
X95288Y236415D01*
Y239414D01*
X96788Y240914D01*
X99787D01*
X101286Y239414D01*
Y237915D01*
X95288D01*
X105785Y242413D02*
Y240914D01*
X104285D01*
X107284D01*
X105785D01*
Y236415D01*
X107284Y234916D01*
X111783D02*
X114782D01*
X113282D01*
Y240914D01*
X111783D01*
X125279D02*
X120780D01*
X119281Y239414D01*
Y236415D01*
X120780Y234916D01*
X125279D01*
X143273Y243913D02*
X137275D01*
Y234916D01*
X143273D01*
X137275Y239414D02*
X140274D01*
X146272Y234916D02*
Y240914D01*
X150770D01*
X152270Y239414D01*
Y234916D01*
X161267Y240914D02*
X156768D01*
X155269Y239414D01*
Y236415D01*
X156768Y234916D01*
X161267D01*
X165765D02*
X168765D01*
X170264Y236415D01*
Y239414D01*
X168765Y240914D01*
X165765D01*
X164266Y239414D01*
Y236415D01*
X165765Y234916D01*
X179261Y243913D02*
Y234916D01*
X174763D01*
X173263Y236415D01*
Y239414D01*
X174763Y240914D01*
X179261D01*
X186759Y234916D02*
X183760D01*
X182260Y236415D01*
Y239414D01*
X183760Y240914D01*
X186759D01*
X188258Y239414D01*
Y237915D01*
X182260D01*
X191257Y240914D02*
Y234916D01*
Y237915D01*
X192757Y239414D01*
X194256Y240914D01*
X195756D01*
X59300Y216800D02*
Y225797D01*
X62299Y222798D01*
X65298Y225797D01*
Y216800D01*
X69797D02*
X72796D01*
X74295Y218300D01*
Y221299D01*
X72796Y222798D01*
X69797D01*
X68297Y221299D01*
Y218300D01*
X69797Y216800D01*
X83292Y225797D02*
Y216800D01*
X78794D01*
X77294Y218300D01*
Y221299D01*
X78794Y222798D01*
X83292D01*
X86291D02*
Y218300D01*
X87791Y216800D01*
X92289D01*
Y222798D01*
X95288Y216800D02*
X98287D01*
X96788D01*
Y225797D01*
X95288D01*
X107284Y216800D02*
X104285D01*
X102786Y218300D01*
Y221299D01*
X104285Y222798D01*
X107284D01*
X108784Y221299D01*
Y219799D01*
X102786D01*
X120780Y225797D02*
Y219799D01*
X123779Y216800D01*
X126778Y219799D01*
Y225797D01*
X129777Y216800D02*
X132776D01*
X131277D01*
Y225797D01*
X129777Y224298D01*
X137275Y216800D02*
Y218300D01*
X138774D01*
Y216800D01*
X137275D01*
X144772Y224298D02*
X146272Y225797D01*
X149271D01*
X150770Y224298D01*
Y218300D01*
X149271Y216800D01*
X146272D01*
X144772Y218300D01*
Y224298D01*
X153769Y216800D02*
Y222798D01*
X156768Y225797D01*
X159768Y222798D01*
Y216800D01*
Y221299D01*
X153769D01*
X35998Y83000D02*
Y89664D01*
X39331Y86332D02*
X32666D01*
X35998Y108000D02*
Y114664D01*
D33*
X60958Y119711D02*
X59625Y121043D01*
X56959D01*
X55626Y119711D01*
Y114379D01*
X56959Y113046D01*
X59625D01*
X60958Y114379D01*
X68955Y121043D02*
X63623D01*
Y117045D01*
X66289Y118378D01*
X67622D01*
X68955Y117045D01*
Y114379D01*
X67622Y113046D01*
X64956D01*
X63623Y114379D01*
X60958Y154762D02*
X59625Y156095D01*
X56959D01*
X55626Y154762D01*
Y149431D01*
X56959Y148098D01*
X59625D01*
X60958Y149431D01*
X68955Y156095D02*
X66289Y154762D01*
X63623Y152097D01*
Y149431D01*
X64956Y148098D01*
X67622D01*
X68955Y149431D01*
Y150764D01*
X67622Y152097D01*
X63623D01*
X93980Y178701D02*
Y172037D01*
X95313Y170704D01*
X97979D01*
X99312Y172037D01*
Y178701D01*
X107309Y170704D02*
X101977D01*
X107309Y176036D01*
Y177369D01*
X105976Y178701D01*
X103310D01*
X101977Y177369D01*
X32335Y131332D02*
X31003Y129999D01*
Y127333D01*
X32335Y126000D01*
X33668D01*
X35001Y127333D01*
Y129999D01*
X36334Y131332D01*
X37667D01*
X39000Y129999D01*
Y127333D01*
X37667Y126000D01*
X31003Y133997D02*
X39000D01*
Y137996D01*
X37667Y139329D01*
X32335D01*
X31003Y137996D01*
Y133997D01*
X39000Y141995D02*
X33668D01*
X31003Y144661D01*
X33668Y147326D01*
X39000D01*
X35001D01*
Y141995D01*
X32335Y158332D02*
X31003Y156999D01*
Y154333D01*
X32335Y153000D01*
X33668D01*
X35001Y154333D01*
Y156999D01*
X36334Y158332D01*
X37667D01*
X39000Y156999D01*
Y154333D01*
X37667Y153000D01*
X32335Y166329D02*
X31003Y164996D01*
Y162330D01*
X32335Y160997D01*
X37667D01*
X39000Y162330D01*
Y164996D01*
X37667Y166329D01*
X31003Y168995D02*
X39000D01*
Y174326D01*
X66000Y206665D02*
X67333Y207997D01*
X69999D01*
X71332Y206665D01*
Y205332D01*
X69999Y203999D01*
X68666D01*
X69999D01*
X71332Y202666D01*
Y201333D01*
X69999Y200000D01*
X67333D01*
X66000Y201333D01*
X73997Y207997D02*
Y202666D01*
X76663Y200000D01*
X79329Y202666D01*
Y207997D01*
M02*
