G04 Layer_Physical_Order=2*
G04 Layer_Color=16711680*
%FSLAX44Y44*%
%MOMM*%
G71*
G01*
G75*
G04:AMPARAMS|DCode=10|XSize=1mm|YSize=0.9mm|CornerRadius=0.1125mm|HoleSize=0mm|Usage=FLASHONLY|Rotation=0.000|XOffset=0mm|YOffset=0mm|HoleType=Round|Shape=RoundedRectangle|*
%AMROUNDEDRECTD10*
21,1,1.0000,0.6750,0,0,0.0*
21,1,0.7750,0.9000,0,0,0.0*
1,1,0.2250,0.3875,-0.3375*
1,1,0.2250,-0.3875,-0.3375*
1,1,0.2250,-0.3875,0.3375*
1,1,0.2250,0.3875,0.3375*
%
%ADD10ROUNDEDRECTD10*%
%ADD11R,0.6350X1.2700*%
%ADD13R,1.0160X0.8636*%
%ADD14C,0.2500*%
%ADD15C,0.2000*%
%ADD17C,0.3000*%
%ADD18C,1.2000*%
%ADD19C,3.6000*%
%ADD20C,1.5000*%
%ADD21C,0.5000*%
%ADD22C,0.6000*%
G04:AMPARAMS|DCode=23|XSize=1.4mm|YSize=1mm|CornerRadius=0.125mm|HoleSize=0mm|Usage=FLASHONLY|Rotation=0.000|XOffset=0mm|YOffset=0mm|HoleType=Round|Shape=RoundedRectangle|*
%AMROUNDEDRECTD23*
21,1,1.4000,0.7500,0,0,0.0*
21,1,1.1500,1.0000,0,0,0.0*
1,1,0.2500,0.5750,-0.3750*
1,1,0.2500,-0.5750,-0.3750*
1,1,0.2500,-0.5750,0.3750*
1,1,0.2500,0.5750,0.3750*
%
%ADD23ROUNDEDRECTD23*%
%ADD24O,0.5500X1.6500*%
%ADD25O,1.6500X0.5500*%
%ADD26R,0.6000X1.5500*%
%ADD27R,1.2000X1.8000*%
%ADD28R,0.9079X0.2000*%
%ADD29R,0.6000X0.2000*%
G36*
X97196Y198839D02*
Y189429D01*
X96023Y188942D01*
X93983Y190982D01*
X93073Y191590D01*
X92001Y191803D01*
X84835D01*
Y196849D01*
X75998D01*
X75744Y198000D01*
X75998Y199150D01*
X84835D01*
Y204196D01*
X91839D01*
X97196Y198839D01*
D02*
G37*
G36*
X25000Y246176D02*
X92000D01*
Y227500D01*
X107000D01*
Y246176D01*
X148000D01*
Y227500D01*
X163000D01*
Y246176D01*
X223772D01*
X225000Y246176D01*
X225000Y246176D01*
X225000Y246176D01*
Y246176D01*
X226234Y246088D01*
X229333Y245783D01*
X233499Y244519D01*
X237339Y242467D01*
X240705Y239705D01*
X243467Y236339D01*
X245519Y232499D01*
X246783Y228333D01*
X247088Y225234D01*
X247176Y224000D01*
X247176D01*
X247176Y224000D01*
Y163088D01*
X246002Y162602D01*
X236302Y172302D01*
X235476Y172855D01*
X234500Y173049D01*
X211551D01*
Y173875D01*
X211439Y174439D01*
X212000Y175000D01*
Y183000D01*
X211439Y183561D01*
X211551Y184125D01*
Y190875D01*
X211348Y191899D01*
X210767Y192768D01*
X209899Y193348D01*
X208875Y193552D01*
X201125D01*
X200101Y193348D01*
X199232Y192768D01*
X198652Y191899D01*
X198448Y190875D01*
Y190304D01*
X188554D01*
Y193750D01*
X188545Y193795D01*
X189000Y194250D01*
Y202292D01*
X189320Y202771D01*
X189614Y204250D01*
Y206730D01*
X170386D01*
Y204250D01*
X170680Y202771D01*
X171000Y202292D01*
Y194250D01*
X171176Y194074D01*
X170782Y192804D01*
X161161D01*
X152983Y200983D01*
X152073Y201590D01*
X151000Y201804D01*
X147000D01*
Y208250D01*
X138040D01*
Y209290D01*
X133770D01*
Y199000D01*
Y188710D01*
X138040D01*
Y189750D01*
X147000D01*
Y196196D01*
X149838D01*
X153718Y192317D01*
X153300Y190939D01*
X152439Y190768D01*
X151116Y189884D01*
X150232Y188561D01*
X149922Y187000D01*
X150232Y185439D01*
X151116Y184116D01*
X152439Y183232D01*
X154000Y182922D01*
X154094Y182940D01*
X164196Y172839D01*
Y156333D01*
X161500D01*
X159842Y156003D01*
X158436Y155064D01*
X157497Y153658D01*
X157167Y152000D01*
X157497Y150342D01*
X158436Y148936D01*
X158470Y148913D01*
X158565Y147502D01*
X157849Y146804D01*
X153428D01*
X152942Y147977D01*
X154983Y150017D01*
X155590Y150927D01*
X155804Y152000D01*
Y157262D01*
X156064Y157436D01*
X157003Y158842D01*
X157333Y160500D01*
Y171500D01*
X157003Y173158D01*
X156064Y174564D01*
X154658Y175503D01*
X153000Y175833D01*
X151342Y175503D01*
X149936Y174564D01*
X149635Y174114D01*
X148365D01*
X148064Y174564D01*
X146658Y175503D01*
X145000Y175833D01*
X143342Y175503D01*
X141936Y174564D01*
X141635Y174114D01*
X140365D01*
X140064Y174564D01*
X138658Y175503D01*
X137000Y175833D01*
X135342Y175503D01*
X133936Y174564D01*
X133713Y174231D01*
X132447Y174156D01*
X132121Y174480D01*
X132064Y174564D01*
X131975Y174623D01*
X131549Y175046D01*
Y179291D01*
X132244Y179756D01*
X133239Y181244D01*
X133588Y183000D01*
X133239Y184756D01*
X132244Y186244D01*
X130756Y187239D01*
X129744Y187440D01*
X129869Y188710D01*
X131230D01*
Y199000D01*
Y209290D01*
X126960D01*
Y208250D01*
X125304D01*
Y213500D01*
X125091Y214573D01*
X124483Y215483D01*
X120983Y218983D01*
X120073Y219590D01*
X119000Y219804D01*
X107000D01*
X105927Y219590D01*
X105017Y218983D01*
X102017Y215983D01*
X101410Y215073D01*
X101196Y214000D01*
Y204429D01*
X100023Y203942D01*
X94983Y208983D01*
X94073Y209590D01*
X93000Y209804D01*
X84835D01*
Y214850D01*
X75715D01*
Y215890D01*
X71270D01*
Y209289D01*
X70931Y209148D01*
X70455Y208000D01*
Y207000D01*
X70000D01*
Y205730D01*
X64285D01*
Y198110D01*
X64285D01*
Y197889D01*
X64285D01*
Y180110D01*
X75715D01*
Y181150D01*
X84835D01*
Y186196D01*
X90839D01*
X94196Y182838D01*
Y174738D01*
X93936Y174564D01*
X92997Y173158D01*
X92667Y171500D01*
Y160500D01*
X92997Y158842D01*
X93936Y157436D01*
X95342Y156496D01*
X97000Y156167D01*
X98658Y156496D01*
X100064Y157436D01*
X100365Y157886D01*
X101635D01*
X101936Y157436D01*
X103342Y156496D01*
X105000Y156167D01*
X106658Y156496D01*
X108064Y157436D01*
X108365Y157886D01*
X109635D01*
X109936Y157436D01*
X111342Y156496D01*
X113000Y156167D01*
X114658Y156496D01*
X116064Y157436D01*
X116365Y157886D01*
X117635D01*
X117936Y157436D01*
X119342Y156496D01*
X121000Y156167D01*
X122658Y156496D01*
X124064Y157436D01*
X124365Y157886D01*
X125635D01*
X125936Y157436D01*
X127342Y156496D01*
X128504Y156265D01*
X129006Y154972D01*
X114017Y139983D01*
X113410Y139073D01*
X113196Y138000D01*
Y120937D01*
X113116Y120884D01*
X112232Y119561D01*
X111922Y118000D01*
X112232Y116439D01*
X113116Y115116D01*
X114439Y114232D01*
X116000Y113922D01*
X117561Y114232D01*
X117689Y114318D01*
X118832Y113554D01*
X118672Y112750D01*
X118982Y111189D01*
X119866Y109866D01*
X121189Y108982D01*
X122750Y108672D01*
X124311Y108982D01*
X125634Y109866D01*
X126330Y110908D01*
X127409Y111208D01*
X127818Y111216D01*
X128940Y110094D01*
X128922Y110000D01*
X129232Y108439D01*
X130116Y107116D01*
X131439Y106232D01*
X133000Y105922D01*
X134561Y106232D01*
X135884Y107116D01*
X136768Y108439D01*
X136939Y109300D01*
X138317Y109718D01*
X142196Y105839D01*
Y90738D01*
X141936Y90564D01*
X141635Y90114D01*
X140365D01*
X140064Y90564D01*
X138658Y91503D01*
X137000Y91833D01*
X135342Y91503D01*
X133936Y90564D01*
X133635Y90114D01*
X132365D01*
X132064Y90564D01*
X130658Y91503D01*
X129000Y91833D01*
X127342Y91503D01*
X125936Y90564D01*
X125635Y90114D01*
X124365D01*
X124064Y90564D01*
X122658Y91503D01*
X121000Y91833D01*
X119342Y91503D01*
X117936Y90564D01*
X117635Y90114D01*
X116365D01*
X116064Y90564D01*
X114658Y91503D01*
X113000Y91833D01*
X111342Y91503D01*
X109936Y90564D01*
X109635Y90114D01*
X108365D01*
X108064Y90564D01*
X106658Y91503D01*
X105000Y91833D01*
X103342Y91503D01*
X101936Y90564D01*
X101635Y90114D01*
X100365D01*
X100064Y90564D01*
X98658Y91503D01*
X97000Y91833D01*
X95342Y91503D01*
X93936Y90564D01*
X92997Y89158D01*
X92667Y87500D01*
Y83549D01*
X85709D01*
X85244Y84244D01*
X83756Y85239D01*
X82000Y85588D01*
X80244Y85239D01*
X78756Y84244D01*
X77761Y82756D01*
X77412Y81000D01*
X77761Y79244D01*
X78756Y77756D01*
X80244Y76761D01*
X82000Y76412D01*
X83756Y76761D01*
X85244Y77756D01*
X85709Y78451D01*
X92667D01*
Y76500D01*
X92997Y74842D01*
X93936Y73436D01*
X95342Y72497D01*
X97000Y72167D01*
X98658Y72497D01*
X100064Y73436D01*
X100287Y73769D01*
X101553Y73844D01*
X101880Y73520D01*
X101936Y73436D01*
X102025Y73377D01*
X102451Y72954D01*
Y70056D01*
X101944Y69549D01*
X92709D01*
X92244Y70244D01*
X90756Y71239D01*
X89000Y71588D01*
X87244Y71239D01*
X85756Y70244D01*
X84761Y68756D01*
X84412Y67000D01*
X84761Y65244D01*
X85756Y63756D01*
X87244Y62761D01*
X89000Y62412D01*
X90756Y62761D01*
X92244Y63756D01*
X92709Y64451D01*
X103000D01*
X103975Y64645D01*
X104802Y65198D01*
X106802Y67198D01*
X107355Y68025D01*
X107549Y69000D01*
Y73092D01*
X108064Y73436D01*
X108365Y73886D01*
X109635D01*
X109936Y73436D01*
X111342Y72497D01*
X113000Y72167D01*
X114658Y72497D01*
X116064Y73436D01*
X116365Y73886D01*
X117635D01*
X117936Y73436D01*
X119342Y72497D01*
X121000Y72167D01*
X122658Y72497D01*
X124064Y73436D01*
X124365Y73886D01*
X125635D01*
X125936Y73436D01*
X127342Y72497D01*
X129000Y72167D01*
X130658Y72497D01*
X132064Y73436D01*
X132087Y73471D01*
X133497Y73566D01*
X134196Y72849D01*
Y41390D01*
X134410Y40317D01*
X135017Y39407D01*
X135920Y38505D01*
Y30072D01*
X148561D01*
X149091Y28807D01*
X144353Y24068D01*
X135920D01*
Y21054D01*
X128789D01*
X128495Y21495D01*
X127006Y22489D01*
X125250Y22838D01*
X123494Y22489D01*
X122006Y21495D01*
X121011Y20006D01*
X120662Y18250D01*
X121011Y16494D01*
X122006Y15006D01*
X123494Y14011D01*
X125250Y13662D01*
X127006Y14011D01*
X128495Y15006D01*
X128789Y15446D01*
X135920D01*
Y12432D01*
X149080D01*
Y20865D01*
X198833Y70618D01*
X199441Y71527D01*
X199654Y72600D01*
Y92841D01*
X200924Y93272D01*
X201509Y92509D01*
X203293Y91140D01*
X205371Y90280D01*
X206330Y90154D01*
Y98600D01*
Y107046D01*
X205371Y106920D01*
X203293Y106060D01*
X201509Y104691D01*
X200924Y103928D01*
X199654Y104350D01*
Y120266D01*
X200924Y120519D01*
X201049Y120218D01*
X202251Y118651D01*
X203818Y117449D01*
X205642Y116693D01*
X207600Y116435D01*
X209558Y116693D01*
X211382Y117449D01*
X212949Y118651D01*
X214151Y120218D01*
X214907Y122042D01*
X215165Y124000D01*
X214907Y125958D01*
X214151Y127782D01*
X212949Y129349D01*
X211382Y130551D01*
X209558Y131307D01*
X207600Y131565D01*
X205642Y131307D01*
X203818Y130551D01*
X202251Y129349D01*
X201049Y127782D01*
X200924Y127481D01*
X199654Y127734D01*
Y138650D01*
Y145666D01*
X200924Y145919D01*
X201049Y145618D01*
X202251Y144051D01*
X203818Y142849D01*
X205642Y142093D01*
X207600Y141835D01*
X209558Y142093D01*
X211382Y142849D01*
X212949Y144051D01*
X214151Y145618D01*
X214907Y147442D01*
X215165Y149400D01*
X214907Y151358D01*
X214151Y153182D01*
X212949Y154749D01*
X211382Y155951D01*
X209558Y156707D01*
X207600Y156965D01*
X205642Y156707D01*
X203818Y155951D01*
X202251Y154749D01*
X202218Y154747D01*
X198983Y157983D01*
X188562Y168403D01*
X189188Y169573D01*
X190000Y169412D01*
X190820Y169575D01*
X191698Y168698D01*
X192525Y168145D01*
X193500Y167951D01*
X198448D01*
Y167125D01*
X198652Y166101D01*
X199232Y165232D01*
X200101Y164652D01*
X201125Y164449D01*
X208875D01*
X209899Y164652D01*
X210767Y165232D01*
X211348Y166101D01*
X211551Y167125D01*
Y167951D01*
X233444D01*
X243681Y157714D01*
Y112885D01*
X236192Y105396D01*
X234958Y105907D01*
X233000Y106165D01*
X231042Y105907D01*
X229218Y105151D01*
X227651Y103949D01*
X226449Y102382D01*
X225693Y100558D01*
X225435Y98600D01*
X225693Y96642D01*
X226449Y94818D01*
X227651Y93251D01*
X229218Y92049D01*
X231042Y91293D01*
X233000Y91035D01*
X234958Y91293D01*
X236782Y92049D01*
X238349Y93251D01*
X239551Y94818D01*
X240307Y96642D01*
X240565Y98600D01*
X240307Y100558D01*
X239796Y101791D01*
X246002Y107997D01*
X247176Y107511D01*
Y25228D01*
X247176Y24000D01*
X247176Y24000D01*
X247176Y24000D01*
X247176D01*
X247088Y22766D01*
X246783Y19667D01*
X245519Y15501D01*
X243467Y11661D01*
X240705Y8295D01*
X237339Y5533D01*
X233499Y3481D01*
X229333Y2217D01*
X226234Y1912D01*
X225000Y1824D01*
Y1824D01*
X225000Y1824D01*
X26228D01*
X25000Y1824D01*
X25000Y1824D01*
X25000Y1824D01*
Y1824D01*
X23766Y1912D01*
X20667Y2217D01*
X16501Y3481D01*
X12661Y5533D01*
X9295Y8295D01*
X6533Y11661D01*
X4481Y15501D01*
X3217Y19667D01*
X2912Y22766D01*
X2824Y24000D01*
X2824D01*
X2824Y24000D01*
Y222772D01*
X2824Y224000D01*
X2824Y224000D01*
X2824Y224000D01*
X2824D01*
X2912Y225234D01*
X3217Y228333D01*
X4481Y232499D01*
X6533Y236339D01*
X9295Y239705D01*
X12661Y242467D01*
X16501Y244519D01*
X20667Y245783D01*
X23766Y246088D01*
X25000Y246176D01*
Y246176D01*
X25000Y246176D01*
D02*
G37*
G36*
X160000Y187196D02*
X171446D01*
Y186250D01*
X171660Y185177D01*
X172267Y184267D01*
X173177Y183660D01*
X174250Y183446D01*
X175363D01*
X176042Y182176D01*
X175761Y181756D01*
X175412Y180000D01*
X175761Y178244D01*
X176756Y176756D01*
X177196Y176461D01*
Y173000D01*
X177410Y171927D01*
X178017Y171017D01*
X188237Y160798D01*
X187658Y159580D01*
X185838Y159219D01*
X184006Y157994D01*
X182781Y156162D01*
X182604Y155270D01*
X188000D01*
Y152730D01*
X182604D01*
X182686Y152321D01*
X181483Y151517D01*
X180672Y150305D01*
X180388Y148875D01*
Y146770D01*
X188000D01*
Y144230D01*
X180388D01*
Y142125D01*
X180672Y140695D01*
X181000Y140204D01*
Y133000D01*
X181426Y132574D01*
X181236Y131304D01*
X177135D01*
X177080Y131363D01*
X176573Y132574D01*
X177483Y133936D01*
X177641Y134730D01*
X167000D01*
X156359D01*
X156517Y133936D01*
X157686Y132186D01*
X157845Y132080D01*
X158017Y130437D01*
X157497Y129658D01*
X157167Y128000D01*
X157497Y126342D01*
X158017Y125563D01*
X157845Y123920D01*
X157686Y123814D01*
X156517Y122064D01*
X156359Y121270D01*
X167000D01*
Y118730D01*
X156359D01*
X156517Y117936D01*
X157686Y116186D01*
X157845Y116080D01*
X158017Y114438D01*
X157497Y113658D01*
X157167Y112000D01*
X157497Y110342D01*
X158436Y108936D01*
X158886Y108635D01*
Y107365D01*
X158436Y107064D01*
X157497Y105658D01*
X157167Y104000D01*
X157497Y102342D01*
X158436Y100936D01*
X158886Y100635D01*
Y99365D01*
X158436Y99064D01*
X157497Y97658D01*
X157167Y96000D01*
X157497Y94342D01*
X158436Y92936D01*
X159842Y91997D01*
X161500Y91667D01*
X172500D01*
X174158Y91997D01*
X175564Y92936D01*
X176503Y94342D01*
X176833Y96000D01*
X176503Y97658D01*
X175564Y99064D01*
X175114Y99365D01*
Y100635D01*
X175564Y100936D01*
X176082Y101711D01*
X177604Y101918D01*
X177626Y101909D01*
X181449Y98086D01*
Y92125D01*
X181652Y91101D01*
X182233Y90232D01*
X183101Y89652D01*
X184125Y89448D01*
X191875D01*
X192776Y89628D01*
X192994Y89590D01*
X194046Y88891D01*
Y73762D01*
X167432Y47147D01*
X166446Y47957D01*
X166768Y48439D01*
X167078Y50000D01*
X166768Y51561D01*
X165884Y52884D01*
X164561Y53768D01*
X163000Y54078D01*
X162906Y54060D01*
X155804Y61161D01*
Y73262D01*
X156064Y73436D01*
X157003Y74842D01*
X157333Y76500D01*
Y87500D01*
X157003Y89158D01*
X156064Y90564D01*
X155804Y90738D01*
Y109000D01*
X155590Y110073D01*
X154983Y110983D01*
X147485Y118481D01*
X147588Y119000D01*
X147239Y120756D01*
X146457Y121926D01*
X146861Y123006D01*
X147017Y123200D01*
X148073Y123410D01*
X148288Y123553D01*
X149000Y123412D01*
X150756Y123761D01*
X152244Y124756D01*
X153239Y126244D01*
X153588Y128000D01*
X153239Y129756D01*
X152244Y131244D01*
X150756Y132239D01*
X149000Y132588D01*
X147244Y132239D01*
X145756Y131244D01*
X144761Y129756D01*
X144572Y128804D01*
X141624D01*
X141025Y129924D01*
X141239Y130244D01*
X141588Y132000D01*
X141319Y133354D01*
X149161Y141196D01*
X157469D01*
X157851Y139938D01*
X157845Y139920D01*
X157686Y139814D01*
X156517Y138064D01*
X156359Y137270D01*
X167000D01*
X177641D01*
X177483Y138064D01*
X176314Y139814D01*
X176155Y139920D01*
X175983Y141562D01*
X176503Y142342D01*
X176833Y144000D01*
X176503Y145658D01*
X175564Y147064D01*
X175114Y147365D01*
Y148635D01*
X175564Y148936D01*
X176503Y150342D01*
X176833Y152000D01*
X176503Y153658D01*
X175564Y155064D01*
X174158Y156003D01*
X172500Y156333D01*
X169804D01*
Y174000D01*
X169590Y175073D01*
X168983Y175983D01*
X158832Y186134D01*
X159457Y187304D01*
X160000Y187196D01*
D02*
G37*
%LPC*%
G36*
X185750Y215614D02*
X181270D01*
Y209270D01*
X189614D01*
Y211750D01*
X189320Y213229D01*
X188482Y214482D01*
X187229Y215320D01*
X185750Y215614D01*
D02*
G37*
G36*
X178730D02*
X174250D01*
X172771Y215320D01*
X171518Y214482D01*
X170680Y213229D01*
X170386Y211750D01*
Y209270D01*
X178730D01*
Y215614D01*
D02*
G37*
G36*
X68730Y215890D02*
X64285D01*
Y208270D01*
X68730D01*
Y215890D01*
D02*
G37*
G36*
X225000Y243594D02*
X221177Y243218D01*
X217501Y242103D01*
X214114Y240292D01*
X211145Y237855D01*
X208708Y234886D01*
X206897Y231498D01*
X205782Y227822D01*
X205406Y224000D01*
X205782Y220177D01*
X206897Y216501D01*
X208708Y213114D01*
X211145Y210145D01*
X214114Y207708D01*
X217501Y205897D01*
X221177Y204782D01*
X225000Y204405D01*
X228822Y204782D01*
X232498Y205897D01*
X235886Y207708D01*
X238855Y210145D01*
X241292Y213114D01*
X243103Y216501D01*
X244218Y220177D01*
X244594Y224000D01*
X244218Y227822D01*
X243103Y231498D01*
X241292Y234886D01*
X238855Y237855D01*
X235886Y240292D01*
X232498Y242103D01*
X228822Y243218D01*
X225000Y243594D01*
D02*
G37*
G36*
X25000D02*
X21177Y243218D01*
X17502Y242103D01*
X14114Y240292D01*
X11145Y237855D01*
X8708Y234886D01*
X6897Y231498D01*
X5782Y227822D01*
X5406Y224000D01*
X5782Y220177D01*
X6897Y216501D01*
X8708Y213114D01*
X11145Y210145D01*
X14114Y207708D01*
X17502Y205897D01*
X21177Y204782D01*
X25000Y204405D01*
X28823Y204782D01*
X32499Y205897D01*
X35886Y207708D01*
X38856Y210145D01*
X41292Y213114D01*
X43103Y216501D01*
X44218Y220177D01*
X44595Y224000D01*
X44218Y227822D01*
X43103Y231498D01*
X41292Y234886D01*
X38856Y237855D01*
X35886Y240292D01*
X32499Y242103D01*
X28823Y243218D01*
X25000Y243594D01*
D02*
G37*
G36*
X165270Y206396D02*
Y202270D01*
X169396D01*
X169219Y203162D01*
X167994Y204994D01*
X166162Y206219D01*
X165270Y206396D01*
D02*
G37*
G36*
X162730D02*
X161838Y206219D01*
X160006Y204994D01*
X158781Y203162D01*
X158604Y202270D01*
X162730D01*
Y206396D01*
D02*
G37*
G36*
X169396Y199730D02*
X165270D01*
Y195604D01*
X166162Y195781D01*
X167994Y197006D01*
X169219Y198838D01*
X169396Y199730D01*
D02*
G37*
G36*
X162730D02*
X158604D01*
X158781Y198838D01*
X160006Y197006D01*
X161838Y195781D01*
X162730Y195604D01*
Y199730D01*
D02*
G37*
G36*
X16000Y171078D02*
X13650Y170768D01*
X11461Y169861D01*
X9581Y168419D01*
X8138Y166539D01*
X7232Y164349D01*
X6922Y162000D01*
X7232Y159650D01*
X8138Y157461D01*
X9581Y155581D01*
X11461Y154138D01*
X13650Y153232D01*
X16000Y152922D01*
X18349Y153232D01*
X20539Y154138D01*
X22419Y155581D01*
X23861Y157461D01*
X24768Y159650D01*
X25078Y162000D01*
X24768Y164349D01*
X23861Y166539D01*
X22419Y168419D01*
X20539Y169861D01*
X18349Y170768D01*
X16000Y171078D01*
D02*
G37*
G36*
X233000Y156965D02*
X231042Y156707D01*
X229218Y155951D01*
X227651Y154749D01*
X226449Y153182D01*
X225693Y151358D01*
X225435Y149400D01*
X225693Y147442D01*
X226449Y145618D01*
X227651Y144051D01*
X229218Y142849D01*
X231042Y142093D01*
X233000Y141835D01*
X234958Y142093D01*
X236782Y142849D01*
X238349Y144051D01*
X239551Y145618D01*
X240307Y147442D01*
X240565Y149400D01*
X240307Y151358D01*
X239551Y153182D01*
X238349Y154749D01*
X236782Y155951D01*
X234958Y156707D01*
X233000Y156965D01*
D02*
G37*
G36*
X88500Y156333D02*
X77500D01*
X75842Y156003D01*
X74436Y155064D01*
X73497Y153658D01*
X73167Y152000D01*
X73497Y150342D01*
X74436Y148936D01*
X74886Y148635D01*
Y147365D01*
X74436Y147064D01*
X73497Y145658D01*
X73167Y144000D01*
X73497Y142342D01*
X74436Y140936D01*
X74886Y140635D01*
Y139365D01*
X74436Y139064D01*
X73497Y137658D01*
X73167Y136000D01*
X73497Y134342D01*
X74017Y133562D01*
X73845Y131920D01*
X73686Y131814D01*
X72517Y130064D01*
X72359Y129270D01*
X83000D01*
X93641D01*
X93483Y130064D01*
X92314Y131814D01*
X92155Y131920D01*
X91983Y133562D01*
X92503Y134342D01*
X92833Y136000D01*
X92503Y137658D01*
X91564Y139064D01*
X91114Y139365D01*
Y140635D01*
X91564Y140936D01*
X92503Y142342D01*
X92833Y144000D01*
X92503Y145658D01*
X91564Y147064D01*
X91114Y147365D01*
Y148635D01*
X91564Y148936D01*
X92503Y150342D01*
X92833Y152000D01*
X92503Y153658D01*
X91564Y155064D01*
X90158Y156003D01*
X88500Y156333D01*
D02*
G37*
G36*
X16000Y145678D02*
X13650Y145368D01*
X11461Y144461D01*
X9581Y143019D01*
X8138Y141139D01*
X7232Y138949D01*
X6922Y136600D01*
X7232Y134250D01*
X8138Y132061D01*
X9581Y130181D01*
X11461Y128738D01*
X13650Y127832D01*
X16000Y127522D01*
X18349Y127832D01*
X20539Y128738D01*
X22419Y130181D01*
X23861Y132061D01*
X24768Y134250D01*
X25078Y136600D01*
X24768Y138949D01*
X23861Y141139D01*
X22419Y143019D01*
X20539Y144461D01*
X18349Y145368D01*
X16000Y145678D01*
D02*
G37*
G36*
X65875Y132612D02*
X63270D01*
Y126770D01*
X69612D01*
Y128875D01*
X69327Y130305D01*
X68517Y131517D01*
X67305Y132327D01*
X65875Y132612D01*
D02*
G37*
G36*
X60730D02*
X58125D01*
X56695Y132327D01*
X55483Y131517D01*
X54673Y130305D01*
X54388Y128875D01*
Y126770D01*
X60730D01*
Y132612D01*
D02*
G37*
G36*
X233000Y131565D02*
X231042Y131307D01*
X229218Y130551D01*
X227651Y129349D01*
X226449Y127782D01*
X225693Y125958D01*
X225435Y124000D01*
X225693Y122042D01*
X226449Y120218D01*
X227651Y118651D01*
X229218Y117449D01*
X231042Y116693D01*
X233000Y116435D01*
X234958Y116693D01*
X236782Y117449D01*
X238349Y118651D01*
X239551Y120218D01*
X240307Y122042D01*
X240565Y124000D01*
X240307Y125958D01*
X239551Y127782D01*
X238349Y129349D01*
X236782Y130551D01*
X234958Y131307D01*
X233000Y131565D01*
D02*
G37*
G36*
X17270Y121159D02*
Y112470D01*
X25959D01*
X25782Y113821D01*
X24770Y116263D01*
X23161Y118361D01*
X21063Y119970D01*
X18621Y120982D01*
X17270Y121159D01*
D02*
G37*
G36*
X14730D02*
X13379Y120982D01*
X10937Y119970D01*
X8839Y118361D01*
X7230Y116263D01*
X6218Y113821D01*
X6041Y112470D01*
X14730D01*
Y121159D01*
D02*
G37*
G36*
X93641Y126730D02*
X83000D01*
X72359D01*
X72517Y125936D01*
X73686Y124186D01*
X73845Y124080D01*
X74017Y122437D01*
X73497Y121658D01*
X73167Y120000D01*
X73497Y118342D01*
X74436Y116936D01*
X74886Y116635D01*
Y115365D01*
X74436Y115064D01*
X73497Y113658D01*
X73167Y112000D01*
X73497Y110342D01*
X74436Y108936D01*
X74886Y108635D01*
Y107365D01*
X74436Y107064D01*
X74367Y106960D01*
X73082Y106884D01*
X69483Y110483D01*
X68573Y111090D01*
X68551Y111095D01*
Y111875D01*
X68439Y112439D01*
X69000Y113000D01*
Y120205D01*
X69327Y120695D01*
X69612Y122125D01*
Y124230D01*
X54388D01*
Y122125D01*
X54673Y120695D01*
X55000Y120205D01*
Y113000D01*
X55426Y112574D01*
X55236Y111304D01*
X38700D01*
X37627Y111090D01*
X36717Y110483D01*
X20084Y93850D01*
X18349Y94568D01*
X16000Y94878D01*
X13650Y94568D01*
X11461Y93661D01*
X9581Y92219D01*
X8138Y90339D01*
X7232Y88149D01*
X6922Y85800D01*
X7232Y83450D01*
X8138Y81261D01*
X9581Y79381D01*
X11461Y77938D01*
X13650Y77032D01*
X16000Y76722D01*
X18349Y77032D01*
X20539Y77938D01*
X22419Y79381D01*
X23861Y81261D01*
X24768Y83450D01*
X25078Y85800D01*
X24768Y88149D01*
X24050Y89884D01*
X39861Y105696D01*
X55449D01*
Y105125D01*
X55652Y104101D01*
X56233Y103232D01*
X57101Y102652D01*
X58125Y102449D01*
X65875D01*
X66899Y102652D01*
X67768Y103232D01*
X68710Y103325D01*
X70017Y102017D01*
X70927Y101410D01*
X72000Y101196D01*
X74262D01*
X74436Y100936D01*
X74769Y100713D01*
X74844Y99447D01*
X74521Y99121D01*
X74436Y99064D01*
X74377Y98975D01*
X73954Y98549D01*
X68000D01*
X67025Y98355D01*
X66198Y97802D01*
X63198Y94802D01*
X62645Y93975D01*
X62451Y93000D01*
Y77709D01*
X61756Y77244D01*
X60761Y75756D01*
X60412Y74000D01*
X60761Y72244D01*
X61756Y70756D01*
X63244Y69761D01*
X65000Y69412D01*
X66756Y69761D01*
X68244Y70756D01*
X69239Y72244D01*
X69588Y74000D01*
X69239Y75756D01*
X68244Y77244D01*
X67549Y77709D01*
Y91944D01*
X69056Y93451D01*
X74092D01*
X74436Y92936D01*
X75842Y91997D01*
X77500Y91667D01*
X88500D01*
X90158Y91997D01*
X91564Y92936D01*
X92503Y94342D01*
X92833Y96000D01*
X92503Y97658D01*
X91564Y99064D01*
X91114Y99365D01*
Y100635D01*
X91564Y100936D01*
X92503Y102342D01*
X92833Y104000D01*
X92503Y105658D01*
X91564Y107064D01*
X91114Y107365D01*
Y108635D01*
X91564Y108936D01*
X92503Y110342D01*
X92833Y112000D01*
X92503Y113658D01*
X91564Y115064D01*
X91114Y115365D01*
Y116635D01*
X91564Y116936D01*
X92503Y118342D01*
X92833Y120000D01*
X92503Y121658D01*
X91983Y122437D01*
X92155Y124080D01*
X92314Y124186D01*
X93483Y125936D01*
X93641Y126730D01*
D02*
G37*
G36*
X25959Y109930D02*
X17270D01*
Y101241D01*
X18621Y101418D01*
X21063Y102430D01*
X23161Y104039D01*
X24770Y106137D01*
X25782Y108579D01*
X25959Y109930D01*
D02*
G37*
G36*
X14730D02*
X6041D01*
X6218Y108579D01*
X7230Y106137D01*
X8839Y104039D01*
X10937Y102430D01*
X13379Y101418D01*
X14730Y101241D01*
Y109930D01*
D02*
G37*
G36*
X208870Y107046D02*
Y99870D01*
X216047D01*
X215920Y100829D01*
X215060Y102907D01*
X213691Y104691D01*
X211907Y106060D01*
X209829Y106920D01*
X208870Y107046D01*
D02*
G37*
G36*
X216047Y97330D02*
X208870D01*
Y90154D01*
X209829Y90280D01*
X211907Y91140D01*
X213691Y92509D01*
X215060Y94293D01*
X215920Y96371D01*
X216047Y97330D01*
D02*
G37*
G36*
X128270Y41396D02*
Y37270D01*
X132396D01*
X132219Y38162D01*
X130994Y39994D01*
X129162Y41219D01*
X128270Y41396D01*
D02*
G37*
G36*
X125730D02*
X124838Y41219D01*
X123006Y39994D01*
X121781Y38162D01*
X121604Y37270D01*
X125730D01*
Y41396D01*
D02*
G37*
G36*
X115094Y42748D02*
X108744D01*
Y37160D01*
X115094D01*
Y42748D01*
D02*
G37*
G36*
X106204D02*
X99854D01*
Y37160D01*
X106204D01*
Y42748D01*
D02*
G37*
G36*
X132396Y34730D02*
X128270D01*
Y30604D01*
X129162Y30781D01*
X130994Y32006D01*
X132219Y33838D01*
X132396Y34730D01*
D02*
G37*
G36*
X125730D02*
X121604D01*
X121781Y33838D01*
X123006Y32006D01*
X124838Y30781D01*
X125730Y30604D01*
Y34730D01*
D02*
G37*
G36*
X106204Y34620D02*
X99854D01*
Y29032D01*
X106204D01*
Y34620D01*
D02*
G37*
G36*
X115094D02*
X108744D01*
Y29032D01*
X110758D01*
X111787Y27762D01*
X111636Y27000D01*
X111739Y26480D01*
X109327Y24068D01*
X100894D01*
Y12432D01*
X114054D01*
Y20865D01*
X115704Y22515D01*
X116224Y22412D01*
X117980Y22761D01*
X119468Y23756D01*
X120463Y25244D01*
X120812Y27000D01*
X120463Y28756D01*
X119468Y30244D01*
X117980Y31239D01*
X116224Y31588D01*
X116076Y31559D01*
X115094Y32364D01*
Y34620D01*
D02*
G37*
G36*
X225000Y43595D02*
X221177Y43218D01*
X217501Y42103D01*
X214114Y40292D01*
X211145Y37856D01*
X208708Y34886D01*
X206897Y31499D01*
X205782Y27823D01*
X205406Y24000D01*
X205782Y20178D01*
X206897Y16502D01*
X208708Y13114D01*
X211145Y10145D01*
X214114Y7708D01*
X217501Y5897D01*
X221177Y4782D01*
X225000Y4406D01*
X228822Y4782D01*
X232498Y5897D01*
X235886Y7708D01*
X238855Y10145D01*
X241292Y13114D01*
X243103Y16502D01*
X244218Y20178D01*
X244594Y24000D01*
X244218Y27823D01*
X243103Y31499D01*
X241292Y34886D01*
X238855Y37856D01*
X235886Y40292D01*
X232498Y42103D01*
X228822Y43218D01*
X225000Y43595D01*
D02*
G37*
G36*
X25000D02*
X21177Y43218D01*
X17502Y42103D01*
X14114Y40292D01*
X11145Y37856D01*
X8708Y34886D01*
X6897Y31499D01*
X5782Y27823D01*
X5406Y24000D01*
X5782Y20178D01*
X6897Y16502D01*
X8708Y13114D01*
X11145Y10145D01*
X14114Y7708D01*
X17502Y5897D01*
X21177Y4782D01*
X25000Y4406D01*
X28823Y4782D01*
X32499Y5897D01*
X35886Y7708D01*
X38856Y10145D01*
X41292Y13114D01*
X43103Y16502D01*
X44218Y20178D01*
X44595Y24000D01*
X44218Y27823D01*
X43103Y31499D01*
X41292Y34886D01*
X38856Y37856D01*
X35886Y40292D01*
X32499Y42103D01*
X28823Y43218D01*
X25000Y43595D01*
D02*
G37*
%LPD*%
D10*
X62000Y125500D02*
D03*
Y108500D02*
D03*
X205000Y170500D02*
D03*
Y187500D02*
D03*
X188000Y95500D02*
D03*
Y112500D02*
D03*
X188000Y128500D02*
D03*
Y145500D02*
D03*
D11*
X70000Y189000D02*
D03*
X80160D02*
D03*
X70000Y207000D02*
D03*
X80160D02*
D03*
D13*
X107474Y18250D02*
D03*
X142500D02*
D03*
X107474Y35890D02*
D03*
X142500D02*
D03*
D14*
X154000Y187000D02*
X167000Y174000D01*
Y152000D02*
Y174000D01*
X153000Y60000D02*
X163000Y50000D01*
X153000Y60000D02*
Y82000D01*
X150000Y44000D02*
X156000D01*
X145000Y49000D02*
X150000Y44000D01*
X145000Y49000D02*
Y82000D01*
X129000Y114000D02*
X133000Y110000D01*
X129000Y114000D02*
Y132132D01*
X144868Y148000D01*
X149000D01*
X153000Y152000D01*
Y166000D01*
X145000Y156000D02*
Y166000D01*
X123000Y134000D02*
X145000Y156000D01*
X123000Y113000D02*
Y134000D01*
X122750Y112750D02*
X123000Y113000D01*
X116000Y118000D02*
Y138000D01*
X137000Y159000D01*
Y166000D01*
X16000Y85800D02*
X38700Y108500D01*
X113000Y166000D02*
Y180000D01*
X104000Y189000D02*
X113000Y180000D01*
X104000Y189000D02*
Y214000D01*
X105000Y166000D02*
Y181657D01*
X112500Y187500D02*
X121000Y179000D01*
X112500Y187500D02*
Y199000D01*
X100000Y186657D02*
Y200000D01*
Y186657D02*
X105000Y181657D01*
X92001Y189000D02*
X97000Y184000D01*
Y166000D02*
Y184000D01*
X164000Y201000D02*
X171000Y208000D01*
X180000D01*
X122500Y199000D02*
Y213500D01*
X119000Y217000D02*
X122500Y213500D01*
X107000Y217000D02*
X119000D01*
X104000Y214000D02*
X107000Y217000D01*
X180000Y180000D02*
Y190000D01*
Y173000D02*
Y180000D01*
Y190000D02*
X182500Y187500D01*
X205000D01*
X147000Y126000D02*
X149000Y128000D01*
X138000Y126000D02*
X147000D01*
X135000Y123000D02*
X138000Y126000D01*
X135000Y117000D02*
Y123000D01*
Y117000D02*
X145000Y107000D01*
Y82000D02*
Y107000D01*
X153000Y82000D02*
Y109000D01*
X143000Y119000D02*
X153000Y109000D01*
X137000Y132000D02*
Y133000D01*
X148000Y144000D01*
X167000D01*
X38700Y108500D02*
X62000D01*
X107474Y18250D02*
X116224Y27000D01*
X125250Y18250D02*
X142500D01*
X188000Y145500D02*
Y154000D01*
X167000Y112000D02*
X175000D01*
X179000Y108000D01*
Y104500D02*
Y108000D01*
Y104500D02*
X188000Y95500D01*
X167000Y120000D02*
X178000D01*
X185500Y112500D01*
X188000D01*
X167000Y128000D02*
X167500Y128500D01*
X188000D01*
X178500Y136000D02*
X188000Y145500D01*
X167000Y136000D02*
X178500D01*
X62000Y108500D02*
X67500D01*
X72000Y104000D01*
X83000D01*
X197000Y156000D02*
X203601Y149399D01*
X180000Y173000D02*
X197000Y156000D01*
X196850Y155850D02*
X197000Y156000D01*
X196850Y138650D02*
Y155850D01*
X188000Y129799D02*
X196850Y138650D01*
Y72600D02*
Y104350D01*
Y138650D01*
X142500Y18250D02*
X196850Y72600D01*
X188000Y95500D02*
X196850Y104350D01*
X188000Y128500D02*
Y129799D01*
X203601Y149399D02*
X207600D01*
X137000Y41390D02*
X142500Y35890D01*
X137000Y41390D02*
Y82000D01*
X70000Y189000D02*
Y207000D01*
X81829Y189000D02*
X92001D01*
X80160Y207000D02*
X93000D01*
X100000Y200000D01*
X121000Y166000D02*
Y179000D01*
X132500Y209500D02*
X137000Y214000D01*
X132500Y199000D02*
Y209500D01*
X160000Y190000D02*
X180000D01*
X151000Y199000D02*
X160000Y190000D01*
X142500Y199000D02*
X151000D01*
D15*
X89000Y67000D02*
X103000D01*
X105000Y69000D02*
Y82000D01*
X103000Y67000D02*
X105000Y69000D01*
X82000Y81000D02*
X96000D01*
X97000Y82000D01*
X68000Y96000D02*
X83000D01*
X65000Y93000D02*
X68000Y96000D01*
X65000Y74000D02*
Y93000D01*
X129000Y166000D02*
Y183000D01*
X190000Y174000D02*
X193500Y170500D01*
X205000D01*
X234500D01*
X246230Y158770D01*
Y111829D02*
Y158770D01*
X233000Y98600D02*
X246230Y111829D01*
D17*
X107584Y36000D02*
X127000D01*
X188000Y154000D02*
X188000Y154000D01*
D18*
X207600Y98600D02*
D03*
X233000D02*
D03*
X207600Y124000D02*
D03*
X233000D02*
D03*
X207600Y149400D02*
D03*
X233000D02*
D03*
D19*
X25000Y24000D02*
D03*
X225000D02*
D03*
Y224000D02*
D03*
X25000D02*
D03*
D20*
X16000Y162000D02*
D03*
Y136600D02*
D03*
Y111200D02*
D03*
Y85800D02*
D03*
D21*
X154000Y187000D02*
D03*
X163000Y50000D02*
D03*
X156000Y44000D02*
D03*
X133000Y110000D02*
D03*
X122750Y112750D02*
D03*
X116000Y118000D02*
D03*
D22*
X89000Y67000D02*
D03*
X164000Y201000D02*
D03*
X180000Y180000D02*
D03*
X82000Y81000D02*
D03*
X65000Y74000D02*
D03*
X129000Y183000D02*
D03*
X190000Y174000D02*
D03*
X149000Y128000D02*
D03*
X143000Y119000D02*
D03*
X137000Y132000D02*
D03*
X116224Y27000D02*
D03*
X125250Y18250D02*
D03*
X127000Y36000D02*
D03*
X180000Y118000D02*
D03*
X188000Y154000D02*
D03*
D23*
X180000Y208000D02*
D03*
Y190000D02*
D03*
D24*
X153000Y166000D02*
D03*
X145000D02*
D03*
X137000D02*
D03*
X129000D02*
D03*
X121000D02*
D03*
X113000D02*
D03*
X105000D02*
D03*
X97000D02*
D03*
Y82000D02*
D03*
X105000D02*
D03*
X113000D02*
D03*
X121000D02*
D03*
X129000D02*
D03*
X137000D02*
D03*
X145000D02*
D03*
X153000D02*
D03*
D25*
X83000Y152000D02*
D03*
Y144000D02*
D03*
Y136000D02*
D03*
Y128000D02*
D03*
Y120000D02*
D03*
Y112000D02*
D03*
Y104000D02*
D03*
Y96000D02*
D03*
X167000D02*
D03*
Y104000D02*
D03*
Y112000D02*
D03*
Y120000D02*
D03*
Y128000D02*
D03*
Y136000D02*
D03*
Y144000D02*
D03*
Y152000D02*
D03*
D26*
X142500Y199000D02*
D03*
X132500D02*
D03*
X122500D02*
D03*
X112500D02*
D03*
D27*
X155500Y238000D02*
D03*
X99500D02*
D03*
D28*
X74540Y189000D02*
D03*
D29*
X75079Y207000D02*
D03*
M02*
