M48
;Layer_Color=9474304
;FILE_FORMAT=4:4
METRIC
;TYPE=PLATED
T1F00S00C0.9000
T2F00S00C3.2000
%
T01
X00088900Y00025400
X00114300
X00139700
X00165100
X00177800Y00088900
Y00114300
Y00139700
Y00165100
X00228600
Y00139700
Y00114300
Y00088900
X00127000
Y00114300
Y00139700
Y00165100
X00076200
Y00139700
Y00114300
Y00088900
X00025400
Y00114300
Y00139700
Y00165100
X00088900Y00228600
X00114300
X00139700
X00165100
T02
X00025000Y00025000
X00225000
Y00225000
X00025000
M30
