G04 Layer_Physical_Order=1*
G04 Layer_Color=255*
%FSLAX44Y44*%
%MOMM*%
G71*
G01*
G75*
G04:AMPARAMS|DCode=10|XSize=1.3mm|YSize=0.8mm|CornerRadius=0.1mm|HoleSize=0mm|Usage=FLASHONLY|Rotation=270.000|XOffset=0mm|YOffset=0mm|HoleType=Round|Shape=RoundedRectangle|*
%AMROUNDEDRECTD10*
21,1,1.3000,0.6000,0,0,270.0*
21,1,1.1000,0.8000,0,0,270.0*
1,1,0.2000,-0.3000,-0.5500*
1,1,0.2000,-0.3000,0.5500*
1,1,0.2000,0.3000,0.5500*
1,1,0.2000,0.3000,-0.5500*
%
%ADD10ROUNDEDRECTD10*%
%ADD11C,0.4000*%
%ADD12C,3.6000*%
%ADD13R,1.5000X1.5000*%
%ADD14C,1.5000*%
%ADD15R,1.5000X1.5000*%
G36*
X219664Y244845D02*
X217101Y244068D01*
X213533Y242161D01*
X210406Y239594D01*
X207839Y236466D01*
X205931Y232898D01*
X204757Y229026D01*
X204360Y225000D01*
X204757Y220973D01*
X205931Y217101D01*
X207839Y213533D01*
X210406Y210406D01*
X213533Y207839D01*
X217101Y205931D01*
X220973Y204757D01*
X225000Y204360D01*
X229026Y204757D01*
X232898Y205931D01*
X236466Y207839D01*
X239594Y210406D01*
X242161Y213533D01*
X244068Y217101D01*
X244845Y219664D01*
X246115Y219475D01*
Y30525D01*
X244845Y30336D01*
X244068Y32899D01*
X242161Y36467D01*
X239594Y39595D01*
X236466Y42161D01*
X232898Y44068D01*
X229026Y45243D01*
X225000Y45640D01*
X220973Y45243D01*
X217101Y44068D01*
X213533Y42161D01*
X210406Y39595D01*
X207839Y36467D01*
X205931Y32899D01*
X204757Y29027D01*
X204360Y25000D01*
X204757Y20974D01*
X205931Y17102D01*
X207839Y13534D01*
X210406Y10406D01*
X213533Y7839D01*
X217101Y5932D01*
X219664Y5155D01*
X219475Y3885D01*
X30525D01*
X30336Y5155D01*
X32899Y5932D01*
X36467Y7839D01*
X39595Y10406D01*
X42161Y13534D01*
X44068Y17102D01*
X45243Y20974D01*
X45640Y25000D01*
X45243Y29027D01*
X44068Y32899D01*
X42161Y36467D01*
X39595Y39595D01*
X36467Y42161D01*
X32899Y44068D01*
X29027Y45243D01*
X25000Y45640D01*
X20974Y45243D01*
X17102Y44068D01*
X13534Y42161D01*
X10406Y39595D01*
X7839Y36467D01*
X5932Y32899D01*
X5155Y30336D01*
X3885Y30525D01*
Y219475D01*
X5155Y219664D01*
X5932Y217101D01*
X7839Y213533D01*
X10406Y210406D01*
X13534Y207839D01*
X17102Y205931D01*
X20974Y204757D01*
X25000Y204360D01*
X29027Y204757D01*
X32899Y205931D01*
X36467Y207839D01*
X39595Y210406D01*
X42161Y213533D01*
X44068Y217101D01*
X45243Y220973D01*
X45640Y225000D01*
X45243Y229026D01*
X44068Y232898D01*
X42161Y236466D01*
X39595Y239594D01*
X36467Y242161D01*
X32899Y244068D01*
X30336Y244845D01*
X30525Y246115D01*
X219475D01*
X219664Y244845D01*
D02*
G37*
%LPC*%
G36*
X175140Y238640D02*
X166370D01*
Y229870D01*
X175140D01*
Y238640D01*
D02*
G37*
G36*
X163830D02*
X155060D01*
Y229870D01*
X163830D01*
Y238640D01*
D02*
G37*
G36*
X175140Y227330D02*
X166370D01*
Y218560D01*
X175140D01*
Y227330D01*
D02*
G37*
G36*
X163830D02*
X155060D01*
Y218560D01*
X163830D01*
Y227330D01*
D02*
G37*
G36*
X139700Y238727D02*
X137079Y238382D01*
X134637Y237370D01*
X132539Y235761D01*
X130930Y233663D01*
X129918Y231221D01*
X129573Y228600D01*
X129918Y225979D01*
X130930Y223537D01*
X132539Y221439D01*
X134637Y219830D01*
X137079Y218818D01*
X139700Y218473D01*
X142321Y218818D01*
X144763Y219830D01*
X146861Y221439D01*
X148470Y223537D01*
X149482Y225979D01*
X149827Y228600D01*
X149482Y231221D01*
X148470Y233663D01*
X146861Y235761D01*
X144763Y237370D01*
X142321Y238382D01*
X139700Y238727D01*
D02*
G37*
G36*
X114300D02*
X111679Y238382D01*
X109237Y237370D01*
X107139Y235761D01*
X105530Y233663D01*
X104518Y231221D01*
X104173Y228600D01*
X104518Y225979D01*
X105530Y223537D01*
X107139Y221439D01*
X109237Y219830D01*
X111679Y218818D01*
X114300Y218473D01*
X116921Y218818D01*
X119363Y219830D01*
X121461Y221439D01*
X123070Y223537D01*
X124082Y225979D01*
X124427Y228600D01*
X124082Y231221D01*
X123070Y233663D01*
X121461Y235761D01*
X119363Y237370D01*
X116921Y238382D01*
X114300Y238727D01*
D02*
G37*
G36*
X88900D02*
X86279Y238382D01*
X83837Y237370D01*
X81739Y235761D01*
X80130Y233663D01*
X79118Y231221D01*
X78773Y228600D01*
X79118Y225979D01*
X80130Y223537D01*
X81739Y221439D01*
X83837Y219830D01*
X86279Y218818D01*
X88900Y218473D01*
X91521Y218818D01*
X93963Y219830D01*
X96061Y221439D01*
X97670Y223537D01*
X98682Y225979D01*
X99027Y228600D01*
X98682Y231221D01*
X97670Y233663D01*
X96061Y235761D01*
X93963Y237370D01*
X91521Y238382D01*
X88900Y238727D01*
D02*
G37*
G36*
X228600Y175227D02*
X225979Y174882D01*
X223537Y173870D01*
X221439Y172261D01*
X219830Y170163D01*
X219650Y169729D01*
X186750D01*
X186570Y170163D01*
X184961Y172261D01*
X182863Y173870D01*
X180421Y174882D01*
X177800Y175227D01*
X175179Y174882D01*
X172737Y173870D01*
X170639Y172261D01*
X169030Y170163D01*
X168850Y169729D01*
X135950D01*
X135770Y170163D01*
X134161Y172261D01*
X132063Y173870D01*
X129621Y174882D01*
X127000Y175227D01*
X124379Y174882D01*
X121937Y173870D01*
X119839Y172261D01*
X118230Y170163D01*
X118050Y169729D01*
X85150D01*
X84970Y170163D01*
X83361Y172261D01*
X81263Y173870D01*
X78821Y174882D01*
X76200Y175227D01*
X73579Y174882D01*
X71137Y173870D01*
X69039Y172261D01*
X67430Y170163D01*
X67250Y169729D01*
X34350D01*
X34170Y170163D01*
X32561Y172261D01*
X30463Y173870D01*
X28021Y174882D01*
X25400Y175227D01*
X22779Y174882D01*
X20337Y173870D01*
X18239Y172261D01*
X16630Y170163D01*
X15618Y167721D01*
X15273Y165100D01*
X15618Y162479D01*
X15947Y161686D01*
X9935Y155673D01*
X8931Y154171D01*
X8579Y152400D01*
X8579Y152400D01*
Y74422D01*
X8579Y74422D01*
X8931Y72651D01*
X9935Y71149D01*
X27207Y53877D01*
X27207Y53877D01*
X28709Y52873D01*
X30480Y52521D01*
X84991D01*
Y51650D01*
X85265Y50269D01*
X86048Y49098D01*
X86971Y48481D01*
Y44495D01*
X85627Y43151D01*
X84623Y41649D01*
X84271Y39878D01*
X84271Y39878D01*
Y34350D01*
X83837Y34170D01*
X81739Y32561D01*
X80130Y30463D01*
X79118Y28021D01*
X78773Y25400D01*
X79118Y22779D01*
X80130Y20337D01*
X81739Y18239D01*
X83837Y16630D01*
X86279Y15618D01*
X88900Y15273D01*
X91521Y15618D01*
X93963Y16630D01*
X96061Y18239D01*
X97670Y20337D01*
X98682Y22779D01*
X99027Y25400D01*
X98682Y28021D01*
X97670Y30463D01*
X96061Y32561D01*
X93963Y34170D01*
X93529Y34350D01*
Y37961D01*
X94873Y39305D01*
X94873Y39305D01*
X95877Y40807D01*
X96229Y42578D01*
X96229Y42578D01*
Y48481D01*
X96482Y48650D01*
X106718D01*
X107219Y48315D01*
X108600Y48041D01*
X110330D01*
Y57150D01*
Y66259D01*
X108600D01*
X107219Y65985D01*
X106718Y65650D01*
X96482D01*
X95981Y65985D01*
X94600Y66259D01*
X88600D01*
X87219Y65985D01*
X86048Y65202D01*
X85265Y64031D01*
X84991Y62650D01*
Y61779D01*
X32397D01*
X17837Y76339D01*
Y78860D01*
X24130D01*
Y88900D01*
Y98940D01*
X17837D01*
Y105847D01*
X19107Y106474D01*
X20337Y105530D01*
X22779Y104518D01*
X25400Y104173D01*
X28021Y104518D01*
X30463Y105530D01*
X32561Y107139D01*
X34170Y109237D01*
X35182Y111679D01*
X35527Y114300D01*
X35182Y116921D01*
X34170Y119363D01*
X32561Y121461D01*
X30463Y123070D01*
X28021Y124082D01*
X25400Y124427D01*
X22779Y124082D01*
X20337Y123070D01*
X19107Y122126D01*
X17837Y122753D01*
Y131247D01*
X19107Y131874D01*
X20337Y130930D01*
X22779Y129918D01*
X25400Y129573D01*
X28021Y129918D01*
X30463Y130930D01*
X32561Y132539D01*
X34170Y134637D01*
X34350Y135071D01*
X67250D01*
X67430Y134637D01*
X69039Y132539D01*
X71137Y130930D01*
X73579Y129918D01*
X76200Y129573D01*
X78821Y129918D01*
X81263Y130930D01*
X83361Y132539D01*
X84970Y134637D01*
X85150Y135071D01*
X118050D01*
X118230Y134637D01*
X119839Y132539D01*
X121937Y130930D01*
X124379Y129918D01*
X127000Y129573D01*
X129621Y129918D01*
X130055Y130098D01*
X137771Y122383D01*
Y117851D01*
X136501Y117598D01*
X135770Y119363D01*
X134161Y121461D01*
X132063Y123070D01*
X129621Y124082D01*
X127000Y124427D01*
X124379Y124082D01*
X121937Y123070D01*
X119839Y121461D01*
X118230Y119363D01*
X117218Y116921D01*
X116873Y114300D01*
X117218Y111679D01*
X118230Y109237D01*
X119839Y107139D01*
X121937Y105530D01*
X124379Y104518D01*
X127000Y104173D01*
X129621Y104518D01*
X132063Y105530D01*
X134161Y107139D01*
X135770Y109237D01*
X136501Y111002D01*
X137771Y110749D01*
Y99907D01*
X137040Y98940D01*
X136501Y98940D01*
X128270D01*
Y88900D01*
Y78860D01*
X136501D01*
X137040Y78860D01*
X137771Y77893D01*
Y65819D01*
X136848Y65202D01*
X136065Y64031D01*
X135791Y62650D01*
Y53437D01*
X117355Y35002D01*
X116921Y35182D01*
X114300Y35527D01*
X111679Y35182D01*
X109237Y34170D01*
X107139Y32561D01*
X105530Y30463D01*
X104518Y28021D01*
X104173Y25400D01*
X104518Y22779D01*
X105530Y20337D01*
X107139Y18239D01*
X109237Y16630D01*
X111679Y15618D01*
X114300Y15273D01*
X116921Y15618D01*
X119363Y16630D01*
X121461Y18239D01*
X123070Y20337D01*
X124082Y22779D01*
X124427Y25400D01*
X124082Y28021D01*
X123902Y28455D01*
X143487Y48041D01*
X145400D01*
X146781Y48315D01*
X147282Y48650D01*
X157518D01*
X158019Y48315D01*
X159400Y48041D01*
X161130D01*
Y57150D01*
Y66259D01*
X159400D01*
X158019Y65985D01*
X157518Y65650D01*
X147282D01*
X147029Y65819D01*
Y124300D01*
X147029Y124300D01*
X146677Y126071D01*
X145673Y127573D01*
X145673Y127573D01*
X139349Y133898D01*
X139835Y135071D01*
X168850D01*
X169030Y134637D01*
X170639Y132539D01*
X172737Y130930D01*
X175179Y129918D01*
X177800Y129573D01*
X180421Y129918D01*
X182863Y130930D01*
X184961Y132539D01*
X186570Y134637D01*
X186750Y135071D01*
X219650D01*
X219830Y134637D01*
X221439Y132539D01*
X223537Y130930D01*
X225979Y129918D01*
X228600Y129573D01*
X231221Y129918D01*
X233663Y130930D01*
X235761Y132539D01*
X237370Y134637D01*
X238382Y137079D01*
X238727Y139700D01*
X238382Y142321D01*
X237370Y144763D01*
X235761Y146861D01*
X233663Y148470D01*
X231221Y149482D01*
X228600Y149827D01*
X225979Y149482D01*
X223537Y148470D01*
X221439Y146861D01*
X219830Y144763D01*
X219650Y144329D01*
X186750D01*
X186570Y144763D01*
X184961Y146861D01*
X182863Y148470D01*
X180421Y149482D01*
X177800Y149827D01*
X175179Y149482D01*
X172737Y148470D01*
X170639Y146861D01*
X169030Y144763D01*
X168850Y144329D01*
X135950D01*
X135770Y144763D01*
X134161Y146861D01*
X132063Y148470D01*
X129621Y149482D01*
X127000Y149827D01*
X124379Y149482D01*
X121937Y148470D01*
X119839Y146861D01*
X118230Y144763D01*
X118050Y144329D01*
X85150D01*
X84970Y144763D01*
X83361Y146861D01*
X81263Y148470D01*
X78821Y149482D01*
X76200Y149827D01*
X73579Y149482D01*
X71137Y148470D01*
X69039Y146861D01*
X67430Y144763D01*
X67250Y144329D01*
X34350D01*
X34170Y144763D01*
X32561Y146861D01*
X30463Y148470D01*
X28021Y149482D01*
X25400Y149827D01*
X22779Y149482D01*
X20337Y148470D01*
X19107Y147526D01*
X17837Y148153D01*
Y150483D01*
X22704Y155350D01*
X22779Y155318D01*
X25400Y154973D01*
X28021Y155318D01*
X30463Y156330D01*
X32561Y157939D01*
X34170Y160037D01*
X34350Y160471D01*
X67250D01*
X67430Y160037D01*
X69039Y157939D01*
X71137Y156330D01*
X73579Y155318D01*
X76200Y154973D01*
X78821Y155318D01*
X81263Y156330D01*
X83361Y157939D01*
X84970Y160037D01*
X85150Y160471D01*
X118050D01*
X118230Y160037D01*
X119839Y157939D01*
X121937Y156330D01*
X124379Y155318D01*
X127000Y154973D01*
X129621Y155318D01*
X132063Y156330D01*
X134161Y157939D01*
X135770Y160037D01*
X135950Y160471D01*
X168850D01*
X169030Y160037D01*
X170639Y157939D01*
X172737Y156330D01*
X175179Y155318D01*
X177800Y154973D01*
X180421Y155318D01*
X182863Y156330D01*
X184961Y157939D01*
X186570Y160037D01*
X186750Y160471D01*
X219650D01*
X219830Y160037D01*
X221439Y157939D01*
X223537Y156330D01*
X225979Y155318D01*
X228600Y154973D01*
X231221Y155318D01*
X233663Y156330D01*
X235761Y157939D01*
X237370Y160037D01*
X238382Y162479D01*
X238727Y165100D01*
X238382Y167721D01*
X237370Y170163D01*
X235761Y172261D01*
X233663Y173870D01*
X231221Y174882D01*
X228600Y175227D01*
D02*
G37*
G36*
Y124427D02*
X225979Y124082D01*
X223537Y123070D01*
X221439Y121461D01*
X219830Y119363D01*
X218818Y116921D01*
X218473Y114300D01*
X218818Y111679D01*
X219830Y109237D01*
X221439Y107139D01*
X223537Y105530D01*
X225979Y104518D01*
X228600Y104173D01*
X231221Y104518D01*
X233663Y105530D01*
X235761Y107139D01*
X237370Y109237D01*
X238382Y111679D01*
X238727Y114300D01*
X238382Y116921D01*
X237370Y119363D01*
X235761Y121461D01*
X233663Y123070D01*
X231221Y124082D01*
X228600Y124427D01*
D02*
G37*
G36*
X177800D02*
X175179Y124082D01*
X172737Y123070D01*
X170639Y121461D01*
X169030Y119363D01*
X168018Y116921D01*
X167673Y114300D01*
X168018Y111679D01*
X169030Y109237D01*
X170639Y107139D01*
X172737Y105530D01*
X175179Y104518D01*
X177800Y104173D01*
X180421Y104518D01*
X182863Y105530D01*
X184961Y107139D01*
X186570Y109237D01*
X187582Y111679D01*
X187927Y114300D01*
X187582Y116921D01*
X186570Y119363D01*
X184961Y121461D01*
X182863Y123070D01*
X180421Y124082D01*
X177800Y124427D01*
D02*
G37*
G36*
X76200D02*
X73579Y124082D01*
X71137Y123070D01*
X69039Y121461D01*
X67430Y119363D01*
X66418Y116921D01*
X66073Y114300D01*
X66418Y111679D01*
X67430Y109237D01*
X69039Y107139D01*
X71137Y105530D01*
X73579Y104518D01*
X76200Y104173D01*
X78821Y104518D01*
X81263Y105530D01*
X83361Y107139D01*
X84970Y109237D01*
X85982Y111679D01*
X86327Y114300D01*
X85982Y116921D01*
X84970Y119363D01*
X83361Y121461D01*
X81263Y123070D01*
X78821Y124082D01*
X76200Y124427D01*
D02*
G37*
G36*
X238640Y98940D02*
X229870D01*
Y90170D01*
X238640D01*
Y98940D01*
D02*
G37*
G36*
X187840D02*
X179070D01*
Y90170D01*
X187840D01*
Y98940D01*
D02*
G37*
G36*
X86240D02*
X77470D01*
Y90170D01*
X86240D01*
Y98940D01*
D02*
G37*
G36*
X35440D02*
X26670D01*
Y90170D01*
X35440D01*
Y98940D01*
D02*
G37*
G36*
X227330D02*
X218560D01*
Y90170D01*
X227330D01*
Y98940D01*
D02*
G37*
G36*
X176530D02*
X167760D01*
Y90170D01*
X176530D01*
Y98940D01*
D02*
G37*
G36*
X125730D02*
X116960D01*
Y90170D01*
X125730D01*
Y98940D01*
D02*
G37*
G36*
X74930D02*
X66160D01*
Y90170D01*
X74930D01*
Y98940D01*
D02*
G37*
G36*
X238640Y87630D02*
X229870D01*
Y78860D01*
X238640D01*
Y87630D01*
D02*
G37*
G36*
X227330D02*
X218560D01*
Y78860D01*
X227330D01*
Y87630D01*
D02*
G37*
G36*
X187840D02*
X179070D01*
Y78860D01*
X187840D01*
Y87630D01*
D02*
G37*
G36*
X176530D02*
X167760D01*
Y78860D01*
X176530D01*
Y87630D01*
D02*
G37*
G36*
X86240D02*
X77470D01*
Y78860D01*
X86240D01*
Y87630D01*
D02*
G37*
G36*
X74930D02*
X66160D01*
Y78860D01*
X74930D01*
Y87630D01*
D02*
G37*
G36*
X35440D02*
X26670D01*
Y78860D01*
X35440D01*
Y87630D01*
D02*
G37*
G36*
X125730D02*
X116960D01*
Y78860D01*
X125730D01*
Y87630D01*
D02*
G37*
G36*
X165400Y66259D02*
X163670D01*
Y58420D01*
X169009D01*
Y62650D01*
X168735Y64031D01*
X167952Y65202D01*
X166781Y65985D01*
X165400Y66259D01*
D02*
G37*
G36*
X114600D02*
X112870D01*
Y58420D01*
X118209D01*
Y62650D01*
X117935Y64031D01*
X117152Y65202D01*
X115981Y65985D01*
X114600Y66259D01*
D02*
G37*
G36*
X169009Y55880D02*
X163670D01*
Y48041D01*
X165400D01*
X166781Y48315D01*
X167952Y49098D01*
X168735Y50269D01*
X169009Y51650D01*
Y55880D01*
D02*
G37*
G36*
X118209D02*
X112870D01*
Y48041D01*
X114600D01*
X115981Y48315D01*
X117152Y49098D01*
X117935Y50269D01*
X118209Y51650D01*
Y55880D01*
D02*
G37*
G36*
X175140Y35440D02*
X166370D01*
Y26670D01*
X175140D01*
Y35440D01*
D02*
G37*
G36*
X163830D02*
X155060D01*
Y26670D01*
X163830D01*
Y35440D01*
D02*
G37*
G36*
X175140Y24130D02*
X166370D01*
Y15360D01*
X175140D01*
Y24130D01*
D02*
G37*
G36*
X163830D02*
X155060D01*
Y15360D01*
X163830D01*
Y24130D01*
D02*
G37*
G36*
X139700Y35527D02*
X137079Y35182D01*
X134637Y34170D01*
X132539Y32561D01*
X130930Y30463D01*
X129918Y28021D01*
X129573Y25400D01*
X129918Y22779D01*
X130930Y20337D01*
X132539Y18239D01*
X134637Y16630D01*
X137079Y15618D01*
X139700Y15273D01*
X142321Y15618D01*
X144763Y16630D01*
X146861Y18239D01*
X148470Y20337D01*
X149482Y22779D01*
X149827Y25400D01*
X149482Y28021D01*
X148470Y30463D01*
X146861Y32561D01*
X144763Y34170D01*
X142321Y35182D01*
X139700Y35527D01*
D02*
G37*
%LPD*%
D10*
X142400Y57150D02*
D03*
X162400D02*
D03*
X91600D02*
D03*
X111600D02*
D03*
D11*
X25400Y164592D02*
Y165100D01*
X13208Y152400D02*
X25400Y164592D01*
X142400Y53500D02*
Y57150D01*
X114300Y25400D02*
X142400Y53500D01*
Y57150D02*
Y124300D01*
X127000Y139700D02*
X142400Y124300D01*
X30480Y57150D02*
X91600D01*
X13208Y74422D02*
X30480Y57150D01*
X13208Y74422D02*
Y152400D01*
X91600Y42578D02*
Y57150D01*
X88900Y39878D02*
X91600Y42578D01*
X88900Y25400D02*
Y39878D01*
X177800Y165100D02*
X228600D01*
X127000D02*
X177800D01*
X76200D02*
X127000D01*
X25400D02*
X76200D01*
X177800Y139700D02*
X228600D01*
X127000D02*
X177800D01*
X25400D02*
X76200D01*
X127000D01*
D12*
X25000Y225000D02*
D03*
X225000D02*
D03*
Y25000D02*
D03*
X25000D02*
D03*
D13*
X228600Y88900D02*
D03*
X177800D02*
D03*
X127000D02*
D03*
X76200D02*
D03*
X25400D02*
D03*
D14*
X228600Y114300D02*
D03*
Y139700D02*
D03*
Y165100D02*
D03*
X177800Y114300D02*
D03*
Y139700D02*
D03*
Y165100D02*
D03*
X127000Y114300D02*
D03*
Y139700D02*
D03*
Y165100D02*
D03*
X139700Y25400D02*
D03*
X114300D02*
D03*
X88900D02*
D03*
X76200Y114300D02*
D03*
Y139700D02*
D03*
Y165100D02*
D03*
X139700Y228600D02*
D03*
X114300D02*
D03*
X88900D02*
D03*
X25400Y114300D02*
D03*
Y139700D02*
D03*
Y165100D02*
D03*
D15*
X165100Y25400D02*
D03*
Y228600D02*
D03*
M02*
