G04 Layer_Color=32896*
%FSLAX44Y44*%
%MOMM*%
G71*
G01*
G75*
%ADD18C,0.1500*%
G36*
X174093Y203385D02*
X174193Y203369D01*
X174526D01*
X174593Y203352D01*
X174693D01*
X174909Y203335D01*
X175093Y203302D01*
X175243Y203285D01*
X175359D01*
X175459Y203269D01*
X175542Y203252D01*
X175592D01*
Y203019D01*
Y202836D01*
Y202769D01*
Y202719D01*
Y202686D01*
Y202669D01*
Y202502D01*
Y202352D01*
Y202269D01*
Y202252D01*
Y202236D01*
Y201969D01*
Y201736D01*
Y201553D01*
Y201402D01*
Y201303D01*
Y201219D01*
Y201186D01*
Y201169D01*
Y201103D01*
Y201019D01*
Y200819D01*
Y200586D01*
Y200336D01*
Y200086D01*
Y199886D01*
Y199820D01*
Y199753D01*
Y199720D01*
Y199703D01*
Y199403D01*
Y199253D01*
Y199120D01*
Y199003D01*
Y198920D01*
Y198853D01*
Y198836D01*
Y198437D01*
Y198237D01*
Y198053D01*
Y197903D01*
Y197787D01*
Y197703D01*
Y197670D01*
Y197337D01*
Y197004D01*
Y196670D01*
Y196354D01*
Y196087D01*
Y195971D01*
Y195871D01*
Y195804D01*
Y195737D01*
Y195704D01*
Y195687D01*
Y195237D01*
Y194788D01*
Y194321D01*
Y193904D01*
Y193721D01*
Y193538D01*
Y193388D01*
Y193255D01*
Y193138D01*
Y193055D01*
Y193005D01*
Y192988D01*
X175576Y192471D01*
X175559Y192005D01*
X175526Y191588D01*
X175492Y191222D01*
X175476Y191055D01*
X175459Y190905D01*
Y190788D01*
X175443Y190689D01*
X175426Y190605D01*
X175409Y190539D01*
Y190505D01*
Y190489D01*
X175343Y190089D01*
X175259Y189706D01*
X175176Y189372D01*
X175093Y189089D01*
X175026Y188856D01*
X174959Y188672D01*
X174943Y188606D01*
X174926Y188556D01*
X174909Y188539D01*
Y188522D01*
X174776Y188223D01*
X174643Y187923D01*
X174509Y187673D01*
X174376Y187456D01*
X174259Y187273D01*
X174176Y187139D01*
X174109Y187056D01*
X174093Y187023D01*
X173909Y186790D01*
X173726Y186573D01*
X173560Y186373D01*
X173393Y186206D01*
X173260Y186073D01*
X173143Y185973D01*
X173076Y185907D01*
X173043Y185890D01*
X172810Y185723D01*
X172593Y185573D01*
X172377Y185440D01*
X172177Y185323D01*
X172010Y185240D01*
X171877Y185157D01*
X171793Y185123D01*
X171760Y185107D01*
X171227Y184907D01*
X170977Y184823D01*
X170744Y184757D01*
X170560Y184707D01*
X170410Y184673D01*
X170310Y184640D01*
X170277D01*
X169977Y184590D01*
X169694Y184540D01*
X169411Y184507D01*
X169161Y184473D01*
X168961Y184440D01*
X168794Y184424D01*
X168744D01*
X168694Y184407D01*
X168661D01*
X168344Y184390D01*
X168028Y184373D01*
X167744Y184357D01*
X167478D01*
X167245Y184340D01*
X166578D01*
X166245Y184357D01*
X165945D01*
X165662Y184373D01*
X165428Y184390D01*
X165245D01*
X165178Y184407D01*
X165095D01*
X164762Y184440D01*
X164445Y184490D01*
X164145Y184524D01*
X163879Y184573D01*
X163645Y184607D01*
X163479Y184640D01*
X163412D01*
X163362Y184657D01*
X163329D01*
X162996Y184723D01*
X162696Y184773D01*
X162412Y184840D01*
X162179Y184890D01*
X161963Y184923D01*
X161813Y184957D01*
X161713Y184990D01*
X161679D01*
X161413Y185057D01*
X161163Y185123D01*
X160930Y185190D01*
X160713Y185240D01*
X160546Y185273D01*
X160430Y185307D01*
X160346Y185340D01*
X160313D01*
Y185540D01*
Y185740D01*
Y185907D01*
Y186056D01*
Y186190D01*
Y186273D01*
Y186340D01*
Y186356D01*
Y186656D01*
Y186790D01*
Y186906D01*
Y186989D01*
Y187073D01*
Y187106D01*
Y187123D01*
Y187406D01*
Y187656D01*
Y187873D01*
Y188039D01*
Y188189D01*
Y188272D01*
Y188339D01*
Y188356D01*
Y188672D01*
Y188839D01*
Y188989D01*
Y189106D01*
Y189222D01*
Y189289D01*
Y189306D01*
Y189456D01*
Y189589D01*
Y189672D01*
Y189689D01*
Y189706D01*
Y189872D01*
Y190022D01*
Y190089D01*
Y190139D01*
Y190172D01*
Y190189D01*
Y190389D01*
Y190589D01*
Y190672D01*
Y190739D01*
Y190772D01*
Y190788D01*
Y191038D01*
Y191288D01*
Y191372D01*
Y191455D01*
Y191505D01*
Y191522D01*
Y191772D01*
Y192038D01*
Y192288D01*
Y192521D01*
Y192738D01*
Y192888D01*
Y192955D01*
Y193005D01*
Y193021D01*
Y193038D01*
Y193388D01*
Y193738D01*
Y194088D01*
Y194404D01*
Y194688D01*
Y194804D01*
Y194904D01*
Y194988D01*
Y195054D01*
Y195087D01*
Y195104D01*
Y195671D01*
Y196254D01*
Y196837D01*
Y197104D01*
Y197370D01*
Y197620D01*
Y197837D01*
Y198053D01*
Y198220D01*
Y198353D01*
Y198470D01*
Y198537D01*
Y198553D01*
Y199336D01*
Y200136D01*
Y200919D01*
Y201303D01*
Y201652D01*
Y201986D01*
Y202286D01*
Y202569D01*
Y202802D01*
Y202985D01*
Y203135D01*
Y203219D01*
Y203252D01*
X160463Y203285D01*
X160596Y203302D01*
X160696Y203319D01*
X160730D01*
X160896Y203335D01*
X161046D01*
X161113Y203352D01*
X161196D01*
X161363Y203369D01*
X161646D01*
X161796Y203385D01*
X161929Y203402D01*
X162229D01*
X162362Y203385D01*
X162463Y203369D01*
X162796D01*
X162912Y203352D01*
X162946D01*
X163129Y203335D01*
X163279D01*
X163379Y203319D01*
X163412D01*
X163579Y203302D01*
X163712Y203269D01*
X163796Y203252D01*
X163829D01*
Y203069D01*
Y202902D01*
Y202752D01*
Y202619D01*
Y202519D01*
Y202436D01*
Y202386D01*
Y202369D01*
Y202119D01*
Y202002D01*
Y201902D01*
Y201819D01*
Y201752D01*
Y201719D01*
Y201702D01*
Y201386D01*
Y201103D01*
Y200869D01*
Y200703D01*
Y200553D01*
Y200469D01*
Y200403D01*
Y200386D01*
Y200219D01*
Y200003D01*
Y199786D01*
Y199570D01*
Y199370D01*
Y199203D01*
Y199136D01*
Y199086D01*
Y199070D01*
Y199053D01*
Y198870D01*
Y198703D01*
Y198636D01*
Y198587D01*
Y198553D01*
Y198537D01*
Y198320D01*
Y198120D01*
Y198037D01*
Y197970D01*
Y197920D01*
Y197903D01*
Y197687D01*
Y197470D01*
Y197254D01*
Y197054D01*
Y196870D01*
Y196737D01*
Y196637D01*
Y196620D01*
Y196604D01*
Y196304D01*
Y196004D01*
Y195704D01*
Y195421D01*
Y195187D01*
Y194988D01*
Y194921D01*
Y194871D01*
Y194837D01*
Y194821D01*
Y194321D01*
Y193804D01*
Y193305D01*
Y192821D01*
Y192605D01*
Y192405D01*
Y192238D01*
Y192088D01*
Y191955D01*
Y191872D01*
Y191805D01*
Y191788D01*
Y191105D01*
Y190422D01*
Y189739D01*
Y189406D01*
Y189106D01*
Y188806D01*
Y188556D01*
Y188306D01*
Y188106D01*
Y187956D01*
Y187823D01*
Y187756D01*
Y187723D01*
X164329Y187589D01*
X164579Y187539D01*
X164795Y187506D01*
X164995Y187473D01*
X165145Y187439D01*
X165245Y187423D01*
X165278D01*
X165862Y187373D01*
X166145Y187356D01*
X166411D01*
X166645Y187339D01*
X166978D01*
X167411Y187356D01*
X167611D01*
X167778Y187373D01*
X167928D01*
X168028Y187389D01*
X168128D01*
X168328Y187423D01*
X168511Y187456D01*
X168678Y187489D01*
X168827Y187523D01*
X168961Y187539D01*
X169044Y187573D01*
X169111Y187589D01*
X169127D01*
X169461Y187689D01*
X169611Y187756D01*
X169744Y187806D01*
X169861Y187856D01*
X169944Y187906D01*
X169994Y187923D01*
X170011Y187939D01*
X170277Y188123D01*
X170410Y188206D01*
X170510Y188289D01*
X170594Y188356D01*
X170660Y188423D01*
X170710Y188456D01*
X170727Y188472D01*
X170944Y188739D01*
X171127Y188989D01*
X171194Y189106D01*
X171243Y189189D01*
X171277Y189239D01*
X171294Y189256D01*
X171460Y189606D01*
X171527Y189772D01*
X171593Y189922D01*
X171627Y190072D01*
X171660Y190172D01*
X171693Y190239D01*
Y190272D01*
X171810Y190705D01*
X171843Y190922D01*
X171877Y191122D01*
X171910Y191288D01*
X171927Y191422D01*
X171943Y191505D01*
Y191538D01*
X171977Y192088D01*
X171993Y192355D01*
Y192605D01*
X172010Y192821D01*
Y192971D01*
Y193038D01*
Y193088D01*
Y193105D01*
Y193121D01*
Y193355D01*
Y193538D01*
Y193605D01*
Y193654D01*
Y193688D01*
Y193704D01*
Y193888D01*
Y194021D01*
Y194121D01*
Y194138D01*
Y194154D01*
Y194421D01*
Y194638D01*
Y194804D01*
Y194954D01*
Y195054D01*
Y195137D01*
Y195171D01*
Y195187D01*
Y195254D01*
Y195337D01*
Y195537D01*
Y195771D01*
Y196021D01*
Y196254D01*
Y196454D01*
Y196520D01*
Y196587D01*
Y196620D01*
Y196637D01*
Y196920D01*
Y197070D01*
Y197204D01*
Y197320D01*
Y197404D01*
Y197470D01*
Y197487D01*
Y197870D01*
Y198070D01*
Y198237D01*
Y198387D01*
Y198520D01*
Y198587D01*
Y198620D01*
Y198953D01*
Y199286D01*
Y199620D01*
Y199919D01*
Y200186D01*
Y200303D01*
Y200403D01*
Y200486D01*
Y200536D01*
Y200569D01*
Y200586D01*
Y201036D01*
Y201486D01*
Y201936D01*
Y202352D01*
Y202535D01*
Y202719D01*
Y202869D01*
Y203002D01*
Y203102D01*
Y203185D01*
Y203235D01*
Y203252D01*
X172177Y203285D01*
X172310Y203302D01*
X172410Y203319D01*
X172443D01*
X172610Y203335D01*
X172760D01*
X172876Y203352D01*
X172910D01*
X173093Y203369D01*
X173410D01*
X173560Y203385D01*
X173693Y203402D01*
X173960D01*
X174093Y203385D01*
D02*
G37*
G36*
X141834Y207868D02*
X141851Y207734D01*
X141868Y207634D01*
X141884Y207618D01*
Y207601D01*
X141901Y207451D01*
Y207318D01*
X141918Y207218D01*
Y207201D01*
Y207184D01*
X141934Y207018D01*
Y206884D01*
X141951Y206784D01*
Y206768D01*
Y206751D01*
Y206601D01*
Y206485D01*
Y206385D01*
Y206368D01*
Y206351D01*
Y206051D01*
X141934Y205918D01*
Y205785D01*
Y205685D01*
X141918Y205601D01*
Y205551D01*
Y205535D01*
X141884Y205268D01*
X141868Y205135D01*
X141851Y205035D01*
X141834Y204935D01*
X141818Y204868D01*
X141801Y204818D01*
Y204802D01*
X132554D01*
X132920Y204218D01*
X133287Y203652D01*
X133620Y203102D01*
X133953Y202586D01*
X134286Y202069D01*
X134586Y201586D01*
X134886Y201103D01*
X135186Y200653D01*
X135453Y200219D01*
X135719Y199803D01*
X135969Y199403D01*
X136219Y199020D01*
X136436Y198670D01*
X136652Y198320D01*
X136869Y198003D01*
X137052Y197687D01*
X137236Y197404D01*
X137419Y197137D01*
X137569Y196887D01*
X137719Y196654D01*
X137852Y196437D01*
X137985Y196254D01*
X138085Y196070D01*
X138185Y195921D01*
X138285Y195771D01*
X138352Y195654D01*
X138419Y195554D01*
X138469Y195471D01*
X138519Y195404D01*
X138552Y195354D01*
X138569Y195337D01*
Y195321D01*
X138519Y195237D01*
X138485Y195204D01*
Y195187D01*
Y195171D01*
X138452Y195137D01*
X138419Y195087D01*
X138385Y195021D01*
X138335Y194954D01*
X138302Y194888D01*
X138285Y194854D01*
X138269Y194837D01*
X138002Y194888D01*
X137785Y194937D01*
X137685Y194954D01*
X137619D01*
X137569Y194971D01*
X137552D01*
X137269Y195021D01*
X137152Y195037D01*
X137036Y195054D01*
X136936D01*
X136869Y195071D01*
X136802D01*
X136536Y195087D01*
X136319D01*
X136219Y195104D01*
X136086D01*
X135819Y195121D01*
X135353D01*
X134920Y195104D01*
X134520Y195087D01*
X134153Y195037D01*
X133836Y194988D01*
X133570Y194937D01*
X133470Y194921D01*
X133370Y194904D01*
X133303Y194888D01*
X133253Y194871D01*
X133220Y194854D01*
X133203D01*
X132853Y194737D01*
X132537Y194604D01*
X132237Y194471D01*
X131987Y194338D01*
X131787Y194221D01*
X131620Y194121D01*
X131520Y194054D01*
X131487Y194038D01*
X131221Y193821D01*
X131004Y193605D01*
X130821Y193371D01*
X130654Y193155D01*
X130537Y192971D01*
X130454Y192805D01*
X130404Y192705D01*
X130387Y192688D01*
Y192671D01*
X130254Y192355D01*
X130171Y192022D01*
X130104Y191688D01*
X130054Y191388D01*
X130021Y191122D01*
Y191005D01*
X130004Y190905D01*
Y190839D01*
Y190772D01*
Y190739D01*
Y190722D01*
Y190455D01*
X130021Y190189D01*
X130054Y189955D01*
X130071Y189755D01*
X130104Y189572D01*
X130137Y189456D01*
X130154Y189372D01*
Y189339D01*
X130204Y189122D01*
X130271Y188906D01*
X130321Y188722D01*
X130387Y188556D01*
X130454Y188406D01*
X130487Y188306D01*
X130521Y188239D01*
X130537Y188223D01*
X130637Y188039D01*
X130737Y187856D01*
X130854Y187706D01*
X130937Y187556D01*
X131020Y187456D01*
X131087Y187356D01*
X131137Y187306D01*
X131154Y187289D01*
X131420Y186989D01*
X131554Y186856D01*
X131687Y186756D01*
X131787Y186656D01*
X131870Y186590D01*
X131937Y186556D01*
X131954Y186540D01*
X132287Y186306D01*
X132453Y186206D01*
X132603Y186140D01*
X132720Y186073D01*
X132837Y186023D01*
X132903Y185990D01*
X132920Y185973D01*
X133303Y185823D01*
X133487Y185756D01*
X133670Y185707D01*
X133820Y185657D01*
X133936Y185623D01*
X134003Y185590D01*
X134036D01*
X134486Y185507D01*
X134703Y185457D01*
X134886Y185440D01*
X135053Y185407D01*
X135169Y185390D01*
X135253Y185373D01*
X135286D01*
X135753Y185340D01*
X135986Y185323D01*
X136186D01*
X136369Y185307D01*
X136919D01*
X137202Y185323D01*
X137452D01*
X137685Y185340D01*
X137885Y185357D01*
X138019D01*
X138119Y185373D01*
X138152D01*
X138419Y185407D01*
X138669Y185440D01*
X138885Y185473D01*
X139102Y185507D01*
X139268Y185540D01*
X139385Y185573D01*
X139468Y185590D01*
X139502D01*
X139968Y185723D01*
X140168Y185773D01*
X140351Y185823D01*
X140518Y185873D01*
X140635Y185907D01*
X140701Y185940D01*
X140735D01*
X141168Y186090D01*
X141368Y186156D01*
X141551Y186223D01*
X141701Y186273D01*
X141818Y186323D01*
X141884Y186340D01*
X141918Y186356D01*
X142068Y186090D01*
X142134Y185956D01*
X142184Y185856D01*
X142234Y185756D01*
X142268Y185690D01*
X142284Y185640D01*
X142301Y185623D01*
X142418Y185357D01*
X142468Y185223D01*
X142518Y185107D01*
X142568Y185007D01*
X142584Y184940D01*
X142618Y184890D01*
Y184873D01*
X142718Y184607D01*
X142767Y184473D01*
X142801Y184357D01*
X142834Y184257D01*
X142867Y184174D01*
X142884Y184124D01*
Y184107D01*
X142951Y183824D01*
X142968Y183690D01*
X143001Y183574D01*
X143017Y183474D01*
Y183390D01*
X143034Y183340D01*
Y183324D01*
X142468Y183107D01*
X142201Y183024D01*
X141968Y182941D01*
X141768Y182874D01*
X141601Y182841D01*
X141501Y182807D01*
X141484Y182791D01*
X141468D01*
X140901Y182641D01*
X140635Y182574D01*
X140385Y182524D01*
X140185Y182491D01*
X140018Y182457D01*
X139918Y182424D01*
X139885D01*
X139302Y182341D01*
X139018Y182291D01*
X138769Y182274D01*
X138569Y182241D01*
X138402Y182224D01*
X138335D01*
X138285Y182207D01*
X138252D01*
X137935Y182191D01*
X137619Y182174D01*
X137319Y182157D01*
X137052D01*
X136836Y182141D01*
X136119D01*
X135753Y182157D01*
X135403Y182174D01*
X135103Y182207D01*
X134853Y182224D01*
X134753D01*
X134653Y182241D01*
X134586D01*
X134536Y182257D01*
X134486D01*
X134120Y182324D01*
X133770Y182391D01*
X133453Y182457D01*
X133170Y182507D01*
X132920Y182574D01*
X132737Y182624D01*
X132670Y182641D01*
X132620D01*
X132603Y182657D01*
X132587D01*
X132254Y182757D01*
X131937Y182874D01*
X131637Y182990D01*
X131370Y183090D01*
X131154Y183190D01*
X130987Y183257D01*
X130937Y183291D01*
X130887Y183307D01*
X130871Y183324D01*
X130854D01*
X130571Y183474D01*
X130287Y183640D01*
X130037Y183807D01*
X129804Y183957D01*
X129621Y184090D01*
X129471Y184190D01*
X129388Y184273D01*
X129354Y184290D01*
X129104Y184507D01*
X128871Y184723D01*
X128671Y184923D01*
X128488Y185107D01*
X128338Y185273D01*
X128221Y185407D01*
X128138Y185490D01*
X128121Y185523D01*
X127938Y185790D01*
X127755Y186056D01*
X127605Y186323D01*
X127455Y186556D01*
X127355Y186756D01*
X127255Y186923D01*
X127221Y186973D01*
X127205Y187023D01*
X127188Y187040D01*
Y187056D01*
X127038Y187373D01*
X126922Y187706D01*
X126822Y188023D01*
X126722Y188306D01*
X126655Y188539D01*
X126638Y188656D01*
X126605Y188739D01*
X126588Y188806D01*
Y188856D01*
X126572Y188889D01*
Y188906D01*
X126505Y189289D01*
X126455Y189655D01*
X126422Y190022D01*
X126388Y190355D01*
Y190639D01*
X126372Y190755D01*
Y190855D01*
Y190938D01*
Y191005D01*
Y191038D01*
Y191055D01*
X126388Y191488D01*
X126405Y191672D01*
X126422Y191855D01*
X126438Y191988D01*
X126455Y192105D01*
X126472Y192188D01*
Y192205D01*
X126555Y192638D01*
X126605Y192838D01*
X126655Y193005D01*
X126705Y193155D01*
X126738Y193271D01*
X126755Y193338D01*
X126772Y193371D01*
X126938Y193788D01*
X127022Y193988D01*
X127105Y194154D01*
X127188Y194288D01*
X127238Y194388D01*
X127271Y194471D01*
X127288Y194488D01*
X127405Y194688D01*
X127521Y194871D01*
X127638Y195054D01*
X127755Y195187D01*
X127838Y195321D01*
X127921Y195404D01*
X127971Y195471D01*
X127988Y195487D01*
X128305Y195837D01*
X128455Y195987D01*
X128588Y196104D01*
X128721Y196220D01*
X128821Y196304D01*
X128888Y196354D01*
X128904Y196370D01*
X129288Y196637D01*
X129471Y196754D01*
X129654Y196854D01*
X129804Y196937D01*
X129921Y197004D01*
X129987Y197037D01*
X130021Y197054D01*
X130504Y197237D01*
X130737Y197320D01*
X130937Y197370D01*
X131121Y197420D01*
X131254Y197453D01*
X131354Y197487D01*
X131387D01*
X131937Y197570D01*
X132204Y197603D01*
X132453Y197620D01*
X132670Y197637D01*
X133387D01*
X133470Y197620D01*
X133503Y197603D01*
X133520D01*
X133120Y198220D01*
X132720Y198820D01*
X132337Y199386D01*
X131970Y199936D01*
X131620Y200469D01*
X131287Y200986D01*
X130954Y201486D01*
X130637Y201969D01*
X130337Y202419D01*
X130054Y202869D01*
X129771Y203285D01*
X129504Y203685D01*
X129254Y204069D01*
X129021Y204418D01*
X128804Y204768D01*
X128588Y205085D01*
X128388Y205385D01*
X128205Y205668D01*
X128021Y205935D01*
X127871Y206185D01*
X127721Y206401D01*
X127588Y206601D01*
X127455Y206801D01*
X127355Y206968D01*
X127255Y207101D01*
X127171Y207234D01*
X127105Y207334D01*
X127038Y207434D01*
X126988Y207501D01*
X126972Y207551D01*
X126938Y207568D01*
Y207584D01*
X127055Y207768D01*
X127138Y207901D01*
X127188Y207984D01*
X127205Y208001D01*
X141801D01*
X141834Y207868D01*
D02*
G37*
G36*
X71002Y211859D02*
Y211726D01*
X71802Y207793D01*
Y207726D01*
X71869Y207660D01*
X72002Y207593D01*
X74601Y206460D01*
X74868D01*
X78200Y208860D01*
X78334D01*
X78467Y208726D01*
X81333Y205994D01*
Y205927D01*
Y205860D01*
Y205794D01*
Y205727D01*
X79067Y202395D01*
Y202261D01*
Y202195D01*
Y202128D01*
X80266Y199395D01*
Y199329D01*
X80333Y199262D01*
X80466Y199195D01*
X84265Y198529D01*
X84399D01*
X84465Y198462D01*
Y198329D01*
Y194397D01*
Y194330D01*
X84399Y194263D01*
X84265Y194197D01*
X80600Y193397D01*
X80533D01*
X80466Y193330D01*
X80400Y193263D01*
X79133Y190331D01*
Y190264D01*
Y190131D01*
Y190064D01*
X81333Y186932D01*
Y186798D01*
Y186732D01*
X78467Y183933D01*
X78400Y183866D01*
X78334D01*
X78200Y183933D01*
X75201Y185999D01*
X74868D01*
X73601Y185199D01*
X73535D01*
X73468Y185266D01*
X73401Y185332D01*
X70536Y191997D01*
Y192064D01*
Y192131D01*
X70669Y192330D01*
X71002Y192464D01*
X71069Y192530D01*
X71135Y192597D01*
X71202Y192664D01*
X71269Y192730D01*
X71535Y192864D01*
X71869Y193197D01*
X72202Y193597D01*
X72602Y194063D01*
X72868Y194663D01*
X73135Y195396D01*
X73202Y196263D01*
Y196329D01*
Y196596D01*
X73135Y196929D01*
X73068Y197329D01*
X72868Y197862D01*
X72668Y198396D01*
X72335Y198929D01*
X71935Y199395D01*
X71869Y199462D01*
X71735Y199595D01*
X71469Y199795D01*
X71135Y200062D01*
X70669Y200328D01*
X70136Y200528D01*
X69536Y200662D01*
X68869Y200728D01*
X68603D01*
X68203Y200662D01*
X67803Y200595D01*
X67336Y200395D01*
X66803Y200195D01*
X66270Y199862D01*
X65803Y199395D01*
X65737Y199329D01*
X65603Y199195D01*
X65404Y198929D01*
X65204Y198529D01*
X64937Y198062D01*
X64737Y197529D01*
X64604Y196929D01*
X64537Y196263D01*
Y196129D01*
Y195863D01*
X64670Y195463D01*
X64804Y194930D01*
X65004Y194330D01*
X65337Y193730D01*
X65803Y193197D01*
X66470Y192664D01*
X66537Y192597D01*
X66603Y192530D01*
X66670D01*
Y192464D01*
X67070Y192330D01*
X67137Y192264D01*
Y191997D01*
X64404Y185332D01*
X64337Y185266D01*
X64137Y185199D01*
X62804Y185999D01*
X62538D01*
X59538Y183933D01*
X59405Y183866D01*
X59338D01*
X59205Y183933D01*
X56406Y186732D01*
Y186798D01*
Y186865D01*
Y186932D01*
X58539Y190064D01*
Y190131D01*
Y190198D01*
Y190331D01*
X57339Y193263D01*
Y193330D01*
X57272Y193397D01*
X57139D01*
X53473Y194197D01*
X53407D01*
X53340Y194263D01*
X53273Y194397D01*
Y198329D01*
Y198396D01*
Y198462D01*
X53340Y198529D01*
X53473D01*
X57272Y199195D01*
X57339D01*
X57406Y199262D01*
X57539Y199395D01*
X58672Y202128D01*
Y202195D01*
Y202261D01*
Y202328D01*
Y202395D01*
X56406Y205727D01*
Y205794D01*
Y205860D01*
Y205927D01*
Y205994D01*
X59205Y208726D01*
X59272Y208793D01*
X59538Y208860D01*
X62804Y206460D01*
X63071D01*
X65737Y207593D01*
X65870D01*
X65937Y207660D01*
Y207793D01*
X66670Y211726D01*
Y211792D01*
Y211859D01*
X66737Y211925D01*
X70936D01*
X71002Y211859D01*
D02*
G37*
G36*
X118540Y211050D02*
X118840D01*
X119157Y211033D01*
X119473Y211017D01*
X119773Y211000D01*
X120023Y210983D01*
X120257Y210967D01*
X120423D01*
X120490Y210950D01*
X120573D01*
X120873Y210933D01*
X121156Y210900D01*
X121406Y210883D01*
X121623Y210867D01*
X121790Y210850D01*
X121923Y210833D01*
X122006Y210817D01*
X122039D01*
X122523Y210767D01*
X122739Y210750D01*
X122956Y210733D01*
X123123Y210717D01*
X123256Y210700D01*
X123339Y210683D01*
X123539D01*
Y210383D01*
Y210100D01*
Y209850D01*
Y209634D01*
Y209450D01*
Y209334D01*
Y209251D01*
Y209217D01*
Y208984D01*
Y208784D01*
Y208584D01*
Y208417D01*
Y208284D01*
Y208184D01*
Y208117D01*
Y208101D01*
Y207684D01*
Y207334D01*
Y207034D01*
Y206784D01*
Y206584D01*
Y206451D01*
Y206368D01*
Y206335D01*
Y206101D01*
Y205868D01*
Y205635D01*
Y205418D01*
Y205218D01*
Y205068D01*
Y204968D01*
Y204952D01*
Y204935D01*
Y204735D01*
Y204552D01*
Y204485D01*
Y204418D01*
Y204385D01*
Y204368D01*
Y204135D01*
Y203902D01*
Y203818D01*
Y203735D01*
Y203685D01*
Y203669D01*
Y203369D01*
Y203235D01*
Y203102D01*
Y202985D01*
Y202902D01*
Y202836D01*
Y202819D01*
Y202452D01*
Y202269D01*
Y202102D01*
Y201952D01*
Y201836D01*
Y201769D01*
Y201736D01*
Y201369D01*
Y201003D01*
Y200636D01*
Y200286D01*
Y199986D01*
Y199853D01*
Y199753D01*
Y199653D01*
Y199586D01*
Y199553D01*
Y199536D01*
Y199053D01*
Y198537D01*
Y198053D01*
Y197603D01*
Y197387D01*
Y197204D01*
Y197037D01*
Y196887D01*
Y196770D01*
Y196670D01*
Y196620D01*
Y196604D01*
Y196204D01*
Y195771D01*
Y194921D01*
Y194071D01*
Y193671D01*
Y193288D01*
Y192921D01*
Y192588D01*
Y192305D01*
Y192038D01*
Y191838D01*
Y191688D01*
Y191588D01*
Y191572D01*
Y191555D01*
Y191005D01*
Y190439D01*
Y189272D01*
Y188706D01*
Y188139D01*
Y187589D01*
Y187073D01*
Y186590D01*
Y186156D01*
Y185756D01*
Y185423D01*
Y185273D01*
Y185157D01*
Y185040D01*
Y184940D01*
Y184873D01*
Y184823D01*
Y184790D01*
Y184773D01*
X123073Y184707D01*
X122856Y184673D01*
X122639Y184657D01*
X122473Y184640D01*
X122323Y184624D01*
X122239Y184607D01*
X122206D01*
X121673Y184557D01*
X121406Y184540D01*
X121173Y184524D01*
X120973Y184507D01*
X120807Y184490D01*
X120757Y184473D01*
X120673D01*
X120373Y184440D01*
X120073Y184424D01*
X119790Y184407D01*
X119540Y184390D01*
X119324Y184373D01*
X119157Y184357D01*
X118690D01*
X118390Y184340D01*
X117324D01*
X116691Y184357D01*
X116091Y184373D01*
X115508Y184424D01*
X114958Y184473D01*
X114425Y184524D01*
X113942Y184607D01*
X113475Y184673D01*
X113058Y184757D01*
X112675Y184823D01*
X112342Y184907D01*
X112042Y184973D01*
X111792Y185023D01*
X111609Y185090D01*
X111459Y185123D01*
X111376Y185140D01*
X111342Y185157D01*
X110876Y185323D01*
X110426Y185490D01*
X109993Y185690D01*
X109593Y185890D01*
X109209Y186090D01*
X108860Y186290D01*
X108543Y186506D01*
X108243Y186690D01*
X107976Y186889D01*
X107743Y187056D01*
X107543Y187223D01*
X107377Y187356D01*
X107243Y187473D01*
X107160Y187556D01*
X107093Y187606D01*
X107077Y187623D01*
X106760Y187939D01*
X106460Y188272D01*
X106194Y188606D01*
X105944Y188956D01*
X105710Y189306D01*
X105494Y189655D01*
X105294Y189989D01*
X105127Y190305D01*
X104977Y190605D01*
X104844Y190889D01*
X104727Y191138D01*
X104644Y191355D01*
X104561Y191522D01*
X104511Y191655D01*
X104494Y191738D01*
X104477Y191772D01*
X104327Y192255D01*
X104194Y192755D01*
X104077Y193255D01*
X103977Y193755D01*
X103894Y194254D01*
X103827Y194737D01*
X103761Y195221D01*
X103711Y195671D01*
X103678Y196087D01*
X103661Y196470D01*
X103644Y196804D01*
X103628Y197104D01*
X103611Y197337D01*
Y197437D01*
Y197520D01*
Y197587D01*
Y197637D01*
Y197654D01*
Y197670D01*
X103628Y198270D01*
X103644Y198853D01*
X103694Y199403D01*
X103744Y199936D01*
X103811Y200436D01*
X103877Y200919D01*
X103961Y201353D01*
X104027Y201752D01*
X104111Y202119D01*
X104194Y202452D01*
X104261Y202736D01*
X104327Y202969D01*
X104377Y203152D01*
X104427Y203285D01*
X104444Y203369D01*
X104461Y203402D01*
X104627Y203852D01*
X104811Y204285D01*
X105010Y204702D01*
X105211Y205102D01*
X105427Y205468D01*
X105627Y205818D01*
X105844Y206135D01*
X106044Y206434D01*
X106243Y206701D01*
X106410Y206934D01*
X106577Y207134D01*
X106710Y207301D01*
X106827Y207434D01*
X106927Y207534D01*
X106977Y207601D01*
X106993Y207618D01*
X107327Y207934D01*
X107660Y208234D01*
X108010Y208501D01*
X108376Y208751D01*
X108726Y208984D01*
X109076Y209200D01*
X109426Y209384D01*
X109743Y209567D01*
X110059Y209717D01*
X110326Y209834D01*
X110592Y209950D01*
X110809Y210034D01*
X110976Y210117D01*
X111109Y210167D01*
X111192Y210184D01*
X111226Y210200D01*
X111709Y210350D01*
X112209Y210483D01*
X112725Y210600D01*
X113225Y210700D01*
X113742Y210783D01*
X114225Y210850D01*
X114708Y210917D01*
X115158Y210967D01*
X115575Y211000D01*
X115958Y211017D01*
X116308Y211033D01*
X116608Y211050D01*
X116841Y211067D01*
X118324D01*
X118540Y211050D01*
D02*
G37*
G36*
X150899Y203652D02*
X151449Y203619D01*
X151715Y203585D01*
X151965Y203552D01*
X152182Y203519D01*
X152398Y203502D01*
X152582Y203469D01*
X152748Y203435D01*
X152898Y203402D01*
X153015Y203369D01*
X153115Y203352D01*
X153181Y203335D01*
X153231Y203319D01*
X153248D01*
X153715Y203169D01*
X154131Y203002D01*
X154498Y202819D01*
X154814Y202635D01*
X155064Y202486D01*
X155164Y202419D01*
X155248Y202352D01*
X155331Y202302D01*
X155381Y202269D01*
X155398Y202252D01*
X155414Y202236D01*
X155731Y201952D01*
X155997Y201669D01*
X156214Y201386D01*
X156397Y201119D01*
X156547Y200886D01*
X156647Y200703D01*
X156681Y200636D01*
X156714Y200586D01*
X156731Y200553D01*
Y200536D01*
X156881Y200170D01*
X156980Y199786D01*
X157064Y199420D01*
X157114Y199070D01*
X157147Y198787D01*
Y198653D01*
X157164Y198553D01*
Y198453D01*
Y198387D01*
Y198353D01*
Y198337D01*
X157147Y198003D01*
X157130Y197703D01*
X157080Y197437D01*
X157030Y197187D01*
X156997Y196987D01*
X156947Y196854D01*
X156931Y196754D01*
X156914Y196737D01*
Y196720D01*
X156797Y196454D01*
X156681Y196204D01*
X156547Y195987D01*
X156414Y195804D01*
X156297Y195654D01*
X156197Y195537D01*
X156131Y195471D01*
X156114Y195437D01*
X155914Y195237D01*
X155681Y195054D01*
X155464Y194888D01*
X155248Y194737D01*
X155048Y194604D01*
X154898Y194504D01*
X154798Y194438D01*
X154781Y194421D01*
X154764D01*
X154431Y194238D01*
X154098Y194071D01*
X153765Y193904D01*
X153448Y193771D01*
X153181Y193671D01*
X153065Y193621D01*
X152965Y193571D01*
X152898Y193554D01*
X152832Y193521D01*
X152798Y193505D01*
X152782D01*
X152648Y193454D01*
X152532Y193405D01*
X152465Y193388D01*
X152432Y193371D01*
X152398Y193355D01*
X152382Y193338D01*
X152348D01*
X152282Y193305D01*
X152148Y193255D01*
X151982Y193188D01*
X151815Y193138D01*
X151665Y193071D01*
X151549Y193038D01*
X151532Y193021D01*
X151515D01*
X151265Y192938D01*
X151049Y192871D01*
X150949Y192855D01*
X150882Y192821D01*
X150849Y192805D01*
X150832D01*
X150599Y192721D01*
X150399Y192655D01*
X150332Y192638D01*
X150266Y192605D01*
X150232Y192588D01*
X150216D01*
X149999Y192488D01*
X149832Y192405D01*
X149766Y192372D01*
X149716Y192338D01*
X149699Y192321D01*
X149682D01*
X149499Y192205D01*
X149333Y192122D01*
X149266Y192071D01*
X149216Y192055D01*
X149199Y192022D01*
X149183D01*
X149016Y191888D01*
X148899Y191772D01*
X148816Y191688D01*
X148783Y191672D01*
Y191655D01*
X148649Y191505D01*
X148549Y191372D01*
X148483Y191255D01*
X148466Y191238D01*
Y191222D01*
X148366Y191055D01*
X148299Y190889D01*
X148283Y190805D01*
X148266Y190755D01*
X148249Y190722D01*
Y190705D01*
X148216Y190472D01*
X148199Y190255D01*
Y190155D01*
Y190089D01*
Y190039D01*
Y190022D01*
X148216Y189789D01*
X148233Y189589D01*
X148249Y189522D01*
Y189456D01*
X148266Y189422D01*
Y189406D01*
X148349Y189189D01*
X148433Y189022D01*
X148466Y188956D01*
X148499Y188922D01*
X148516Y188889D01*
X148533Y188872D01*
X148666Y188689D01*
X148799Y188522D01*
X148849Y188456D01*
X148899Y188406D01*
X148916Y188389D01*
X148933Y188372D01*
X149099Y188206D01*
X149266Y188089D01*
X149333Y188039D01*
X149382Y188006D01*
X149416Y187973D01*
X149432D01*
X149649Y187856D01*
X149849Y187756D01*
X149932Y187723D01*
X149999Y187689D01*
X150032Y187673D01*
X150049D01*
X150299Y187573D01*
X150515Y187506D01*
X150616Y187473D01*
X150682Y187456D01*
X150732Y187439D01*
X150749D01*
X151032Y187373D01*
X151165Y187356D01*
X151282Y187339D01*
X151382Y187323D01*
X151465Y187306D01*
X151532D01*
X151815Y187289D01*
X151948D01*
X152082Y187273D01*
X152332D01*
X152765Y187289D01*
X152948D01*
X153132Y187306D01*
X153281D01*
X153398Y187323D01*
X153498D01*
X153931Y187373D01*
X154115Y187406D01*
X154298Y187423D01*
X154448Y187456D01*
X154565Y187473D01*
X154631Y187489D01*
X154664D01*
X155081Y187589D01*
X155281Y187639D01*
X155448Y187673D01*
X155581Y187706D01*
X155681Y187739D01*
X155764Y187756D01*
X155781D01*
X156164Y187889D01*
X156347Y187939D01*
X156497Y188006D01*
X156631Y188056D01*
X156731Y188089D01*
X156797Y188106D01*
X156814Y188123D01*
X156914Y187856D01*
X156964Y187723D01*
X156997Y187623D01*
X157030Y187523D01*
X157064Y187456D01*
X157080Y187406D01*
Y187389D01*
X157181Y187123D01*
X157214Y187006D01*
X157247Y186889D01*
X157281Y186806D01*
X157314Y186740D01*
X157330Y186690D01*
Y186673D01*
X157414Y186390D01*
X157447Y186273D01*
X157480Y186156D01*
X157497Y186056D01*
X157514Y185990D01*
X157530Y185940D01*
Y185923D01*
X157580Y185657D01*
X157597Y185440D01*
X157614Y185340D01*
X157630Y185273D01*
Y185223D01*
Y185207D01*
X157214Y185057D01*
X157014Y185007D01*
X156847Y184957D01*
X156681Y184907D01*
X156564Y184873D01*
X156497Y184857D01*
X156464D01*
X156014Y184740D01*
X155814Y184690D01*
X155614Y184657D01*
X155448Y184624D01*
X155331Y184590D01*
X155248Y184573D01*
X155214D01*
X154714Y184490D01*
X154481Y184457D01*
X154265Y184440D01*
X154081Y184407D01*
X153948D01*
X153848Y184390D01*
X153815D01*
X153231Y184357D01*
X152965D01*
X152715Y184340D01*
X151882D01*
X151582Y184357D01*
X151299Y184373D01*
X151065Y184390D01*
X150865Y184407D01*
X150716Y184424D01*
X150616Y184440D01*
X150582D01*
X150299Y184490D01*
X150016Y184540D01*
X149766Y184590D01*
X149549Y184657D01*
X149366Y184707D01*
X149216Y184740D01*
X149132Y184757D01*
X149099Y184773D01*
X148833Y184857D01*
X148599Y184940D01*
X148366Y185040D01*
X148183Y185107D01*
X148016Y185190D01*
X147900Y185240D01*
X147833Y185273D01*
X147800Y185290D01*
X147583Y185407D01*
X147366Y185523D01*
X147183Y185640D01*
X147016Y185740D01*
X146883Y185840D01*
X146783Y185907D01*
X146716Y185956D01*
X146700Y185973D01*
X146517Y186123D01*
X146333Y186273D01*
X146183Y186423D01*
X146050Y186556D01*
X145950Y186656D01*
X145867Y186740D01*
X145817Y186806D01*
X145800Y186823D01*
X145550Y187190D01*
X145434Y187356D01*
X145333Y187506D01*
X145267Y187639D01*
X145200Y187756D01*
X145167Y187823D01*
X145150Y187839D01*
X144967Y188256D01*
X144900Y188456D01*
X144850Y188639D01*
X144800Y188789D01*
X144767Y188906D01*
X144750Y188972D01*
Y189006D01*
X144667Y189472D01*
X144650Y189689D01*
X144634Y189872D01*
X144617Y190039D01*
Y190172D01*
Y190255D01*
Y190289D01*
Y190505D01*
X144634Y190705D01*
X144650Y190889D01*
X144667Y191055D01*
X144684Y191188D01*
X144700Y191305D01*
X144717Y191372D01*
Y191388D01*
X144784Y191738D01*
X144817Y191905D01*
X144850Y192038D01*
X144900Y192155D01*
X144917Y192255D01*
X144950Y192305D01*
Y192321D01*
X145100Y192621D01*
X145167Y192755D01*
X145233Y192871D01*
X145283Y192971D01*
X145333Y193038D01*
X145350Y193088D01*
X145367Y193105D01*
X145534Y193355D01*
X145683Y193554D01*
X145750Y193638D01*
X145800Y193704D01*
X145833Y193738D01*
X145850Y193755D01*
X146067Y193971D01*
X146267Y194138D01*
X146350Y194204D01*
X146417Y194254D01*
X146450Y194288D01*
X146467Y194304D01*
X146716Y194488D01*
X146950Y194638D01*
X147050Y194688D01*
X147133Y194737D01*
X147183Y194754D01*
X147200Y194771D01*
X147483Y194904D01*
X147616Y194971D01*
X147750Y195021D01*
X147850Y195071D01*
X147933Y195104D01*
X147983Y195137D01*
X147999D01*
X148299Y195254D01*
X148449Y195304D01*
X148566Y195337D01*
X148683Y195387D01*
X148766Y195404D01*
X148816Y195437D01*
X148833D01*
X148999Y195504D01*
X149132Y195537D01*
X149216Y195571D01*
X149266Y195587D01*
X149299D01*
X149333Y195604D01*
X149382Y195621D01*
X149449Y195637D01*
X149616Y195704D01*
X149832Y195787D01*
X150049Y195854D01*
X150232Y195921D01*
X150299Y195954D01*
X150366Y195971D01*
X150399Y195987D01*
X150415D01*
X150649Y196054D01*
X150849Y196120D01*
X150932Y196154D01*
X150999Y196171D01*
X151032Y196187D01*
X151049D01*
X151265Y196287D01*
X151449Y196354D01*
X151532Y196387D01*
X151582Y196404D01*
X151615Y196420D01*
X151632D01*
X151832Y196504D01*
X151999Y196570D01*
X152065Y196604D01*
X152115Y196637D01*
X152148Y196654D01*
X152165D01*
X152332Y196754D01*
X152482Y196854D01*
X152582Y196920D01*
X152598Y196937D01*
X152615D01*
X152782Y197054D01*
X152898Y197154D01*
X152982Y197237D01*
X153015Y197270D01*
X153132Y197404D01*
X153215Y197537D01*
X153281Y197637D01*
X153298Y197654D01*
Y197670D01*
X153382Y197837D01*
X153448Y197987D01*
X153481Y198103D01*
X153498Y198120D01*
Y198137D01*
X153531Y198337D01*
X153548Y198520D01*
X153565Y198587D01*
Y198653D01*
Y198687D01*
Y198703D01*
X153548Y198920D01*
X153515Y199120D01*
X153481Y199286D01*
X153431Y199436D01*
X153382Y199553D01*
X153331Y199653D01*
X153315Y199703D01*
X153298Y199720D01*
X153181Y199870D01*
X153065Y200003D01*
X152932Y200103D01*
X152815Y200203D01*
X152698Y200269D01*
X152615Y200319D01*
X152548Y200353D01*
X152532Y200369D01*
X152132Y200519D01*
X151948Y200569D01*
X151782Y200619D01*
X151632Y200669D01*
X151515Y200703D01*
X151449Y200719D01*
X151415D01*
X150965Y200786D01*
X150765Y200803D01*
X150566Y200819D01*
X150399Y200836D01*
X149932D01*
X149716Y200819D01*
X149499D01*
X149316Y200803D01*
X149166Y200786D01*
X149049D01*
X148983Y200769D01*
X148949D01*
X148533Y200703D01*
X148333Y200669D01*
X148166Y200636D01*
X148016Y200603D01*
X147916Y200586D01*
X147833Y200553D01*
X147816D01*
X147416Y200469D01*
X147250Y200419D01*
X147100Y200386D01*
X146966Y200353D01*
X146867Y200319D01*
X146800Y200303D01*
X146783D01*
X146450Y200203D01*
X146300Y200153D01*
X146167Y200103D01*
X146050Y200070D01*
X145967Y200036D01*
X145917Y200019D01*
X145900D01*
X145800Y200253D01*
X145717Y200453D01*
X145700Y200536D01*
X145667Y200603D01*
X145650Y200636D01*
Y200653D01*
X145567Y200903D01*
X145484Y201119D01*
X145467Y201203D01*
X145450Y201269D01*
X145434Y201319D01*
Y201336D01*
X145367Y201602D01*
X145333Y201719D01*
X145317Y201836D01*
X145300Y201919D01*
X145283Y201986D01*
X145267Y202036D01*
Y202052D01*
X145217Y202319D01*
X145184Y202552D01*
X145167Y202652D01*
X145150Y202719D01*
Y202769D01*
Y202785D01*
X145550Y202902D01*
X145733Y202969D01*
X145900Y203019D01*
X146050Y203052D01*
X146167Y203085D01*
X146233Y203119D01*
X146267D01*
X146700Y203235D01*
X146916Y203285D01*
X147116Y203319D01*
X147283Y203369D01*
X147416Y203385D01*
X147500Y203419D01*
X147533D01*
X148016Y203502D01*
X148249Y203535D01*
X148449Y203569D01*
X148633Y203585D01*
X148766Y203602D01*
X148849Y203619D01*
X148883D01*
X149382Y203652D01*
X149632D01*
X149832Y203669D01*
X150282D01*
X150899Y203652D01*
D02*
G37*
G36*
X188023Y210800D02*
X188506D01*
X188572Y210783D01*
X188672D01*
X188872Y210767D01*
X189039D01*
X189106Y210750D01*
X189206D01*
X189389Y210733D01*
X189539Y210700D01*
X189655Y210683D01*
X189689D01*
X189789Y210383D01*
X189872Y210100D01*
X189955Y209850D01*
X190022Y209634D01*
X190089Y209467D01*
X190139Y209334D01*
X190155Y209251D01*
X190172Y209217D01*
X190239Y208984D01*
X190305Y208784D01*
X190372Y208584D01*
X190422Y208417D01*
X190455Y208284D01*
X190489Y208184D01*
X190522Y208117D01*
Y208101D01*
X190655Y207684D01*
X190772Y207334D01*
X190872Y207034D01*
X190955Y206784D01*
X191022Y206584D01*
X191072Y206451D01*
X191089Y206368D01*
X191105Y206335D01*
X191188Y206101D01*
X191255Y205868D01*
X191338Y205635D01*
X191405Y205418D01*
X191472Y205218D01*
X191505Y205068D01*
X191538Y204968D01*
X191555Y204952D01*
Y204935D01*
X191622Y204752D01*
X191688Y204568D01*
X191705Y204502D01*
X191722Y204435D01*
X191738Y204402D01*
Y204385D01*
X191822Y204135D01*
X191888Y203902D01*
X191922Y203818D01*
X191955Y203735D01*
X191972Y203685D01*
Y203669D01*
X192071Y203369D01*
X192105Y203235D01*
X192155Y203102D01*
X192188Y202985D01*
X192222Y202902D01*
X192255Y202836D01*
Y202819D01*
X192372Y202452D01*
X192438Y202269D01*
X192488Y202102D01*
X192538Y201952D01*
X192571Y201836D01*
X192588Y201769D01*
X192605Y201736D01*
X192721Y201369D01*
X192838Y201003D01*
X192955Y200636D01*
X193071Y200286D01*
X193171Y199986D01*
X193221Y199853D01*
X193255Y199753D01*
X193288Y199653D01*
X193305Y199586D01*
X193321Y199553D01*
Y199536D01*
X193471Y199053D01*
X193638Y198537D01*
X193804Y198053D01*
X193938Y197603D01*
X194021Y197387D01*
X194071Y197204D01*
X194138Y197037D01*
X194171Y196887D01*
X194221Y196770D01*
X194254Y196670D01*
X194271Y196620D01*
Y196604D01*
X194404Y196204D01*
X194538Y195771D01*
X194821Y194921D01*
X195087Y194071D01*
X195221Y193671D01*
X195354Y193288D01*
X195471Y192921D01*
X195571Y192588D01*
X195671Y192305D01*
X195754Y192038D01*
X195821Y191838D01*
X195854Y191688D01*
X195887Y191588D01*
X195904Y191572D01*
Y191555D01*
X196087Y191005D01*
X196271Y190439D01*
X196654Y189272D01*
X196837Y188706D01*
X197020Y188139D01*
X197204Y187589D01*
X197370Y187073D01*
X197520Y186590D01*
X197670Y186156D01*
X197803Y185756D01*
X197903Y185423D01*
X197953Y185273D01*
X198003Y185157D01*
X198037Y185040D01*
X198070Y184940D01*
X198087Y184873D01*
X198103Y184823D01*
X198120Y184790D01*
Y184773D01*
X197970Y184740D01*
X197837Y184707D01*
X197737Y184690D01*
X197703D01*
X197537Y184673D01*
X197404D01*
X197287Y184657D01*
X197254D01*
X197070Y184640D01*
X196754D01*
X196570Y184624D01*
X196087D01*
X195937Y184640D01*
X195604D01*
X195454Y184657D01*
X195304D01*
X195137Y184673D01*
X195004D01*
X194888Y184690D01*
X194854D01*
X194671Y184723D01*
X194521Y184740D01*
X194454Y184757D01*
X194404Y184773D01*
X194371D01*
X194154Y185490D01*
X193954Y186173D01*
X193771Y186806D01*
X193605Y187389D01*
X193454Y187923D01*
X193305Y188423D01*
X193171Y188856D01*
X193055Y189256D01*
X192955Y189606D01*
X192871Y189905D01*
X192788Y190172D01*
X192738Y190389D01*
X192688Y190539D01*
X192655Y190655D01*
X192621Y190739D01*
Y190755D01*
X182774D01*
X182724Y190589D01*
X182674Y190439D01*
X182624Y190305D01*
X182591Y190189D01*
X182541Y189989D01*
X182491Y189855D01*
X182474Y189772D01*
X182457Y189706D01*
X182441Y189672D01*
X182424Y189639D01*
Y189589D01*
X182374Y189472D01*
X182324Y189306D01*
X182274Y189139D01*
X182224Y188972D01*
X182174Y188822D01*
X182157Y188722D01*
X182141Y188706D01*
Y188689D01*
X182091Y188522D01*
X182057Y188356D01*
X182041Y188272D01*
X182024Y188223D01*
X182008Y188189D01*
Y188172D01*
X181924Y187956D01*
X181857Y187739D01*
X181824Y187639D01*
X181807Y187556D01*
X181791Y187506D01*
Y187489D01*
X181724Y187306D01*
X181658Y187106D01*
X181608Y186906D01*
X181558Y186740D01*
X181508Y186573D01*
X181474Y186456D01*
X181441Y186373D01*
Y186340D01*
X181358Y186073D01*
X181274Y185807D01*
X181191Y185540D01*
X181124Y185307D01*
X181058Y185090D01*
X181008Y184923D01*
X180991Y184857D01*
X180974Y184807D01*
X180958Y184790D01*
Y184773D01*
X180808Y184740D01*
X180658Y184707D01*
X180558Y184690D01*
X180525D01*
X180358Y184673D01*
X180191D01*
X180125Y184657D01*
X180041D01*
X179875Y184640D01*
X179558D01*
X179391Y184624D01*
X178892D01*
X178725Y184640D01*
X178392D01*
X178208Y184657D01*
X178042D01*
X177842Y184673D01*
X177675D01*
X177625Y184690D01*
X177525D01*
X177342Y184723D01*
X177209Y184740D01*
X177109Y184773D01*
X177075D01*
X177175Y185073D01*
X177259Y185340D01*
X177342Y185590D01*
X177409Y185807D01*
X177459Y185973D01*
X177509Y186106D01*
X177525Y186190D01*
X177542Y186223D01*
X177609Y186456D01*
X177675Y186673D01*
X177742Y186856D01*
X177792Y187023D01*
X177825Y187173D01*
X177859Y187273D01*
X177892Y187339D01*
Y187356D01*
X178025Y187773D01*
X178158Y188123D01*
X178258Y188423D01*
X178325Y188672D01*
X178392Y188856D01*
X178442Y188989D01*
X178458Y189072D01*
X178475Y189106D01*
X178558Y189339D01*
X178625Y189572D01*
X178708Y189806D01*
X178775Y190039D01*
X178842Y190222D01*
X178892Y190372D01*
X178925Y190472D01*
X178942Y190489D01*
Y190505D01*
X178992Y190705D01*
X179042Y190889D01*
X179075Y190955D01*
X179091Y191022D01*
X179108Y191055D01*
Y191072D01*
X179191Y191322D01*
X179275Y191538D01*
X179291Y191638D01*
X179325Y191705D01*
X179342Y191755D01*
Y191772D01*
X179441Y192071D01*
X179475Y192222D01*
X179525Y192355D01*
X179558Y192471D01*
X179591Y192555D01*
X179625Y192621D01*
Y192638D01*
X179741Y193005D01*
X179808Y193188D01*
X179858Y193355D01*
X179908Y193488D01*
X179941Y193605D01*
X179958Y193671D01*
X179975Y193704D01*
X180091Y194071D01*
X180208Y194438D01*
X180325Y194804D01*
X180441Y195154D01*
X180525Y195454D01*
X180574Y195587D01*
X180608Y195687D01*
X180641Y195787D01*
X180658Y195854D01*
X180674Y195887D01*
Y195904D01*
X180841Y196387D01*
X181008Y196904D01*
X181158Y197387D01*
X181308Y197853D01*
X181374Y198070D01*
X181441Y198253D01*
X181508Y198420D01*
X181541Y198570D01*
X181591Y198687D01*
X181624Y198787D01*
X181641Y198836D01*
Y198853D01*
X181774Y199270D01*
X181908Y199686D01*
X182191Y200536D01*
X182457Y201386D01*
X182591Y201786D01*
X182724Y202169D01*
X182841Y202535D01*
X182941Y202852D01*
X183041Y203152D01*
X183124Y203402D01*
X183190Y203602D01*
X183224Y203752D01*
X183257Y203852D01*
X183274Y203885D01*
X183457Y204435D01*
X183640Y205018D01*
X184024Y206168D01*
X184207Y206751D01*
X184390Y207318D01*
X184557Y207851D01*
X184723Y208367D01*
X184890Y208851D01*
X185023Y209300D01*
X185157Y209684D01*
X185257Y210034D01*
X185307Y210184D01*
X185357Y210300D01*
X185390Y210417D01*
X185423Y210517D01*
X185440Y210583D01*
X185457Y210634D01*
X185473Y210667D01*
Y210683D01*
X185657Y210717D01*
X185823Y210733D01*
X185890D01*
X185940Y210750D01*
X185973D01*
X186173Y210767D01*
X186340D01*
X186423Y210783D01*
X186523D01*
X186723Y210800D01*
X187056D01*
X187239Y210817D01*
X187939D01*
X188023Y210800D01*
D02*
G37*
G36*
X190500Y17780D02*
X180340Y25800D01*
X190500Y33020D01*
Y17780D01*
D02*
G37*
G36*
X236220Y63500D02*
X220980D01*
X229000Y73660D01*
X236220Y63500D01*
D02*
G37*
G36*
X134620D02*
X119380D01*
X127400Y73660D01*
X134620Y63500D01*
D02*
G37*
G36*
X185420D02*
X170180D01*
X178200Y73660D01*
X185420Y63500D01*
D02*
G37*
G36*
X33020D02*
X17780D01*
X25800Y73660D01*
X33020Y63500D01*
D02*
G37*
G36*
X83820D02*
X68580D01*
X76600Y73660D01*
X83820Y63500D01*
D02*
G37*
G36*
X190500Y220980D02*
X180340Y229000D01*
X190500Y236220D01*
Y220980D01*
D02*
G37*
%LPC*%
G36*
X118124Y207801D02*
X116541D01*
X116174Y207784D01*
X115841Y207751D01*
X115541Y207734D01*
X115291Y207701D01*
X115175Y207684D01*
X115091Y207668D01*
X115025D01*
X114975Y207651D01*
X114925D01*
X114575Y207601D01*
X114242Y207534D01*
X113925Y207468D01*
X113658Y207401D01*
X113425Y207351D01*
X113258Y207301D01*
X113192Y207284D01*
X113142Y207268D01*
X113125Y207251D01*
X113108D01*
X112792Y207151D01*
X112492Y207034D01*
X112209Y206918D01*
X111975Y206801D01*
X111775Y206701D01*
X111625Y206618D01*
X111525Y206568D01*
X111492Y206551D01*
X111226Y206385D01*
X110959Y206201D01*
X110726Y206018D01*
X110526Y205851D01*
X110359Y205718D01*
X110226Y205601D01*
X110159Y205535D01*
X110126Y205501D01*
X109909Y205268D01*
X109693Y205018D01*
X109509Y204802D01*
X109343Y204585D01*
X109209Y204402D01*
X109109Y204252D01*
X109043Y204152D01*
X109026Y204135D01*
Y204118D01*
X108843Y203818D01*
X108676Y203519D01*
X108543Y203219D01*
X108426Y202952D01*
X108326Y202736D01*
X108260Y202552D01*
X108226Y202486D01*
X108210Y202436D01*
X108193Y202402D01*
Y202386D01*
X108076Y202019D01*
X107976Y201652D01*
X107893Y201286D01*
X107810Y200969D01*
X107760Y200686D01*
X107743Y200569D01*
X107726Y200469D01*
X107710Y200386D01*
X107693Y200319D01*
Y200286D01*
Y200269D01*
X107626Y199836D01*
X107593Y199403D01*
X107560Y198986D01*
X107527Y198603D01*
Y198420D01*
Y198270D01*
X107510Y198137D01*
Y198020D01*
Y197920D01*
Y197853D01*
Y197803D01*
Y197787D01*
Y197254D01*
X107543Y196754D01*
X107560Y196287D01*
X107577Y196087D01*
X107593Y195887D01*
X107610Y195704D01*
X107626Y195554D01*
X107643Y195421D01*
X107660Y195304D01*
X107676Y195204D01*
Y195137D01*
X107693Y195104D01*
Y195087D01*
X107760Y194638D01*
X107843Y194221D01*
X107926Y193838D01*
X108010Y193521D01*
X108076Y193255D01*
X108110Y193138D01*
X108143Y193038D01*
X108160Y192971D01*
X108176Y192921D01*
X108193Y192888D01*
Y192871D01*
X108326Y192505D01*
X108460Y192171D01*
X108610Y191872D01*
X108726Y191622D01*
X108843Y191405D01*
X108943Y191238D01*
X109010Y191138D01*
X109026Y191122D01*
Y191105D01*
X109209Y190822D01*
X109409Y190572D01*
X109593Y190339D01*
X109759Y190139D01*
X109909Y189972D01*
X110043Y189855D01*
X110109Y189789D01*
X110142Y189755D01*
X110376Y189539D01*
X110626Y189356D01*
X110859Y189189D01*
X111076Y189039D01*
X111259Y188922D01*
X111392Y188822D01*
X111492Y188772D01*
X111509Y188756D01*
X111525D01*
X111809Y188606D01*
X112092Y188472D01*
X112375Y188372D01*
X112625Y188272D01*
X112842Y188206D01*
X113008Y188156D01*
X113075Y188123D01*
X113125D01*
X113142Y188106D01*
X113158D01*
X113492Y188023D01*
X113825Y187939D01*
X114125Y187873D01*
X114408Y187823D01*
X114658Y187789D01*
X114841Y187756D01*
X114908D01*
X114958Y187739D01*
X115008D01*
X115724Y187673D01*
X116074Y187656D01*
X116374Y187639D01*
X116641Y187623D01*
X117474D01*
X117591Y187639D01*
X117841D01*
X118124Y187656D01*
X118374D01*
X118457Y187673D01*
X118607D01*
X118890Y187706D01*
X119140Y187723D01*
X119357Y187739D01*
X119540Y187756D01*
X119673Y187773D01*
X119773Y187789D01*
X119857D01*
Y188023D01*
Y188239D01*
Y188423D01*
Y188589D01*
Y188739D01*
Y188839D01*
Y188906D01*
Y188922D01*
Y189256D01*
Y189389D01*
Y189522D01*
Y189622D01*
Y189706D01*
Y189755D01*
Y189772D01*
Y190089D01*
Y190355D01*
Y190589D01*
Y190772D01*
Y190922D01*
Y191038D01*
Y191105D01*
Y191122D01*
Y191488D01*
Y191672D01*
Y191838D01*
Y191972D01*
Y192088D01*
Y192155D01*
Y192188D01*
Y192338D01*
Y192488D01*
Y192605D01*
Y192621D01*
Y192638D01*
Y192821D01*
Y192988D01*
Y193071D01*
Y193121D01*
Y193155D01*
Y193171D01*
Y193388D01*
Y193605D01*
Y193704D01*
Y193771D01*
Y193821D01*
Y193838D01*
Y194121D01*
Y194254D01*
Y194388D01*
Y194488D01*
Y194571D01*
Y194638D01*
Y194654D01*
Y194937D01*
Y195221D01*
Y195504D01*
Y195771D01*
Y195987D01*
Y196171D01*
Y196237D01*
Y196287D01*
Y196320D01*
Y196337D01*
Y196704D01*
Y197104D01*
Y197470D01*
Y197820D01*
Y198137D01*
Y198253D01*
Y198370D01*
Y198470D01*
Y198537D01*
Y198570D01*
Y198587D01*
Y199220D01*
Y199870D01*
Y200519D01*
Y200836D01*
Y201119D01*
Y201402D01*
Y201652D01*
Y201869D01*
Y202069D01*
Y202219D01*
Y202336D01*
Y202419D01*
Y202436D01*
Y202869D01*
Y203302D01*
Y204202D01*
Y205068D01*
Y205485D01*
Y205885D01*
Y206251D01*
Y206601D01*
Y206901D01*
Y207151D01*
Y207368D01*
Y207518D01*
Y207618D01*
Y207651D01*
X119623Y207684D01*
X119407Y207701D01*
X119324Y207717D01*
X119190D01*
X118907Y207751D01*
X118790Y207768D01*
X118674D01*
X118574Y207784D01*
X118424D01*
X118124Y207801D01*
D02*
G37*
G36*
X187706Y207184D02*
X187456Y206368D01*
X187223Y205585D01*
X186989Y204818D01*
X186773Y204085D01*
X186556Y203369D01*
X186356Y202686D01*
X186156Y202019D01*
X185973Y201386D01*
X185790Y200786D01*
X185606Y200203D01*
X185440Y199653D01*
X185290Y199120D01*
X185140Y198620D01*
X184990Y198137D01*
X184857Y197687D01*
X184723Y197254D01*
X184607Y196854D01*
X184490Y196487D01*
X184390Y196137D01*
X184290Y195821D01*
X184207Y195521D01*
X184124Y195237D01*
X184057Y195004D01*
X183990Y194788D01*
X183924Y194588D01*
X183874Y194421D01*
X183840Y194271D01*
X183807Y194154D01*
X183774Y194071D01*
X183757Y194004D01*
X183740Y193971D01*
Y193954D01*
X191638D01*
X191388Y194771D01*
X191155Y195554D01*
X190938Y196320D01*
X190722Y197054D01*
X190505Y197770D01*
X190305Y198453D01*
X190105Y199120D01*
X189922Y199753D01*
X189739Y200353D01*
X189572Y200936D01*
X189406Y201486D01*
X189239Y202019D01*
X189089Y202519D01*
X188956Y203002D01*
X188822Y203452D01*
X188689Y203885D01*
X188572Y204285D01*
X188456Y204652D01*
X188356Y205002D01*
X188256Y205335D01*
X188172Y205618D01*
X188089Y205901D01*
X188023Y206135D01*
X187956Y206368D01*
X187889Y206551D01*
X187839Y206718D01*
X187806Y206868D01*
X187773Y206984D01*
X187739Y207068D01*
X187723Y207134D01*
X187706Y207168D01*
Y207184D01*
D02*
G37*
%LPD*%
D18*
X160183Y68580D02*
X166848D01*
X170180Y65248D01*
X166848Y61915D01*
X160183D01*
Y58583D02*
X170180D01*
Y53585D01*
X168514Y51919D01*
X161849D01*
X160183Y53585D01*
Y58583D01*
Y48586D02*
X170180D01*
Y43588D01*
X168514Y41922D01*
X161849D01*
X160183Y43588D01*
Y48586D01*
X136449Y61915D02*
X134783Y63582D01*
Y66914D01*
X136449Y68580D01*
X143114D01*
X144780Y66914D01*
Y63582D01*
X143114Y61915D01*
X139782D01*
Y65248D01*
X144780Y58583D02*
X134783D01*
X144780Y51919D01*
X134783D01*
Y48586D02*
X144780D01*
Y43588D01*
X143114Y41922D01*
X136449D01*
X134783Y43588D01*
Y48586D01*
X85649Y61915D02*
X83983Y63582D01*
Y66914D01*
X85649Y68580D01*
X87316D01*
X88982Y66914D01*
Y63582D01*
X90648Y61915D01*
X92314D01*
X93980Y63582D01*
Y66914D01*
X92314Y68580D01*
X85649Y51919D02*
X83983Y53585D01*
Y56917D01*
X85649Y58583D01*
X92314D01*
X93980Y56917D01*
Y53585D01*
X92314Y51919D01*
X83983Y48586D02*
X93980D01*
Y41922D01*
X111049Y61915D02*
X109383Y63582D01*
Y66914D01*
X111049Y68580D01*
X112716D01*
X114382Y66914D01*
Y63582D01*
X116048Y61915D01*
X117714D01*
X119380Y63582D01*
Y66914D01*
X117714Y68580D01*
X109383Y58583D02*
X119380D01*
Y53585D01*
X117714Y51919D01*
X111049D01*
X109383Y53585D01*
Y58583D01*
X119380Y48586D02*
X112716D01*
X109383Y45254D01*
X112716Y41922D01*
X119380D01*
X114382D01*
Y48586D01*
M02*
