M48
;Layer_Color=9474304
;FILE_FORMAT=4:4
METRIC
;TYPE=PLATED
T1F00S00C0.3000
T2F00S00C1.0160
T3F00S00C3.2000
%
T01
X-00042500Y-00117500
X-00035000Y-00102500
X-00030000Y-00092500
X-00022500Y-00082500
X-00052500Y-00077500
X-00065000Y-00070000
X-00107500Y-00040000
X00002500Y-00050000
X00017512Y-00042500
X00017500Y-00012500
X-00007500
X-00017500Y00045000
X00002500Y00047500
X-00045000Y00025000
X00070000Y00055000
X00077500Y-00017500
Y-00060000
X00042500Y-00082500
X00045000Y-00110000
X-00005000Y-00112500
X00007500Y-00075000
T02
X-00033100Y00082300
Y00107700
X-00007700
Y00082300
X00017700
Y00107700
X00043100
Y00082300
T03
X-00100000Y-00100000
X00100000
Y00100000
X-00100000
M30
