G04 Layer_Color=65535*
%FSLAX44Y44*%
%MOMM*%
G71*
G01*
G75*
%ADD17C,0.5000*%
%ADD23C,0.2032*%
%ADD24C,0.1270*%
%ADD25C,0.1524*%
%ADD26C,0.1800*%
D17*
X16298Y-50405D02*
X16250Y-50452D01*
X16298Y-50500D01*
X16345Y-50452D01*
X16298Y-50405D01*
X-61202D02*
X-61250Y-50452D01*
X-61202Y-50500D01*
X-61155Y-50452D01*
X-61202Y-50405D01*
X-116202Y-10405D02*
X-116250Y-10452D01*
X-116202Y-10500D01*
X-116155Y-10452D01*
X-116202Y-10405D01*
D23*
X-22924Y-13780D02*
G03*
X-22924Y-13780I-2286J0D01*
G01*
X-32650Y-20000D02*
Y20066D01*
D24*
X33690Y-45500D02*
X41310D01*
Y-74500D02*
Y-45500D01*
X33690Y-74500D02*
X41310D01*
X33690D02*
Y-45500D01*
X-43810D02*
X-36190D01*
Y-74500D02*
Y-45500D01*
X-43810Y-74500D02*
X-36190D01*
X-43810D02*
Y-45500D01*
X98476Y5936D02*
X101524D01*
X98476Y14064D02*
X101524D01*
X98476Y40936D02*
X101524D01*
X98476Y49064D02*
X101524D01*
X-64762Y41778D02*
X-55238D01*
X-64762Y38222D02*
X-55238D01*
X-84762Y41778D02*
X-75238D01*
X-84762Y38222D02*
X-75238D01*
X-104762Y41778D02*
X-95238D01*
X-104762Y38222D02*
X-95238D01*
X98476Y-29064D02*
X101524D01*
X98476Y-20936D02*
X101524D01*
X98476Y-55936D02*
X101524D01*
X98476Y-64064D02*
X101524D01*
X16500Y-83250D02*
X23500D01*
X13250Y-115500D02*
Y-104500D01*
X26750Y-115500D02*
Y-104500D01*
X13250Y-115500D02*
X26750D01*
X13250Y-95500D02*
Y-86500D01*
X26750Y-95500D02*
Y-86500D01*
X24750Y-84500D02*
X26750Y-86500D01*
X23500Y-83250D02*
X25000Y-84750D01*
X14750Y-85000D02*
X16500Y-83250D01*
X15250Y-84500D02*
X24750D01*
X13250Y-86500D02*
X15250Y-84500D01*
X-53500Y-83250D02*
X-46500D01*
X-56750Y-115500D02*
Y-104500D01*
X-43250Y-115500D02*
Y-104500D01*
X-56750Y-115500D02*
X-43250D01*
X-56750Y-95500D02*
Y-86500D01*
X-43250Y-95500D02*
Y-86500D01*
X-45250Y-84500D02*
X-43250Y-86500D01*
X-46500Y-83250D02*
X-45000Y-84750D01*
X-55250Y-85000D02*
X-53500Y-83250D01*
X-54750Y-84500D02*
X-45250D01*
X-56750Y-86500D02*
X-54750Y-84500D01*
X59064Y-101524D02*
Y-98476D01*
X50936Y-101524D02*
Y-98476D01*
X-98810Y-5500D02*
X-91190D01*
Y-34500D02*
Y-5500D01*
X-98810Y-34500D02*
X-91190D01*
X-98810D02*
Y-5500D01*
X-18500Y-83250D02*
X-11500D01*
X-21750Y-115500D02*
Y-104500D01*
X-8250Y-115500D02*
Y-104500D01*
X-21750Y-115500D02*
X-8250D01*
X-21750Y-95500D02*
Y-86500D01*
X-8250Y-95500D02*
Y-86500D01*
X-10250Y-84500D02*
X-8250Y-86500D01*
X-11500Y-83250D02*
X-10000Y-84750D01*
X-20250Y-85000D02*
X-18500Y-83250D01*
X-19750Y-84500D02*
X-10250D01*
X-21750Y-86500D02*
X-19750Y-84500D01*
D25*
X36750Y120400D02*
X49450D01*
X11350D02*
X24050D01*
X-14050D02*
X-1350D01*
X-39450D02*
X-26750D01*
X-45800Y75950D02*
Y114050D01*
Y75950D02*
X-39450Y69600D01*
X-26750D01*
X-20400Y75950D01*
X-14050Y69600D01*
X-1350D01*
X5000Y75950D01*
X11350Y69600D01*
X24050D01*
X30400Y75950D01*
X36750Y69600D01*
X49450D01*
X55800Y75950D01*
Y114050D01*
X-45800D02*
X-39450Y120400D01*
X-26750D02*
X-20400Y114050D01*
X-14050Y120400D01*
X-1350D02*
X5000Y114050D01*
X11350Y120400D01*
X24050D02*
X30400Y114050D01*
X36750Y120400D01*
X49450D02*
X55800Y114050D01*
D26*
X-5505Y-63390D02*
Y-56725D01*
X-7172Y-55059D01*
X-10504D01*
X-12170Y-56725D01*
Y-63390D01*
X-10504Y-65056D01*
X-7172D01*
X-8838Y-61724D02*
X-5505Y-65056D01*
X-7172D02*
X-5505Y-63390D01*
X-2173Y-56725D02*
X-507Y-55059D01*
X2825D01*
X4491Y-56725D01*
Y-58391D01*
X2825Y-60058D01*
X1159D01*
X2825D01*
X4491Y-61724D01*
Y-63390D01*
X2825Y-65056D01*
X-507D01*
X-2173Y-63390D01*
X-79728D02*
Y-56725D01*
X-81394Y-55059D01*
X-84726D01*
X-86392Y-56725D01*
Y-63390D01*
X-84726Y-65056D01*
X-81394D01*
X-83060Y-61724D02*
X-79728Y-65056D01*
X-81394D02*
X-79728Y-63390D01*
X-76395Y-65056D02*
X-73063D01*
X-74729D01*
Y-55059D01*
X-76395Y-56725D01*
X-66834Y89884D02*
Y99881D01*
X-61836D01*
X-60170Y98215D01*
Y94882D01*
X-61836Y93216D01*
X-66834D01*
X-56837Y89884D02*
X-53505D01*
X-55171D01*
Y99881D01*
X-56837Y98215D01*
X86328Y24352D02*
Y34349D01*
X91326D01*
X92992Y32683D01*
Y29350D01*
X91326Y27684D01*
X86328D01*
X89660D02*
X92992Y24352D01*
X102989D02*
X96325D01*
X102989Y31016D01*
Y32683D01*
X101323Y34349D01*
X97991D01*
X96325Y32683D01*
X86328Y59418D02*
Y69415D01*
X91326D01*
X92992Y67749D01*
Y64416D01*
X91326Y62750D01*
X86328D01*
X89660D02*
X92992Y59418D01*
X96325D02*
X99657D01*
X97991D01*
Y69415D01*
X96325Y67749D01*
X-59097Y70609D02*
X-60764Y72275D01*
X-64096D01*
X-65762Y70609D01*
Y63944D01*
X-64096Y62278D01*
X-60764D01*
X-59097Y63944D01*
X-55765Y62278D02*
X-52433D01*
X-54099D01*
Y72275D01*
X-55765Y70609D01*
X-79060Y70675D02*
X-80726Y72341D01*
X-84058D01*
X-85724Y70675D01*
Y64010D01*
X-84058Y62344D01*
X-80726D01*
X-79060Y64010D01*
X-69063Y62344D02*
X-75727D01*
X-69063Y69008D01*
Y70675D01*
X-70729Y72341D01*
X-74061D01*
X-75727Y70675D01*
X-99111D02*
X-100778Y72341D01*
X-104110D01*
X-105776Y70675D01*
Y64010D01*
X-104110Y62344D01*
X-100778D01*
X-99111Y64010D01*
X-95779Y70675D02*
X-94113Y72341D01*
X-90781D01*
X-89115Y70675D01*
Y69008D01*
X-90781Y67342D01*
X-92447D01*
X-90781D01*
X-89115Y65676D01*
Y64010D01*
X-90781Y62344D01*
X-94113D01*
X-95779Y64010D01*
X86328Y-10700D02*
Y-703D01*
X91326D01*
X92992Y-2369D01*
Y-5702D01*
X91326Y-7368D01*
X86328D01*
X89660D02*
X92992Y-10700D01*
X101323D02*
Y-703D01*
X96325Y-5702D01*
X102989D01*
X86178Y-45550D02*
Y-35553D01*
X91176D01*
X92842Y-37219D01*
Y-40552D01*
X91176Y-42218D01*
X86178D01*
X89510D02*
X92842Y-45550D01*
X102839Y-35553D02*
X96175D01*
Y-40552D01*
X99507Y-38886D01*
X101173D01*
X102839Y-40552D01*
Y-43884D01*
X101173Y-45550D01*
X97841D01*
X96175Y-43884D01*
X-4305Y-121030D02*
X5692D01*
Y-114366D01*
X-4305Y-104369D02*
Y-111033D01*
X5692D01*
Y-104369D01*
X694Y-111033D02*
Y-107701D01*
X-4305Y-101036D02*
X5692D01*
Y-96038D01*
X4026Y-94372D01*
X-2639D01*
X-4305Y-96038D01*
Y-101036D01*
X-2639Y-91040D02*
X-4305Y-89374D01*
Y-86041D01*
X-2639Y-84375D01*
X-972D01*
X694Y-86041D01*
Y-87707D01*
Y-86041D01*
X2360Y-84375D01*
X4026D01*
X5692Y-86041D01*
Y-89374D01*
X4026Y-91040D01*
X-74343Y-117728D02*
X-64346D01*
Y-111063D01*
X-74343Y-101067D02*
Y-107731D01*
X-64346D01*
Y-101067D01*
X-69344Y-107731D02*
Y-104399D01*
X-74343Y-97734D02*
X-64346D01*
Y-92736D01*
X-66012Y-91070D01*
X-72677D01*
X-74343Y-92736D01*
Y-97734D01*
X-64346Y-87738D02*
Y-84405D01*
Y-86072D01*
X-74343D01*
X-72677Y-87738D01*
X-31782Y56955D02*
Y48624D01*
X-30116Y46958D01*
X-26784D01*
X-25117Y48624D01*
Y56955D01*
X-21785Y46958D02*
X-18453D01*
X-20119D01*
Y56955D01*
X-21785Y55289D01*
X40608Y-102902D02*
X30611D01*
Y-97904D01*
X32277Y-96237D01*
X35610D01*
X37276Y-97904D01*
Y-102902D01*
Y-99570D02*
X40608Y-96237D01*
X32277Y-92905D02*
X30611Y-91239D01*
Y-87907D01*
X32277Y-86241D01*
X33944D01*
X35610Y-87907D01*
Y-89573D01*
Y-87907D01*
X37276Y-86241D01*
X38942D01*
X40608Y-87907D01*
Y-91239D01*
X38942Y-92905D01*
X-112828Y6314D02*
Y12979D01*
X-114494Y14645D01*
X-117826D01*
X-119492Y12979D01*
Y6314D01*
X-117826Y4648D01*
X-114494D01*
X-116160Y7980D02*
X-112828Y4648D01*
X-114494D02*
X-112828Y6314D01*
X-102831Y4648D02*
X-109495D01*
X-102831Y11313D01*
Y12979D01*
X-104497Y14645D01*
X-107829D01*
X-109495Y12979D01*
X-39197Y-121030D02*
X-29200D01*
Y-114366D01*
X-39197Y-104369D02*
Y-111033D01*
X-29200D01*
Y-104369D01*
X-34198Y-111033D02*
Y-107701D01*
X-39197Y-101036D02*
X-29200D01*
Y-96038D01*
X-30866Y-94372D01*
X-37531D01*
X-39197Y-96038D01*
Y-101036D01*
X-29200Y-84375D02*
Y-91040D01*
X-35865Y-84375D01*
X-37531D01*
X-39197Y-86041D01*
Y-89374D01*
X-37531Y-91040D01*
M02*
