G04 Layer_Color=32896*
%FSLAX44Y44*%
%MOMM*%
G71*
G01*
G75*
%ADD23C,0.2032*%
%ADD24C,0.1270*%
%ADD26C,0.1800*%
%ADD37C,0.2000*%
G36*
X-109915Y23486D02*
X-109732Y23470D01*
X-109565Y23453D01*
X-109432Y23436D01*
X-109315Y23420D01*
X-109248Y23403D01*
X-109232D01*
X-108882Y23336D01*
X-108715Y23303D01*
X-108582Y23270D01*
X-108465Y23220D01*
X-108365Y23203D01*
X-108315Y23170D01*
X-108299D01*
X-107999Y23020D01*
X-107865Y22953D01*
X-107749Y22887D01*
X-107649Y22836D01*
X-107582Y22787D01*
X-107532Y22770D01*
X-107515Y22753D01*
X-107265Y22587D01*
X-107065Y22437D01*
X-106982Y22370D01*
X-106916Y22320D01*
X-106882Y22287D01*
X-106866Y22270D01*
X-106649Y22053D01*
X-106482Y21853D01*
X-106416Y21770D01*
X-106366Y21703D01*
X-106332Y21670D01*
X-106316Y21653D01*
X-106132Y21404D01*
X-105982Y21170D01*
X-105933Y21070D01*
X-105883Y20987D01*
X-105866Y20937D01*
X-105849Y20920D01*
X-105716Y20637D01*
X-105649Y20504D01*
X-105599Y20370D01*
X-105549Y20271D01*
X-105516Y20187D01*
X-105483Y20137D01*
Y20120D01*
X-105366Y19821D01*
X-105316Y19671D01*
X-105283Y19554D01*
X-105233Y19437D01*
X-105216Y19354D01*
X-105183Y19304D01*
Y19287D01*
X-105116Y19121D01*
X-105083Y18987D01*
X-105049Y18904D01*
X-105033Y18854D01*
Y18821D01*
X-105016Y18787D01*
X-104999Y18737D01*
X-104983Y18671D01*
X-104916Y18504D01*
X-104833Y18288D01*
X-104766Y18071D01*
X-104699Y17888D01*
X-104666Y17821D01*
X-104649Y17754D01*
X-104633Y17721D01*
Y17704D01*
X-104566Y17471D01*
X-104500Y17271D01*
X-104466Y17188D01*
X-104450Y17121D01*
X-104433Y17088D01*
Y17071D01*
X-104333Y16855D01*
X-104266Y16671D01*
X-104233Y16588D01*
X-104216Y16538D01*
X-104200Y16505D01*
Y16488D01*
X-104116Y16288D01*
X-104050Y16121D01*
X-104016Y16055D01*
X-103983Y16005D01*
X-103966Y15972D01*
Y15955D01*
X-103866Y15788D01*
X-103766Y15638D01*
X-103700Y15538D01*
X-103683Y15522D01*
Y15505D01*
X-103566Y15338D01*
X-103466Y15222D01*
X-103383Y15138D01*
X-103350Y15105D01*
X-103216Y14988D01*
X-103083Y14905D01*
X-102983Y14839D01*
X-102966Y14822D01*
X-102950D01*
X-102783Y14739D01*
X-102633Y14672D01*
X-102517Y14639D01*
X-102500Y14622D01*
X-102483D01*
X-102283Y14589D01*
X-102100Y14572D01*
X-102034Y14555D01*
X-101917D01*
X-101700Y14572D01*
X-101500Y14605D01*
X-101334Y14639D01*
X-101184Y14689D01*
X-101067Y14739D01*
X-100967Y14789D01*
X-100917Y14805D01*
X-100900Y14822D01*
X-100750Y14938D01*
X-100617Y15055D01*
X-100517Y15188D01*
X-100417Y15305D01*
X-100351Y15422D01*
X-100301Y15505D01*
X-100267Y15572D01*
X-100251Y15588D01*
X-100101Y15988D01*
X-100051Y16171D01*
X-100001Y16338D01*
X-99951Y16488D01*
X-99917Y16605D01*
X-99901Y16671D01*
Y16705D01*
X-99834Y17155D01*
X-99817Y17355D01*
X-99801Y17555D01*
X-99784Y17721D01*
Y17838D01*
Y17921D01*
Y17954D01*
Y18188D01*
X-99801Y18404D01*
Y18621D01*
X-99817Y18804D01*
X-99834Y18954D01*
Y19071D01*
X-99851Y19137D01*
Y19171D01*
X-99917Y19587D01*
X-99951Y19787D01*
X-99984Y19954D01*
X-100017Y20104D01*
X-100034Y20204D01*
X-100067Y20287D01*
Y20304D01*
X-100151Y20704D01*
X-100201Y20870D01*
X-100234Y21020D01*
X-100267Y21154D01*
X-100301Y21254D01*
X-100317Y21320D01*
Y21337D01*
X-100417Y21670D01*
X-100467Y21820D01*
X-100517Y21953D01*
X-100550Y22070D01*
X-100584Y22153D01*
X-100601Y22203D01*
Y22220D01*
X-100367Y22320D01*
X-100167Y22403D01*
X-100084Y22420D01*
X-100017Y22453D01*
X-99984Y22470D01*
X-99967D01*
X-99717Y22553D01*
X-99501Y22636D01*
X-99417Y22653D01*
X-99351Y22670D01*
X-99301Y22687D01*
X-99284D01*
X-99018Y22753D01*
X-98901Y22787D01*
X-98784Y22803D01*
X-98701Y22820D01*
X-98634Y22836D01*
X-98584Y22853D01*
X-98568D01*
X-98301Y22903D01*
X-98068Y22936D01*
X-97968Y22953D01*
X-97901Y22970D01*
X-97835D01*
X-97718Y22570D01*
X-97651Y22387D01*
X-97601Y22220D01*
X-97568Y22070D01*
X-97535Y21953D01*
X-97501Y21887D01*
Y21853D01*
X-97385Y21420D01*
X-97335Y21204D01*
X-97301Y21004D01*
X-97251Y20837D01*
X-97235Y20704D01*
X-97201Y20620D01*
Y20587D01*
X-97118Y20104D01*
X-97085Y19871D01*
X-97051Y19671D01*
X-97035Y19487D01*
X-97018Y19354D01*
X-97001Y19271D01*
Y19237D01*
X-96968Y18737D01*
Y18488D01*
X-96951Y18288D01*
Y18104D01*
Y17954D01*
Y17871D01*
Y17854D01*
Y17838D01*
X-96968Y17221D01*
X-97001Y16671D01*
X-97035Y16405D01*
X-97068Y16155D01*
X-97101Y15938D01*
X-97118Y15722D01*
X-97151Y15538D01*
X-97185Y15372D01*
X-97218Y15222D01*
X-97251Y15105D01*
X-97268Y15005D01*
X-97285Y14938D01*
X-97301Y14888D01*
Y14872D01*
X-97451Y14405D01*
X-97618Y13989D01*
X-97801Y13622D01*
X-97985Y13306D01*
X-98134Y13056D01*
X-98201Y12956D01*
X-98268Y12872D01*
X-98318Y12789D01*
X-98351Y12739D01*
X-98368Y12722D01*
X-98384Y12706D01*
X-98668Y12389D01*
X-98951Y12123D01*
X-99234Y11906D01*
X-99501Y11723D01*
X-99734Y11573D01*
X-99917Y11473D01*
X-99984Y11439D01*
X-100034Y11406D01*
X-100067Y11389D01*
X-100084D01*
X-100450Y11239D01*
X-100834Y11140D01*
X-101200Y11056D01*
X-101550Y11006D01*
X-101833Y10973D01*
X-101967D01*
X-102067Y10956D01*
X-102283D01*
X-102617Y10973D01*
X-102917Y10990D01*
X-103183Y11040D01*
X-103433Y11090D01*
X-103633Y11123D01*
X-103766Y11173D01*
X-103866Y11190D01*
X-103883Y11206D01*
X-103900D01*
X-104166Y11323D01*
X-104416Y11439D01*
X-104633Y11573D01*
X-104816Y11706D01*
X-104966Y11823D01*
X-105083Y11923D01*
X-105149Y11989D01*
X-105183Y12006D01*
X-105383Y12206D01*
X-105566Y12439D01*
X-105732Y12656D01*
X-105883Y12872D01*
X-106016Y13072D01*
X-106116Y13222D01*
X-106182Y13322D01*
X-106199Y13339D01*
Y13356D01*
X-106382Y13689D01*
X-106549Y14022D01*
X-106716Y14355D01*
X-106849Y14672D01*
X-106949Y14938D01*
X-106999Y15055D01*
X-107049Y15155D01*
X-107065Y15222D01*
X-107099Y15288D01*
X-107115Y15322D01*
Y15338D01*
X-107165Y15472D01*
X-107215Y15588D01*
X-107232Y15655D01*
X-107249Y15688D01*
X-107265Y15722D01*
X-107282Y15738D01*
Y15772D01*
X-107315Y15838D01*
X-107365Y15972D01*
X-107432Y16138D01*
X-107482Y16305D01*
X-107549Y16455D01*
X-107582Y16571D01*
X-107599Y16588D01*
Y16605D01*
X-107682Y16855D01*
X-107749Y17071D01*
X-107765Y17171D01*
X-107799Y17238D01*
X-107815Y17271D01*
Y17288D01*
X-107899Y17521D01*
X-107965Y17721D01*
X-107982Y17788D01*
X-108015Y17854D01*
X-108032Y17888D01*
Y17904D01*
X-108132Y18121D01*
X-108215Y18288D01*
X-108249Y18354D01*
X-108282Y18404D01*
X-108299Y18421D01*
Y18438D01*
X-108415Y18621D01*
X-108498Y18787D01*
X-108548Y18854D01*
X-108565Y18904D01*
X-108598Y18921D01*
Y18937D01*
X-108732Y19104D01*
X-108848Y19221D01*
X-108932Y19304D01*
X-108948Y19337D01*
X-108965D01*
X-109115Y19471D01*
X-109248Y19571D01*
X-109365Y19637D01*
X-109382Y19654D01*
X-109398D01*
X-109565Y19754D01*
X-109732Y19821D01*
X-109815Y19837D01*
X-109865Y19854D01*
X-109898Y19871D01*
X-109915D01*
X-110148Y19904D01*
X-110365Y19921D01*
X-110598D01*
X-110831Y19904D01*
X-111031Y19887D01*
X-111098Y19871D01*
X-111164D01*
X-111198Y19854D01*
X-111214D01*
X-111431Y19771D01*
X-111598Y19687D01*
X-111664Y19654D01*
X-111698Y19621D01*
X-111731Y19604D01*
X-111748Y19587D01*
X-111931Y19454D01*
X-112098Y19321D01*
X-112164Y19271D01*
X-112214Y19221D01*
X-112231Y19204D01*
X-112247Y19187D01*
X-112414Y19021D01*
X-112531Y18854D01*
X-112581Y18787D01*
X-112614Y18737D01*
X-112647Y18704D01*
Y18687D01*
X-112764Y18471D01*
X-112864Y18271D01*
X-112897Y18188D01*
X-112931Y18121D01*
X-112947Y18088D01*
Y18071D01*
X-113047Y17821D01*
X-113114Y17605D01*
X-113147Y17505D01*
X-113164Y17438D01*
X-113181Y17388D01*
Y17371D01*
X-113247Y17088D01*
X-113264Y16955D01*
X-113281Y16838D01*
X-113297Y16738D01*
X-113314Y16655D01*
Y16605D01*
Y16588D01*
X-113331Y16305D01*
Y16171D01*
X-113347Y16038D01*
Y15938D01*
Y15855D01*
Y15805D01*
Y15788D01*
X-113331Y15355D01*
Y15172D01*
X-113314Y14988D01*
Y14839D01*
X-113297Y14722D01*
Y14655D01*
Y14622D01*
X-113247Y14189D01*
X-113214Y14005D01*
X-113197Y13822D01*
X-113164Y13672D01*
X-113147Y13556D01*
X-113131Y13489D01*
Y13455D01*
X-113031Y13039D01*
X-112981Y12839D01*
X-112947Y12672D01*
X-112914Y12539D01*
X-112881Y12439D01*
X-112864Y12356D01*
Y12339D01*
X-112731Y11956D01*
X-112681Y11773D01*
X-112614Y11623D01*
X-112564Y11489D01*
X-112531Y11389D01*
X-112514Y11323D01*
X-112497Y11306D01*
X-112764Y11206D01*
X-112897Y11156D01*
X-112997Y11123D01*
X-113097Y11090D01*
X-113164Y11056D01*
X-113214Y11040D01*
X-113231D01*
X-113497Y10940D01*
X-113614Y10906D01*
X-113730Y10873D01*
X-113814Y10840D01*
X-113880Y10806D01*
X-113930Y10790D01*
X-113947D01*
X-114230Y10706D01*
X-114347Y10673D01*
X-114464Y10640D01*
X-114564Y10623D01*
X-114630Y10606D01*
X-114680Y10590D01*
X-114697D01*
X-114964Y10540D01*
X-115180Y10523D01*
X-115280Y10506D01*
X-115347Y10490D01*
X-115413D01*
X-115563Y10906D01*
X-115613Y11106D01*
X-115663Y11273D01*
X-115713Y11439D01*
X-115747Y11556D01*
X-115763Y11623D01*
Y11656D01*
X-115880Y12106D01*
X-115930Y12306D01*
X-115963Y12506D01*
X-115997Y12672D01*
X-116030Y12789D01*
X-116046Y12872D01*
Y12906D01*
X-116130Y13406D01*
X-116163Y13639D01*
X-116180Y13855D01*
X-116213Y14039D01*
Y14172D01*
X-116230Y14272D01*
Y14305D01*
X-116263Y14888D01*
Y15155D01*
X-116280Y15405D01*
Y15605D01*
Y15772D01*
Y15838D01*
Y15888D01*
Y15905D01*
Y15922D01*
Y16238D01*
X-116263Y16538D01*
X-116247Y16821D01*
X-116230Y17055D01*
X-116213Y17255D01*
X-116196Y17405D01*
X-116180Y17505D01*
Y17538D01*
X-116130Y17821D01*
X-116080Y18104D01*
X-116030Y18354D01*
X-115963Y18571D01*
X-115913Y18754D01*
X-115880Y18904D01*
X-115863Y18987D01*
X-115847Y19021D01*
X-115763Y19287D01*
X-115680Y19521D01*
X-115580Y19754D01*
X-115513Y19937D01*
X-115430Y20104D01*
X-115380Y20220D01*
X-115347Y20287D01*
X-115330Y20320D01*
X-115213Y20537D01*
X-115097Y20754D01*
X-114980Y20937D01*
X-114880Y21104D01*
X-114780Y21237D01*
X-114713Y21337D01*
X-114664Y21404D01*
X-114647Y21420D01*
X-114497Y21604D01*
X-114347Y21787D01*
X-114197Y21937D01*
X-114064Y22070D01*
X-113964Y22170D01*
X-113880Y22253D01*
X-113814Y22303D01*
X-113797Y22320D01*
X-113431Y22570D01*
X-113264Y22687D01*
X-113114Y22787D01*
X-112981Y22853D01*
X-112864Y22920D01*
X-112797Y22953D01*
X-112781Y22970D01*
X-112364Y23153D01*
X-112164Y23220D01*
X-111981Y23270D01*
X-111831Y23320D01*
X-111714Y23353D01*
X-111648Y23370D01*
X-111614D01*
X-111148Y23453D01*
X-110931Y23470D01*
X-110748Y23486D01*
X-110581Y23503D01*
X-110115D01*
X-109915Y23486D01*
D02*
G37*
G36*
X-97335Y7657D02*
X-97318Y7524D01*
X-97301Y7424D01*
Y7407D01*
Y7390D01*
X-97285Y7224D01*
Y7074D01*
X-97268Y7007D01*
Y6974D01*
Y6941D01*
Y6924D01*
X-97251Y6757D01*
Y6607D01*
Y6507D01*
Y6491D01*
Y6474D01*
X-97235Y6324D01*
X-97218Y6191D01*
Y6091D01*
Y6074D01*
Y6057D01*
Y5891D01*
X-97235Y5757D01*
X-97251Y5658D01*
Y5641D01*
Y5624D01*
Y5458D01*
Y5324D01*
X-97268Y5208D01*
Y5191D01*
Y5174D01*
X-97285Y4991D01*
Y4841D01*
X-97301Y4741D01*
Y4724D01*
Y4708D01*
X-97318Y4541D01*
X-97351Y4408D01*
X-97368Y4325D01*
Y4308D01*
Y4291D01*
X-112897D01*
X-113031Y3791D01*
X-113081Y3541D01*
X-113114Y3325D01*
X-113147Y3125D01*
X-113181Y2975D01*
X-113197Y2875D01*
Y2858D01*
Y2842D01*
X-113247Y2258D01*
X-113264Y1975D01*
Y1709D01*
X-113281Y1475D01*
Y1309D01*
Y1242D01*
Y1192D01*
Y1159D01*
Y1142D01*
X-113264Y709D01*
Y509D01*
X-113247Y342D01*
Y192D01*
X-113231Y92D01*
Y26D01*
Y-8D01*
X-113197Y-208D01*
X-113164Y-391D01*
X-113131Y-558D01*
X-113097Y-707D01*
X-113081Y-841D01*
X-113047Y-924D01*
X-113031Y-991D01*
Y-1007D01*
X-112931Y-1341D01*
X-112864Y-1491D01*
X-112814Y-1624D01*
X-112764Y-1741D01*
X-112714Y-1824D01*
X-112697Y-1874D01*
X-112681Y-1891D01*
X-112497Y-2157D01*
X-112414Y-2290D01*
X-112331Y-2390D01*
X-112264Y-2474D01*
X-112198Y-2540D01*
X-112164Y-2590D01*
X-112148Y-2607D01*
X-111881Y-2824D01*
X-111631Y-3007D01*
X-111514Y-3074D01*
X-111431Y-3124D01*
X-111381Y-3157D01*
X-111364Y-3174D01*
X-111014Y-3340D01*
X-110848Y-3407D01*
X-110698Y-3473D01*
X-110548Y-3507D01*
X-110448Y-3540D01*
X-110381Y-3573D01*
X-110348D01*
X-109915Y-3690D01*
X-109698Y-3723D01*
X-109498Y-3757D01*
X-109332Y-3790D01*
X-109198Y-3807D01*
X-109115Y-3823D01*
X-109082D01*
X-108532Y-3857D01*
X-108265Y-3873D01*
X-108015D01*
X-107799Y-3890D01*
X-97368D01*
X-97335Y-4057D01*
X-97318Y-4190D01*
X-97301Y-4290D01*
Y-4307D01*
Y-4323D01*
X-97285Y-4490D01*
Y-4640D01*
X-97268Y-4757D01*
Y-4773D01*
Y-4790D01*
X-97251Y-4973D01*
Y-5140D01*
Y-5206D01*
Y-5256D01*
Y-5273D01*
Y-5290D01*
X-97235Y-5440D01*
X-97218Y-5573D01*
Y-5673D01*
Y-5689D01*
Y-5706D01*
Y-5839D01*
X-97235Y-5973D01*
X-97251Y-6073D01*
Y-6089D01*
Y-6106D01*
Y-6256D01*
Y-6406D01*
X-97268Y-6473D01*
Y-6523D01*
Y-6556D01*
Y-6573D01*
X-97285Y-6789D01*
X-97318Y-6973D01*
X-97335Y-7122D01*
Y-7239D01*
X-97351Y-7339D01*
X-97368Y-7422D01*
Y-7456D01*
Y-7472D01*
X-107632D01*
X-108149Y-7456D01*
X-108615Y-7439D01*
X-109032Y-7406D01*
X-109398Y-7372D01*
X-109565Y-7356D01*
X-109715Y-7339D01*
X-109831D01*
X-109931Y-7322D01*
X-110015Y-7306D01*
X-110081Y-7289D01*
X-110131D01*
X-110531Y-7222D01*
X-110914Y-7139D01*
X-111248Y-7056D01*
X-111531Y-6973D01*
X-111764Y-6906D01*
X-111948Y-6839D01*
X-112014Y-6823D01*
X-112064Y-6806D01*
X-112081Y-6789D01*
X-112098D01*
X-112397Y-6656D01*
X-112697Y-6523D01*
X-112947Y-6389D01*
X-113164Y-6256D01*
X-113347Y-6139D01*
X-113481Y-6056D01*
X-113564Y-5990D01*
X-113597Y-5973D01*
X-113830Y-5789D01*
X-114047Y-5606D01*
X-114247Y-5440D01*
X-114414Y-5273D01*
X-114547Y-5140D01*
X-114647Y-5023D01*
X-114713Y-4956D01*
X-114730Y-4923D01*
X-114897Y-4690D01*
X-115047Y-4473D01*
X-115180Y-4257D01*
X-115297Y-4057D01*
X-115380Y-3890D01*
X-115463Y-3757D01*
X-115497Y-3673D01*
X-115513Y-3640D01*
X-115713Y-3107D01*
X-115797Y-2857D01*
X-115863Y-2624D01*
X-115913Y-2440D01*
X-115947Y-2290D01*
X-115980Y-2190D01*
Y-2157D01*
X-116030Y-1857D01*
X-116080Y-1574D01*
X-116113Y-1291D01*
X-116146Y-1041D01*
X-116180Y-841D01*
X-116196Y-674D01*
Y-624D01*
X-116213Y-574D01*
Y-558D01*
Y-541D01*
X-116230Y-224D01*
X-116247Y92D01*
X-116263Y376D01*
Y642D01*
X-116280Y875D01*
Y1042D01*
Y1109D01*
Y1159D01*
Y1175D01*
Y1192D01*
Y1542D01*
X-116263Y1875D01*
Y2175D01*
X-116247Y2458D01*
X-116230Y2692D01*
Y2875D01*
X-116213Y2942D01*
Y2992D01*
Y3008D01*
Y3025D01*
X-116180Y3358D01*
X-116130Y3675D01*
X-116096Y3975D01*
X-116046Y4241D01*
X-116013Y4475D01*
X-115980Y4641D01*
Y4708D01*
X-115963Y4758D01*
Y4774D01*
Y4791D01*
X-115897Y5124D01*
X-115847Y5424D01*
X-115780Y5707D01*
X-115730Y5941D01*
X-115697Y6157D01*
X-115663Y6307D01*
X-115630Y6407D01*
Y6441D01*
X-115563Y6707D01*
X-115497Y6957D01*
X-115430Y7190D01*
X-115380Y7407D01*
X-115347Y7574D01*
X-115313Y7690D01*
X-115280Y7774D01*
Y7807D01*
X-97368D01*
X-97335Y7657D01*
D02*
G37*
G36*
X-115547Y-9055D02*
X-115280Y-9139D01*
X-115030Y-9222D01*
X-114813Y-9289D01*
X-114647Y-9339D01*
X-114514Y-9389D01*
X-114430Y-9405D01*
X-114397Y-9422D01*
X-114164Y-9489D01*
X-113947Y-9555D01*
X-113764Y-9622D01*
X-113597Y-9672D01*
X-113447Y-9705D01*
X-113347Y-9739D01*
X-113281Y-9772D01*
X-113264D01*
X-112847Y-9905D01*
X-112497Y-10038D01*
X-112198Y-10138D01*
X-111948Y-10205D01*
X-111764Y-10272D01*
X-111631Y-10322D01*
X-111548Y-10338D01*
X-111514Y-10355D01*
X-111281Y-10438D01*
X-111048Y-10505D01*
X-110815Y-10588D01*
X-110581Y-10655D01*
X-110398Y-10722D01*
X-110248Y-10772D01*
X-110148Y-10805D01*
X-110131Y-10822D01*
X-110115D01*
X-109915Y-10872D01*
X-109732Y-10921D01*
X-109665Y-10955D01*
X-109598Y-10971D01*
X-109565Y-10988D01*
X-109548D01*
X-109298Y-11071D01*
X-109082Y-11155D01*
X-108982Y-11171D01*
X-108915Y-11205D01*
X-108865Y-11221D01*
X-108848D01*
X-108548Y-11321D01*
X-108399Y-11355D01*
X-108265Y-11405D01*
X-108149Y-11438D01*
X-108065Y-11471D01*
X-107999Y-11505D01*
X-107982D01*
X-107615Y-11621D01*
X-107432Y-11688D01*
X-107265Y-11738D01*
X-107132Y-11788D01*
X-107015Y-11821D01*
X-106949Y-11838D01*
X-106916Y-11855D01*
X-106549Y-11971D01*
X-106182Y-12088D01*
X-105816Y-12205D01*
X-105466Y-12321D01*
X-105166Y-12405D01*
X-105033Y-12455D01*
X-104933Y-12488D01*
X-104833Y-12521D01*
X-104766Y-12538D01*
X-104733Y-12555D01*
X-104716D01*
X-104233Y-12721D01*
X-103716Y-12888D01*
X-103233Y-13038D01*
X-102767Y-13188D01*
X-102550Y-13254D01*
X-102367Y-13321D01*
X-102200Y-13388D01*
X-102050Y-13421D01*
X-101933Y-13471D01*
X-101833Y-13504D01*
X-101784Y-13521D01*
X-101767D01*
X-101350Y-13654D01*
X-100934Y-13787D01*
X-100084Y-14071D01*
X-99234Y-14337D01*
X-98834Y-14471D01*
X-98451Y-14604D01*
X-98084Y-14721D01*
X-97768Y-14820D01*
X-97468Y-14921D01*
X-97218Y-15004D01*
X-97018Y-15071D01*
X-96868Y-15104D01*
X-96768Y-15137D01*
X-96735Y-15154D01*
X-96185Y-15337D01*
X-95602Y-15520D01*
X-94452Y-15904D01*
X-93869Y-16087D01*
X-93302Y-16270D01*
X-92769Y-16437D01*
X-92253Y-16603D01*
X-91769Y-16770D01*
X-91320Y-16903D01*
X-90936Y-17037D01*
X-90586Y-17137D01*
X-90436Y-17187D01*
X-90320Y-17237D01*
X-90203Y-17270D01*
X-90103Y-17303D01*
X-90036Y-17320D01*
X-89986Y-17337D01*
X-89953Y-17353D01*
X-89937D01*
X-89903Y-17536D01*
X-89887Y-17703D01*
Y-17770D01*
X-89870Y-17820D01*
Y-17836D01*
Y-17853D01*
X-89853Y-18053D01*
Y-18220D01*
X-89837Y-18303D01*
Y-18353D01*
Y-18386D01*
Y-18403D01*
X-89820Y-18603D01*
Y-18770D01*
Y-18836D01*
Y-18886D01*
Y-18920D01*
Y-18936D01*
X-89803Y-19119D01*
Y-19286D01*
Y-19353D01*
Y-19403D01*
Y-19436D01*
Y-19453D01*
Y-19653D01*
Y-19819D01*
X-89820Y-19903D01*
Y-19953D01*
Y-19986D01*
Y-20003D01*
Y-20203D01*
Y-20386D01*
X-89837Y-20452D01*
Y-20502D01*
Y-20536D01*
Y-20552D01*
X-89853Y-20752D01*
Y-20919D01*
X-89870Y-20986D01*
Y-21036D01*
Y-21069D01*
Y-21086D01*
X-89887Y-21269D01*
X-89920Y-21419D01*
X-89937Y-21535D01*
Y-21552D01*
Y-21569D01*
X-90237Y-21669D01*
X-90520Y-21752D01*
X-90770Y-21835D01*
X-90986Y-21902D01*
X-91153Y-21969D01*
X-91286Y-22019D01*
X-91369Y-22035D01*
X-91403Y-22052D01*
X-91636Y-22119D01*
X-91836Y-22185D01*
X-92036Y-22252D01*
X-92203Y-22302D01*
X-92336Y-22335D01*
X-92436Y-22369D01*
X-92503Y-22402D01*
X-92519D01*
X-92936Y-22535D01*
X-93286Y-22652D01*
X-93586Y-22752D01*
X-93836Y-22835D01*
X-94036Y-22902D01*
X-94169Y-22952D01*
X-94252Y-22968D01*
X-94285Y-22985D01*
X-94519Y-23068D01*
X-94752Y-23135D01*
X-94985Y-23218D01*
X-95202Y-23285D01*
X-95402Y-23352D01*
X-95552Y-23385D01*
X-95652Y-23418D01*
X-95668Y-23435D01*
X-95685D01*
X-95868Y-23502D01*
X-96052Y-23568D01*
X-96118Y-23585D01*
X-96185Y-23602D01*
X-96218Y-23618D01*
X-96235D01*
X-96485Y-23702D01*
X-96718Y-23768D01*
X-96802Y-23802D01*
X-96885Y-23835D01*
X-96935Y-23852D01*
X-96951D01*
X-97251Y-23951D01*
X-97385Y-23985D01*
X-97518Y-24035D01*
X-97635Y-24068D01*
X-97718Y-24102D01*
X-97785Y-24135D01*
X-97801D01*
X-98168Y-24251D01*
X-98351Y-24318D01*
X-98518Y-24368D01*
X-98668Y-24418D01*
X-98784Y-24451D01*
X-98851Y-24468D01*
X-98884Y-24485D01*
X-99251Y-24601D01*
X-99617Y-24718D01*
X-99984Y-24835D01*
X-100334Y-24951D01*
X-100634Y-25051D01*
X-100767Y-25101D01*
X-100867Y-25135D01*
X-100967Y-25168D01*
X-101034Y-25185D01*
X-101067Y-25201D01*
X-101084D01*
X-101567Y-25351D01*
X-102083Y-25518D01*
X-102567Y-25684D01*
X-103017Y-25818D01*
X-103233Y-25901D01*
X-103416Y-25951D01*
X-103583Y-26018D01*
X-103733Y-26051D01*
X-103850Y-26101D01*
X-103950Y-26134D01*
X-104000Y-26151D01*
X-104016D01*
X-104416Y-26284D01*
X-104849Y-26418D01*
X-105699Y-26701D01*
X-106549Y-26967D01*
X-106949Y-27101D01*
X-107332Y-27234D01*
X-107699Y-27351D01*
X-108032Y-27451D01*
X-108315Y-27551D01*
X-108582Y-27634D01*
X-108782Y-27701D01*
X-108932Y-27734D01*
X-109032Y-27767D01*
X-109048Y-27784D01*
X-109065D01*
X-109615Y-27967D01*
X-110181Y-28150D01*
X-111348Y-28534D01*
X-111914Y-28717D01*
X-112481Y-28900D01*
X-113031Y-29084D01*
X-113547Y-29250D01*
X-114030Y-29400D01*
X-114464Y-29550D01*
X-114864Y-29683D01*
X-115197Y-29783D01*
X-115347Y-29833D01*
X-115463Y-29883D01*
X-115580Y-29917D01*
X-115680Y-29950D01*
X-115747Y-29967D01*
X-115797Y-29983D01*
X-115830Y-30000D01*
X-115847D01*
X-115880Y-29850D01*
X-115913Y-29717D01*
X-115930Y-29617D01*
Y-29600D01*
Y-29583D01*
X-115947Y-29417D01*
Y-29283D01*
X-115963Y-29167D01*
Y-29150D01*
Y-29134D01*
X-115980Y-28950D01*
Y-28784D01*
Y-28734D01*
Y-28684D01*
Y-28650D01*
Y-28634D01*
X-115997Y-28450D01*
Y-28284D01*
Y-28234D01*
Y-28184D01*
Y-28150D01*
Y-28134D01*
Y-27967D01*
X-115980Y-27817D01*
Y-27701D01*
Y-27684D01*
Y-27667D01*
Y-27484D01*
X-115963Y-27334D01*
Y-27267D01*
Y-27217D01*
Y-27201D01*
Y-27184D01*
X-115947Y-27017D01*
Y-26884D01*
X-115930Y-26767D01*
Y-26751D01*
Y-26734D01*
X-115897Y-26551D01*
X-115880Y-26401D01*
X-115863Y-26334D01*
X-115847Y-26284D01*
Y-26268D01*
Y-26251D01*
X-115130Y-26034D01*
X-114447Y-25834D01*
X-113814Y-25651D01*
X-113231Y-25484D01*
X-112697Y-25334D01*
X-112198Y-25185D01*
X-111764Y-25051D01*
X-111364Y-24935D01*
X-111014Y-24835D01*
X-110715Y-24751D01*
X-110448Y-24668D01*
X-110231Y-24618D01*
X-110081Y-24568D01*
X-109965Y-24535D01*
X-109881Y-24501D01*
X-109865D01*
Y-23902D01*
Y-23302D01*
Y-22735D01*
Y-22185D01*
Y-21669D01*
Y-21152D01*
Y-20669D01*
Y-20186D01*
Y-19736D01*
Y-19303D01*
Y-18886D01*
Y-18503D01*
Y-18120D01*
Y-17770D01*
Y-17436D01*
Y-17120D01*
Y-16820D01*
Y-16537D01*
Y-16287D01*
Y-16037D01*
Y-15820D01*
Y-15620D01*
Y-15437D01*
Y-15270D01*
Y-15121D01*
Y-15004D01*
Y-14887D01*
Y-14804D01*
Y-14737D01*
Y-14687D01*
Y-14671D01*
Y-14654D01*
X-110031Y-14604D01*
X-110181Y-14554D01*
X-110315Y-14504D01*
X-110431Y-14471D01*
X-110631Y-14421D01*
X-110765Y-14371D01*
X-110848Y-14354D01*
X-110914Y-14337D01*
X-110948Y-14321D01*
X-110981Y-14304D01*
X-111031D01*
X-111148Y-14254D01*
X-111314Y-14204D01*
X-111481Y-14154D01*
X-111648Y-14104D01*
X-111798Y-14054D01*
X-111898Y-14037D01*
X-111914Y-14021D01*
X-111931D01*
X-112098Y-13971D01*
X-112264Y-13937D01*
X-112347Y-13921D01*
X-112397Y-13904D01*
X-112431Y-13887D01*
X-112448D01*
X-112664Y-13804D01*
X-112881Y-13737D01*
X-112981Y-13704D01*
X-113064Y-13687D01*
X-113114Y-13671D01*
X-113131D01*
X-113314Y-13604D01*
X-113514Y-13537D01*
X-113714Y-13488D01*
X-113880Y-13438D01*
X-114047Y-13388D01*
X-114164Y-13354D01*
X-114247Y-13321D01*
X-114280D01*
X-114547Y-13238D01*
X-114813Y-13154D01*
X-115080Y-13071D01*
X-115313Y-13004D01*
X-115530Y-12938D01*
X-115697Y-12888D01*
X-115763Y-12871D01*
X-115813Y-12854D01*
X-115830Y-12838D01*
X-115847D01*
X-115880Y-12688D01*
X-115913Y-12538D01*
X-115930Y-12438D01*
Y-12421D01*
Y-12405D01*
X-115947Y-12238D01*
Y-12071D01*
X-115963Y-12005D01*
Y-11971D01*
Y-11938D01*
Y-11921D01*
X-115980Y-11755D01*
Y-11588D01*
Y-11521D01*
Y-11488D01*
Y-11455D01*
Y-11438D01*
X-115997Y-11272D01*
Y-11121D01*
Y-11005D01*
Y-10988D01*
Y-10971D01*
Y-10772D01*
X-115980Y-10605D01*
Y-10555D01*
Y-10505D01*
Y-10472D01*
Y-10455D01*
Y-10272D01*
X-115963Y-10088D01*
Y-10022D01*
Y-9972D01*
Y-9938D01*
Y-9922D01*
X-115947Y-9722D01*
Y-9555D01*
X-115930Y-9505D01*
Y-9455D01*
Y-9422D01*
Y-9405D01*
X-115897Y-9222D01*
X-115880Y-9089D01*
X-115847Y-8989D01*
Y-8972D01*
Y-8955D01*
X-115547Y-9055D01*
D02*
G37*
G36*
X-102350Y64493D02*
X-101767Y64476D01*
X-101217Y64426D01*
X-100684Y64376D01*
X-100184Y64309D01*
X-99701Y64243D01*
X-99268Y64159D01*
X-98868Y64093D01*
X-98501Y64009D01*
X-98168Y63926D01*
X-97885Y63859D01*
X-97651Y63793D01*
X-97468Y63743D01*
X-97335Y63693D01*
X-97251Y63676D01*
X-97218Y63659D01*
X-96768Y63493D01*
X-96335Y63309D01*
X-95918Y63109D01*
X-95519Y62910D01*
X-95152Y62693D01*
X-94802Y62493D01*
X-94485Y62276D01*
X-94185Y62076D01*
X-93919Y61877D01*
X-93686Y61710D01*
X-93486Y61543D01*
X-93319Y61410D01*
X-93186Y61293D01*
X-93086Y61193D01*
X-93019Y61143D01*
X-93002Y61127D01*
X-92686Y60793D01*
X-92386Y60460D01*
X-92119Y60110D01*
X-91869Y59744D01*
X-91636Y59394D01*
X-91419Y59044D01*
X-91236Y58694D01*
X-91053Y58377D01*
X-90903Y58061D01*
X-90786Y57794D01*
X-90670Y57528D01*
X-90586Y57311D01*
X-90503Y57144D01*
X-90453Y57011D01*
X-90436Y56928D01*
X-90420Y56894D01*
X-90270Y56411D01*
X-90136Y55911D01*
X-90020Y55395D01*
X-89920Y54895D01*
X-89837Y54378D01*
X-89770Y53895D01*
X-89703Y53412D01*
X-89653Y52962D01*
X-89620Y52545D01*
X-89603Y52162D01*
X-89587Y51812D01*
X-89570Y51512D01*
X-89553Y51279D01*
Y51179D01*
Y51096D01*
Y51029D01*
Y50979D01*
Y50963D01*
Y50946D01*
Y50629D01*
Y50329D01*
Y50046D01*
Y49796D01*
X-89570Y49580D01*
Y49430D01*
Y49363D01*
Y49313D01*
Y49296D01*
Y49280D01*
X-89587Y48963D01*
X-89603Y48646D01*
X-89620Y48347D01*
X-89637Y48097D01*
X-89653Y47863D01*
Y47697D01*
X-89670Y47630D01*
Y47580D01*
Y47564D01*
Y47547D01*
X-89687Y47247D01*
X-89720Y46964D01*
X-89737Y46714D01*
X-89753Y46497D01*
X-89770Y46330D01*
X-89787Y46197D01*
X-89803Y46114D01*
Y46080D01*
X-89853Y45597D01*
X-89870Y45381D01*
X-89887Y45164D01*
X-89903Y44998D01*
X-89920Y44864D01*
X-89937Y44781D01*
Y44748D01*
Y44681D01*
Y44664D01*
Y44614D01*
Y44598D01*
Y44581D01*
X-115847D01*
X-115913Y45047D01*
X-115947Y45264D01*
X-115963Y45481D01*
X-115980Y45647D01*
X-115997Y45797D01*
X-116013Y45881D01*
Y45914D01*
X-116063Y46447D01*
X-116080Y46714D01*
X-116096Y46947D01*
X-116113Y47147D01*
X-116130Y47313D01*
X-116146Y47364D01*
Y47414D01*
Y47430D01*
Y47447D01*
X-116180Y47747D01*
X-116196Y48047D01*
X-116213Y48330D01*
X-116230Y48580D01*
X-116247Y48797D01*
X-116263Y48963D01*
Y49030D01*
Y49080D01*
Y49096D01*
Y49113D01*
Y49430D01*
X-116280Y49730D01*
Y50013D01*
Y50263D01*
Y50479D01*
Y50646D01*
Y50713D01*
Y50763D01*
Y50779D01*
Y50796D01*
X-116263Y51429D01*
X-116247Y52029D01*
X-116196Y52612D01*
X-116146Y53162D01*
X-116096Y53695D01*
X-116013Y54179D01*
X-115947Y54645D01*
X-115863Y55062D01*
X-115797Y55445D01*
X-115713Y55778D01*
X-115647Y56078D01*
X-115597Y56328D01*
X-115530Y56511D01*
X-115497Y56661D01*
X-115480Y56744D01*
X-115463Y56778D01*
X-115297Y57244D01*
X-115130Y57694D01*
X-114930Y58127D01*
X-114730Y58527D01*
X-114530Y58911D01*
X-114330Y59261D01*
X-114114Y59577D01*
X-113930Y59877D01*
X-113730Y60144D01*
X-113564Y60377D01*
X-113397Y60577D01*
X-113264Y60743D01*
X-113147Y60877D01*
X-113064Y60960D01*
X-113014Y61027D01*
X-112997Y61043D01*
X-112681Y61360D01*
X-112347Y61660D01*
X-112014Y61926D01*
X-111664Y62176D01*
X-111314Y62410D01*
X-110964Y62626D01*
X-110631Y62826D01*
X-110315Y62993D01*
X-110015Y63143D01*
X-109732Y63276D01*
X-109481Y63393D01*
X-109265Y63476D01*
X-109098Y63559D01*
X-108965Y63609D01*
X-108882Y63626D01*
X-108848Y63643D01*
X-108365Y63793D01*
X-107865Y63926D01*
X-107365Y64043D01*
X-106866Y64143D01*
X-106366Y64226D01*
X-105883Y64292D01*
X-105399Y64359D01*
X-104949Y64409D01*
X-104533Y64443D01*
X-104150Y64459D01*
X-103816Y64476D01*
X-103516Y64493D01*
X-103283Y64509D01*
X-102950D01*
X-102350Y64493D01*
D02*
G37*
G36*
X-109132Y41732D02*
X-108948Y41715D01*
X-108765Y41698D01*
X-108632Y41682D01*
X-108515Y41665D01*
X-108432Y41648D01*
X-108415D01*
X-107982Y41565D01*
X-107782Y41515D01*
X-107615Y41465D01*
X-107465Y41415D01*
X-107349Y41382D01*
X-107282Y41365D01*
X-107249Y41348D01*
X-106832Y41182D01*
X-106632Y41098D01*
X-106466Y41015D01*
X-106332Y40932D01*
X-106232Y40882D01*
X-106149Y40848D01*
X-106132Y40832D01*
X-105933Y40715D01*
X-105749Y40599D01*
X-105566Y40482D01*
X-105433Y40365D01*
X-105299Y40282D01*
X-105216Y40199D01*
X-105149Y40149D01*
X-105133Y40132D01*
X-104783Y39815D01*
X-104633Y39666D01*
X-104516Y39532D01*
X-104399Y39399D01*
X-104316Y39299D01*
X-104266Y39232D01*
X-104250Y39216D01*
X-103983Y38832D01*
X-103866Y38649D01*
X-103766Y38466D01*
X-103683Y38316D01*
X-103616Y38199D01*
X-103583Y38133D01*
X-103566Y38099D01*
X-103383Y37616D01*
X-103300Y37383D01*
X-103250Y37183D01*
X-103200Y36999D01*
X-103167Y36866D01*
X-103133Y36766D01*
Y36750D01*
Y36733D01*
X-103050Y36183D01*
X-103017Y35917D01*
X-103000Y35666D01*
X-102983Y35450D01*
Y35300D01*
Y35233D01*
Y35183D01*
Y35167D01*
Y35150D01*
Y35067D01*
Y35033D01*
Y35017D01*
Y34950D01*
Y34900D01*
Y34867D01*
Y34850D01*
Y34767D01*
Y34750D01*
Y34733D01*
X-103000Y34650D01*
X-103017Y34617D01*
Y34600D01*
X-102400Y35000D01*
X-101800Y35400D01*
X-101234Y35783D01*
X-100684Y36150D01*
X-100151Y36500D01*
X-99634Y36833D01*
X-99134Y37166D01*
X-98651Y37483D01*
X-98201Y37783D01*
X-97751Y38066D01*
X-97335Y38349D01*
X-96935Y38616D01*
X-96552Y38866D01*
X-96202Y39099D01*
X-95852Y39316D01*
X-95535Y39532D01*
X-95235Y39732D01*
X-94952Y39915D01*
X-94685Y40099D01*
X-94435Y40249D01*
X-94219Y40399D01*
X-94019Y40532D01*
X-93819Y40665D01*
X-93652Y40765D01*
X-93519Y40865D01*
X-93386Y40949D01*
X-93286Y41015D01*
X-93186Y41082D01*
X-93119Y41132D01*
X-93069Y41149D01*
X-93052Y41182D01*
X-93036D01*
X-92852Y41065D01*
X-92719Y40982D01*
X-92636Y40932D01*
X-92619Y40915D01*
Y40599D01*
Y40449D01*
Y40332D01*
Y40232D01*
Y40165D01*
Y40115D01*
Y40099D01*
Y39849D01*
Y39649D01*
Y39582D01*
Y39516D01*
Y39482D01*
Y39466D01*
Y39166D01*
Y38899D01*
Y38682D01*
Y38516D01*
Y38382D01*
Y38282D01*
Y38233D01*
Y38216D01*
Y38049D01*
Y37866D01*
Y37666D01*
Y37449D01*
Y37266D01*
Y37116D01*
Y36999D01*
Y36983D01*
Y36966D01*
Y36800D01*
Y36633D01*
Y36566D01*
Y36516D01*
Y36483D01*
Y36466D01*
Y36266D01*
Y36066D01*
Y35983D01*
Y35933D01*
Y35883D01*
Y35866D01*
Y35666D01*
Y35467D01*
Y35250D01*
Y35067D01*
Y34900D01*
Y34750D01*
Y34667D01*
Y34650D01*
Y34634D01*
Y34367D01*
Y34084D01*
Y33800D01*
Y33534D01*
Y33317D01*
Y33134D01*
Y33067D01*
Y33017D01*
Y32984D01*
Y32967D01*
Y32501D01*
Y32018D01*
Y31551D01*
Y31101D01*
Y30901D01*
Y30718D01*
Y30551D01*
Y30401D01*
Y30301D01*
Y30201D01*
Y30151D01*
Y30135D01*
Y29501D01*
Y28852D01*
Y28218D01*
Y27902D01*
Y27619D01*
Y27352D01*
Y27102D01*
Y26869D01*
Y26686D01*
Y26535D01*
Y26419D01*
Y26352D01*
Y26319D01*
X-92753Y26286D01*
X-92886Y26269D01*
X-92986Y26252D01*
X-93002Y26236D01*
X-93019D01*
X-93169Y26219D01*
X-93302D01*
X-93402Y26202D01*
X-93436D01*
X-93602Y26186D01*
X-93736D01*
X-93836Y26169D01*
X-94569D01*
X-94702Y26186D01*
X-94935D01*
X-95019Y26202D01*
X-95085D01*
X-95352Y26236D01*
X-95485Y26252D01*
X-95585Y26269D01*
X-95685Y26286D01*
X-95752Y26302D01*
X-95802Y26319D01*
X-95818D01*
Y26885D01*
Y27435D01*
Y27968D01*
Y28485D01*
Y28985D01*
Y29468D01*
Y29935D01*
Y30368D01*
Y30801D01*
Y31201D01*
Y31584D01*
Y31967D01*
Y32317D01*
Y32651D01*
Y32967D01*
Y33267D01*
Y33534D01*
Y33800D01*
Y34050D01*
Y34267D01*
Y34483D01*
Y34667D01*
Y34833D01*
Y34983D01*
Y35133D01*
Y35250D01*
Y35350D01*
Y35417D01*
Y35483D01*
Y35533D01*
Y35550D01*
Y35567D01*
X-96402Y35200D01*
X-96968Y34833D01*
X-97518Y34500D01*
X-98034Y34167D01*
X-98551Y33834D01*
X-99034Y33534D01*
X-99517Y33234D01*
X-99967Y32934D01*
X-100400Y32667D01*
X-100817Y32401D01*
X-101217Y32151D01*
X-101600Y31901D01*
X-101950Y31684D01*
X-102300Y31468D01*
X-102617Y31251D01*
X-102933Y31068D01*
X-103216Y30884D01*
X-103483Y30701D01*
X-103733Y30551D01*
X-103966Y30401D01*
X-104183Y30268D01*
X-104366Y30135D01*
X-104550Y30035D01*
X-104699Y29935D01*
X-104849Y29835D01*
X-104966Y29768D01*
X-105066Y29701D01*
X-105149Y29651D01*
X-105216Y29601D01*
X-105266Y29568D01*
X-105283Y29551D01*
X-105299D01*
X-105383Y29601D01*
X-105416Y29635D01*
X-105449D01*
X-105483Y29668D01*
X-105533Y29701D01*
X-105599Y29735D01*
X-105666Y29785D01*
X-105732Y29818D01*
X-105766Y29835D01*
X-105782Y29851D01*
X-105732Y30118D01*
X-105682Y30335D01*
X-105666Y30435D01*
Y30501D01*
X-105649Y30551D01*
Y30568D01*
X-105599Y30851D01*
X-105583Y30968D01*
X-105566Y31084D01*
Y31184D01*
X-105549Y31251D01*
Y31301D01*
Y31318D01*
X-105533Y31584D01*
Y31801D01*
X-105516Y31901D01*
Y31967D01*
Y32018D01*
Y32034D01*
X-105499Y32301D01*
Y32434D01*
Y32534D01*
Y32634D01*
Y32701D01*
Y32751D01*
Y32767D01*
X-105516Y33201D01*
X-105533Y33600D01*
X-105583Y33967D01*
X-105632Y34283D01*
X-105682Y34550D01*
X-105699Y34650D01*
X-105716Y34750D01*
X-105732Y34817D01*
X-105749Y34867D01*
X-105766Y34900D01*
Y34917D01*
X-105883Y35267D01*
X-106016Y35583D01*
X-106149Y35883D01*
X-106282Y36133D01*
X-106399Y36333D01*
X-106499Y36500D01*
X-106566Y36600D01*
X-106582Y36633D01*
X-106799Y36899D01*
X-107015Y37116D01*
X-107249Y37299D01*
X-107465Y37466D01*
X-107649Y37583D01*
X-107815Y37666D01*
X-107915Y37716D01*
X-107932Y37733D01*
X-107949D01*
X-108265Y37866D01*
X-108598Y37949D01*
X-108932Y38016D01*
X-109232Y38066D01*
X-109498Y38099D01*
X-109615D01*
X-109715Y38116D01*
X-110165D01*
X-110431Y38099D01*
X-110665Y38066D01*
X-110864Y38049D01*
X-111048Y38016D01*
X-111164Y37983D01*
X-111248Y37966D01*
X-111281D01*
X-111498Y37916D01*
X-111714Y37849D01*
X-111898Y37799D01*
X-112064Y37733D01*
X-112214Y37666D01*
X-112314Y37633D01*
X-112381Y37599D01*
X-112397Y37583D01*
X-112581Y37483D01*
X-112764Y37383D01*
X-112914Y37266D01*
X-113064Y37183D01*
X-113164Y37099D01*
X-113264Y37033D01*
X-113314Y36983D01*
X-113331Y36966D01*
X-113631Y36700D01*
X-113764Y36566D01*
X-113864Y36433D01*
X-113964Y36333D01*
X-114030Y36250D01*
X-114064Y36183D01*
X-114080Y36166D01*
X-114314Y35833D01*
X-114414Y35666D01*
X-114480Y35517D01*
X-114547Y35400D01*
X-114597Y35283D01*
X-114630Y35217D01*
X-114647Y35200D01*
X-114797Y34817D01*
X-114864Y34634D01*
X-114914Y34450D01*
X-114964Y34300D01*
X-114997Y34184D01*
X-115030Y34117D01*
Y34084D01*
X-115113Y33634D01*
X-115163Y33417D01*
X-115180Y33234D01*
X-115213Y33067D01*
X-115230Y32951D01*
X-115247Y32867D01*
Y32834D01*
X-115280Y32367D01*
X-115297Y32134D01*
Y31934D01*
X-115313Y31751D01*
Y31618D01*
Y31534D01*
Y31501D01*
Y31201D01*
X-115297Y30918D01*
Y30668D01*
X-115280Y30435D01*
X-115263Y30235D01*
Y30101D01*
X-115247Y30001D01*
Y29985D01*
Y29968D01*
X-115213Y29701D01*
X-115180Y29451D01*
X-115147Y29235D01*
X-115113Y29018D01*
X-115080Y28852D01*
X-115047Y28735D01*
X-115030Y28652D01*
Y28618D01*
X-114897Y28152D01*
X-114847Y27952D01*
X-114797Y27768D01*
X-114747Y27602D01*
X-114713Y27485D01*
X-114680Y27419D01*
Y27385D01*
X-114530Y26952D01*
X-114464Y26752D01*
X-114397Y26569D01*
X-114347Y26419D01*
X-114297Y26302D01*
X-114280Y26236D01*
X-114264Y26202D01*
X-114530Y26052D01*
X-114664Y25986D01*
X-114763Y25936D01*
X-114864Y25886D01*
X-114930Y25852D01*
X-114980Y25836D01*
X-114997Y25819D01*
X-115263Y25702D01*
X-115397Y25652D01*
X-115513Y25602D01*
X-115613Y25552D01*
X-115680Y25536D01*
X-115730Y25503D01*
X-115747D01*
X-116013Y25403D01*
X-116146Y25352D01*
X-116263Y25319D01*
X-116363Y25286D01*
X-116446Y25252D01*
X-116496Y25236D01*
X-116513D01*
X-116796Y25169D01*
X-116930Y25153D01*
X-117046Y25119D01*
X-117146Y25103D01*
X-117230D01*
X-117280Y25086D01*
X-117296D01*
X-117513Y25652D01*
X-117596Y25919D01*
X-117679Y26152D01*
X-117746Y26352D01*
X-117779Y26519D01*
X-117813Y26619D01*
X-117829Y26635D01*
Y26652D01*
X-117979Y27219D01*
X-118046Y27485D01*
X-118096Y27735D01*
X-118129Y27935D01*
X-118163Y28102D01*
X-118196Y28202D01*
Y28218D01*
Y28235D01*
X-118279Y28818D01*
X-118329Y29102D01*
X-118346Y29351D01*
X-118379Y29551D01*
X-118396Y29718D01*
Y29785D01*
X-118413Y29835D01*
Y29851D01*
Y29868D01*
X-118429Y30185D01*
X-118446Y30501D01*
X-118463Y30801D01*
Y31068D01*
X-118479Y31284D01*
Y31468D01*
Y31534D01*
Y31584D01*
Y31601D01*
Y31618D01*
Y32001D01*
X-118463Y32367D01*
X-118446Y32717D01*
X-118413Y33017D01*
X-118396Y33267D01*
Y33367D01*
X-118379Y33467D01*
Y33534D01*
X-118363Y33584D01*
Y33617D01*
Y33634D01*
X-118296Y34000D01*
X-118229Y34350D01*
X-118163Y34667D01*
X-118113Y34950D01*
X-118046Y35200D01*
X-117996Y35383D01*
X-117979Y35450D01*
Y35500D01*
X-117963Y35517D01*
Y35533D01*
X-117863Y35866D01*
X-117746Y36183D01*
X-117629Y36483D01*
X-117529Y36750D01*
X-117430Y36966D01*
X-117363Y37133D01*
X-117330Y37183D01*
X-117313Y37233D01*
X-117296Y37250D01*
Y37266D01*
X-117146Y37549D01*
X-116980Y37833D01*
X-116813Y38083D01*
X-116663Y38316D01*
X-116530Y38499D01*
X-116430Y38649D01*
X-116347Y38732D01*
X-116330Y38766D01*
X-116113Y39016D01*
X-115897Y39249D01*
X-115697Y39449D01*
X-115513Y39632D01*
X-115347Y39782D01*
X-115213Y39899D01*
X-115130Y39982D01*
X-115097Y39999D01*
X-114830Y40182D01*
X-114564Y40365D01*
X-114297Y40515D01*
X-114064Y40665D01*
X-113864Y40765D01*
X-113697Y40865D01*
X-113647Y40898D01*
X-113597Y40915D01*
X-113581Y40932D01*
X-113564D01*
X-113247Y41082D01*
X-112914Y41198D01*
X-112597Y41298D01*
X-112314Y41398D01*
X-112081Y41465D01*
X-111964Y41482D01*
X-111881Y41515D01*
X-111814Y41532D01*
X-111764D01*
X-111731Y41548D01*
X-111714D01*
X-111331Y41615D01*
X-110964Y41665D01*
X-110598Y41698D01*
X-110265Y41732D01*
X-109981D01*
X-109865Y41748D01*
X-109565D01*
X-109132Y41732D01*
D02*
G37*
%LPC*%
G36*
X-102483Y60610D02*
X-103366D01*
X-103866Y60577D01*
X-104333Y60560D01*
X-104533Y60543D01*
X-104733Y60527D01*
X-104916Y60510D01*
X-105066Y60493D01*
X-105199Y60477D01*
X-105316Y60460D01*
X-105416Y60444D01*
X-105483D01*
X-105516Y60427D01*
X-105533D01*
X-105982Y60360D01*
X-106399Y60277D01*
X-106782Y60194D01*
X-107099Y60110D01*
X-107365Y60044D01*
X-107482Y60010D01*
X-107582Y59977D01*
X-107649Y59960D01*
X-107699Y59944D01*
X-107732Y59927D01*
X-107749D01*
X-108115Y59794D01*
X-108448Y59660D01*
X-108748Y59510D01*
X-108998Y59394D01*
X-109215Y59277D01*
X-109382Y59177D01*
X-109481Y59110D01*
X-109498Y59094D01*
X-109515D01*
X-109798Y58911D01*
X-110048Y58711D01*
X-110281Y58527D01*
X-110481Y58361D01*
X-110648Y58211D01*
X-110765Y58078D01*
X-110831Y58011D01*
X-110864Y57977D01*
X-111081Y57744D01*
X-111264Y57494D01*
X-111431Y57261D01*
X-111581Y57044D01*
X-111698Y56861D01*
X-111798Y56728D01*
X-111848Y56628D01*
X-111864Y56611D01*
Y56595D01*
X-112014Y56311D01*
X-112148Y56028D01*
X-112247Y55745D01*
X-112347Y55495D01*
X-112414Y55278D01*
X-112464Y55111D01*
X-112497Y55045D01*
Y54995D01*
X-112514Y54978D01*
Y54962D01*
X-112597Y54628D01*
X-112681Y54295D01*
X-112747Y53995D01*
X-112797Y53712D01*
X-112831Y53462D01*
X-112864Y53279D01*
Y53212D01*
X-112881Y53162D01*
Y53129D01*
Y53112D01*
X-112947Y52396D01*
X-112964Y52046D01*
X-112981Y51746D01*
X-112997Y51479D01*
Y51363D01*
Y51262D01*
Y51179D01*
Y51129D01*
Y51096D01*
Y51079D01*
Y50779D01*
Y50646D01*
X-112981Y50529D01*
Y50429D01*
Y50346D01*
Y50296D01*
Y50279D01*
X-112964Y49996D01*
Y49863D01*
Y49746D01*
X-112947Y49663D01*
Y49580D01*
Y49530D01*
Y49513D01*
X-112914Y49230D01*
X-112897Y48980D01*
X-112881Y48763D01*
X-112864Y48580D01*
X-112847Y48447D01*
X-112831Y48347D01*
Y48280D01*
Y48263D01*
X-92969D01*
X-92936Y48497D01*
X-92919Y48713D01*
X-92902Y48797D01*
Y48863D01*
Y48913D01*
Y48930D01*
X-92869Y49213D01*
X-92852Y49330D01*
Y49446D01*
X-92836Y49546D01*
Y49630D01*
Y49680D01*
Y49696D01*
X-92819Y49996D01*
Y50113D01*
Y50246D01*
Y50329D01*
Y50413D01*
Y50463D01*
Y50479D01*
Y50746D01*
Y50879D01*
Y50979D01*
Y51063D01*
Y51146D01*
Y51179D01*
Y51196D01*
Y51579D01*
X-92836Y51946D01*
X-92869Y52279D01*
X-92886Y52579D01*
X-92919Y52829D01*
X-92936Y52945D01*
X-92952Y53029D01*
Y53095D01*
X-92969Y53145D01*
Y53179D01*
Y53195D01*
X-93019Y53545D01*
X-93086Y53878D01*
X-93152Y54195D01*
X-93219Y54462D01*
X-93269Y54695D01*
X-93319Y54862D01*
X-93336Y54928D01*
X-93352Y54978D01*
X-93369Y54995D01*
Y55012D01*
X-93469Y55328D01*
X-93586Y55628D01*
X-93702Y55911D01*
X-93819Y56145D01*
X-93919Y56345D01*
X-94002Y56494D01*
X-94052Y56595D01*
X-94069Y56628D01*
X-94235Y56894D01*
X-94419Y57161D01*
X-94602Y57394D01*
X-94769Y57594D01*
X-94902Y57761D01*
X-95019Y57894D01*
X-95085Y57961D01*
X-95119Y57994D01*
X-95352Y58211D01*
X-95602Y58427D01*
X-95818Y58611D01*
X-96035Y58777D01*
X-96218Y58911D01*
X-96368Y59011D01*
X-96468Y59077D01*
X-96485Y59094D01*
X-96502D01*
X-96802Y59277D01*
X-97101Y59444D01*
X-97401Y59577D01*
X-97668Y59694D01*
X-97885Y59794D01*
X-98068Y59860D01*
X-98134Y59894D01*
X-98184Y59910D01*
X-98218Y59927D01*
X-98234D01*
X-98601Y60044D01*
X-98968Y60144D01*
X-99334Y60227D01*
X-99651Y60310D01*
X-99934Y60360D01*
X-100051Y60377D01*
X-100151Y60394D01*
X-100234Y60410D01*
X-100301Y60427D01*
X-100351D01*
X-100784Y60493D01*
X-101217Y60527D01*
X-101634Y60560D01*
X-102017Y60594D01*
X-102350D01*
X-102483Y60610D01*
D02*
G37*
G36*
X-106649Y-15620D02*
X-106666D01*
Y-16570D01*
Y-17470D01*
Y-18303D01*
Y-19069D01*
Y-19786D01*
Y-20436D01*
Y-21019D01*
Y-21535D01*
Y-22002D01*
Y-22402D01*
Y-22752D01*
Y-23018D01*
Y-23235D01*
Y-23402D01*
Y-23485D01*
Y-23518D01*
X-105849Y-23268D01*
X-105066Y-23035D01*
X-104299Y-22819D01*
X-103566Y-22602D01*
X-102850Y-22385D01*
X-102167Y-22185D01*
X-101500Y-21985D01*
X-100867Y-21802D01*
X-100267Y-21619D01*
X-99684Y-21452D01*
X-99134Y-21286D01*
X-98601Y-21119D01*
X-98101Y-20969D01*
X-97618Y-20836D01*
X-97168Y-20702D01*
X-96735Y-20569D01*
X-96335Y-20452D01*
X-95968Y-20336D01*
X-95618Y-20236D01*
X-95285Y-20136D01*
X-95002Y-20052D01*
X-94719Y-19969D01*
X-94485Y-19903D01*
X-94252Y-19836D01*
X-94069Y-19769D01*
X-93902Y-19719D01*
X-93752Y-19686D01*
X-93636Y-19653D01*
X-93552Y-19619D01*
X-93486Y-19603D01*
X-93452Y-19586D01*
X-93436D01*
X-94252Y-19336D01*
X-95035Y-19103D01*
X-95802Y-18870D01*
X-96535Y-18653D01*
X-97251Y-18436D01*
X-97935Y-18236D01*
X-98601Y-18036D01*
X-99234Y-17853D01*
X-99834Y-17670D01*
X-100417Y-17486D01*
X-100967Y-17320D01*
X-101500Y-17170D01*
X-102000Y-17020D01*
X-102483Y-16870D01*
X-102933Y-16737D01*
X-103366Y-16603D01*
X-103766Y-16487D01*
X-104133Y-16370D01*
X-104483Y-16270D01*
X-104799Y-16170D01*
X-105099Y-16087D01*
X-105383Y-16004D01*
X-105616Y-15937D01*
X-105833Y-15870D01*
X-106032Y-15804D01*
X-106199Y-15754D01*
X-106349Y-15720D01*
X-106466Y-15687D01*
X-106549Y-15654D01*
X-106616Y-15637D01*
X-106649Y-15620D01*
D02*
G37*
%LPD*%
D23*
X-65922Y32380D02*
G03*
X-63382Y29840I2540J0D01*
G01*
X-46745D02*
G03*
X-44205Y32380I0J2540D01*
G01*
Y47620D02*
G03*
X-46745Y50160I-2540J0D01*
G01*
X-63382D02*
G03*
X-65922Y47620I0J-2540D01*
G01*
X-63382Y50160D02*
X-46745D01*
X-63382Y29840D02*
X-46745D01*
D24*
X-53500Y-83250D02*
X-46500D01*
X-43250Y-115500D02*
Y-104500D01*
X-56750Y-115500D02*
Y-104500D01*
Y-115500D02*
X-43250D01*
Y-95500D02*
Y-86500D01*
X-56750Y-95500D02*
Y-86500D01*
X-54750Y-84500D01*
X-55000Y-84750D02*
X-53500Y-83250D01*
X-46500D02*
X-44750Y-85000D01*
X-54750Y-84500D02*
X-45250D01*
X-43250Y-86500D01*
X16500Y-83250D02*
X23500D01*
X26750Y-115500D02*
Y-104500D01*
X13250Y-115500D02*
Y-104500D01*
Y-115500D02*
X26750D01*
Y-95500D02*
Y-86500D01*
X13250Y-95500D02*
Y-86500D01*
X15250Y-84500D01*
X15000Y-84750D02*
X16500Y-83250D01*
X23500D02*
X25250Y-85000D01*
X15250Y-84500D02*
X24750D01*
X26750Y-86500D01*
X-18500Y-83250D02*
X-11500D01*
X-8250Y-115500D02*
Y-104500D01*
X-21750Y-115500D02*
Y-104500D01*
Y-115500D02*
X-8250D01*
Y-95500D02*
Y-86500D01*
X-21750Y-95500D02*
Y-86500D01*
X-19750Y-84500D01*
X-20000Y-84750D02*
X-18500Y-83250D01*
X-11500D02*
X-9750Y-85000D01*
X-19750Y-84500D02*
X-10250D01*
X-8250Y-86500D01*
D26*
X82772Y-5112D02*
Y4885D01*
X77774D01*
X76108Y3219D01*
Y-114D01*
X77774Y-1780D01*
X82772D01*
X66111Y-5112D02*
X72775D01*
X66111Y1552D01*
Y3219D01*
X67777Y4885D01*
X71109D01*
X72775Y3219D01*
X-51551Y66479D02*
X-49885Y68145D01*
X-46553D01*
X-44887Y66479D01*
Y64812D01*
X-46553Y63146D01*
X-49885D01*
X-51551Y61480D01*
Y59814D01*
X-49885Y58148D01*
X-46553D01*
X-44887Y59814D01*
X-61548Y68145D02*
X-58216D01*
X-59882D01*
Y59814D01*
X-58216Y58148D01*
X-56550D01*
X-54884Y59814D01*
X-64880Y58148D02*
X-68213D01*
X-66547D01*
Y68145D01*
X-64880Y66479D01*
X-25863Y-121124D02*
X-35860D01*
Y-114459D01*
X-25863Y-104463D02*
Y-111127D01*
X-35860D01*
Y-104463D01*
X-30862Y-111127D02*
Y-107795D01*
X-25863Y-101130D02*
X-35860D01*
Y-96132D01*
X-34194Y-94466D01*
X-27529D01*
X-25863Y-96132D01*
Y-101130D01*
Y-84469D02*
X-27529Y-87801D01*
X-30862Y-91134D01*
X-34194D01*
X-35860Y-89467D01*
Y-86135D01*
X-34194Y-84469D01*
X-32528D01*
X-30862Y-86135D01*
Y-91134D01*
X44241Y-121124D02*
X34244D01*
Y-114459D01*
X44241Y-104463D02*
Y-111127D01*
X34244D01*
Y-104463D01*
X39242Y-111127D02*
Y-107795D01*
X44241Y-101130D02*
X34244D01*
Y-96132D01*
X35910Y-94466D01*
X42575D01*
X44241Y-96132D01*
Y-101130D01*
X34244Y-86135D02*
X44241D01*
X39242Y-91134D01*
Y-84469D01*
X9189Y-121124D02*
X-808D01*
Y-114459D01*
X9189Y-104463D02*
Y-111127D01*
X-808D01*
Y-104463D01*
X4190Y-111127D02*
Y-107795D01*
X9189Y-101130D02*
X-808D01*
Y-96132D01*
X858Y-94466D01*
X7523D01*
X9189Y-96132D01*
Y-101130D01*
Y-84469D02*
Y-91134D01*
X4190D01*
X5857Y-87801D01*
Y-86135D01*
X4190Y-84469D01*
X858D01*
X-808Y-86135D01*
Y-89467D01*
X858Y-91134D01*
D37*
X108000Y-49668D02*
Y-39671D01*
X104668Y-43003D01*
X101335Y-39671D01*
Y-49668D01*
X96337Y-43003D02*
X93005D01*
X91339Y-44669D01*
Y-49668D01*
X96337D01*
X98003Y-48002D01*
X96337Y-46336D01*
X91339D01*
X84674Y-53000D02*
X83008D01*
X81342Y-51334D01*
Y-43003D01*
X86340D01*
X88006Y-44669D01*
Y-48002D01*
X86340Y-49668D01*
X81342D01*
X78010D02*
Y-43003D01*
X73011D01*
X71345Y-44669D01*
Y-49668D01*
X63014D02*
X66347D01*
X68013Y-48002D01*
Y-44669D01*
X66347Y-43003D01*
X63014D01*
X61348Y-44669D01*
Y-46336D01*
X68013D01*
X56350Y-41337D02*
Y-43003D01*
X58016D01*
X54684D01*
X56350D01*
Y-48002D01*
X54684Y-49668D01*
X49686D02*
X46353D01*
X48019D01*
Y-43003D01*
X49686D01*
X34690D02*
X39689D01*
X41355Y-44669D01*
Y-48002D01*
X39689Y-49668D01*
X34690D01*
X21361Y-39671D02*
Y-49668D01*
X14697D01*
X11365D02*
X8032D01*
X9698D01*
Y-43003D01*
X11365D01*
X3034Y-49668D02*
Y-43003D01*
X-1964D01*
X-3631Y-44669D01*
Y-49668D01*
X-11961D02*
X-8629D01*
X-6963Y-48002D01*
Y-44669D01*
X-8629Y-43003D01*
X-11961D01*
X-13627Y-44669D01*
Y-46336D01*
X-6963D01*
X-18626Y-43003D02*
X-21958D01*
X-23624Y-44669D01*
Y-49668D01*
X-18626D01*
X-16960Y-48002D01*
X-18626Y-46336D01*
X-23624D01*
X-26957Y-43003D02*
Y-49668D01*
Y-46336D01*
X-28623Y-44669D01*
X-30289Y-43003D01*
X-31955D01*
X-53615Y-39671D02*
X-46950D01*
Y-49668D01*
X-53615D01*
X-46950Y-44669D02*
X-50282D01*
X-56947Y-49668D02*
Y-43003D01*
X-61945D01*
X-63611Y-44669D01*
Y-49668D01*
X-73608Y-43003D02*
X-68610D01*
X-66944Y-44669D01*
Y-48002D01*
X-68610Y-49668D01*
X-73608D01*
X-78607D02*
X-81939D01*
X-83605Y-48002D01*
Y-44669D01*
X-81939Y-43003D01*
X-78607D01*
X-76940Y-44669D01*
Y-48002D01*
X-78607Y-49668D01*
X-93602Y-39671D02*
Y-49668D01*
X-88603D01*
X-86937Y-48002D01*
Y-44669D01*
X-88603Y-43003D01*
X-93602D01*
X-101932Y-49668D02*
X-98600D01*
X-96934Y-48002D01*
Y-44669D01*
X-98600Y-43003D01*
X-101932D01*
X-103598Y-44669D01*
Y-46336D01*
X-96934D01*
X-106931Y-43003D02*
Y-49668D01*
Y-46336D01*
X-108597Y-44669D01*
X-110263Y-43003D01*
X-111929D01*
X108000Y-32538D02*
Y-25874D01*
X104668Y-22542D01*
X101335Y-25874D01*
Y-32538D01*
Y-27540D01*
X108000D01*
X91339Y-24208D02*
X93005Y-22542D01*
X96337D01*
X98003Y-24208D01*
Y-25874D01*
X96337Y-27540D01*
X93005D01*
X91339Y-29206D01*
Y-30872D01*
X93005Y-32538D01*
X96337D01*
X98003Y-30872D01*
X81342Y-22542D02*
X88006D01*
Y-27540D01*
X84674Y-25874D01*
X83008D01*
X81342Y-27540D01*
Y-30872D01*
X83008Y-32538D01*
X86340D01*
X88006Y-30872D01*
X78010Y-24208D02*
X76343Y-22542D01*
X73011D01*
X71345Y-24208D01*
Y-25874D01*
X73011Y-27540D01*
X74677D01*
X73011D01*
X71345Y-29206D01*
Y-30872D01*
X73011Y-32538D01*
X76343D01*
X78010Y-30872D01*
X68013Y-32538D02*
X64681D01*
X66347D01*
Y-22542D01*
X68013Y-24208D01*
X59682Y-32538D02*
X56350D01*
X58016D01*
Y-22542D01*
X59682Y-24208D01*
X41355Y-22542D02*
Y-32538D01*
X36356D01*
X34690Y-30872D01*
Y-29206D01*
X36356Y-27540D01*
X41355D01*
X36356D01*
X34690Y-25874D01*
Y-24208D01*
X36356Y-22542D01*
X41355D01*
X31358Y-25874D02*
Y-32538D01*
Y-29206D01*
X29692Y-27540D01*
X28026Y-25874D01*
X26360D01*
X16363Y-32538D02*
X19695D01*
X21361Y-30872D01*
Y-27540D01*
X19695Y-25874D01*
X16363D01*
X14697Y-27540D01*
Y-29206D01*
X21361D01*
X9698Y-25874D02*
X6366D01*
X4700Y-27540D01*
Y-32538D01*
X9698D01*
X11365Y-30872D01*
X9698Y-29206D01*
X4700D01*
X1368Y-32538D02*
Y-22542D01*
Y-29206D02*
X-3631Y-25874D01*
X1368Y-29206D02*
X-3631Y-32538D01*
X-10295D02*
X-13628D01*
X-15294Y-30872D01*
Y-27540D01*
X-13628Y-25874D01*
X-10295D01*
X-8629Y-27540D01*
Y-30872D01*
X-10295Y-32538D01*
X-18626Y-25874D02*
Y-30872D01*
X-20292Y-32538D01*
X-25290D01*
Y-25874D01*
X-30289Y-24208D02*
Y-25874D01*
X-28623D01*
X-31955D01*
X-30289D01*
Y-30872D01*
X-31955Y-32538D01*
X-46950Y-25874D02*
X-50282Y-32538D01*
X-53615Y-25874D01*
X-56947Y-32538D02*
X-60279D01*
X-58613D01*
Y-22542D01*
X-56947Y-24208D01*
X-65278Y-32538D02*
Y-30872D01*
X-66944D01*
Y-32538D01*
X-65278D01*
X-73608Y-24208D02*
X-75274Y-22542D01*
X-78607D01*
X-80273Y-24208D01*
Y-30872D01*
X-78607Y-32538D01*
X-75274D01*
X-73608Y-30872D01*
Y-24208D01*
X-56665Y115831D02*
X-54998Y117497D01*
X-51666D01*
X-50000Y115831D01*
Y109166D01*
X-51666Y107500D01*
X-54998D01*
X-56665Y109166D01*
Y112498D01*
X-53332D01*
X-59997Y107500D02*
Y117497D01*
X-66661Y107500D01*
Y117497D01*
X-69994D02*
Y107500D01*
X-74992D01*
X-76658Y109166D01*
Y115831D01*
X-74992Y117497D01*
X-69994D01*
X-37497Y67500D02*
X-30832D01*
X-27500Y64168D01*
X-30832Y60835D01*
X-37497D01*
X-35831Y50839D02*
X-37497Y52505D01*
Y55837D01*
X-35831Y57503D01*
X-29166D01*
X-27500Y55837D01*
Y52505D01*
X-29166Y50839D01*
X-35831Y40842D02*
X-37497Y42508D01*
Y45840D01*
X-35831Y47506D01*
X-29166D01*
X-27500Y45840D01*
Y42508D01*
X-29166Y40842D01*
X-10831Y60835D02*
X-12497Y62502D01*
Y65834D01*
X-10831Y67500D01*
X-4166D01*
X-2500Y65834D01*
Y62502D01*
X-4166Y60835D01*
X-10831Y50839D02*
X-12497Y52505D01*
Y55837D01*
X-10831Y57503D01*
X-9165D01*
X-7498Y55837D01*
Y52505D01*
X-5832Y50839D01*
X-4166D01*
X-2500Y52505D01*
Y55837D01*
X-4166Y57503D01*
X-2500Y47506D02*
X-12497D01*
X-2500Y40842D01*
X-12497D01*
X14169Y60835D02*
X12503Y62502D01*
Y65834D01*
X14169Y67500D01*
X20834D01*
X22500Y65834D01*
Y62502D01*
X20834Y60835D01*
X12503Y57503D02*
X22500D01*
Y50839D01*
X12503Y47506D02*
X22500D01*
X19168D01*
X12503Y40842D01*
X17502Y45840D01*
X22500Y40842D01*
X37503Y67500D02*
X47500D01*
Y62502D01*
X45834Y60835D01*
X39169D01*
X37503Y62502D01*
Y67500D01*
Y52505D02*
Y55837D01*
X39169Y57503D01*
X45834D01*
X47500Y55837D01*
Y52505D01*
X45834Y50839D01*
X39169D01*
X37503Y52505D01*
X-33331Y27500D02*
X-34997Y25834D01*
Y22502D01*
X-36663Y20835D01*
X45000Y20000D02*
Y26665D01*
X41668Y29997D01*
X38335Y26665D01*
Y20000D01*
Y24998D01*
X45000D01*
X-5000Y29997D02*
Y20000D01*
X-9998D01*
X-11665Y21666D01*
Y23332D01*
X-9998Y24998D01*
X-5000D01*
X-9998D01*
X-11665Y26665D01*
Y28331D01*
X-9998Y29997D01*
X-5000D01*
X15000D02*
X18332D01*
X16666D01*
Y20000D01*
X15000D01*
X18332D01*
M02*
