G04 Layer_Color=16711935*
%FSLAX44Y44*%
%MOMM*%
G71*
G01*
G75*
G04:AMPARAMS|DCode=35|XSize=1.2032mm|YSize=1.1032mm|CornerRadius=0.2141mm|HoleSize=0mm|Usage=FLASHONLY|Rotation=0.000|XOffset=0mm|YOffset=0mm|HoleType=Round|Shape=RoundedRectangle|*
%AMROUNDEDRECTD35*
21,1,1.2032,0.6750,0,0,0.0*
21,1,0.7750,1.1032,0,0,0.0*
1,1,0.4282,0.3875,-0.3375*
1,1,0.4282,-0.3875,-0.3375*
1,1,0.4282,-0.3875,0.3375*
1,1,0.4282,0.3875,0.3375*
%
%ADD35ROUNDEDRECTD35*%
%ADD36R,0.8382X1.4732*%
%ADD38R,1.2192X1.0668*%
%ADD39C,1.4032*%
%ADD40C,3.8032*%
%ADD41C,1.7032*%
%ADD42R,0.5000X0.4000*%
G04:AMPARAMS|DCode=43|XSize=1.6032mm|YSize=1.2032mm|CornerRadius=0.2266mm|HoleSize=0mm|Usage=FLASHONLY|Rotation=0.000|XOffset=0mm|YOffset=0mm|HoleType=Round|Shape=RoundedRectangle|*
%AMROUNDEDRECTD43*
21,1,1.6032,0.7500,0,0,0.0*
21,1,1.1500,1.2032,0,0,0.0*
1,1,0.4532,0.5750,-0.3750*
1,1,0.4532,-0.5750,-0.3750*
1,1,0.4532,-0.5750,0.3750*
1,1,0.4532,0.5750,0.3750*
%
%ADD43ROUNDEDRECTD43*%
%ADD44O,0.7532X1.8532*%
%ADD45O,1.8532X0.7532*%
%ADD46R,0.8032X1.7532*%
%ADD47R,1.4032X2.0032*%
D35*
X62000Y125500D02*
D03*
Y108500D02*
D03*
X205000Y170500D02*
D03*
Y187500D02*
D03*
X188000Y95500D02*
D03*
Y112500D02*
D03*
X188000Y128500D02*
D03*
Y145500D02*
D03*
D36*
X70000Y189000D02*
D03*
X80160D02*
D03*
X70000Y207000D02*
D03*
X80160D02*
D03*
D38*
X107474Y18250D02*
D03*
X142500D02*
D03*
X107474Y35890D02*
D03*
X142500D02*
D03*
D39*
X207600Y98600D02*
D03*
X233000D02*
D03*
X207600Y124000D02*
D03*
X233000D02*
D03*
X207600Y149400D02*
D03*
X233000D02*
D03*
D40*
X25000Y24000D02*
D03*
X225000D02*
D03*
Y224000D02*
D03*
X25000D02*
D03*
D41*
X16000Y162000D02*
D03*
Y136600D02*
D03*
Y111200D02*
D03*
Y85800D02*
D03*
D42*
X74579Y189000D02*
D03*
Y207000D02*
D03*
D43*
X180000Y208000D02*
D03*
Y190000D02*
D03*
D44*
X153000Y166000D02*
D03*
X145000D02*
D03*
X137000D02*
D03*
X129000D02*
D03*
X121000D02*
D03*
X113000D02*
D03*
X105000D02*
D03*
X97000D02*
D03*
Y82000D02*
D03*
X105000D02*
D03*
X113000D02*
D03*
X121000D02*
D03*
X129000D02*
D03*
X137000D02*
D03*
X145000D02*
D03*
X153000D02*
D03*
D45*
X83000Y152000D02*
D03*
Y144000D02*
D03*
Y136000D02*
D03*
Y128000D02*
D03*
Y120000D02*
D03*
Y112000D02*
D03*
Y104000D02*
D03*
Y96000D02*
D03*
X167000D02*
D03*
Y104000D02*
D03*
Y112000D02*
D03*
Y120000D02*
D03*
Y128000D02*
D03*
Y136000D02*
D03*
Y144000D02*
D03*
Y152000D02*
D03*
D46*
X142500Y199000D02*
D03*
X132500D02*
D03*
X122500D02*
D03*
X112500D02*
D03*
D47*
X155500Y238000D02*
D03*
X99500D02*
D03*
M02*
