G04 Layer_Color=65535*
%FSLAX44Y44*%
%MOMM*%
G71*
G01*
G75*
%ADD29C,0.2032*%
%ADD30C,0.1270*%
%ADD31C,0.2540*%
%ADD32C,0.1800*%
%ADD33C,0.1500*%
G36*
X100741Y77872D02*
X100975D01*
X101114Y77860D01*
X101184D01*
X101243Y77849D01*
X101359D01*
X101499Y77837D01*
X101522D01*
X101557Y77825D01*
X101604D01*
X101721Y77814D01*
X101849Y77791D01*
Y77779D01*
X101861Y77756D01*
X101872Y77721D01*
X101884Y77674D01*
X101907Y77604D01*
X101931Y77522D01*
X101966Y77441D01*
X102000Y77336D01*
X102070Y77091D01*
X102164Y76823D01*
X102257Y76508D01*
X102374Y76170D01*
X102490Y75809D01*
X102607Y75436D01*
X102735Y75039D01*
X102863Y74631D01*
X103131Y73827D01*
X103260Y73419D01*
X103388Y73034D01*
X103399Y73011D01*
X103423Y72941D01*
X103446Y72836D01*
X103493Y72696D01*
X103551Y72521D01*
X103621Y72311D01*
X103691Y72090D01*
X103772Y71833D01*
X103866Y71565D01*
X103959Y71285D01*
X104146Y70690D01*
X104344Y70096D01*
X104437Y69804D01*
X104530Y69513D01*
Y69501D01*
X104542Y69466D01*
X104565Y69396D01*
X104600Y69315D01*
X104624Y69210D01*
X104670Y69093D01*
X104717Y68965D01*
X104763Y68814D01*
X104868Y68487D01*
X104973Y68149D01*
X105090Y67787D01*
X105206Y67449D01*
Y67438D01*
X105218Y67414D01*
X105230Y67368D01*
X105253Y67298D01*
X105276Y67228D01*
X105311Y67135D01*
X105370Y66925D01*
X105451Y66680D01*
X105533Y66423D01*
X105615Y66167D01*
X105696Y65911D01*
X105708Y65887D01*
X105719Y65841D01*
X105743Y65759D01*
X105778Y65666D01*
X105813Y65549D01*
X105859Y65421D01*
X105941Y65164D01*
Y65153D01*
X105964Y65106D01*
X105988Y65048D01*
X106011Y64966D01*
X106046Y64873D01*
X106069Y64768D01*
X106139Y64558D01*
Y64546D01*
X106151Y64511D01*
X106174Y64465D01*
X106186Y64395D01*
X106244Y64243D01*
X106302Y64068D01*
Y64057D01*
X106314Y64033D01*
X106326Y63987D01*
X106349Y63940D01*
X106384Y63812D01*
X106419Y63672D01*
Y63660D01*
X106431Y63649D01*
X106454Y63579D01*
X106489Y63474D01*
X106536Y63346D01*
X106582Y63182D01*
X106641Y63019D01*
X106687Y62856D01*
X106746Y62693D01*
X106757Y62669D01*
X106769Y62611D01*
X106804Y62518D01*
X106850Y62390D01*
X106897Y62215D01*
X106967Y62005D01*
X107060Y61760D01*
X107154Y61469D01*
Y61457D01*
X107177Y61410D01*
X107200Y61340D01*
X107224Y61235D01*
X107259Y61119D01*
X107305Y60991D01*
X107352Y60839D01*
X107398Y60676D01*
X107410Y60652D01*
X107422Y60594D01*
X107457Y60501D01*
X107492Y60384D01*
X107538Y60233D01*
X107597Y60058D01*
X107655Y59871D01*
X107725Y59661D01*
X107702D01*
X107632Y59638D01*
X107538Y59626D01*
X107410Y59603D01*
X107340D01*
X107305Y59591D01*
X107189D01*
X107049Y59580D01*
X106932D01*
X106804Y59568D01*
X106571D01*
X106454Y59556D01*
X106104D01*
X105988Y59568D01*
X105766D01*
X105650Y59580D01*
X105591D01*
X105545Y59591D01*
X105428D01*
X105311Y59603D01*
X105288D01*
X105218Y59615D01*
X105113Y59638D01*
X105008Y59661D01*
Y59673D01*
X104997Y59685D01*
X104985Y59720D01*
X104973Y59766D01*
X104938Y59883D01*
X104892Y60034D01*
X104845Y60198D01*
X104787Y60384D01*
X104728Y60571D01*
X104670Y60757D01*
Y60781D01*
X104647Y60839D01*
X104624Y60921D01*
X104589Y61037D01*
X104554Y61154D01*
X104519Y61294D01*
X104472Y61434D01*
X104425Y61562D01*
Y61574D01*
X104414Y61608D01*
X104402Y61667D01*
X104379Y61737D01*
X104332Y61888D01*
X104274Y62040D01*
Y62052D01*
X104262Y62075D01*
X104250Y62110D01*
X104239Y62168D01*
X104216Y62285D01*
X104181Y62401D01*
Y62413D01*
X104169Y62425D01*
X104157Y62495D01*
X104122Y62599D01*
X104087Y62716D01*
X104052Y62833D01*
X104017Y62949D01*
X103982Y63031D01*
Y63066D01*
X103971Y63089D01*
X103959Y63112D01*
X103947Y63159D01*
X103936Y63217D01*
X103901Y63311D01*
X103866Y63450D01*
X103842Y63532D01*
X103807Y63625D01*
X103772Y63730D01*
X103738Y63847D01*
X96847D01*
Y63835D01*
X96824Y63777D01*
X96801Y63695D01*
X96766Y63590D01*
X96731Y63439D01*
X96672Y63252D01*
X96614Y63042D01*
X96544Y62798D01*
X96463Y62518D01*
X96369Y62215D01*
X96264Y61865D01*
X96159Y61492D01*
X96043Y61084D01*
X95915Y60641D01*
X95775Y60163D01*
X95623Y59661D01*
X95600D01*
X95565Y59650D01*
X95518Y59638D01*
X95413Y59626D01*
X95285Y59603D01*
X95262D01*
X95180Y59591D01*
X95087D01*
X94970Y59580D01*
X94865D01*
X94760Y59568D01*
X94527D01*
X94422Y59556D01*
X94084D01*
X93956Y59568D01*
X93735D01*
X93606Y59580D01*
X93583D01*
X93501Y59591D01*
X93408D01*
X93292Y59603D01*
X93268D01*
X93198Y59615D01*
X93105Y59638D01*
X93000Y59661D01*
Y59673D01*
X93012Y59696D01*
X93023Y59731D01*
X93035Y59778D01*
X93058Y59848D01*
X93082Y59930D01*
X93117Y60011D01*
X93152Y60116D01*
X93222Y60349D01*
X93315Y60629D01*
X93420Y60932D01*
X93525Y61270D01*
X93641Y61632D01*
X93770Y62017D01*
X93898Y62413D01*
X94026Y62809D01*
X94294Y63625D01*
X94422Y64022D01*
X94551Y64406D01*
Y64418D01*
X94562Y64430D01*
X94586Y64500D01*
X94609Y64605D01*
X94656Y64745D01*
X94714Y64931D01*
X94784Y65129D01*
X94854Y65363D01*
X94935Y65619D01*
X95029Y65887D01*
X95122Y66167D01*
X95308Y66761D01*
X95507Y67356D01*
X95600Y67659D01*
X95693Y67939D01*
Y67951D01*
X95705Y67986D01*
X95728Y68056D01*
X95763Y68137D01*
X95786Y68242D01*
X95833Y68359D01*
X95868Y68487D01*
X95926Y68639D01*
X96020Y68953D01*
X96136Y69292D01*
X96253Y69653D01*
X96358Y69991D01*
Y70003D01*
X96369Y70026D01*
X96381Y70073D01*
X96404Y70142D01*
X96428Y70212D01*
X96463Y70306D01*
X96532Y70516D01*
X96614Y70760D01*
X96696Y71017D01*
X96777Y71273D01*
X96859Y71530D01*
X96871Y71553D01*
X96882Y71600D01*
X96906Y71681D01*
X96941Y71786D01*
X96976Y71903D01*
X97022Y72031D01*
X97104Y72288D01*
Y72299D01*
X97127Y72346D01*
X97150Y72404D01*
X97174Y72486D01*
X97209Y72579D01*
X97232Y72672D01*
X97302Y72882D01*
Y72894D01*
X97314Y72929D01*
X97337Y72987D01*
X97360Y73046D01*
X97407Y73209D01*
X97465Y73384D01*
Y73395D01*
X97477Y73419D01*
X97489Y73465D01*
X97500Y73512D01*
X97547Y73640D01*
X97593Y73768D01*
Y73780D01*
X97605Y73792D01*
X97628Y73862D01*
X97652Y73967D01*
X97698Y74106D01*
X97745Y74258D01*
X97803Y74421D01*
X97850Y74584D01*
X97908Y74748D01*
X97920Y74771D01*
X97932Y74829D01*
X97967Y74923D01*
X98013Y75062D01*
X98071Y75237D01*
X98141Y75447D01*
X98223Y75692D01*
X98316Y75984D01*
Y75995D01*
X98340Y76042D01*
X98363Y76112D01*
X98386Y76205D01*
X98421Y76322D01*
X98468Y76462D01*
X98514Y76601D01*
X98561Y76765D01*
X98573Y76788D01*
X98584Y76846D01*
X98619Y76940D01*
X98666Y77056D01*
X98713Y77208D01*
X98771Y77382D01*
X98829Y77581D01*
X98899Y77791D01*
X98923D01*
X99004Y77802D01*
X99109Y77825D01*
X99237Y77837D01*
X99307D01*
X99354Y77849D01*
X99471D01*
X99610Y77860D01*
X99680D01*
X99727Y77872D01*
X100065D01*
X100123Y77884D01*
X100613D01*
X100741Y77872D01*
D02*
G37*
G36*
X142631Y75902D02*
X142666Y75844D01*
X142724Y75750D01*
X142806Y75622D01*
Y75610D01*
X142782Y75599D01*
X142771Y75564D01*
X142736Y75517D01*
X142689Y75447D01*
X142642Y75377D01*
X142584Y75284D01*
X142514Y75191D01*
X142444Y75074D01*
X142351Y74934D01*
X142258Y74794D01*
X142153Y74643D01*
X142048Y74468D01*
X141919Y74281D01*
X141791Y74083D01*
X141651Y73873D01*
X141500Y73652D01*
X141348Y73407D01*
X141185Y73162D01*
X141010Y72894D01*
X140824Y72614D01*
X140625Y72323D01*
X140427Y72008D01*
X140217Y71693D01*
X139996Y71355D01*
X139763Y71005D01*
X139529Y70644D01*
X139285Y70271D01*
X139028Y69886D01*
X138760Y69490D01*
X138480Y69070D01*
X138200Y68639D01*
X138212D01*
X138235Y68650D01*
X138294Y68662D01*
X138795D01*
X138947Y68650D01*
X139121Y68639D01*
X139308Y68615D01*
X139693Y68557D01*
X139716D01*
X139786Y68534D01*
X139879Y68510D01*
X140007Y68475D01*
X140147Y68440D01*
X140311Y68382D01*
X140649Y68254D01*
X140672Y68242D01*
X140719Y68219D01*
X140800Y68172D01*
X140905Y68114D01*
X141033Y68044D01*
X141162Y67962D01*
X141430Y67776D01*
X141441Y67764D01*
X141488Y67729D01*
X141558Y67671D01*
X141651Y67589D01*
X141745Y67508D01*
X141849Y67403D01*
X142071Y67158D01*
X142083Y67146D01*
X142118Y67100D01*
X142176Y67041D01*
X142234Y66948D01*
X142316Y66855D01*
X142397Y66727D01*
X142479Y66598D01*
X142561Y66458D01*
X142572Y66447D01*
X142596Y66389D01*
X142631Y66318D01*
X142689Y66225D01*
X142747Y66109D01*
X142806Y65969D01*
X142922Y65677D01*
X142934Y65654D01*
X142945Y65607D01*
X142969Y65526D01*
X143004Y65421D01*
X143039Y65304D01*
X143074Y65164D01*
X143132Y64861D01*
Y64850D01*
X143144Y64791D01*
X143155Y64710D01*
X143167Y64616D01*
X143179Y64488D01*
X143190Y64360D01*
X143202Y64057D01*
Y64045D01*
Y64022D01*
Y63975D01*
Y63917D01*
Y63847D01*
X143190Y63765D01*
Y63567D01*
X143167Y63334D01*
X143144Y63077D01*
X143109Y62821D01*
X143062Y62553D01*
Y62541D01*
X143050Y62518D01*
Y62483D01*
X143039Y62436D01*
X143015Y62378D01*
X143004Y62296D01*
X142957Y62133D01*
X142887Y61935D01*
X142817Y61713D01*
X142736Y61480D01*
X142631Y61259D01*
Y61247D01*
X142619Y61235D01*
X142607Y61200D01*
X142584Y61165D01*
X142514Y61049D01*
X142444Y60909D01*
X142339Y60746D01*
X142234Y60559D01*
X142106Y60373D01*
X141978Y60186D01*
X141966Y60163D01*
X141908Y60104D01*
X141826Y60011D01*
X141721Y59895D01*
X141593Y59766D01*
X141453Y59626D01*
X141290Y59475D01*
X141115Y59323D01*
X141092Y59312D01*
X141033Y59253D01*
X140928Y59183D01*
X140800Y59090D01*
X140637Y58985D01*
X140462Y58869D01*
X140264Y58752D01*
X140066Y58647D01*
X140054D01*
X140042Y58636D01*
X140007Y58624D01*
X139972Y58601D01*
X139856Y58554D01*
X139704Y58484D01*
X139518Y58414D01*
X139308Y58332D01*
X139086Y58251D01*
X138853Y58181D01*
X138842D01*
X138830Y58169D01*
X138795D01*
X138748Y58158D01*
X138620Y58123D01*
X138445Y58076D01*
X138247Y58041D01*
X138026Y57994D01*
X137781Y57948D01*
X137524Y57901D01*
X137489D01*
X137454Y57889D01*
X137408D01*
X137338Y57878D01*
X137268D01*
X137093Y57866D01*
X136883Y57843D01*
X136638Y57831D01*
X136382Y57819D01*
X135880D01*
X135729Y57831D01*
X135542D01*
X135332Y57843D01*
X135111Y57854D01*
X134889Y57866D01*
X134866D01*
X134831Y57878D01*
X134784D01*
X134668Y57889D01*
X134528Y57913D01*
X134353Y57924D01*
X134155Y57959D01*
X133747Y58018D01*
X133723D01*
X133653Y58041D01*
X133537Y58064D01*
X133397Y58088D01*
X133222Y58123D01*
X133036Y58169D01*
X132639Y58274D01*
X132628D01*
X132616Y58286D01*
X132546Y58309D01*
X132429Y58332D01*
X132289Y58379D01*
X132126Y58437D01*
X131940Y58496D01*
X131543Y58647D01*
Y58659D01*
X131555Y58694D01*
Y58752D01*
X131567Y58822D01*
X131590Y58904D01*
X131602Y58997D01*
X131648Y59195D01*
Y59207D01*
X131660Y59242D01*
X131683Y59300D01*
X131706Y59370D01*
X131730Y59452D01*
X131765Y59545D01*
X131835Y59731D01*
Y59743D01*
X131858Y59778D01*
X131870Y59825D01*
X131905Y59895D01*
X131940Y59976D01*
X131975Y60069D01*
X132056Y60256D01*
X132068Y60268D01*
X132080Y60303D01*
X132103Y60349D01*
X132138Y60419D01*
X132173Y60489D01*
X132219Y60582D01*
X132324Y60769D01*
X132348Y60757D01*
X132394Y60746D01*
X132476Y60711D01*
X132581Y60676D01*
X132709Y60629D01*
X132849Y60582D01*
X133152Y60478D01*
X133175D01*
X133222Y60454D01*
X133304Y60431D01*
X133420Y60396D01*
X133549Y60361D01*
X133688Y60326D01*
X134015Y60233D01*
X134038D01*
X134097Y60221D01*
X134178Y60198D01*
X134295Y60174D01*
X134446Y60151D01*
X134598Y60128D01*
X134773Y60104D01*
X134959Y60081D01*
X134983D01*
X135053Y60069D01*
X135146D01*
X135286Y60058D01*
X135449Y60046D01*
X135624D01*
X135822Y60034D01*
X136207D01*
X136335Y60046D01*
X136475D01*
X136638Y60058D01*
X136965Y60081D01*
X136988D01*
X137046Y60093D01*
X137128Y60104D01*
X137244Y60128D01*
X137373Y60139D01*
X137524Y60174D01*
X137839Y60233D01*
X137862D01*
X137909Y60256D01*
X137991Y60279D01*
X138096Y60314D01*
X138224Y60349D01*
X138352Y60396D01*
X138620Y60501D01*
X138632Y60512D01*
X138678Y60536D01*
X138760Y60571D01*
X138842Y60617D01*
X138947Y60664D01*
X139063Y60734D01*
X139296Y60897D01*
X139308Y60909D01*
X139355Y60932D01*
X139413Y60979D01*
X139483Y61049D01*
X139576Y61119D01*
X139669Y61212D01*
X139856Y61422D01*
X139868Y61434D01*
X139902Y61469D01*
X139949Y61539D01*
X140007Y61608D01*
X140066Y61713D01*
X140147Y61818D01*
X140217Y61947D01*
X140287Y62075D01*
X140299Y62086D01*
X140322Y62133D01*
X140346Y62203D01*
X140392Y62308D01*
X140439Y62425D01*
X140474Y62553D01*
X140520Y62704D01*
X140555Y62856D01*
Y62879D01*
X140567Y62937D01*
X140590Y63019D01*
X140614Y63147D01*
X140625Y63287D01*
X140649Y63450D01*
X140660Y63637D01*
Y63824D01*
Y63835D01*
Y63858D01*
Y63905D01*
Y63952D01*
X140649Y64022D01*
Y64103D01*
X140625Y64290D01*
X140590Y64500D01*
X140544Y64733D01*
X140485Y64966D01*
X140392Y65188D01*
Y65199D01*
X140380Y65211D01*
X140346Y65281D01*
X140287Y65398D01*
X140206Y65526D01*
X140089Y65677D01*
X139961Y65841D01*
X139809Y65992D01*
X139623Y66144D01*
X139599Y66155D01*
X139529Y66202D01*
X139413Y66272D01*
X139273Y66354D01*
X139098Y66447D01*
X138888Y66540D01*
X138667Y66633D01*
X138422Y66715D01*
X138410D01*
X138387Y66727D01*
X138352Y66738D01*
X138305Y66750D01*
X138235Y66761D01*
X138165Y66773D01*
X137979Y66808D01*
X137757Y66843D01*
X137501Y66878D01*
X137221Y66890D01*
X136918Y66901D01*
X136592D01*
X136405Y66890D01*
X136312D01*
X136242Y66878D01*
X136090D01*
X135904Y66866D01*
X135857D01*
X135810Y66855D01*
X135740D01*
X135659Y66843D01*
X135577Y66831D01*
X135379Y66796D01*
X135367D01*
X135332Y66785D01*
X135286D01*
X135216Y66773D01*
X135064Y66738D01*
X134878Y66703D01*
X134866Y66715D01*
X134854Y66738D01*
X134831Y66785D01*
X134796Y66831D01*
X134773Y66878D01*
X134749Y66913D01*
X134726Y66936D01*
Y66948D01*
Y66960D01*
X134703Y66983D01*
X134668Y67041D01*
Y67053D01*
X134679Y67065D01*
X134703Y67100D01*
X134738Y67146D01*
X134773Y67205D01*
X134819Y67274D01*
X134866Y67356D01*
X134936Y67461D01*
X135006Y67566D01*
X135076Y67694D01*
X135169Y67822D01*
X135262Y67974D01*
X135367Y68137D01*
X135472Y68312D01*
X135601Y68499D01*
X135729Y68697D01*
X135857Y68918D01*
X136009Y69140D01*
X136160Y69385D01*
X136312Y69630D01*
X136487Y69898D01*
X136661Y70177D01*
X136848Y70469D01*
X137035Y70772D01*
X137244Y71087D01*
X137454Y71425D01*
X137664Y71763D01*
X137897Y72125D01*
X138130Y72486D01*
X138364Y72871D01*
X138620Y73267D01*
X138877Y73675D01*
X132406D01*
Y73687D01*
X132394Y73722D01*
X132383Y73768D01*
X132371Y73838D01*
X132359Y73908D01*
X132348Y74001D01*
X132324Y74188D01*
Y74200D01*
Y74235D01*
X132313Y74293D01*
Y74363D01*
Y74456D01*
X132301Y74549D01*
Y74759D01*
Y74771D01*
Y74783D01*
Y74853D01*
Y74934D01*
Y75039D01*
Y75051D01*
Y75062D01*
X132313Y75132D01*
Y75226D01*
X132324Y75342D01*
Y75354D01*
Y75366D01*
X132336Y75436D01*
Y75529D01*
X132348Y75634D01*
Y75645D01*
X132359Y75657D01*
X132371Y75727D01*
X132383Y75820D01*
X132406Y75914D01*
X142619D01*
X142631Y75902D01*
D02*
G37*
G36*
X150034Y78047D02*
X150244Y78035D01*
X150489Y78024D01*
X150757Y78012D01*
X151048Y77989D01*
X151363Y77954D01*
X151701Y77907D01*
X152039Y77860D01*
X152401Y77802D01*
X152750Y77732D01*
X153112Y77651D01*
X153462Y77557D01*
X153800Y77453D01*
X153823Y77441D01*
X153881Y77429D01*
X153975Y77394D01*
X154091Y77336D01*
X154243Y77278D01*
X154429Y77196D01*
X154616Y77114D01*
X154837Y77009D01*
X155059Y76881D01*
X155304Y76753D01*
X155548Y76601D01*
X155793Y76438D01*
X156050Y76263D01*
X156294Y76077D01*
X156528Y75867D01*
X156761Y75645D01*
X156772Y75634D01*
X156807Y75587D01*
X156877Y75517D01*
X156959Y75424D01*
X157052Y75307D01*
X157169Y75167D01*
X157285Y75004D01*
X157425Y74818D01*
X157565Y74608D01*
X157717Y74386D01*
X157857Y74141D01*
X158008Y73885D01*
X158148Y73605D01*
X158288Y73314D01*
X158416Y73011D01*
X158533Y72696D01*
X158545Y72672D01*
X158556Y72614D01*
X158591Y72521D01*
X158626Y72393D01*
X158673Y72229D01*
X158720Y72031D01*
X158778Y71798D01*
X158836Y71542D01*
X158883Y71262D01*
X158941Y70959D01*
X158988Y70620D01*
X159034Y70271D01*
X159069Y69898D01*
X159104Y69513D01*
X159116Y69105D01*
X159128Y68685D01*
Y68674D01*
Y68662D01*
Y68627D01*
Y68580D01*
Y68522D01*
Y68452D01*
X159116Y68289D01*
X159104Y68079D01*
X159093Y67846D01*
X159081Y67578D01*
X159058Y67286D01*
X159023Y66971D01*
X158976Y66633D01*
X158929Y66295D01*
X158871Y65945D01*
X158801Y65596D01*
X158720Y65246D01*
X158626Y64896D01*
X158521Y64558D01*
X158510Y64535D01*
X158498Y64476D01*
X158463Y64383D01*
X158405Y64267D01*
X158346Y64115D01*
X158265Y63940D01*
X158172Y63742D01*
X158067Y63532D01*
X157950Y63311D01*
X157810Y63077D01*
X157659Y62833D01*
X157495Y62588D01*
X157320Y62343D01*
X157134Y62110D01*
X156924Y61877D01*
X156703Y61655D01*
X156691Y61643D01*
X156644Y61608D01*
X156586Y61550D01*
X156493Y61469D01*
X156376Y61375D01*
X156236Y61259D01*
X156073Y61142D01*
X155886Y61002D01*
X155677Y60874D01*
X155455Y60722D01*
X155210Y60582D01*
X154942Y60443D01*
X154662Y60303D01*
X154359Y60163D01*
X154044Y60046D01*
X153718Y59930D01*
X153695Y59918D01*
X153636Y59906D01*
X153531Y59883D01*
X153403Y59836D01*
X153228Y59801D01*
X153019Y59755D01*
X152785Y59696D01*
X152517Y59650D01*
X152226Y59591D01*
X151899Y59545D01*
X151561Y59487D01*
X151188Y59452D01*
X150803Y59417D01*
X150395Y59382D01*
X149976Y59370D01*
X149532Y59358D01*
X148786D01*
X148576Y59370D01*
X148250D01*
X148133Y59382D01*
X147982Y59393D01*
X147807Y59405D01*
X147609Y59417D01*
X147399Y59428D01*
X147189Y59452D01*
X147131D01*
X147096Y59463D01*
X146979Y59475D01*
X146839Y59487D01*
X146676Y59498D01*
X146490Y59510D01*
X146117Y59545D01*
X146093D01*
X146035Y59556D01*
X145930Y59568D01*
X145813Y59580D01*
X145662Y59591D01*
X145510Y59615D01*
X145184Y59661D01*
Y59673D01*
Y59696D01*
Y59731D01*
Y59778D01*
Y59848D01*
Y59930D01*
Y60011D01*
Y60116D01*
Y60349D01*
Y60629D01*
Y60932D01*
Y61270D01*
Y61632D01*
Y62017D01*
Y62413D01*
Y62809D01*
Y63625D01*
Y64022D01*
Y64406D01*
Y64418D01*
Y64430D01*
Y64500D01*
Y64605D01*
Y64745D01*
Y64931D01*
Y65129D01*
Y65363D01*
Y65619D01*
Y65887D01*
Y66167D01*
Y66761D01*
Y67356D01*
Y67659D01*
Y67939D01*
Y67951D01*
Y67986D01*
Y68056D01*
Y68137D01*
Y68242D01*
Y68359D01*
Y68487D01*
Y68639D01*
Y68953D01*
Y69292D01*
Y69653D01*
Y69991D01*
Y70003D01*
Y70026D01*
Y70073D01*
Y70142D01*
Y70212D01*
Y70306D01*
Y70516D01*
Y70760D01*
Y71017D01*
Y71273D01*
Y71530D01*
Y71553D01*
Y71600D01*
Y71681D01*
Y71786D01*
Y71903D01*
Y72031D01*
Y72288D01*
Y72299D01*
Y72346D01*
Y72404D01*
Y72486D01*
Y72579D01*
Y72672D01*
Y72882D01*
Y72894D01*
Y72929D01*
Y72987D01*
Y73046D01*
Y73209D01*
Y73372D01*
Y73384D01*
Y73407D01*
Y73454D01*
Y73500D01*
Y73629D01*
Y73768D01*
Y73780D01*
Y73792D01*
Y73862D01*
Y73967D01*
Y74106D01*
Y74258D01*
Y74421D01*
Y74584D01*
Y74748D01*
Y74771D01*
Y74829D01*
Y74923D01*
Y75062D01*
Y75237D01*
Y75447D01*
Y75692D01*
Y75984D01*
Y75995D01*
Y76042D01*
Y76112D01*
Y76205D01*
Y76322D01*
Y76462D01*
Y76601D01*
Y76765D01*
Y76788D01*
Y76846D01*
Y76928D01*
Y77056D01*
Y77208D01*
Y77382D01*
Y77581D01*
Y77791D01*
X145324D01*
X145382Y77802D01*
X145475Y77814D01*
X145592Y77825D01*
X145744Y77837D01*
X145895Y77849D01*
X146233Y77884D01*
X146257D01*
X146315Y77895D01*
X146408Y77907D01*
X146525Y77919D01*
X146676Y77930D01*
X146851Y77942D01*
X147049Y77965D01*
X147259Y77977D01*
X147317D01*
X147364Y77989D01*
X147481D01*
X147644Y78000D01*
X147819Y78012D01*
X148029Y78024D01*
X148250Y78035D01*
X148472Y78047D01*
X148681D01*
X148833Y78059D01*
X149871D01*
X150034Y78047D01*
D02*
G37*
G36*
X123066Y246509D02*
X123694D01*
X124371Y246461D01*
X125772Y246316D01*
X125868D01*
X126110Y246268D01*
X126545Y246171D01*
X127076Y246074D01*
X127801Y245929D01*
X128574Y245736D01*
X129492Y245495D01*
X130506Y245205D01*
X131569Y244818D01*
X132680Y244384D01*
X133840Y243900D01*
X135047Y243321D01*
X136303Y242693D01*
X137559Y241968D01*
X138767Y241147D01*
X139975Y240229D01*
X140023Y240180D01*
X140168Y240084D01*
X140410Y239891D01*
X140748Y239601D01*
X141135Y239263D01*
X141569Y238828D01*
X142052Y238345D01*
X142584Y237813D01*
X143163Y237185D01*
X143743Y236557D01*
X144371Y235833D01*
X144951Y235060D01*
X146159Y233369D01*
X147270Y231533D01*
Y231485D01*
X147318Y231340D01*
X147463Y231050D01*
X147560Y230856D01*
X147656Y230615D01*
Y230567D01*
X147705Y230518D01*
X147850Y230228D01*
X148043Y229939D01*
X148139Y229794D01*
X148188Y229697D01*
X148236Y229649D01*
X148285Y229455D01*
X148429Y229117D01*
X148574Y228731D01*
X148768Y228199D01*
X148961Y227620D01*
X149202Y226895D01*
X149444Y226122D01*
X149685Y225301D01*
X149927Y224383D01*
X150120Y223417D01*
X150314Y222402D01*
X150603Y220228D01*
X150652Y219117D01*
X150700Y217957D01*
Y217909D01*
Y217716D01*
Y217474D01*
Y217185D01*
X150652Y216556D01*
Y216267D01*
X150603Y215977D01*
Y215880D01*
Y215687D01*
X150555Y215349D01*
X150507Y214866D01*
X150410Y214286D01*
X150314Y213610D01*
X150169Y212836D01*
X149975Y211967D01*
X149782Y211049D01*
X149492Y210083D01*
X149202Y209020D01*
X148864Y207957D01*
X148429Y206894D01*
X147946Y205735D01*
X147415Y204624D01*
X146835Y203512D01*
X146787Y203464D01*
X146739Y203319D01*
X146594Y203126D01*
X146400Y202836D01*
X146159Y202450D01*
X145869Y202015D01*
X145531Y201580D01*
X145144Y201049D01*
X144226Y199937D01*
X143212Y198682D01*
X142052Y197474D01*
X140748Y196266D01*
X140651Y196169D01*
X140361Y195976D01*
X139927Y195638D01*
X139347Y195203D01*
X138622Y194672D01*
X137801Y194092D01*
X136883Y193512D01*
X135869Y192884D01*
X135772Y192836D01*
X135627Y192787D01*
X135434Y192643D01*
X135144Y192498D01*
X134806Y192353D01*
X134323Y192111D01*
X133743Y191821D01*
X133695D01*
X133550Y191725D01*
X133308Y191628D01*
X133018Y191532D01*
X132632Y191387D01*
X132149Y191242D01*
X131665Y191048D01*
X131086Y190855D01*
X130409Y190662D01*
X129733Y190469D01*
X128284Y190082D01*
X126690Y189792D01*
X125047Y189551D01*
X124854D01*
X124564Y189502D01*
X124177D01*
X123694Y189454D01*
X123066D01*
X122342Y189406D01*
X121230D01*
X120844Y189454D01*
X120312Y189502D01*
X119684Y189551D01*
X118960Y189647D01*
X118139Y189744D01*
X117221Y189889D01*
X116206Y190082D01*
X115143Y190324D01*
X114080Y190614D01*
X112921Y191000D01*
X111762Y191387D01*
X110554Y191821D01*
X109394Y192353D01*
X108187Y192981D01*
X108138Y193029D01*
X107897Y193126D01*
X107607Y193319D01*
X107172Y193609D01*
X106641Y193947D01*
X106061Y194333D01*
X105385Y194817D01*
X104660Y195396D01*
X103887Y195976D01*
X103114Y196652D01*
X102293Y197425D01*
X101471Y198247D01*
X100650Y199116D01*
X99829Y200034D01*
X99056Y201049D01*
X98331Y202111D01*
X98283Y202208D01*
X98138Y202450D01*
X97896Y202836D01*
X97558Y203368D01*
X97220Y204044D01*
X96785Y204865D01*
X96350Y205783D01*
X95916Y206846D01*
X95481Y207957D01*
X95046Y209165D01*
X94611Y210518D01*
X94273Y211870D01*
X93935Y213320D01*
X93693Y214817D01*
X93548Y216363D01*
X93500Y217957D01*
Y218006D01*
Y218151D01*
Y218344D01*
Y218634D01*
X93548Y218972D01*
Y219407D01*
X93597Y219938D01*
X93645Y220518D01*
Y220615D01*
X93693Y220856D01*
X93742Y221243D01*
X93790Y221774D01*
X93935Y222402D01*
X94080Y223175D01*
X94273Y223996D01*
X94466Y224914D01*
X94756Y225929D01*
X95046Y226992D01*
X95432Y228054D01*
X95867Y229214D01*
X96350Y230325D01*
X96930Y231485D01*
X97558Y232644D01*
X98235Y233755D01*
X98283Y233803D01*
X98331Y233900D01*
X98476Y234093D01*
X98621Y234335D01*
X98862Y234625D01*
X99104Y234963D01*
X99732Y235736D01*
X100505Y236654D01*
X101375Y237668D01*
X102389Y238683D01*
X103452Y239649D01*
X103549Y239697D01*
X103742Y239891D01*
X104128Y240180D01*
X104612Y240567D01*
X105239Y241002D01*
X106012Y241533D01*
X106834Y242065D01*
X107848Y242644D01*
X108911Y243224D01*
X110071Y243804D01*
X111327Y244384D01*
X112679Y244915D01*
X114080Y245398D01*
X115578Y245784D01*
X117124Y246123D01*
X118718Y246364D01*
X118815D01*
X119008Y246413D01*
X119298D01*
X119733Y246461D01*
X120168Y246509D01*
X120699D01*
X121762Y246558D01*
X122535D01*
X123066Y246509D01*
D02*
G37*
G36*
X157850Y246558D02*
X158092Y246364D01*
Y217764D01*
Y189213D01*
X157850Y189019D01*
X157657Y188826D01*
X130651D01*
Y188923D01*
Y189019D01*
Y189213D01*
X130603Y189357D01*
Y189599D01*
X130699Y189647D01*
X130893Y189744D01*
X130941D01*
X130989Y189792D01*
X131279Y189889D01*
X131714Y190034D01*
X132294Y190227D01*
X132970Y190469D01*
X133743Y190758D01*
X134564Y191097D01*
X135434Y191483D01*
X135530Y191532D01*
X135772Y191676D01*
X136159Y191870D01*
X136690Y192208D01*
X137318Y192594D01*
X138091Y193077D01*
X138912Y193657D01*
X139830Y194333D01*
X140748Y195058D01*
X141763Y195928D01*
X142729Y196846D01*
X143743Y197860D01*
X144758Y198923D01*
X145724Y200131D01*
X146642Y201387D01*
X147512Y202740D01*
X147560Y202836D01*
X147705Y203078D01*
X147898Y203416D01*
X148188Y203947D01*
X148478Y204575D01*
X148864Y205348D01*
X149202Y206266D01*
X149637Y207232D01*
X150024Y208295D01*
X150410Y209503D01*
X150748Y210711D01*
X151038Y212064D01*
X151328Y213465D01*
X151521Y214866D01*
X151666Y216363D01*
X151714Y217909D01*
Y217957D01*
Y218102D01*
Y218344D01*
Y218634D01*
Y219262D01*
X151666Y219552D01*
Y219842D01*
Y219890D01*
Y219938D01*
Y220083D01*
X151618Y220276D01*
X151570Y220760D01*
X151473Y221436D01*
X151328Y222257D01*
X151135Y223272D01*
X150893Y224335D01*
X150603Y225542D01*
X150217Y226798D01*
X149782Y228199D01*
X149202Y229600D01*
X148574Y231050D01*
X147801Y232499D01*
X146980Y233948D01*
X146014Y235446D01*
X144903Y236847D01*
X144806Y236944D01*
X144613Y237185D01*
X144226Y237572D01*
X143743Y238103D01*
X143163Y238731D01*
X142487Y239359D01*
X141714Y240084D01*
X140845Y240809D01*
X140796Y240857D01*
X140700Y240905D01*
X140555Y241050D01*
X140361Y241195D01*
X140120Y241388D01*
X139830Y241581D01*
X139105Y242113D01*
X138236Y242693D01*
X137318Y243321D01*
X136303Y243900D01*
X135289Y244432D01*
X135240Y244480D01*
X135096Y244528D01*
X134806Y244673D01*
X134468Y244867D01*
X133984Y245060D01*
X133405Y245301D01*
X132777Y245543D01*
X132004Y245833D01*
X131955D01*
X131859Y245881D01*
X131665Y245978D01*
Y246026D01*
Y246123D01*
X131762Y246364D01*
Y246413D01*
Y246509D01*
X131811Y246751D01*
X157657D01*
X157850Y246558D01*
D02*
G37*
G36*
X126926Y72871D02*
X127101D01*
X127451Y72847D01*
X127474D01*
X127533Y72836D01*
X127626Y72824D01*
X127754Y72812D01*
X127894Y72789D01*
X128057Y72766D01*
X128396Y72707D01*
X128419D01*
X128477Y72684D01*
X128570Y72672D01*
X128687Y72638D01*
X128827Y72614D01*
X128978Y72579D01*
X129282Y72498D01*
X129305D01*
X129352Y72474D01*
X129433Y72451D01*
X129538Y72428D01*
X129655Y72393D01*
X129783Y72346D01*
X130063Y72264D01*
Y72253D01*
Y72218D01*
X130051Y72171D01*
X130039Y72101D01*
X130016Y71938D01*
X129981Y71751D01*
Y71740D01*
X129969Y71705D01*
X129958Y71658D01*
X129946Y71600D01*
X129934Y71518D01*
X129911Y71437D01*
X129865Y71250D01*
Y71238D01*
X129853Y71203D01*
X129841Y71157D01*
X129830Y71098D01*
X129771Y70947D01*
X129713Y70772D01*
Y70760D01*
X129701Y70737D01*
X129678Y70690D01*
X129666Y70632D01*
X129608Y70492D01*
X129538Y70329D01*
X129526D01*
X129491Y70341D01*
X129433Y70364D01*
X129352Y70387D01*
X129258Y70422D01*
X129153Y70457D01*
X128920Y70527D01*
X128909D01*
X128862Y70539D01*
X128792Y70562D01*
X128699Y70586D01*
X128594Y70609D01*
X128477Y70644D01*
X128197Y70702D01*
X128186D01*
X128127Y70725D01*
X128057Y70737D01*
X127952Y70760D01*
X127836Y70784D01*
X127696Y70807D01*
X127404Y70854D01*
X127381D01*
X127335Y70865D01*
X127253D01*
X127148Y70877D01*
X127020Y70889D01*
X126868D01*
X126717Y70900D01*
X126390D01*
X126274Y70889D01*
X126134Y70877D01*
X125994Y70865D01*
X125679Y70819D01*
X125656D01*
X125609Y70807D01*
X125527Y70784D01*
X125423Y70749D01*
X125306Y70714D01*
X125178Y70679D01*
X124898Y70574D01*
X124886Y70562D01*
X124840Y70539D01*
X124781Y70504D01*
X124700Y70457D01*
X124618Y70387D01*
X124525Y70317D01*
X124443Y70224D01*
X124362Y70119D01*
X124350Y70108D01*
X124338Y70073D01*
X124303Y70003D01*
X124268Y69921D01*
X124233Y69816D01*
X124210Y69700D01*
X124187Y69560D01*
X124175Y69408D01*
Y69396D01*
Y69373D01*
Y69326D01*
X124187Y69280D01*
X124198Y69152D01*
X124222Y69012D01*
Y69000D01*
X124233Y68988D01*
X124257Y68907D01*
X124303Y68802D01*
X124362Y68685D01*
Y68674D01*
X124373Y68662D01*
X124420Y68592D01*
X124478Y68499D01*
X124560Y68405D01*
X124583Y68382D01*
X124641Y68324D01*
X124723Y68254D01*
X124840Y68172D01*
X124851D01*
X124863Y68161D01*
X124933Y68114D01*
X125038Y68044D01*
X125154Y67974D01*
X125166D01*
X125189Y67962D01*
X125224Y67939D01*
X125271Y67916D01*
X125388Y67869D01*
X125527Y67811D01*
X125539D01*
X125562Y67799D01*
X125597Y67787D01*
X125656Y67764D01*
X125784Y67717D01*
X125935Y67648D01*
X125947D01*
X125970Y67636D01*
X126017Y67624D01*
X126075Y67601D01*
X126215Y67554D01*
X126379Y67508D01*
X126390D01*
X126413Y67496D01*
X126460Y67484D01*
X126507Y67461D01*
X126635Y67414D01*
X126787Y67368D01*
X126938Y67309D01*
X127055Y67263D01*
X127101Y67251D01*
X127136Y67239D01*
X127160Y67228D01*
X127183D01*
X127218Y67216D01*
X127276Y67193D01*
X127369Y67170D01*
X127486Y67123D01*
X127498D01*
X127533Y67100D01*
X127591Y67088D01*
X127673Y67053D01*
X127754Y67030D01*
X127859Y66995D01*
X128069Y66913D01*
X128081D01*
X128116Y66890D01*
X128174Y66866D01*
X128244Y66831D01*
X128337Y66796D01*
X128431Y66750D01*
X128629Y66657D01*
X128640Y66645D01*
X128675Y66633D01*
X128734Y66598D01*
X128804Y66563D01*
X128967Y66458D01*
X129142Y66330D01*
X129153Y66318D01*
X129177Y66295D01*
X129223Y66260D01*
X129282Y66214D01*
X129422Y66097D01*
X129573Y65945D01*
X129585Y65934D01*
X129608Y65911D01*
X129643Y65864D01*
X129690Y65806D01*
X129795Y65666D01*
X129911Y65491D01*
X129923Y65479D01*
X129934Y65444D01*
X129969Y65398D01*
X130004Y65328D01*
X130051Y65246D01*
X130098Y65153D01*
X130203Y64943D01*
Y64931D01*
X130226Y64896D01*
X130238Y64826D01*
X130273Y64745D01*
X130296Y64651D01*
X130319Y64535D01*
X130366Y64290D01*
Y64278D01*
X130378Y64232D01*
X130389Y64150D01*
X130401Y64057D01*
X130412Y63940D01*
X130424Y63812D01*
X130436Y63672D01*
Y63520D01*
Y63497D01*
Y63439D01*
Y63346D01*
X130424Y63229D01*
X130412Y63101D01*
X130401Y62949D01*
X130343Y62623D01*
Y62599D01*
X130331Y62553D01*
X130308Y62471D01*
X130273Y62366D01*
X130238Y62238D01*
X130191Y62098D01*
X130063Y61807D01*
X130051Y61795D01*
X130028Y61748D01*
X129981Y61667D01*
X129934Y61574D01*
X129865Y61469D01*
X129783Y61352D01*
X129608Y61095D01*
X129596Y61084D01*
X129561Y61037D01*
X129503Y60979D01*
X129433Y60909D01*
X129340Y60816D01*
X129235Y60711D01*
X129107Y60606D01*
X128978Y60501D01*
X128967Y60489D01*
X128920Y60454D01*
X128850Y60408D01*
X128757Y60338D01*
X128640Y60268D01*
X128512Y60186D01*
X128361Y60104D01*
X128209Y60023D01*
X128186Y60011D01*
X128139Y59988D01*
X128057Y59953D01*
X127941Y59895D01*
X127813Y59848D01*
X127649Y59778D01*
X127486Y59720D01*
X127300Y59661D01*
X127276Y59650D01*
X127218Y59638D01*
X127113Y59615D01*
X126985Y59580D01*
X126833Y59533D01*
X126658Y59498D01*
X126460Y59463D01*
X126262Y59428D01*
X126239D01*
X126169Y59417D01*
X126064Y59405D01*
X125924Y59393D01*
X125761Y59382D01*
X125562Y59370D01*
X125353Y59358D01*
X124770D01*
X124595Y59370D01*
X124408D01*
X124000Y59393D01*
X123977D01*
X123907Y59405D01*
X123814D01*
X123685Y59428D01*
X123534Y59440D01*
X123371Y59463D01*
X123021Y59521D01*
X122998D01*
X122939Y59533D01*
X122858Y59556D01*
X122741Y59580D01*
X122601Y59603D01*
X122461Y59638D01*
X122147Y59720D01*
X122123D01*
X122077Y59731D01*
X121995Y59755D01*
X121878Y59790D01*
X121762Y59825D01*
X121622Y59860D01*
X121330Y59965D01*
Y59976D01*
Y60011D01*
X121342Y60058D01*
X121354Y60128D01*
X121365Y60279D01*
X121400Y60466D01*
Y60478D01*
X121412Y60512D01*
X121424Y60559D01*
X121435Y60629D01*
X121459Y60711D01*
X121482Y60792D01*
X121540Y60991D01*
Y61002D01*
X121552Y61037D01*
X121575Y61084D01*
X121599Y61142D01*
X121622Y61224D01*
X121645Y61305D01*
X121715Y61492D01*
Y61504D01*
X121727Y61539D01*
X121750Y61585D01*
X121773Y61655D01*
X121797Y61725D01*
X121832Y61818D01*
X121902Y62005D01*
X121913Y61993D01*
X121960Y61982D01*
X122030Y61958D01*
X122123Y61923D01*
X122228Y61877D01*
X122356Y61842D01*
X122625Y61748D01*
X122636D01*
X122694Y61737D01*
X122764Y61713D01*
X122858Y61690D01*
X122974Y61667D01*
X123114Y61632D01*
X123406Y61562D01*
X123429D01*
X123476Y61550D01*
X123557Y61539D01*
X123662Y61515D01*
X123790Y61504D01*
X123919Y61480D01*
X124222Y61445D01*
X124292D01*
X124373Y61434D01*
X124478D01*
X124607Y61422D01*
X124735D01*
X125038Y61410D01*
X125213D01*
X125306Y61422D01*
X125399D01*
X125597Y61434D01*
X125644D01*
X125702Y61445D01*
X125772Y61457D01*
X125854Y61469D01*
X125947Y61480D01*
X126145Y61527D01*
X126157D01*
X126192Y61539D01*
X126239Y61550D01*
X126309Y61574D01*
X126460Y61620D01*
X126635Y61690D01*
X126647D01*
X126670Y61702D01*
X126717Y61725D01*
X126775Y61748D01*
X126915Y61818D01*
X127066Y61900D01*
X127078D01*
X127101Y61923D01*
X127136Y61947D01*
X127183Y61982D01*
X127300Y62063D01*
X127416Y62180D01*
X127428Y62191D01*
X127439Y62203D01*
X127474Y62238D01*
X127509Y62285D01*
X127603Y62401D01*
X127696Y62530D01*
X127708Y62541D01*
X127719Y62564D01*
X127743Y62588D01*
X127766Y62634D01*
X127824Y62751D01*
X127882Y62902D01*
Y62914D01*
X127894Y62937D01*
Y62984D01*
X127906Y63031D01*
X127917Y63171D01*
X127929Y63334D01*
Y63346D01*
Y63380D01*
Y63427D01*
Y63497D01*
X127917Y63649D01*
X127894Y63812D01*
Y63824D01*
X127882Y63847D01*
X127871Y63882D01*
X127859Y63940D01*
X127813Y64057D01*
X127743Y64173D01*
Y64185D01*
X127731Y64197D01*
X127684Y64278D01*
X127614Y64372D01*
X127521Y64476D01*
Y64488D01*
X127498Y64500D01*
X127439Y64558D01*
X127358Y64640D01*
X127241Y64733D01*
X127230D01*
X127218Y64756D01*
X127183Y64768D01*
X127136Y64803D01*
X127020Y64861D01*
X126891Y64943D01*
X126880D01*
X126868Y64955D01*
X126833Y64978D01*
X126787Y65001D01*
X126670Y65059D01*
X126518Y65129D01*
X126507D01*
X126483Y65141D01*
X126437Y65164D01*
X126390Y65176D01*
X126250Y65223D01*
X126087Y65281D01*
X126075D01*
X126052Y65293D01*
X126005Y65316D01*
X125935Y65328D01*
X125784Y65374D01*
X125609Y65433D01*
X125597D01*
X125586Y65444D01*
X125504Y65467D01*
X125399Y65514D01*
X125283Y65549D01*
X125166Y65596D01*
X125073Y65631D01*
X125026Y65654D01*
X125003D01*
X124991Y65666D01*
X124968Y65677D01*
X124945Y65689D01*
X124898Y65701D01*
X124816Y65736D01*
X124723Y65771D01*
X124711D01*
X124688Y65782D01*
X124641Y65806D01*
X124595Y65817D01*
X124525Y65852D01*
X124443Y65887D01*
X124257Y65957D01*
X124035Y66050D01*
X123802Y66167D01*
X123569Y66283D01*
X123336Y66412D01*
X123324D01*
X123312Y66423D01*
X123242Y66470D01*
X123138Y66540D01*
X122998Y66633D01*
X122846Y66738D01*
X122694Y66855D01*
X122531Y66983D01*
X122391Y67123D01*
X122380Y67146D01*
X122333Y67193D01*
X122263Y67274D01*
X122182Y67379D01*
X122088Y67508D01*
X121995Y67659D01*
X121913Y67834D01*
X121832Y68021D01*
Y68032D01*
X121820Y68044D01*
X121808Y68114D01*
X121773Y68207D01*
X121750Y68347D01*
X121715Y68522D01*
X121680Y68709D01*
X121669Y68918D01*
X121657Y69152D01*
Y69163D01*
Y69187D01*
Y69233D01*
Y69303D01*
X121669Y69373D01*
Y69466D01*
X121692Y69665D01*
X121727Y69909D01*
X121785Y70166D01*
X121855Y70434D01*
X121960Y70690D01*
Y70702D01*
X121972Y70725D01*
X121995Y70760D01*
X122018Y70807D01*
X122088Y70935D01*
X122193Y71098D01*
X122321Y71285D01*
X122473Y71483D01*
X122660Y71681D01*
X122881Y71880D01*
X122893Y71891D01*
X122904Y71903D01*
X122939Y71926D01*
X122998Y71961D01*
X123056Y72008D01*
X123126Y72055D01*
X123301Y72160D01*
X123522Y72288D01*
X123779Y72416D01*
X124070Y72533D01*
X124397Y72638D01*
X124408D01*
X124443Y72649D01*
X124490Y72661D01*
X124560Y72672D01*
X124641Y72696D01*
X124746Y72719D01*
X124863Y72742D01*
X124991Y72766D01*
X125143Y72777D01*
X125294Y72801D01*
X125469Y72824D01*
X125656Y72847D01*
X126040Y72871D01*
X126472Y72882D01*
X126787D01*
X126926Y72871D01*
D02*
G37*
G36*
X127540Y28000D02*
X125000D01*
Y30540D01*
X127540D01*
Y28000D01*
D02*
G37*
G36*
X118416Y72684D02*
X118521Y72672D01*
X118719D01*
X118835Y72661D01*
X118894D01*
X118940Y72649D01*
X119045D01*
X119162Y72638D01*
X119185D01*
X119255Y72626D01*
X119348Y72614D01*
X119453Y72591D01*
Y72568D01*
Y72509D01*
Y72404D01*
Y72276D01*
Y72113D01*
Y71915D01*
Y71705D01*
Y71472D01*
Y71227D01*
Y70959D01*
Y70411D01*
Y69851D01*
Y69303D01*
Y69292D01*
Y69245D01*
Y69163D01*
Y69070D01*
Y68953D01*
Y68802D01*
Y68650D01*
Y68475D01*
Y68289D01*
Y68102D01*
Y67694D01*
Y67286D01*
Y66890D01*
Y66878D01*
Y66855D01*
Y66808D01*
Y66750D01*
Y66680D01*
Y66598D01*
Y66400D01*
Y66179D01*
Y65934D01*
Y65689D01*
Y65444D01*
Y65433D01*
Y65421D01*
Y65386D01*
Y65339D01*
Y65234D01*
Y65083D01*
Y64920D01*
Y64745D01*
Y64558D01*
Y64383D01*
Y64372D01*
Y64337D01*
Y64278D01*
Y64220D01*
Y64045D01*
Y63870D01*
Y63858D01*
Y63835D01*
Y63789D01*
Y63730D01*
Y63590D01*
Y63450D01*
Y63439D01*
Y63415D01*
Y63380D01*
Y63334D01*
Y63229D01*
Y63112D01*
Y63101D01*
Y63089D01*
Y63031D01*
Y62937D01*
Y62833D01*
Y62821D01*
Y62774D01*
Y62693D01*
Y62611D01*
Y62506D01*
Y62390D01*
Y62168D01*
Y62156D01*
Y62110D01*
Y62052D01*
Y61947D01*
Y61830D01*
Y61678D01*
Y61504D01*
Y61305D01*
Y61294D01*
Y61270D01*
Y61212D01*
Y61154D01*
Y61072D01*
Y60979D01*
Y60769D01*
Y60757D01*
Y60711D01*
Y60652D01*
Y60559D01*
Y60454D01*
Y60338D01*
Y60198D01*
Y60058D01*
X119430D01*
X119372Y60034D01*
X119290Y60011D01*
X119173Y59988D01*
X119022Y59953D01*
X118859Y59906D01*
X118684Y59860D01*
X118497Y59813D01*
X118474D01*
X118404Y59790D01*
X118299Y59766D01*
X118148Y59743D01*
X117984Y59708D01*
X117786Y59661D01*
X117576Y59626D01*
X117343Y59580D01*
X117320D01*
X117285Y59568D01*
X117238D01*
X117122Y59545D01*
X116958Y59521D01*
X116772Y59487D01*
X116562Y59463D01*
X116341Y59428D01*
X116107Y59405D01*
X116049D01*
X116002Y59393D01*
X115874D01*
X115711Y59382D01*
X115513Y59370D01*
X115303D01*
X115070Y59358D01*
X114603D01*
X114440Y59370D01*
X114254D01*
X114055Y59382D01*
X113834Y59393D01*
X113612Y59405D01*
X113589D01*
X113554Y59417D01*
X113519D01*
X113403Y59428D01*
X113263Y59452D01*
X113088Y59475D01*
X112890Y59498D01*
X112691Y59533D01*
X112481Y59568D01*
X112458D01*
X112388Y59591D01*
X112283Y59615D01*
X112155Y59650D01*
X111992Y59696D01*
X111817Y59755D01*
X111444Y59895D01*
X111421Y59906D01*
X111362Y59930D01*
X111269Y59988D01*
X111152Y60046D01*
X111012Y60128D01*
X110861Y60221D01*
X110709Y60326D01*
X110546Y60443D01*
X110523Y60454D01*
X110476Y60501D01*
X110395Y60571D01*
X110301Y60664D01*
X110185Y60781D01*
X110068Y60921D01*
X109940Y61072D01*
X109812Y61235D01*
X109800Y61259D01*
X109753Y61317D01*
X109695Y61410D01*
X109614Y61539D01*
X109520Y61690D01*
X109427Y61865D01*
X109334Y62075D01*
X109240Y62285D01*
Y62296D01*
X109229Y62308D01*
X109217Y62343D01*
X109205Y62390D01*
X109159Y62518D01*
X109112Y62681D01*
X109054Y62879D01*
X108996Y63112D01*
X108937Y63380D01*
X108891Y63660D01*
Y63672D01*
Y63695D01*
X108879Y63742D01*
X108867Y63800D01*
X108856Y63870D01*
Y63952D01*
X108844Y64057D01*
X108832Y64173D01*
X108809Y64430D01*
X108786Y64721D01*
X108774Y65048D01*
X108762Y65409D01*
Y65421D01*
Y65456D01*
Y65514D01*
Y65596D01*
Y65689D01*
Y65794D01*
Y65922D01*
Y66050D01*
Y66342D01*
Y66668D01*
Y66983D01*
Y67298D01*
Y67309D01*
Y67333D01*
Y67379D01*
Y67426D01*
Y67496D01*
Y67578D01*
Y67764D01*
Y67986D01*
Y68219D01*
Y68452D01*
Y68685D01*
Y68709D01*
Y68767D01*
Y68848D01*
Y68953D01*
Y69082D01*
Y69222D01*
Y69501D01*
Y69513D01*
Y69560D01*
Y69618D01*
Y69700D01*
Y69793D01*
Y69898D01*
Y70108D01*
Y70119D01*
Y70142D01*
Y70189D01*
Y70236D01*
Y70376D01*
Y70551D01*
Y70725D01*
Y70889D01*
Y71029D01*
Y71087D01*
Y71133D01*
Y71145D01*
Y71168D01*
Y71227D01*
Y71297D01*
Y71402D01*
Y71530D01*
Y71693D01*
Y71880D01*
Y71891D01*
Y71903D01*
Y71961D01*
Y72066D01*
Y72183D01*
Y72194D01*
Y72218D01*
Y72253D01*
Y72299D01*
Y72428D01*
Y72591D01*
X108797D01*
X108856Y72603D01*
X108926Y72614D01*
X109007D01*
X109112Y72626D01*
X109240Y72649D01*
X109392Y72661D01*
X109462D01*
X109509Y72672D01*
X109742D01*
X109812Y72684D01*
X109905Y72696D01*
X110091D01*
X110185Y72684D01*
X110290Y72672D01*
X110511D01*
X110639Y72661D01*
X110663D01*
X110744Y72649D01*
X110849D01*
X110966Y72638D01*
X110989D01*
X111059Y72626D01*
X111152Y72614D01*
X111269Y72591D01*
Y72579D01*
Y72544D01*
Y72486D01*
Y72416D01*
Y72323D01*
Y72218D01*
Y72090D01*
Y71961D01*
Y71670D01*
Y71355D01*
Y71040D01*
Y70725D01*
Y70714D01*
Y70690D01*
Y70655D01*
Y70597D01*
Y70527D01*
Y70446D01*
Y70259D01*
Y70049D01*
Y69816D01*
Y69583D01*
Y69350D01*
Y69326D01*
Y69280D01*
Y69187D01*
Y69082D01*
Y68965D01*
Y68825D01*
Y68557D01*
Y68545D01*
Y68499D01*
Y68440D01*
Y68359D01*
Y68266D01*
Y68161D01*
Y67962D01*
Y67951D01*
Y67927D01*
Y67881D01*
Y67834D01*
Y67694D01*
Y67531D01*
Y67356D01*
Y67193D01*
Y67053D01*
Y66995D01*
Y66948D01*
Y66936D01*
Y66913D01*
Y66855D01*
Y66785D01*
Y66680D01*
Y66563D01*
Y66412D01*
Y66225D01*
Y66214D01*
Y66202D01*
Y66132D01*
Y66039D01*
Y65911D01*
Y65899D01*
Y65876D01*
Y65841D01*
Y65794D01*
Y65666D01*
Y65502D01*
Y65491D01*
Y65479D01*
Y65444D01*
Y65398D01*
Y65293D01*
X111281Y65141D01*
Y64966D01*
X111292Y64780D01*
X111316Y64395D01*
Y64372D01*
X111327Y64313D01*
X111339Y64220D01*
X111362Y64103D01*
X111386Y63963D01*
X111409Y63812D01*
X111490Y63509D01*
Y63485D01*
X111514Y63439D01*
X111537Y63369D01*
X111560Y63264D01*
X111607Y63159D01*
X111654Y63042D01*
X111770Y62798D01*
X111782Y62786D01*
X111805Y62751D01*
X111840Y62693D01*
X111887Y62611D01*
X112015Y62436D01*
X112167Y62250D01*
X112178Y62238D01*
X112213Y62215D01*
X112260Y62168D01*
X112318Y62121D01*
X112388Y62063D01*
X112481Y62005D01*
X112668Y61877D01*
X112680Y61865D01*
X112715Y61853D01*
X112773Y61818D01*
X112855Y61783D01*
X112948Y61748D01*
X113053Y61702D01*
X113286Y61632D01*
X113298D01*
X113344Y61620D01*
X113403Y61597D01*
X113496Y61585D01*
X113601Y61562D01*
X113717Y61539D01*
X113846Y61515D01*
X113986Y61492D01*
X114055D01*
X114125Y61480D01*
X114230D01*
X114347Y61469D01*
X114487D01*
X114790Y61457D01*
X115023D01*
X115186Y61469D01*
X115373D01*
X115571Y61480D01*
X115979Y61515D01*
X116002D01*
X116072Y61527D01*
X116177Y61550D01*
X116317Y61574D01*
X116469Y61597D01*
X116644Y61632D01*
X116993Y61725D01*
Y61748D01*
Y61795D01*
Y61888D01*
Y61993D01*
Y62133D01*
Y62308D01*
Y62483D01*
Y62693D01*
Y62902D01*
Y63136D01*
Y63614D01*
Y64092D01*
Y64570D01*
Y64581D01*
Y64628D01*
Y64686D01*
Y64780D01*
Y64885D01*
Y65001D01*
Y65141D01*
Y65293D01*
Y65631D01*
Y65980D01*
Y66342D01*
Y66692D01*
Y66703D01*
Y66727D01*
Y66761D01*
Y66808D01*
Y66948D01*
Y67111D01*
Y67309D01*
Y67519D01*
Y67729D01*
Y67939D01*
Y67951D01*
Y67962D01*
Y68032D01*
Y68126D01*
Y68254D01*
Y68394D01*
Y68545D01*
Y68697D01*
Y68848D01*
Y68860D01*
Y68895D01*
Y68942D01*
Y69000D01*
Y69140D01*
Y69292D01*
Y69303D01*
Y69326D01*
Y69361D01*
Y69408D01*
Y69525D01*
Y69653D01*
Y69665D01*
Y69676D01*
Y69711D01*
Y69758D01*
Y69874D01*
Y70014D01*
Y70166D01*
Y70317D01*
Y70469D01*
Y70586D01*
Y70597D01*
Y70644D01*
Y70702D01*
Y70807D01*
Y70924D01*
Y71087D01*
Y71285D01*
Y71507D01*
Y71518D01*
Y71542D01*
Y71588D01*
Y71646D01*
Y71716D01*
Y71798D01*
Y71973D01*
Y71985D01*
Y72020D01*
Y72078D01*
Y72148D01*
Y72241D01*
Y72346D01*
Y72463D01*
Y72591D01*
X117017D01*
X117075Y72603D01*
X117168Y72626D01*
X117285Y72638D01*
X117308D01*
X117378Y72649D01*
X117483D01*
X117611Y72661D01*
X117635D01*
X117716Y72672D01*
X117949D01*
X118019Y72684D01*
X118113Y72696D01*
X118322D01*
X118416Y72684D01*
D02*
G37*
%LPC*%
G36*
X100287Y75342D02*
Y75331D01*
X100275Y75307D01*
X100263Y75261D01*
X100240Y75202D01*
X100217Y75121D01*
X100193Y75016D01*
X100158Y74899D01*
X100112Y74771D01*
X100065Y74608D01*
X100019Y74445D01*
X99960Y74246D01*
X99902Y74048D01*
X99832Y73815D01*
X99762Y73570D01*
X99680Y73314D01*
X99599Y73034D01*
X99506Y72731D01*
X99412Y72416D01*
X99319Y72078D01*
X99214Y71728D01*
X99097Y71355D01*
X98981Y70970D01*
X98864Y70562D01*
X98736Y70142D01*
X98608Y69700D01*
X98468Y69233D01*
X98328Y68755D01*
X98176Y68254D01*
X98025Y67741D01*
X97873Y67205D01*
X97710Y66657D01*
X97535Y66085D01*
X103061D01*
Y66097D01*
X103050Y66120D01*
X103038Y66167D01*
X103015Y66225D01*
X102991Y66307D01*
X102968Y66412D01*
X102933Y66528D01*
X102886Y66668D01*
X102840Y66820D01*
X102793Y66983D01*
X102735Y67181D01*
X102677Y67391D01*
X102607Y67613D01*
X102537Y67857D01*
X102455Y68114D01*
X102374Y68394D01*
X102280Y68697D01*
X102187Y69012D01*
X102082Y69350D01*
X101977Y69700D01*
X101872Y70073D01*
X101756Y70457D01*
X101627Y70865D01*
X101499Y71285D01*
X101371Y71728D01*
X101231Y72194D01*
X101091Y72672D01*
X100940Y73174D01*
X100788Y73687D01*
X100625Y74223D01*
X100462Y74771D01*
X100287Y75342D01*
D02*
G37*
G36*
X150080Y75774D02*
X148973D01*
X148763Y75762D01*
X148658D01*
X148588Y75750D01*
X148507D01*
X148425Y75739D01*
X148227Y75715D01*
X148133D01*
X148075Y75704D01*
X147924Y75692D01*
X147760Y75669D01*
Y75645D01*
Y75575D01*
Y75470D01*
Y75319D01*
Y75144D01*
Y74934D01*
Y74689D01*
Y74433D01*
Y74153D01*
Y73862D01*
Y73255D01*
Y72626D01*
Y72323D01*
Y72020D01*
Y72008D01*
Y71950D01*
Y71868D01*
Y71763D01*
Y71623D01*
Y71472D01*
Y71297D01*
Y71098D01*
Y70900D01*
Y70679D01*
Y70224D01*
Y69770D01*
Y69326D01*
Y69315D01*
Y69292D01*
Y69245D01*
Y69175D01*
Y69093D01*
Y69012D01*
Y68790D01*
Y68545D01*
Y68289D01*
Y68009D01*
Y67752D01*
Y67741D01*
Y67717D01*
Y67683D01*
Y67636D01*
Y67508D01*
Y67356D01*
Y67170D01*
Y66971D01*
Y66773D01*
Y66575D01*
Y66563D01*
Y66517D01*
Y66458D01*
Y66389D01*
Y66295D01*
Y66202D01*
Y66004D01*
Y65992D01*
Y65957D01*
Y65911D01*
Y65841D01*
Y65689D01*
Y65537D01*
Y65526D01*
Y65502D01*
Y65467D01*
Y65409D01*
Y65293D01*
Y65164D01*
Y65153D01*
Y65141D01*
Y65059D01*
Y64955D01*
Y64850D01*
Y64826D01*
Y64780D01*
Y64698D01*
Y64605D01*
Y64488D01*
Y64360D01*
Y64103D01*
Y64092D01*
Y64045D01*
Y63963D01*
Y63858D01*
Y63730D01*
Y63567D01*
Y63380D01*
Y63159D01*
Y63147D01*
Y63112D01*
Y63054D01*
Y62984D01*
Y62891D01*
Y62798D01*
Y62564D01*
Y62553D01*
Y62506D01*
Y62436D01*
Y62331D01*
Y62215D01*
Y62086D01*
Y61935D01*
Y61772D01*
X147819D01*
X147889Y61760D01*
X147982Y61748D01*
X148110Y61737D01*
X148262Y61725D01*
X148437Y61713D01*
X148635Y61690D01*
X148740D01*
X148798Y61678D01*
X148973D01*
X149171Y61667D01*
X149346D01*
X149428Y61655D01*
X150010D01*
X150197Y61667D01*
X150407Y61678D01*
X150652Y61690D01*
X151153Y61737D01*
X151188D01*
X151223Y61748D01*
X151270D01*
X151398Y61772D01*
X151573Y61795D01*
X151771Y61830D01*
X151981Y61877D01*
X152214Y61935D01*
X152447Y61993D01*
X152459D01*
X152471Y62005D01*
X152506D01*
X152552Y62028D01*
X152669Y62063D01*
X152820Y62110D01*
X152995Y62180D01*
X153193Y62250D01*
X153392Y62343D01*
X153590Y62448D01*
X153601D01*
X153613Y62460D01*
X153683Y62495D01*
X153776Y62564D01*
X153904Y62646D01*
X154056Y62751D01*
X154219Y62868D01*
X154394Y62996D01*
X154557Y63147D01*
X154581Y63171D01*
X154627Y63217D01*
X154721Y63299D01*
X154825Y63415D01*
X154942Y63555D01*
X155070Y63719D01*
X155210Y63893D01*
X155338Y64092D01*
Y64103D01*
X155350Y64115D01*
X155397Y64185D01*
X155467Y64302D01*
X155548Y64453D01*
X155630Y64628D01*
X155735Y64838D01*
X155828Y65071D01*
X155921Y65328D01*
Y65339D01*
X155933Y65363D01*
X155945Y65398D01*
X155956Y65444D01*
X155980Y65514D01*
X156003Y65596D01*
X156050Y65782D01*
X156108Y66004D01*
X156166Y66272D01*
X156225Y66563D01*
X156271Y66878D01*
Y66890D01*
X156283Y66913D01*
Y66960D01*
X156294Y67030D01*
X156306Y67111D01*
X156318Y67205D01*
X156329Y67309D01*
X156341Y67438D01*
X156353Y67578D01*
X156364Y67717D01*
X156376Y68044D01*
X156399Y68394D01*
Y68767D01*
Y68779D01*
Y68814D01*
Y68860D01*
Y68930D01*
Y69012D01*
X156388Y69105D01*
Y69210D01*
Y69338D01*
X156364Y69606D01*
X156341Y69898D01*
X156318Y70201D01*
X156271Y70504D01*
Y70516D01*
Y70539D01*
X156260Y70586D01*
X156248Y70644D01*
X156236Y70714D01*
X156225Y70795D01*
X156190Y70994D01*
X156131Y71215D01*
X156073Y71472D01*
X156003Y71728D01*
X155921Y71985D01*
Y71996D01*
X155910Y72020D01*
X155898Y72055D01*
X155875Y72101D01*
X155828Y72229D01*
X155758Y72381D01*
X155677Y72568D01*
X155583Y72777D01*
X155467Y72987D01*
X155338Y73197D01*
Y73209D01*
X155327Y73220D01*
X155280Y73290D01*
X155210Y73395D01*
X155117Y73524D01*
X155000Y73675D01*
X154872Y73827D01*
X154721Y74001D01*
X154569Y74165D01*
X154546Y74188D01*
X154499Y74235D01*
X154406Y74316D01*
X154289Y74410D01*
X154149Y74526D01*
X153986Y74654D01*
X153800Y74783D01*
X153613Y74899D01*
X153590Y74911D01*
X153520Y74946D01*
X153415Y75004D01*
X153275Y75074D01*
X153112Y75156D01*
X152914Y75237D01*
X152704Y75319D01*
X152482Y75389D01*
X152471D01*
X152459Y75401D01*
X152424Y75412D01*
X152377Y75424D01*
X152261Y75459D01*
X152097Y75494D01*
X151911Y75540D01*
X151689Y75587D01*
X151456Y75634D01*
X151211Y75669D01*
X151176D01*
X151141Y75680D01*
X151095D01*
X151037Y75692D01*
X150955Y75704D01*
X150780Y75727D01*
X150570Y75739D01*
X150337Y75762D01*
X150080Y75774D01*
D02*
G37*
G36*
X122390Y246171D02*
X121665D01*
X121230Y246123D01*
X120699D01*
X120119Y246074D01*
X119443Y246026D01*
X119250D01*
X118960Y245978D01*
X118622Y245929D01*
X118187Y245881D01*
X117704Y245784D01*
X117124Y245688D01*
X116496Y245543D01*
X115143Y245253D01*
X113646Y244818D01*
X112051Y244287D01*
X110505Y243659D01*
X110457D01*
X110360Y243610D01*
X110167Y243514D01*
X109926Y243417D01*
X109298Y243079D01*
X108573Y242693D01*
X108476Y242644D01*
X108187Y242499D01*
X107752Y242209D01*
X107220Y241823D01*
X106496Y241340D01*
X105723Y240760D01*
X104853Y240084D01*
X103887Y239311D01*
X102921Y238393D01*
X101906Y237378D01*
X100843Y236316D01*
X99829Y235108D01*
X98862Y233803D01*
X97945Y232451D01*
X97075Y230953D01*
X96302Y229359D01*
Y229310D01*
X96205Y229166D01*
X96109Y228924D01*
X96012Y228586D01*
X95867Y228199D01*
X95674Y227716D01*
X95481Y227136D01*
X95288Y226509D01*
X95094Y225832D01*
X94901Y225107D01*
X94515Y223561D01*
X94225Y221822D01*
X94031Y220035D01*
Y219986D01*
Y219890D01*
X93983Y219745D01*
Y219503D01*
Y219214D01*
X93935Y218875D01*
Y218441D01*
Y217957D01*
Y217909D01*
Y217716D01*
Y217474D01*
Y217185D01*
X93983Y216508D01*
Y216170D01*
X94031Y215880D01*
Y215832D01*
Y215784D01*
X94080Y215590D01*
Y215397D01*
X94128Y215155D01*
Y214866D01*
X94273Y214093D01*
X94418Y213175D01*
X94660Y212112D01*
X94949Y210952D01*
X95336Y209648D01*
X95819Y208247D01*
X96350Y206798D01*
X97027Y205300D01*
X97848Y203802D01*
X98718Y202257D01*
X99780Y200759D01*
X100940Y199261D01*
X102293Y197860D01*
X102389Y197764D01*
X102631Y197522D01*
X103066Y197136D01*
X103694Y196652D01*
X104467Y196073D01*
X105336Y195396D01*
X106399Y194720D01*
X107558Y193995D01*
X108863Y193222D01*
X110312Y192498D01*
X111858Y191821D01*
X113501Y191242D01*
X115240Y190662D01*
X117076Y190275D01*
X119008Y189937D01*
X121037Y189792D01*
X123791D01*
X124081Y189841D01*
X124322D01*
X124612Y189889D01*
X124902Y189937D01*
X124999D01*
X125192Y189986D01*
X125772D01*
X125917Y190034D01*
X126110D01*
X126351Y190082D01*
X126641Y190179D01*
X127414Y190324D01*
X128284Y190517D01*
X129347Y190807D01*
X130506Y191193D01*
X131811Y191628D01*
X133163Y192160D01*
X134564Y192836D01*
X136062Y193609D01*
X137511Y194478D01*
X139009Y195493D01*
X140458Y196604D01*
X141907Y197908D01*
X143260Y199358D01*
X143308Y199406D01*
X143405Y199503D01*
X143598Y199744D01*
X143792Y199986D01*
X144081Y200324D01*
X144371Y200759D01*
X144758Y201242D01*
X145144Y201773D01*
X145531Y202305D01*
X145917Y202933D01*
X146787Y204334D01*
X147560Y205832D01*
X148285Y207474D01*
Y207522D01*
X148333Y207667D01*
X148429Y207861D01*
X148526Y208102D01*
X148623Y208489D01*
X148768Y208875D01*
X148912Y209310D01*
X149106Y209841D01*
X149396Y211001D01*
X149734Y212257D01*
X149975Y213658D01*
X150169Y215059D01*
Y215155D01*
X150217Y215349D01*
Y215687D01*
X150265Y216073D01*
X150314Y216895D01*
Y217281D01*
Y217619D01*
Y217716D01*
Y217957D01*
Y218296D01*
Y218779D01*
X150265Y219745D01*
X150217Y220228D01*
X150169Y220663D01*
Y220760D01*
X150120Y220953D01*
X150072Y221291D01*
X150024Y221774D01*
X149927Y222354D01*
X149782Y223030D01*
X149637Y223803D01*
X149444Y224673D01*
X149202Y225542D01*
X148912Y226509D01*
X148574Y227523D01*
X148188Y228586D01*
X147753Y229649D01*
X147270Y230711D01*
X146690Y231774D01*
X146062Y232837D01*
X146014Y232885D01*
X145917Y233079D01*
X145724Y233369D01*
X145434Y233755D01*
X145096Y234190D01*
X144710Y234770D01*
X144226Y235349D01*
X143647Y236026D01*
X143067Y236702D01*
X142390Y237427D01*
X141618Y238151D01*
X140845Y238924D01*
X139975Y239649D01*
X139105Y240374D01*
X138139Y241098D01*
X137125Y241775D01*
X137076Y241823D01*
X136883Y241920D01*
X136593Y242113D01*
X136159Y242354D01*
X135675Y242596D01*
X135047Y242934D01*
X134371Y243272D01*
X133598Y243610D01*
X132728Y243949D01*
X131859Y244335D01*
X130844Y244673D01*
X129830Y245012D01*
X127607Y245591D01*
X126496Y245833D01*
X125288Y245978D01*
X125240D01*
X124999Y246026D01*
X124709D01*
X124322Y246074D01*
X123839Y246123D01*
X123356D01*
X122390Y246171D01*
D02*
G37*
%LPD*%
G36*
X140072Y207522D02*
X140265Y207377D01*
X140217D01*
X140072Y207329D01*
X140023D01*
X139927Y207281D01*
X139830Y207232D01*
X139782Y207184D01*
X139830Y207136D01*
X139927Y207087D01*
X140072Y206991D01*
X140265Y206894D01*
X140168D01*
X139975Y206798D01*
X139782Y206701D01*
Y206604D01*
X139830Y206556D01*
X139927D01*
X140072Y206508D01*
X140265Y206411D01*
X139975Y206315D01*
X139782Y206218D01*
X137994D01*
X137801Y206315D01*
X137608Y206411D01*
X137656Y206460D01*
X137801Y206556D01*
X137849D01*
X137946Y206604D01*
X137994D01*
X138043Y206653D01*
X137994Y206701D01*
X137946Y206749D01*
X137801Y206798D01*
X137608Y206894D01*
X137656Y206943D01*
X137704D01*
X137801Y206991D01*
X137849Y207039D01*
X137946Y207087D01*
X137994Y207136D01*
X138043Y207184D01*
X137994Y207232D01*
X137946Y207281D01*
X137801Y207329D01*
X137559Y207377D01*
X137801Y207522D01*
X137994Y207571D01*
X139782D01*
X140072Y207522D01*
D02*
G37*
G36*
X140506Y204479D02*
Y202836D01*
X139733Y201967D01*
X138961Y201097D01*
X138912D01*
X138139Y201918D01*
X137366Y202836D01*
Y204479D01*
Y206170D01*
X137849D01*
X137994Y206121D01*
X139878D01*
X139927Y206170D01*
X140506D01*
Y204479D01*
D02*
G37*
G36*
Y230905D02*
Y229214D01*
X139733Y228393D01*
X138961Y227475D01*
X138912Y227523D01*
X138767Y227620D01*
X138526Y227910D01*
X138332Y228103D01*
X138139Y228344D01*
X137366Y229214D01*
Y230905D01*
Y232596D01*
X140506D01*
Y230905D01*
D02*
G37*
G36*
X144951Y229214D02*
X145144Y229117D01*
X145289Y228827D01*
Y228779D01*
X145337Y228682D01*
X145434Y228538D01*
X145531Y228296D01*
X145627Y228006D01*
X145772Y227668D01*
X145917Y227281D01*
X146110Y226847D01*
X146400Y225832D01*
X146739Y224721D01*
X147077Y223465D01*
X147318Y222160D01*
Y222064D01*
X147367Y221822D01*
X147415Y221436D01*
X147512Y220953D01*
X147560Y220325D01*
X147608Y219600D01*
X147656Y218827D01*
Y217957D01*
Y217909D01*
Y217861D01*
Y217716D01*
Y217523D01*
Y217088D01*
X147608Y216460D01*
X147560Y215784D01*
X147512Y215059D01*
X147415Y214286D01*
X147318Y213561D01*
Y213513D01*
X147270Y213368D01*
Y213175D01*
X147173Y212885D01*
X147125Y212547D01*
X147028Y212160D01*
X146883Y211725D01*
X146787Y211194D01*
X146449Y210083D01*
X146014Y208875D01*
X145531Y207619D01*
X144903Y206315D01*
X144710Y205928D01*
X144516Y205783D01*
X144323Y205735D01*
X140893D01*
Y205928D01*
Y206170D01*
X140700Y206363D01*
X140506Y206556D01*
X140217D01*
X140072Y206604D01*
X140023Y206653D01*
X139927Y206701D01*
X140023D01*
X140168Y206749D01*
X140217D01*
X140313Y206798D01*
X140410Y206846D01*
X140458Y206943D01*
X140410Y206991D01*
X140361Y207039D01*
X140168Y207087D01*
X140072Y207136D01*
X139975Y207184D01*
X140023D01*
X140168Y207281D01*
X140217D01*
X140313Y207329D01*
X140410D01*
X140458Y207377D01*
X140410Y207426D01*
X140313Y207522D01*
X140120Y207571D01*
X139782Y207716D01*
X137994D01*
X137753Y207571D01*
X137704D01*
X137608Y207522D01*
X137463Y207474D01*
X137415Y207377D01*
X137463Y207329D01*
X137511D01*
X137608Y207281D01*
X137849Y207184D01*
X137608Y207087D01*
X137559D01*
X137511Y207039D01*
X137463Y206991D01*
X137415Y206943D01*
X137463Y206894D01*
X137559Y206846D01*
X137801Y206701D01*
X137849D01*
X137801Y206604D01*
X137704D01*
X137463Y206556D01*
X137366D01*
X137173Y206363D01*
X136980Y206170D01*
Y205928D01*
Y205735D01*
X122293D01*
X122100Y205928D01*
X121907Y206121D01*
Y211194D01*
Y216267D01*
X122100Y216460D01*
X122293Y216653D01*
X136980D01*
Y218006D01*
Y219359D01*
X122293D01*
X122100Y219552D01*
X121907Y219745D01*
Y224335D01*
Y228924D01*
X122100Y229166D01*
X122293Y229359D01*
X136980D01*
Y229310D01*
X137028Y229214D01*
Y229117D01*
X137076Y229069D01*
X137173Y228876D01*
X137415Y228538D01*
X137801Y228054D01*
X138574Y227233D01*
X139202D01*
X139975Y228054D01*
X140023Y228103D01*
X140072Y228199D01*
X140361Y228489D01*
X140651Y228827D01*
X140748Y228972D01*
X140845Y229117D01*
X140893Y229310D01*
Y229359D01*
X144758D01*
X144951Y229214D01*
D02*
G37*
G36*
X140072Y233948D02*
X140265Y233852D01*
X140168Y233803D01*
X140120D01*
X139975Y233707D01*
X139830Y233659D01*
X139782Y233610D01*
X139830Y233562D01*
X139927Y233514D01*
X140072Y233465D01*
X140265Y233369D01*
X140217Y233320D01*
X140072Y233224D01*
X140023D01*
X139927Y233175D01*
X139830Y233127D01*
X139782Y233079D01*
X139830Y233030D01*
X139927D01*
X140072Y232982D01*
X140265Y232837D01*
X140217D01*
X140072Y232789D01*
X139782Y232644D01*
X137994D01*
X137801Y232692D01*
X137608Y232837D01*
X137656Y232885D01*
X137704Y232934D01*
X137801Y232982D01*
X137849D01*
X137946Y233030D01*
X137994D01*
X138043Y233079D01*
X137994Y233127D01*
X137946Y233175D01*
X137801Y233224D01*
X137608Y233369D01*
X137656Y233417D01*
X137801Y233465D01*
X137849D01*
X137946Y233514D01*
X137994Y233562D01*
X138043Y233610D01*
X137994Y233659D01*
X137898Y233707D01*
X137656Y233803D01*
X137559Y233852D01*
X137608D01*
X137801Y233948D01*
X137994Y234045D01*
X139782D01*
X140072Y233948D01*
D02*
G37*
G36*
X123646Y243466D02*
X124129D01*
X124322Y243417D01*
X124805Y243369D01*
X125482Y243272D01*
X126303Y243127D01*
X127221Y242934D01*
X128284Y242644D01*
X129443Y242306D01*
X130699Y241920D01*
X132004Y241388D01*
X133356Y240809D01*
X134709Y240084D01*
X136110Y239311D01*
X137463Y238345D01*
X138815Y237282D01*
X140120Y236074D01*
X140217Y235977D01*
X140410Y235784D01*
X140700Y235446D01*
X141086Y235060D01*
X141521Y234576D01*
X141956Y234045D01*
X142439Y233514D01*
X142825Y232982D01*
X143019Y232692D01*
X142825Y232402D01*
X142680Y232064D01*
X140893D01*
Y232306D01*
Y232596D01*
X140700Y232789D01*
X140506Y233030D01*
X140072D01*
X139927Y233079D01*
X140168Y233224D01*
X140217D01*
X140265Y233272D01*
X140458D01*
Y233369D01*
X140410Y233417D01*
X140361D01*
X140168Y233465D01*
X139975Y233610D01*
X140023Y233659D01*
X140168Y233755D01*
X140217D01*
X140313Y233803D01*
X140410D01*
X140458Y233852D01*
X140410D01*
X140313Y233900D01*
X140120Y233997D01*
X139782Y234142D01*
X137994D01*
X137656Y233997D01*
X137608D01*
X137463Y233948D01*
X137415Y233852D01*
X137463Y233803D01*
X137511D01*
X137608Y233755D01*
X137849Y233610D01*
X137801D01*
X137753Y233562D01*
X137608Y233465D01*
X137559D01*
X137511Y233417D01*
X137463D01*
X137415Y233369D01*
X137463D01*
X137511Y233320D01*
X137656Y233224D01*
X137849Y233079D01*
X137801Y233030D01*
X137366D01*
X137173Y232789D01*
X136980Y232596D01*
Y232306D01*
Y232064D01*
X122197D01*
X122003Y232257D01*
X121810Y232451D01*
Y236074D01*
Y239601D01*
X119298D01*
X112293Y229600D01*
X105288Y219648D01*
Y218151D01*
Y216653D01*
X118332D01*
X118525Y216460D01*
X118718Y216267D01*
Y209648D01*
Y203029D01*
X136980D01*
Y202885D01*
Y202836D01*
X137028Y202691D01*
X137076Y202595D01*
X137221Y202401D01*
X137415Y202063D01*
X137801Y201677D01*
X138574Y200759D01*
X139202D01*
X139250Y200856D01*
X139444Y201049D01*
X139685Y201339D01*
X139975Y201677D01*
X140023Y201725D01*
X140072Y201822D01*
X140361Y202111D01*
X140651Y202450D01*
X140748Y202595D01*
X140845Y202691D01*
X140893Y202740D01*
Y202885D01*
Y203029D01*
X142052D01*
X142197Y202643D01*
X142390Y202305D01*
X142246Y202160D01*
X142197Y202111D01*
X142101Y201967D01*
X141907Y201773D01*
X141714Y201532D01*
X141328Y201097D01*
X141183Y200904D01*
X141038Y200759D01*
X140990Y200711D01*
X140845Y200566D01*
X140651Y200324D01*
X140313Y200034D01*
X139927Y199648D01*
X139492Y199213D01*
X138961Y198778D01*
X138332Y198247D01*
X137656Y197715D01*
X136980Y197184D01*
X136159Y196652D01*
X135337Y196073D01*
X133550Y195058D01*
X132632Y194623D01*
X131617Y194189D01*
X131569D01*
X131424Y194140D01*
X131231Y194044D01*
X130941Y193947D01*
X130603Y193850D01*
X130168Y193706D01*
X129685Y193561D01*
X129153Y193416D01*
X128574Y193271D01*
X127946Y193077D01*
X126545Y192787D01*
X125047Y192546D01*
X123453Y192401D01*
X120941D01*
X120699Y192449D01*
X120361D01*
X119926Y192498D01*
X119491Y192546D01*
X118912Y192594D01*
X118332Y192691D01*
X117027Y192932D01*
X115578Y193222D01*
X114080Y193657D01*
X112535Y194189D01*
X112486Y194237D01*
X112293Y194285D01*
X112003Y194430D01*
X111568Y194623D01*
X111085Y194865D01*
X110505Y195203D01*
X109877Y195541D01*
X109201Y195928D01*
X108428Y196411D01*
X107655Y196942D01*
X106834Y197522D01*
X106012Y198102D01*
X105191Y198778D01*
X104370Y199551D01*
X103597Y200324D01*
X102824Y201145D01*
X102776Y201194D01*
X102631Y201339D01*
X102437Y201628D01*
X102196Y201967D01*
X101858Y202401D01*
X101471Y202933D01*
X101085Y203512D01*
X100650Y204189D01*
X100167Y204914D01*
X99732Y205686D01*
X99297Y206508D01*
X98814Y207426D01*
X98041Y209358D01*
X97655Y210373D01*
X97365Y211387D01*
Y211436D01*
Y211484D01*
X97268Y211774D01*
X97172Y212257D01*
X97075Y212836D01*
X96930Y213610D01*
X96785Y214527D01*
X96688Y215494D01*
X96592Y216605D01*
Y219310D01*
Y219359D01*
Y219455D01*
X96640Y219648D01*
Y219890D01*
X96688Y220228D01*
Y220615D01*
X96737Y221001D01*
X96833Y221484D01*
X96978Y222499D01*
X97172Y223658D01*
X97462Y224866D01*
X97800Y226074D01*
Y226122D01*
X97896Y226267D01*
X97945Y226557D01*
X98090Y226895D01*
X98283Y227330D01*
X98476Y227813D01*
X98718Y228393D01*
X99056Y229021D01*
X99394Y229697D01*
X99780Y230422D01*
X100698Y231919D01*
X101181Y232692D01*
X101761Y233514D01*
X102389Y234335D01*
X103066Y235108D01*
X103114Y235156D01*
X103210Y235253D01*
X103355Y235398D01*
X103597Y235639D01*
X103839Y235881D01*
X104177Y236219D01*
X104563Y236557D01*
X104998Y236944D01*
X105046Y236992D01*
X105143Y237089D01*
X105336Y237234D01*
X105626Y237475D01*
X105916Y237717D01*
X106302Y238006D01*
X106737Y238345D01*
X107269Y238683D01*
X108380Y239456D01*
X109636Y240277D01*
X111037Y241050D01*
X112535Y241726D01*
X112583D01*
X112728Y241823D01*
X112969Y241871D01*
X113307Y242016D01*
X113742Y242161D01*
X114225Y242306D01*
X114757Y242451D01*
X115385Y242644D01*
X116061Y242789D01*
X116834Y242934D01*
X117607Y243079D01*
X118428Y243224D01*
X120216Y243417D01*
X122100Y243514D01*
X123356D01*
X123646Y243466D01*
D02*
G37*
G36*
X118428Y233997D02*
X118815Y233852D01*
Y233175D01*
X118718Y232451D01*
Y226074D01*
Y219842D01*
X118525Y219552D01*
X118332Y219359D01*
X108621D01*
X108428Y219697D01*
X108283Y220035D01*
X108331Y220083D01*
X108428Y220228D01*
X108573Y220421D01*
X108766Y220760D01*
X109056Y221098D01*
X109346Y221484D01*
X109974Y222450D01*
X110022Y222499D01*
X110071Y222595D01*
X110264Y222837D01*
X110457Y223175D01*
X110795Y223610D01*
X111182Y224238D01*
X111713Y224963D01*
X112341Y225880D01*
Y225929D01*
X112438Y225977D01*
X112535Y226122D01*
X112631Y226315D01*
X112969Y226750D01*
X113356Y227330D01*
X113742Y227958D01*
X114177Y228538D01*
X114564Y229069D01*
X114853Y229504D01*
X118042Y234045D01*
X118187D01*
X118428Y233997D01*
D02*
G37*
%LPC*%
G36*
X126496Y214962D02*
X126206D01*
X125868Y214914D01*
X125820D01*
X125723Y214866D01*
X125530Y214817D01*
X125288Y214672D01*
X125047Y214527D01*
X124805Y214334D01*
X124564Y214044D01*
X124322Y213706D01*
X124274Y213610D01*
X124177Y213416D01*
Y213320D01*
X124129Y213126D01*
Y212981D01*
X125047Y212885D01*
Y213078D01*
Y213126D01*
Y213175D01*
X125144Y213416D01*
X125240Y213658D01*
X125482Y213899D01*
X125530Y213948D01*
X125723Y214093D01*
X126013Y214189D01*
X126400Y214237D01*
X126496D01*
X126690Y214189D01*
X126931Y214093D01*
X127221Y213851D01*
X127269Y213803D01*
X127414Y213610D01*
X127511Y213368D01*
X127559Y213078D01*
Y213030D01*
Y212981D01*
X127511Y212692D01*
X127414Y212353D01*
X127173Y212112D01*
X127076Y212064D01*
X126834Y211967D01*
X126496Y211822D01*
X126061Y211774D01*
X125965D01*
X125820Y211001D01*
X125868D01*
X125917Y211049D01*
X126690D01*
X126834Y211001D01*
X126979Y210952D01*
X127221Y210904D01*
X127414Y210759D01*
X127607Y210566D01*
X127801Y210324D01*
X127897Y210035D01*
Y209986D01*
X127946Y209793D01*
Y209551D01*
X127897Y209261D01*
Y209213D01*
X127849Y209117D01*
X127704Y208827D01*
X127463Y208489D01*
X127269Y208344D01*
X127028Y208247D01*
X126979D01*
X126786Y208199D01*
X126593Y208150D01*
X126400Y208102D01*
X126255D01*
X126013Y208150D01*
X125965Y208199D01*
X125820Y208247D01*
X125627Y208344D01*
X125434Y208489D01*
X125385Y208537D01*
X125240Y208730D01*
X125095Y208972D01*
X124999Y209310D01*
X124902Y209503D01*
X124032Y209407D01*
Y209261D01*
Y209213D01*
X124081Y209117D01*
Y208972D01*
X124177Y208778D01*
X124371Y208344D01*
X124709Y207909D01*
X124757D01*
X124805Y207812D01*
X125095Y207619D01*
X125482Y207426D01*
X126013Y207329D01*
X126834D01*
X126883Y207377D01*
X127028D01*
X127221Y207474D01*
X127414Y207571D01*
X127704Y207716D01*
X127994Y207909D01*
X128284Y208150D01*
X128574Y208489D01*
X128767Y208875D01*
Y208923D01*
X128815Y208972D01*
X128863Y209165D01*
X128912Y209407D01*
Y209648D01*
Y209696D01*
Y209745D01*
Y209986D01*
X128815Y210324D01*
X128719Y210614D01*
Y210662D01*
X128670Y210711D01*
X128477Y210952D01*
X128332Y211049D01*
X128139Y211194D01*
X127897Y211339D01*
X127607Y211436D01*
X127559Y211532D01*
X127607D01*
X127704Y211581D01*
X127801Y211629D01*
X127946Y211774D01*
X128187Y212015D01*
X128236Y212064D01*
X128284Y212160D01*
X128332Y212305D01*
X128429Y212498D01*
X128477Y212788D01*
Y213078D01*
X128429Y213465D01*
X128332Y213851D01*
Y213899D01*
X128236Y213996D01*
X128139Y214141D01*
X127994Y214334D01*
X127801Y214479D01*
X127511Y214672D01*
X127173Y214817D01*
X126786Y214914D01*
X126690D01*
X126496Y214962D01*
D02*
G37*
G36*
X133598Y214866D02*
X130216D01*
Y211146D01*
Y207377D01*
X132487D01*
X132777Y207426D01*
X132873D01*
X133018Y207474D01*
X133840D01*
X133984Y207522D01*
X134178Y207571D01*
X134564Y207667D01*
X134951Y207861D01*
X134999Y207909D01*
X135192Y208054D01*
X135434Y208295D01*
X135724Y208682D01*
Y208730D01*
X135820Y208827D01*
X135965Y209117D01*
X136159Y209503D01*
X136255Y209890D01*
Y209938D01*
X136303Y210035D01*
Y210179D01*
X136352Y210421D01*
X136400Y210807D01*
Y211049D01*
Y211194D01*
Y211242D01*
Y211291D01*
X136352Y211629D01*
X136303Y212064D01*
X136207Y212595D01*
X135965Y213126D01*
X135675Y213706D01*
X135289Y214141D01*
X134709Y214527D01*
X134613Y214624D01*
X134371Y214672D01*
X134226Y214769D01*
X133984Y214817D01*
X133791D01*
X133598Y214866D01*
D02*
G37*
%LPD*%
G36*
X133308Y213899D02*
X133646Y213851D01*
X133936Y213803D01*
X134129Y213754D01*
X134226Y213706D01*
X134419Y213610D01*
X134661Y213368D01*
X134951Y212981D01*
Y212933D01*
X135047Y212836D01*
X135096Y212692D01*
X135192Y212450D01*
X135337Y211919D01*
X135434Y211194D01*
Y211146D01*
Y210952D01*
X135386Y210711D01*
X135337Y210421D01*
X135144Y209696D01*
X134999Y209358D01*
X134757Y209020D01*
X134709Y208923D01*
X134564Y208778D01*
X134323Y208585D01*
X133984Y208440D01*
X133888D01*
X133791Y208392D01*
X133598D01*
X133356Y208344D01*
X133067D01*
X132632Y208295D01*
X131231D01*
Y211146D01*
Y213948D01*
X132970D01*
X133308Y213899D01*
D02*
G37*
D29*
X103226Y111220D02*
G03*
X103226Y111220I-2286J0D01*
G01*
X93500Y105000D02*
Y145066D01*
D30*
X78238Y119778D02*
X87762D01*
X78238Y116222D02*
X87762D01*
X78238Y154778D02*
X87762D01*
X78238Y151222D02*
X87762D01*
X144050Y9000D02*
Y12000D01*
X106000Y9000D02*
X144050D01*
X106000D02*
Y12000D01*
X144050Y44002D02*
Y47050D01*
X106000D02*
X144050D01*
X106000Y44002D02*
Y47050D01*
X174064Y26476D02*
Y29524D01*
X165936Y26476D02*
Y29524D01*
X84064Y26476D02*
Y29524D01*
X75936Y26476D02*
Y29524D01*
D31*
X235000Y75000D02*
X250000D01*
X0Y175000D02*
X15000D01*
X0Y75000D02*
X15000D01*
X235000Y175000D02*
X250000D01*
D32*
X31682Y170612D02*
X31635Y179109D01*
X34483Y176292D01*
X37300Y179140D01*
X37346Y170643D01*
X41564Y176331D02*
X44397Y176346D01*
X45820Y174937D01*
X45844Y170689D01*
X41595Y170666D01*
X40171Y172074D01*
X41579Y173498D01*
X45828Y173521D01*
X51524Y167887D02*
X52940Y167895D01*
X54348Y169319D01*
X54310Y176400D01*
X50061Y176377D01*
X48653Y174953D01*
X48668Y172120D01*
X50092Y170712D01*
X54341Y170735D01*
X57173Y170750D02*
X57142Y176415D01*
X61391Y176438D01*
X62815Y175030D01*
X62838Y170781D01*
X69919Y170820D02*
X67086Y170804D01*
X65662Y172213D01*
X65647Y175045D01*
X67056Y176469D01*
X69888Y176484D01*
X71312Y175076D01*
X71319Y173660D01*
X65655Y173629D01*
X75545Y177931D02*
X75553Y176515D01*
X74137Y176507D01*
X76969Y176523D01*
X75553Y176515D01*
X75576Y172267D01*
X77000Y170858D01*
X81248Y170881D02*
X84081Y170896D01*
X82664Y170889D01*
X82634Y176553D01*
X81217Y176546D01*
X93963Y176615D02*
X89715Y176592D01*
X88306Y175168D01*
X88322Y172336D01*
X89745Y170927D01*
X93994Y170950D01*
X110942Y179540D02*
X105277Y179509D01*
X105323Y171012D01*
X110988Y171042D01*
X105300Y175260D02*
X108133Y175276D01*
X113821Y171058D02*
X113790Y176723D01*
X118038Y176746D01*
X119462Y175337D01*
X119485Y171089D01*
X127952Y176800D02*
X123703Y176777D01*
X122295Y175353D01*
X122310Y172520D01*
X123734Y171112D01*
X127983Y171135D01*
X132231Y171158D02*
X135063Y171173D01*
X136472Y172597D01*
X136457Y175429D01*
X135033Y176838D01*
X132200Y176823D01*
X130792Y175399D01*
X130807Y172566D01*
X132231Y171158D01*
X144931Y179724D02*
X144977Y171227D01*
X140728Y171204D01*
X139304Y172612D01*
X139289Y175445D01*
X140697Y176869D01*
X144946Y176892D01*
X152058Y171266D02*
X149225Y171250D01*
X147802Y172659D01*
X147786Y175491D01*
X149195Y176915D01*
X152027Y176930D01*
X153451Y175522D01*
X153458Y174105D01*
X147794Y174075D01*
X156276Y176953D02*
X156306Y171289D01*
X156291Y174121D01*
X157699Y175545D01*
X159108Y176969D01*
X160524Y176976D01*
X173301Y171381D02*
X173255Y179878D01*
X176102Y177061D01*
X178919Y179909D01*
X178965Y171411D01*
X183214Y171435D02*
X186046Y171450D01*
X187455Y172874D01*
X187439Y175706D01*
X186016Y177115D01*
X183183Y177099D01*
X181775Y175676D01*
X181790Y172843D01*
X183214Y171435D01*
X195914Y180001D02*
X195960Y171504D01*
X191711Y171481D01*
X190287Y172889D01*
X190272Y175722D01*
X191680Y177145D01*
X195929Y177169D01*
X198761Y177184D02*
X198784Y172935D01*
X200208Y171527D01*
X204457Y171550D01*
X204426Y177215D01*
X207289Y171565D02*
X210122Y171581D01*
X208705Y171573D01*
X208659Y180070D01*
X207243Y180062D01*
X218619Y171627D02*
X215786Y171611D01*
X214362Y173020D01*
X214347Y175852D01*
X215756Y177276D01*
X218588Y177292D01*
X220012Y175883D01*
X220019Y174467D01*
X214355Y174436D01*
D33*
X60958Y120710D02*
X59625Y122043D01*
X56959D01*
X55626Y120710D01*
Y115379D01*
X56959Y114046D01*
X59625D01*
X60958Y115379D01*
X68955Y122043D02*
X63623D01*
Y118045D01*
X66289Y119378D01*
X67622D01*
X68955Y118045D01*
Y115379D01*
X67622Y114046D01*
X64956D01*
X63623Y115379D01*
X60958Y155763D02*
X59625Y157095D01*
X56959D01*
X55626Y155763D01*
Y150431D01*
X56959Y149098D01*
X59625D01*
X60958Y150431D01*
X68955Y157095D02*
X66289Y155763D01*
X63623Y153097D01*
Y150431D01*
X64956Y149098D01*
X67622D01*
X68955Y150431D01*
Y151764D01*
X67622Y153097D01*
X63623D01*
X99000Y143797D02*
Y137133D01*
X100333Y135800D01*
X102999D01*
X104332Y137133D01*
Y143797D01*
X112329Y135800D02*
X106997D01*
X112329Y141132D01*
Y142465D01*
X110996Y143797D01*
X108330D01*
X106997Y142465D01*
X184150Y23876D02*
Y31873D01*
X188149D01*
X189482Y30540D01*
Y27875D01*
X188149Y26542D01*
X184150D01*
X186816D02*
X189482Y23876D01*
X192147Y30540D02*
X193480Y31873D01*
X196146D01*
X197479Y30540D01*
Y29208D01*
X196146Y27875D01*
X194813D01*
X196146D01*
X197479Y26542D01*
Y25209D01*
X196146Y23876D01*
X193480D01*
X192147Y25209D01*
X52578Y23876D02*
Y31873D01*
X56577D01*
X57910Y30540D01*
Y27875D01*
X56577Y26542D01*
X52578D01*
X55244D02*
X57910Y23876D01*
X65907D02*
X60575D01*
X65907Y29208D01*
Y30540D01*
X64574Y31873D01*
X61908D01*
X60575Y30540D01*
X66000Y207665D02*
X67333Y208997D01*
X69999D01*
X71332Y207665D01*
Y206332D01*
X69999Y204999D01*
X68666D01*
X69999D01*
X71332Y203666D01*
Y202333D01*
X69999Y201000D01*
X67333D01*
X66000Y202333D01*
X73997Y208997D02*
Y203666D01*
X76663Y201000D01*
X79329Y203666D01*
Y208997D01*
X192000Y196000D02*
Y203997D01*
X195999D01*
X197332Y202665D01*
Y199999D01*
X195999Y198666D01*
X192000D01*
X194666D02*
X197332Y196000D01*
M02*
