G04 Layer_Color=16711935*
%FSLAX44Y44*%
%MOMM*%
G71*
G01*
G75*
G04:AMPARAMS|DCode=34|XSize=1.2032mm|YSize=1.1032mm|CornerRadius=0.2141mm|HoleSize=0mm|Usage=FLASHONLY|Rotation=0.000|XOffset=0mm|YOffset=0mm|HoleType=Round|Shape=RoundedRectangle|*
%AMROUNDEDRECTD34*
21,1,1.2032,0.6750,0,0,0.0*
21,1,0.7750,1.1032,0,0,0.0*
1,1,0.4282,0.3875,-0.3375*
1,1,0.4282,-0.3875,-0.3375*
1,1,0.4282,-0.3875,0.3375*
1,1,0.4282,0.3875,0.3375*
%
%ADD34ROUNDEDRECTD34*%
%ADD35R,1.2192X1.0668*%
%ADD36R,0.8382X1.4732*%
%ADD38C,1.8032*%
%ADD39C,3.8032*%
%ADD40C,1.7032*%
%ADD41R,0.5000X0.4000*%
G04:AMPARAMS|DCode=42|XSize=1.6032mm|YSize=1.2032mm|CornerRadius=0.2266mm|HoleSize=0mm|Usage=FLASHONLY|Rotation=0.000|XOffset=0mm|YOffset=0mm|HoleType=Round|Shape=RoundedRectangle|*
%AMROUNDEDRECTD42*
21,1,1.6032,0.7500,0,0,0.0*
21,1,1.1500,1.2032,0,0,0.0*
1,1,0.4532,0.5750,-0.3750*
1,1,0.4532,-0.5750,-0.3750*
1,1,0.4532,-0.5750,0.3750*
1,1,0.4532,0.5750,0.3750*
%
%ADD42ROUNDEDRECTD42*%
%ADD43O,0.7532X1.8532*%
%ADD44O,1.8532X0.7532*%
%ADD45R,0.8032X1.7532*%
%ADD46R,1.4032X2.0032*%
D34*
X62000Y126500D02*
D03*
Y109500D02*
D03*
X205000Y171500D02*
D03*
Y188500D02*
D03*
X188000Y96500D02*
D03*
Y113500D02*
D03*
X188000Y129500D02*
D03*
Y146500D02*
D03*
D35*
X107474Y19250D02*
D03*
X142500D02*
D03*
X107474Y36890D02*
D03*
X142500D02*
D03*
D36*
X70000Y190000D02*
D03*
X80160D02*
D03*
X70000Y208000D02*
D03*
X80160D02*
D03*
D38*
X207600Y99600D02*
D03*
X233000D02*
D03*
X207600Y125000D02*
D03*
X233000D02*
D03*
X207600Y150400D02*
D03*
X233000D02*
D03*
D39*
X25000Y25000D02*
D03*
X225000D02*
D03*
Y225000D02*
D03*
X25000D02*
D03*
D40*
X16000Y163000D02*
D03*
Y137600D02*
D03*
Y112200D02*
D03*
Y86800D02*
D03*
D41*
X74579Y190000D02*
D03*
Y208000D02*
D03*
D42*
X180000Y209000D02*
D03*
Y191000D02*
D03*
D43*
X153000Y167000D02*
D03*
X145000D02*
D03*
X137000D02*
D03*
X129000D02*
D03*
X121000D02*
D03*
X113000D02*
D03*
X105000D02*
D03*
X97000D02*
D03*
Y83000D02*
D03*
X105000D02*
D03*
X113000D02*
D03*
X121000D02*
D03*
X129000D02*
D03*
X137000D02*
D03*
X145000D02*
D03*
X153000D02*
D03*
D44*
X83000Y153000D02*
D03*
Y145000D02*
D03*
Y137000D02*
D03*
Y129000D02*
D03*
Y121000D02*
D03*
Y113000D02*
D03*
Y105000D02*
D03*
Y97000D02*
D03*
X167000D02*
D03*
Y105000D02*
D03*
Y113000D02*
D03*
Y121000D02*
D03*
Y129000D02*
D03*
Y137000D02*
D03*
Y145000D02*
D03*
Y153000D02*
D03*
D45*
X142500Y200000D02*
D03*
X132500D02*
D03*
X122500D02*
D03*
X112500D02*
D03*
D46*
X155500Y239000D02*
D03*
X99500D02*
D03*
M02*
