G04 Layer_Color=32896*
%FSLAX44Y44*%
%MOMM*%
G71*
G01*
G75*
%ADD14C,0.2000*%
%ADD15C,0.2500*%
%ADD29C,0.2032*%
%ADD30C,0.1270*%
%ADD31C,0.2540*%
%ADD32C,0.1800*%
%ADD33C,0.1500*%
%ADD47C,0.6000*%
G36*
X123960Y66871D02*
X124344Y66847D01*
X124531Y66824D01*
X124706Y66801D01*
X124857Y66777D01*
X125009Y66766D01*
X125137Y66742D01*
X125254Y66719D01*
X125359Y66696D01*
X125440Y66673D01*
X125510Y66661D01*
X125557Y66649D01*
X125592Y66638D01*
X125603D01*
X125930Y66533D01*
X126221Y66416D01*
X126478Y66288D01*
X126699Y66160D01*
X126874Y66055D01*
X126944Y66008D01*
X127002Y65961D01*
X127061Y65926D01*
X127096Y65903D01*
X127107Y65891D01*
X127119Y65880D01*
X127340Y65682D01*
X127527Y65483D01*
X127679Y65285D01*
X127807Y65099D01*
X127912Y64935D01*
X127982Y64807D01*
X128005Y64760D01*
X128028Y64725D01*
X128040Y64702D01*
Y64690D01*
X128145Y64434D01*
X128215Y64166D01*
X128273Y63909D01*
X128308Y63664D01*
X128331Y63466D01*
Y63373D01*
X128343Y63303D01*
Y63233D01*
Y63186D01*
Y63163D01*
Y63152D01*
X128331Y62918D01*
X128320Y62709D01*
X128285Y62522D01*
X128250Y62347D01*
X128227Y62207D01*
X128192Y62114D01*
X128180Y62044D01*
X128168Y62032D01*
Y62021D01*
X128087Y61834D01*
X128005Y61659D01*
X127912Y61508D01*
X127818Y61379D01*
X127737Y61274D01*
X127667Y61193D01*
X127620Y61146D01*
X127609Y61123D01*
X127469Y60983D01*
X127305Y60855D01*
X127154Y60738D01*
X127002Y60633D01*
X126862Y60540D01*
X126758Y60470D01*
X126688Y60423D01*
X126676Y60412D01*
X126664D01*
X126431Y60283D01*
X126198Y60167D01*
X125965Y60050D01*
X125743Y59957D01*
X125557Y59887D01*
X125475Y59852D01*
X125405Y59817D01*
X125359Y59805D01*
X125312Y59782D01*
X125289Y59771D01*
X125277D01*
X125184Y59736D01*
X125102Y59701D01*
X125055Y59689D01*
X125032Y59677D01*
X125009Y59666D01*
X124997Y59654D01*
X124974D01*
X124927Y59631D01*
X124834Y59596D01*
X124717Y59549D01*
X124601Y59514D01*
X124496Y59467D01*
X124414Y59444D01*
X124403Y59433D01*
X124391D01*
X124216Y59374D01*
X124064Y59328D01*
X123995Y59316D01*
X123948Y59293D01*
X123925Y59281D01*
X123913D01*
X123750Y59223D01*
X123610Y59176D01*
X123563Y59164D01*
X123517Y59141D01*
X123493Y59129D01*
X123482D01*
X123330Y59059D01*
X123213Y59001D01*
X123167Y58978D01*
X123132Y58955D01*
X123120Y58943D01*
X123108D01*
X122980Y58861D01*
X122864Y58803D01*
X122817Y58768D01*
X122782Y58756D01*
X122770Y58733D01*
X122759D01*
X122642Y58640D01*
X122561Y58558D01*
X122502Y58500D01*
X122479Y58488D01*
Y58477D01*
X122386Y58372D01*
X122316Y58278D01*
X122269Y58197D01*
X122257Y58185D01*
Y58173D01*
X122187Y58057D01*
X122141Y57940D01*
X122129Y57882D01*
X122118Y57847D01*
X122106Y57824D01*
Y57812D01*
X122083Y57649D01*
X122071Y57497D01*
Y57427D01*
Y57381D01*
Y57346D01*
Y57334D01*
X122083Y57171D01*
X122094Y57031D01*
X122106Y56984D01*
Y56937D01*
X122118Y56914D01*
Y56903D01*
X122176Y56751D01*
X122234Y56634D01*
X122257Y56588D01*
X122281Y56564D01*
X122292Y56541D01*
X122304Y56529D01*
X122397Y56401D01*
X122491Y56285D01*
X122526Y56238D01*
X122561Y56203D01*
X122572Y56191D01*
X122584Y56180D01*
X122700Y56063D01*
X122817Y55981D01*
X122864Y55946D01*
X122899Y55923D01*
X122922Y55900D01*
X122934D01*
X123085Y55818D01*
X123225Y55748D01*
X123283Y55725D01*
X123330Y55702D01*
X123353Y55690D01*
X123365D01*
X123540Y55620D01*
X123691Y55574D01*
X123761Y55550D01*
X123808Y55539D01*
X123843Y55527D01*
X123855D01*
X124053Y55480D01*
X124146Y55469D01*
X124228Y55457D01*
X124298Y55445D01*
X124356Y55434D01*
X124403D01*
X124601Y55422D01*
X124694D01*
X124787Y55410D01*
X124962D01*
X125265Y55422D01*
X125393D01*
X125522Y55434D01*
X125627D01*
X125708Y55445D01*
X125778D01*
X126081Y55480D01*
X126210Y55504D01*
X126338Y55515D01*
X126443Y55539D01*
X126524Y55550D01*
X126571Y55562D01*
X126594D01*
X126886Y55632D01*
X127026Y55667D01*
X127142Y55690D01*
X127236Y55713D01*
X127305Y55737D01*
X127364Y55748D01*
X127375D01*
X127644Y55842D01*
X127772Y55877D01*
X127877Y55923D01*
X127970Y55958D01*
X128040Y55981D01*
X128087Y55993D01*
X128098Y56005D01*
X128168Y55818D01*
X128203Y55725D01*
X128227Y55655D01*
X128250Y55585D01*
X128273Y55539D01*
X128285Y55504D01*
Y55492D01*
X128355Y55305D01*
X128378Y55224D01*
X128401Y55142D01*
X128425Y55084D01*
X128448Y55037D01*
X128460Y55002D01*
Y54991D01*
X128518Y54792D01*
X128541Y54711D01*
X128565Y54629D01*
X128576Y54559D01*
X128588Y54513D01*
X128600Y54478D01*
Y54466D01*
X128635Y54279D01*
X128646Y54128D01*
X128658Y54058D01*
X128670Y54011D01*
Y53976D01*
Y53965D01*
X128378Y53860D01*
X128238Y53825D01*
X128122Y53790D01*
X128005Y53755D01*
X127923Y53731D01*
X127877Y53720D01*
X127853D01*
X127539Y53638D01*
X127399Y53603D01*
X127259Y53580D01*
X127142Y53556D01*
X127061Y53533D01*
X127002Y53522D01*
X126979D01*
X126629Y53463D01*
X126466Y53440D01*
X126315Y53428D01*
X126186Y53405D01*
X126093D01*
X126023Y53393D01*
X126000D01*
X125592Y53370D01*
X125405D01*
X125230Y53358D01*
X124647D01*
X124438Y53370D01*
X124239Y53382D01*
X124076Y53393D01*
X123936Y53405D01*
X123831Y53417D01*
X123761Y53428D01*
X123738D01*
X123540Y53463D01*
X123342Y53498D01*
X123167Y53533D01*
X123015Y53580D01*
X122887Y53615D01*
X122782Y53638D01*
X122724Y53650D01*
X122700Y53661D01*
X122514Y53720D01*
X122351Y53778D01*
X122187Y53848D01*
X122059Y53895D01*
X121943Y53953D01*
X121861Y53988D01*
X121814Y54011D01*
X121791Y54023D01*
X121639Y54104D01*
X121488Y54186D01*
X121360Y54268D01*
X121243Y54338D01*
X121150Y54408D01*
X121080Y54454D01*
X121033Y54489D01*
X121022Y54501D01*
X120893Y54606D01*
X120765Y54711D01*
X120660Y54816D01*
X120567Y54909D01*
X120497Y54979D01*
X120439Y55037D01*
X120404Y55084D01*
X120392Y55096D01*
X120217Y55352D01*
X120135Y55469D01*
X120065Y55574D01*
X120019Y55667D01*
X119972Y55748D01*
X119949Y55795D01*
X119937Y55807D01*
X119809Y56098D01*
X119762Y56238D01*
X119727Y56366D01*
X119692Y56471D01*
X119669Y56553D01*
X119657Y56599D01*
Y56623D01*
X119599Y56949D01*
X119587Y57101D01*
X119576Y57229D01*
X119564Y57346D01*
Y57439D01*
Y57497D01*
Y57520D01*
Y57672D01*
X119576Y57812D01*
X119587Y57940D01*
X119599Y58057D01*
X119611Y58150D01*
X119622Y58232D01*
X119634Y58278D01*
Y58290D01*
X119681Y58535D01*
X119704Y58651D01*
X119727Y58745D01*
X119762Y58826D01*
X119774Y58896D01*
X119797Y58931D01*
Y58943D01*
X119902Y59153D01*
X119949Y59246D01*
X119996Y59328D01*
X120031Y59398D01*
X120065Y59444D01*
X120077Y59479D01*
X120089Y59491D01*
X120205Y59666D01*
X120310Y59805D01*
X120357Y59864D01*
X120392Y59910D01*
X120415Y59934D01*
X120427Y59945D01*
X120578Y60097D01*
X120718Y60214D01*
X120777Y60260D01*
X120823Y60295D01*
X120847Y60318D01*
X120858Y60330D01*
X121033Y60458D01*
X121196Y60563D01*
X121266Y60598D01*
X121325Y60633D01*
X121360Y60645D01*
X121371Y60657D01*
X121569Y60750D01*
X121663Y60796D01*
X121756Y60831D01*
X121826Y60866D01*
X121884Y60890D01*
X121919Y60913D01*
X121931D01*
X122141Y60995D01*
X122246Y61030D01*
X122327Y61053D01*
X122409Y61088D01*
X122467Y61100D01*
X122502Y61123D01*
X122514D01*
X122630Y61170D01*
X122724Y61193D01*
X122782Y61216D01*
X122817Y61228D01*
X122840D01*
X122864Y61240D01*
X122899Y61251D01*
X122945Y61263D01*
X123062Y61309D01*
X123213Y61368D01*
X123365Y61414D01*
X123493Y61461D01*
X123540Y61484D01*
X123586Y61496D01*
X123610Y61508D01*
X123621D01*
X123785Y61554D01*
X123925Y61601D01*
X123983Y61624D01*
X124030Y61636D01*
X124053Y61648D01*
X124064D01*
X124216Y61718D01*
X124344Y61764D01*
X124403Y61788D01*
X124438Y61799D01*
X124461Y61811D01*
X124473D01*
X124612Y61869D01*
X124729Y61916D01*
X124776Y61939D01*
X124811Y61962D01*
X124834Y61974D01*
X124846D01*
X124962Y62044D01*
X125067Y62114D01*
X125137Y62161D01*
X125149Y62172D01*
X125160D01*
X125277Y62254D01*
X125359Y62324D01*
X125417Y62382D01*
X125440Y62405D01*
X125522Y62499D01*
X125580Y62592D01*
X125627Y62662D01*
X125638Y62674D01*
Y62685D01*
X125697Y62802D01*
X125743Y62907D01*
X125767Y62988D01*
X125778Y63000D01*
Y63012D01*
X125802Y63152D01*
X125813Y63280D01*
X125825Y63326D01*
Y63373D01*
Y63396D01*
Y63408D01*
X125813Y63560D01*
X125790Y63699D01*
X125767Y63816D01*
X125732Y63921D01*
X125697Y64003D01*
X125662Y64073D01*
X125650Y64108D01*
X125638Y64119D01*
X125557Y64224D01*
X125475Y64317D01*
X125382Y64387D01*
X125300Y64457D01*
X125219Y64504D01*
X125160Y64539D01*
X125114Y64562D01*
X125102Y64574D01*
X124822Y64679D01*
X124694Y64714D01*
X124577Y64749D01*
X124473Y64784D01*
X124391Y64807D01*
X124344Y64819D01*
X124321D01*
X124006Y64865D01*
X123866Y64877D01*
X123726Y64889D01*
X123610Y64900D01*
X123283D01*
X123132Y64889D01*
X122980D01*
X122852Y64877D01*
X122747Y64865D01*
X122665D01*
X122619Y64854D01*
X122596D01*
X122304Y64807D01*
X122164Y64784D01*
X122048Y64760D01*
X121943Y64737D01*
X121873Y64725D01*
X121814Y64702D01*
X121803D01*
X121523Y64644D01*
X121406Y64609D01*
X121301Y64586D01*
X121208Y64562D01*
X121138Y64539D01*
X121091Y64527D01*
X121080D01*
X120847Y64457D01*
X120742Y64422D01*
X120648Y64387D01*
X120567Y64364D01*
X120509Y64341D01*
X120474Y64329D01*
X120462D01*
X120392Y64492D01*
X120334Y64632D01*
X120322Y64690D01*
X120299Y64737D01*
X120287Y64760D01*
Y64772D01*
X120229Y64947D01*
X120170Y65099D01*
X120159Y65157D01*
X120147Y65203D01*
X120135Y65238D01*
Y65250D01*
X120089Y65437D01*
X120065Y65518D01*
X120054Y65600D01*
X120042Y65658D01*
X120031Y65705D01*
X120019Y65740D01*
Y65751D01*
X119984Y65938D01*
X119961Y66101D01*
X119949Y66171D01*
X119937Y66218D01*
Y66253D01*
Y66264D01*
X120217Y66346D01*
X120345Y66393D01*
X120462Y66428D01*
X120567Y66451D01*
X120648Y66474D01*
X120695Y66498D01*
X120718D01*
X121022Y66579D01*
X121173Y66614D01*
X121313Y66638D01*
X121430Y66673D01*
X121523Y66684D01*
X121581Y66707D01*
X121604D01*
X121943Y66766D01*
X122106Y66789D01*
X122246Y66812D01*
X122374Y66824D01*
X122467Y66836D01*
X122526Y66847D01*
X122549D01*
X122899Y66871D01*
X123074D01*
X123213Y66882D01*
X123528D01*
X123960Y66871D01*
D02*
G37*
G36*
X140188Y66684D02*
X140258Y66673D01*
X140491D01*
X140538Y66661D01*
X140608D01*
X140760Y66649D01*
X140888Y66626D01*
X140993Y66614D01*
X141074D01*
X141144Y66603D01*
X141203Y66591D01*
X141238D01*
Y66428D01*
Y66299D01*
Y66253D01*
Y66218D01*
Y66195D01*
Y66183D01*
Y66066D01*
Y65961D01*
Y65903D01*
Y65891D01*
Y65880D01*
Y65693D01*
Y65530D01*
Y65402D01*
Y65297D01*
Y65227D01*
Y65168D01*
Y65145D01*
Y65134D01*
Y65087D01*
Y65029D01*
Y64889D01*
Y64725D01*
Y64551D01*
Y64376D01*
Y64236D01*
Y64189D01*
Y64142D01*
Y64119D01*
Y64108D01*
Y63898D01*
Y63793D01*
Y63699D01*
Y63618D01*
Y63560D01*
Y63513D01*
Y63501D01*
Y63222D01*
Y63082D01*
Y62953D01*
Y62848D01*
Y62767D01*
Y62709D01*
Y62685D01*
Y62452D01*
Y62219D01*
Y61986D01*
Y61764D01*
Y61578D01*
Y61496D01*
Y61426D01*
Y61379D01*
Y61333D01*
Y61309D01*
Y61298D01*
Y60983D01*
Y60668D01*
Y60342D01*
Y60050D01*
Y59922D01*
Y59794D01*
Y59689D01*
Y59596D01*
Y59514D01*
Y59456D01*
Y59421D01*
Y59409D01*
X141226Y59048D01*
X141214Y58721D01*
X141191Y58430D01*
X141168Y58173D01*
X141156Y58057D01*
X141144Y57952D01*
Y57870D01*
X141133Y57800D01*
X141121Y57742D01*
X141109Y57695D01*
Y57672D01*
Y57660D01*
X141063Y57381D01*
X141004Y57112D01*
X140946Y56879D01*
X140888Y56681D01*
X140841Y56518D01*
X140794Y56390D01*
X140783Y56343D01*
X140771Y56308D01*
X140760Y56296D01*
Y56285D01*
X140666Y56075D01*
X140573Y55865D01*
X140480Y55690D01*
X140386Y55539D01*
X140305Y55410D01*
X140247Y55317D01*
X140200Y55259D01*
X140188Y55235D01*
X140060Y55072D01*
X139932Y54921D01*
X139815Y54781D01*
X139699Y54664D01*
X139605Y54571D01*
X139524Y54501D01*
X139477Y54454D01*
X139454Y54443D01*
X139291Y54326D01*
X139139Y54221D01*
X138988Y54128D01*
X138848Y54046D01*
X138731Y53988D01*
X138638Y53930D01*
X138579Y53906D01*
X138556Y53895D01*
X138183Y53755D01*
X138008Y53696D01*
X137845Y53650D01*
X137717Y53615D01*
X137612Y53591D01*
X137542Y53568D01*
X137519D01*
X137309Y53533D01*
X137110Y53498D01*
X136912Y53475D01*
X136737Y53452D01*
X136597Y53428D01*
X136481Y53417D01*
X136446D01*
X136411Y53405D01*
X136388D01*
X136166Y53393D01*
X135945Y53382D01*
X135746Y53370D01*
X135560D01*
X135397Y53358D01*
X134930D01*
X134697Y53370D01*
X134487D01*
X134289Y53382D01*
X134126Y53393D01*
X133998D01*
X133951Y53405D01*
X133893D01*
X133659Y53428D01*
X133438Y53463D01*
X133228Y53487D01*
X133042Y53522D01*
X132878Y53545D01*
X132762Y53568D01*
X132715D01*
X132680Y53580D01*
X132657D01*
X132424Y53626D01*
X132214Y53661D01*
X132016Y53708D01*
X131852Y53743D01*
X131701Y53766D01*
X131596Y53790D01*
X131526Y53813D01*
X131503D01*
X131316Y53860D01*
X131141Y53906D01*
X130978Y53953D01*
X130826Y53988D01*
X130710Y54011D01*
X130628Y54035D01*
X130570Y54058D01*
X130547D01*
Y54198D01*
Y54338D01*
Y54454D01*
Y54559D01*
Y54652D01*
Y54711D01*
Y54757D01*
Y54769D01*
Y54979D01*
Y55072D01*
Y55154D01*
Y55212D01*
Y55270D01*
Y55294D01*
Y55305D01*
Y55504D01*
Y55678D01*
Y55830D01*
Y55946D01*
Y56052D01*
Y56110D01*
Y56156D01*
Y56168D01*
Y56390D01*
Y56506D01*
Y56611D01*
Y56693D01*
Y56774D01*
Y56821D01*
Y56833D01*
Y56937D01*
Y57031D01*
Y57089D01*
Y57101D01*
Y57112D01*
Y57229D01*
Y57334D01*
Y57381D01*
Y57415D01*
Y57439D01*
Y57450D01*
Y57590D01*
Y57730D01*
Y57789D01*
Y57835D01*
Y57859D01*
Y57870D01*
Y58045D01*
Y58220D01*
Y58278D01*
Y58337D01*
Y58372D01*
Y58383D01*
Y58558D01*
Y58745D01*
Y58920D01*
Y59083D01*
Y59234D01*
Y59339D01*
Y59386D01*
Y59421D01*
Y59433D01*
Y59444D01*
Y59689D01*
Y59934D01*
Y60179D01*
Y60400D01*
Y60598D01*
Y60680D01*
Y60750D01*
Y60808D01*
Y60855D01*
Y60878D01*
Y60890D01*
Y61286D01*
Y61694D01*
Y62102D01*
Y62289D01*
Y62475D01*
Y62650D01*
Y62802D01*
Y62953D01*
Y63070D01*
Y63163D01*
Y63245D01*
Y63292D01*
Y63303D01*
Y63851D01*
Y64411D01*
Y64959D01*
Y65227D01*
Y65472D01*
Y65705D01*
Y65915D01*
Y66113D01*
Y66276D01*
Y66404D01*
Y66509D01*
Y66568D01*
Y66591D01*
X130652Y66614D01*
X130745Y66626D01*
X130815Y66638D01*
X130838D01*
X130955Y66649D01*
X131060D01*
X131106Y66661D01*
X131165D01*
X131281Y66673D01*
X131479D01*
X131584Y66684D01*
X131678Y66696D01*
X131887D01*
X131981Y66684D01*
X132051Y66673D01*
X132284D01*
X132365Y66661D01*
X132389D01*
X132517Y66649D01*
X132622D01*
X132692Y66638D01*
X132715D01*
X132832Y66626D01*
X132925Y66603D01*
X132983Y66591D01*
X133007D01*
Y66463D01*
Y66346D01*
Y66241D01*
Y66148D01*
Y66078D01*
Y66020D01*
Y65985D01*
Y65973D01*
Y65798D01*
Y65717D01*
Y65647D01*
Y65588D01*
Y65542D01*
Y65518D01*
Y65507D01*
Y65285D01*
Y65087D01*
Y64924D01*
Y64807D01*
Y64702D01*
Y64644D01*
Y64597D01*
Y64586D01*
Y64469D01*
Y64317D01*
Y64166D01*
Y64014D01*
Y63874D01*
Y63758D01*
Y63711D01*
Y63676D01*
Y63664D01*
Y63653D01*
Y63525D01*
Y63408D01*
Y63361D01*
Y63326D01*
Y63303D01*
Y63292D01*
Y63140D01*
Y63000D01*
Y62942D01*
Y62895D01*
Y62860D01*
Y62848D01*
Y62697D01*
Y62545D01*
Y62394D01*
Y62254D01*
Y62126D01*
Y62032D01*
Y61962D01*
Y61951D01*
Y61939D01*
Y61729D01*
Y61519D01*
Y61309D01*
Y61111D01*
Y60948D01*
Y60808D01*
Y60761D01*
Y60727D01*
Y60703D01*
Y60692D01*
Y60342D01*
Y59980D01*
Y59631D01*
Y59293D01*
Y59141D01*
Y59001D01*
Y58885D01*
Y58780D01*
Y58686D01*
Y58628D01*
Y58581D01*
Y58570D01*
Y58092D01*
Y57614D01*
Y57136D01*
Y56903D01*
Y56693D01*
Y56483D01*
Y56308D01*
Y56133D01*
Y55993D01*
Y55888D01*
Y55795D01*
Y55748D01*
Y55725D01*
X133356Y55632D01*
X133531Y55597D01*
X133683Y55574D01*
X133823Y55550D01*
X133928Y55527D01*
X133998Y55515D01*
X134021D01*
X134429Y55480D01*
X134627Y55469D01*
X134814D01*
X134977Y55457D01*
X135210D01*
X135513Y55469D01*
X135653D01*
X135770Y55480D01*
X135875D01*
X135945Y55492D01*
X136014D01*
X136154Y55515D01*
X136283Y55539D01*
X136399Y55562D01*
X136504Y55585D01*
X136597Y55597D01*
X136656Y55620D01*
X136702Y55632D01*
X136714D01*
X136947Y55702D01*
X137052Y55748D01*
X137145Y55783D01*
X137227Y55818D01*
X137285Y55853D01*
X137320Y55865D01*
X137332Y55877D01*
X137519Y56005D01*
X137612Y56063D01*
X137682Y56121D01*
X137740Y56168D01*
X137787Y56215D01*
X137822Y56238D01*
X137833Y56250D01*
X137985Y56436D01*
X138113Y56611D01*
X138160Y56693D01*
X138195Y56751D01*
X138218Y56786D01*
X138230Y56798D01*
X138346Y57042D01*
X138393Y57159D01*
X138440Y57264D01*
X138463Y57369D01*
X138486Y57439D01*
X138510Y57485D01*
Y57509D01*
X138591Y57812D01*
X138614Y57964D01*
X138638Y58103D01*
X138661Y58220D01*
X138673Y58313D01*
X138684Y58372D01*
Y58395D01*
X138708Y58780D01*
X138719Y58966D01*
Y59141D01*
X138731Y59293D01*
Y59398D01*
Y59444D01*
Y59479D01*
Y59491D01*
Y59502D01*
Y59666D01*
Y59794D01*
Y59840D01*
Y59875D01*
Y59899D01*
Y59910D01*
Y60039D01*
Y60132D01*
Y60202D01*
Y60214D01*
Y60225D01*
Y60412D01*
Y60563D01*
Y60680D01*
Y60785D01*
Y60855D01*
Y60913D01*
Y60936D01*
Y60948D01*
Y60995D01*
Y61053D01*
Y61193D01*
Y61356D01*
Y61531D01*
Y61694D01*
Y61834D01*
Y61881D01*
Y61927D01*
Y61951D01*
Y61962D01*
Y62161D01*
Y62266D01*
Y62359D01*
Y62440D01*
Y62499D01*
Y62545D01*
Y62557D01*
Y62825D01*
Y62965D01*
Y63082D01*
Y63186D01*
Y63280D01*
Y63326D01*
Y63350D01*
Y63583D01*
Y63816D01*
Y64049D01*
Y64259D01*
Y64446D01*
Y64527D01*
Y64597D01*
Y64655D01*
Y64690D01*
Y64714D01*
Y64725D01*
Y65040D01*
Y65355D01*
Y65670D01*
Y65961D01*
Y66090D01*
Y66218D01*
Y66323D01*
Y66416D01*
Y66486D01*
Y66544D01*
Y66579D01*
Y66591D01*
X138848Y66614D01*
X138941Y66626D01*
X139011Y66638D01*
X139034D01*
X139151Y66649D01*
X139256D01*
X139337Y66661D01*
X139361D01*
X139489Y66673D01*
X139710D01*
X139815Y66684D01*
X139909Y66696D01*
X140095D01*
X140188Y66684D01*
D02*
G37*
G36*
X149935Y71872D02*
X150273D01*
X150320Y71860D01*
X150390D01*
X150529Y71849D01*
X150646D01*
X150693Y71837D01*
X150763D01*
X150891Y71826D01*
X150996Y71802D01*
X151077Y71791D01*
X151101D01*
X151171Y71581D01*
X151229Y71382D01*
X151287Y71208D01*
X151334Y71056D01*
X151381Y70939D01*
X151416Y70846D01*
X151427Y70788D01*
X151439Y70765D01*
X151486Y70601D01*
X151532Y70462D01*
X151579Y70322D01*
X151614Y70205D01*
X151637Y70112D01*
X151660Y70042D01*
X151684Y69995D01*
Y69984D01*
X151777Y69692D01*
X151859Y69447D01*
X151929Y69237D01*
X151987Y69062D01*
X152033Y68923D01*
X152068Y68829D01*
X152080Y68771D01*
X152092Y68748D01*
X152150Y68584D01*
X152197Y68421D01*
X152255Y68258D01*
X152302Y68106D01*
X152348Y67967D01*
X152372Y67862D01*
X152395Y67792D01*
X152407Y67780D01*
Y67768D01*
X152453Y67640D01*
X152500Y67512D01*
X152511Y67465D01*
X152523Y67419D01*
X152535Y67395D01*
Y67384D01*
X152593Y67209D01*
X152640Y67045D01*
X152663Y66987D01*
X152686Y66929D01*
X152698Y66894D01*
Y66882D01*
X152768Y66673D01*
X152791Y66579D01*
X152826Y66486D01*
X152850Y66404D01*
X152873Y66346D01*
X152896Y66299D01*
Y66288D01*
X152978Y66031D01*
X153024Y65903D01*
X153059Y65786D01*
X153094Y65682D01*
X153118Y65600D01*
X153129Y65553D01*
X153141Y65530D01*
X153223Y65273D01*
X153304Y65017D01*
X153386Y64760D01*
X153467Y64516D01*
X153537Y64306D01*
X153572Y64212D01*
X153596Y64142D01*
X153619Y64073D01*
X153631Y64026D01*
X153642Y64003D01*
Y63991D01*
X153747Y63653D01*
X153864Y63292D01*
X153980Y62953D01*
X154074Y62639D01*
X154132Y62487D01*
X154167Y62359D01*
X154214Y62242D01*
X154237Y62137D01*
X154272Y62056D01*
X154295Y61986D01*
X154307Y61951D01*
Y61939D01*
X154400Y61659D01*
X154493Y61356D01*
X154692Y60761D01*
X154878Y60167D01*
X154971Y59887D01*
X155065Y59619D01*
X155146Y59363D01*
X155216Y59129D01*
X155286Y58931D01*
X155344Y58745D01*
X155391Y58605D01*
X155414Y58500D01*
X155438Y58430D01*
X155449Y58418D01*
Y58407D01*
X155578Y58022D01*
X155706Y57625D01*
X155974Y56809D01*
X156102Y56413D01*
X156230Y56017D01*
X156359Y55632D01*
X156475Y55270D01*
X156580Y54932D01*
X156685Y54629D01*
X156778Y54349D01*
X156848Y54116D01*
X156883Y54011D01*
X156918Y53930D01*
X156942Y53848D01*
X156965Y53778D01*
X156977Y53731D01*
X156988Y53696D01*
X157000Y53673D01*
Y53661D01*
X156895Y53638D01*
X156802Y53615D01*
X156732Y53603D01*
X156708D01*
X156592Y53591D01*
X156499D01*
X156417Y53580D01*
X156394D01*
X156265Y53568D01*
X156044D01*
X155916Y53556D01*
X155578D01*
X155473Y53568D01*
X155239D01*
X155135Y53580D01*
X155030D01*
X154913Y53591D01*
X154820D01*
X154738Y53603D01*
X154715D01*
X154587Y53626D01*
X154482Y53638D01*
X154435Y53650D01*
X154400Y53661D01*
X154377D01*
X154225Y54163D01*
X154085Y54641D01*
X153957Y55084D01*
X153841Y55492D01*
X153736Y55865D01*
X153631Y56215D01*
X153537Y56518D01*
X153456Y56798D01*
X153386Y57042D01*
X153328Y57252D01*
X153269Y57439D01*
X153234Y57590D01*
X153199Y57695D01*
X153176Y57777D01*
X153153Y57835D01*
Y57847D01*
X146262D01*
X146227Y57730D01*
X146193Y57625D01*
X146158Y57532D01*
X146134Y57450D01*
X146099Y57311D01*
X146064Y57217D01*
X146053Y57159D01*
X146041Y57112D01*
X146029Y57089D01*
X146018Y57066D01*
Y57031D01*
X145983Y56949D01*
X145948Y56833D01*
X145913Y56716D01*
X145878Y56599D01*
X145843Y56494D01*
X145831Y56425D01*
X145819Y56413D01*
Y56401D01*
X145784Y56285D01*
X145761Y56168D01*
X145749Y56110D01*
X145738Y56075D01*
X145726Y56052D01*
Y56040D01*
X145668Y55888D01*
X145621Y55737D01*
X145598Y55667D01*
X145586Y55608D01*
X145575Y55574D01*
Y55562D01*
X145528Y55434D01*
X145481Y55294D01*
X145446Y55154D01*
X145411Y55037D01*
X145376Y54921D01*
X145353Y54839D01*
X145330Y54781D01*
Y54757D01*
X145271Y54571D01*
X145213Y54384D01*
X145155Y54198D01*
X145108Y54035D01*
X145062Y53883D01*
X145027Y53766D01*
X145015Y53720D01*
X145003Y53685D01*
X144992Y53673D01*
Y53661D01*
X144887Y53638D01*
X144782Y53615D01*
X144712Y53603D01*
X144689D01*
X144572Y53591D01*
X144455D01*
X144409Y53580D01*
X144350D01*
X144234Y53568D01*
X144012D01*
X143896Y53556D01*
X143546D01*
X143429Y53568D01*
X143196D01*
X143068Y53580D01*
X142951D01*
X142811Y53591D01*
X142695D01*
X142660Y53603D01*
X142590D01*
X142462Y53626D01*
X142368Y53638D01*
X142298Y53661D01*
X142275D01*
X142345Y53871D01*
X142403Y54058D01*
X142462Y54233D01*
X142508Y54384D01*
X142543Y54501D01*
X142578Y54594D01*
X142590Y54652D01*
X142602Y54676D01*
X142648Y54839D01*
X142695Y54991D01*
X142741Y55119D01*
X142776Y55235D01*
X142800Y55340D01*
X142823Y55410D01*
X142846Y55457D01*
Y55469D01*
X142940Y55760D01*
X143033Y56005D01*
X143103Y56215D01*
X143150Y56390D01*
X143196Y56518D01*
X143231Y56611D01*
X143243Y56669D01*
X143254Y56693D01*
X143313Y56856D01*
X143359Y57019D01*
X143418Y57182D01*
X143464Y57346D01*
X143511Y57474D01*
X143546Y57579D01*
X143569Y57649D01*
X143581Y57660D01*
Y57672D01*
X143616Y57812D01*
X143651Y57940D01*
X143674Y57987D01*
X143686Y58033D01*
X143698Y58057D01*
Y58068D01*
X143756Y58243D01*
X143814Y58395D01*
X143826Y58465D01*
X143849Y58511D01*
X143861Y58546D01*
Y58558D01*
X143931Y58768D01*
X143954Y58873D01*
X143989Y58966D01*
X144012Y59048D01*
X144036Y59106D01*
X144059Y59153D01*
Y59164D01*
X144141Y59421D01*
X144187Y59549D01*
X144222Y59666D01*
X144257Y59759D01*
X144281Y59840D01*
X144292Y59887D01*
X144304Y59910D01*
X144385Y60167D01*
X144467Y60423D01*
X144549Y60680D01*
X144630Y60925D01*
X144689Y61135D01*
X144724Y61228D01*
X144747Y61298D01*
X144770Y61368D01*
X144782Y61414D01*
X144793Y61438D01*
Y61449D01*
X144910Y61788D01*
X145027Y62149D01*
X145132Y62487D01*
X145237Y62814D01*
X145283Y62965D01*
X145330Y63093D01*
X145376Y63210D01*
X145400Y63315D01*
X145435Y63396D01*
X145458Y63466D01*
X145470Y63501D01*
Y63513D01*
X145563Y63804D01*
X145656Y64096D01*
X145854Y64690D01*
X146041Y65285D01*
X146134Y65565D01*
X146227Y65833D01*
X146309Y66090D01*
X146379Y66311D01*
X146449Y66521D01*
X146507Y66696D01*
X146554Y66836D01*
X146577Y66941D01*
X146601Y67011D01*
X146612Y67034D01*
X146740Y67419D01*
X146869Y67827D01*
X147137Y68631D01*
X147265Y69039D01*
X147393Y69436D01*
X147510Y69809D01*
X147626Y70170D01*
X147743Y70508D01*
X147836Y70823D01*
X147930Y71091D01*
X148000Y71336D01*
X148034Y71441D01*
X148069Y71522D01*
X148093Y71604D01*
X148116Y71674D01*
X148128Y71721D01*
X148139Y71756D01*
X148151Y71779D01*
Y71791D01*
X148279Y71814D01*
X148396Y71826D01*
X148443D01*
X148478Y71837D01*
X148501D01*
X148641Y71849D01*
X148757D01*
X148816Y71860D01*
X148886D01*
X149025Y71872D01*
X149259D01*
X149387Y71884D01*
X149877D01*
X149935Y71872D01*
D02*
G37*
G36*
X125000Y28000D02*
X122460D01*
Y30540D01*
X125000D01*
Y28000D01*
D02*
G37*
G36*
X117617Y69820D02*
X117629Y69727D01*
X117641Y69657D01*
X117652Y69645D01*
Y69634D01*
X117664Y69529D01*
Y69436D01*
X117676Y69366D01*
Y69354D01*
Y69342D01*
X117687Y69226D01*
Y69132D01*
X117699Y69062D01*
Y69051D01*
Y69039D01*
Y68934D01*
Y68853D01*
Y68783D01*
Y68771D01*
Y68759D01*
Y68549D01*
X117687Y68456D01*
Y68363D01*
Y68293D01*
X117676Y68235D01*
Y68200D01*
Y68188D01*
X117652Y68001D01*
X117641Y67908D01*
X117629Y67838D01*
X117617Y67768D01*
X117606Y67722D01*
X117594Y67687D01*
Y67675D01*
X111123D01*
X111380Y67267D01*
X111636Y66871D01*
X111870Y66486D01*
X112103Y66125D01*
X112336Y65763D01*
X112546Y65425D01*
X112756Y65087D01*
X112965Y64772D01*
X113152Y64469D01*
X113338Y64177D01*
X113513Y63898D01*
X113688Y63630D01*
X113840Y63385D01*
X113991Y63140D01*
X114143Y62918D01*
X114271Y62697D01*
X114399Y62499D01*
X114528Y62312D01*
X114633Y62137D01*
X114738Y61974D01*
X114831Y61823D01*
X114924Y61694D01*
X114994Y61566D01*
X115064Y61461D01*
X115134Y61356D01*
X115181Y61274D01*
X115227Y61205D01*
X115262Y61146D01*
X115297Y61100D01*
X115321Y61065D01*
X115332Y61053D01*
Y61041D01*
X115297Y60983D01*
X115274Y60960D01*
Y60948D01*
Y60936D01*
X115251Y60913D01*
X115227Y60878D01*
X115204Y60831D01*
X115169Y60785D01*
X115146Y60738D01*
X115134Y60715D01*
X115122Y60703D01*
X114936Y60738D01*
X114784Y60773D01*
X114714Y60785D01*
X114668D01*
X114633Y60796D01*
X114621D01*
X114423Y60831D01*
X114341Y60843D01*
X114260Y60855D01*
X114190D01*
X114143Y60866D01*
X114096D01*
X113910Y60878D01*
X113758D01*
X113688Y60890D01*
X113595D01*
X113408Y60901D01*
X113082D01*
X112779Y60890D01*
X112499Y60878D01*
X112243Y60843D01*
X112021Y60808D01*
X111835Y60773D01*
X111765Y60761D01*
X111695Y60750D01*
X111648Y60738D01*
X111613Y60727D01*
X111590Y60715D01*
X111578D01*
X111333Y60633D01*
X111112Y60540D01*
X110902Y60447D01*
X110727Y60353D01*
X110587Y60272D01*
X110471Y60202D01*
X110401Y60155D01*
X110377Y60144D01*
X110191Y59992D01*
X110039Y59840D01*
X109911Y59677D01*
X109794Y59526D01*
X109713Y59398D01*
X109654Y59281D01*
X109619Y59211D01*
X109608Y59199D01*
Y59188D01*
X109515Y58966D01*
X109456Y58733D01*
X109410Y58500D01*
X109375Y58290D01*
X109351Y58103D01*
Y58022D01*
X109340Y57952D01*
Y57905D01*
Y57859D01*
Y57835D01*
Y57824D01*
Y57637D01*
X109351Y57450D01*
X109375Y57287D01*
X109386Y57147D01*
X109410Y57019D01*
X109433Y56937D01*
X109445Y56879D01*
Y56856D01*
X109480Y56704D01*
X109526Y56553D01*
X109561Y56425D01*
X109608Y56308D01*
X109654Y56203D01*
X109678Y56133D01*
X109701Y56087D01*
X109713Y56075D01*
X109783Y55946D01*
X109853Y55818D01*
X109934Y55713D01*
X109993Y55608D01*
X110051Y55539D01*
X110097Y55469D01*
X110132Y55434D01*
X110144Y55422D01*
X110331Y55212D01*
X110424Y55119D01*
X110517Y55049D01*
X110587Y54979D01*
X110645Y54932D01*
X110692Y54909D01*
X110704Y54897D01*
X110937Y54734D01*
X111053Y54664D01*
X111158Y54618D01*
X111240Y54571D01*
X111322Y54536D01*
X111368Y54513D01*
X111380Y54501D01*
X111648Y54396D01*
X111776Y54349D01*
X111904Y54314D01*
X112009Y54279D01*
X112091Y54256D01*
X112138Y54233D01*
X112161D01*
X112476Y54174D01*
X112627Y54139D01*
X112756Y54128D01*
X112872Y54104D01*
X112954Y54093D01*
X113012Y54081D01*
X113035D01*
X113362Y54058D01*
X113525Y54046D01*
X113665D01*
X113793Y54035D01*
X114178D01*
X114376Y54046D01*
X114551D01*
X114714Y54058D01*
X114854Y54069D01*
X114947D01*
X115017Y54081D01*
X115041D01*
X115227Y54104D01*
X115402Y54128D01*
X115554Y54151D01*
X115705Y54174D01*
X115822Y54198D01*
X115903Y54221D01*
X115962Y54233D01*
X115985D01*
X116312Y54326D01*
X116451Y54361D01*
X116580Y54396D01*
X116696Y54431D01*
X116778Y54454D01*
X116825Y54478D01*
X116848D01*
X117151Y54583D01*
X117291Y54629D01*
X117419Y54676D01*
X117524Y54711D01*
X117606Y54746D01*
X117652Y54757D01*
X117676Y54769D01*
X117781Y54583D01*
X117827Y54489D01*
X117862Y54419D01*
X117897Y54349D01*
X117920Y54303D01*
X117932Y54268D01*
X117944Y54256D01*
X118025Y54069D01*
X118060Y53976D01*
X118095Y53895D01*
X118130Y53825D01*
X118142Y53778D01*
X118165Y53743D01*
Y53731D01*
X118235Y53545D01*
X118270Y53452D01*
X118293Y53370D01*
X118317Y53300D01*
X118340Y53242D01*
X118352Y53207D01*
Y53195D01*
X118398Y52997D01*
X118410Y52904D01*
X118433Y52822D01*
X118445Y52752D01*
Y52694D01*
X118457Y52659D01*
Y52647D01*
X118060Y52496D01*
X117874Y52437D01*
X117711Y52379D01*
X117571Y52332D01*
X117454Y52309D01*
X117384Y52286D01*
X117372Y52274D01*
X117361D01*
X116964Y52169D01*
X116778Y52123D01*
X116603Y52088D01*
X116463Y52064D01*
X116347Y52041D01*
X116277Y52018D01*
X116253D01*
X115845Y51959D01*
X115647Y51924D01*
X115472Y51913D01*
X115332Y51889D01*
X115216Y51878D01*
X115169D01*
X115134Y51866D01*
X115111D01*
X114889Y51854D01*
X114668Y51843D01*
X114458Y51831D01*
X114271D01*
X114120Y51819D01*
X113618D01*
X113362Y51831D01*
X113117Y51843D01*
X112907Y51866D01*
X112732Y51878D01*
X112662D01*
X112592Y51889D01*
X112546D01*
X112511Y51901D01*
X112476D01*
X112219Y51948D01*
X111974Y51994D01*
X111753Y52041D01*
X111555Y52076D01*
X111380Y52123D01*
X111252Y52158D01*
X111205Y52169D01*
X111170D01*
X111158Y52181D01*
X111147D01*
X110913Y52251D01*
X110692Y52332D01*
X110482Y52414D01*
X110296Y52484D01*
X110144Y52554D01*
X110028Y52600D01*
X109993Y52624D01*
X109958Y52635D01*
X109946Y52647D01*
X109934D01*
X109736Y52752D01*
X109538Y52869D01*
X109363Y52985D01*
X109200Y53090D01*
X109072Y53183D01*
X108967Y53253D01*
X108908Y53312D01*
X108885Y53323D01*
X108710Y53475D01*
X108547Y53626D01*
X108407Y53766D01*
X108279Y53895D01*
X108174Y54011D01*
X108092Y54104D01*
X108034Y54163D01*
X108022Y54186D01*
X107894Y54373D01*
X107766Y54559D01*
X107661Y54746D01*
X107556Y54909D01*
X107486Y55049D01*
X107416Y55165D01*
X107393Y55200D01*
X107381Y55235D01*
X107369Y55247D01*
Y55259D01*
X107264Y55480D01*
X107183Y55713D01*
X107113Y55935D01*
X107043Y56133D01*
X106996Y56296D01*
X106985Y56378D01*
X106961Y56436D01*
X106950Y56483D01*
Y56518D01*
X106938Y56541D01*
Y56553D01*
X106891Y56821D01*
X106856Y57077D01*
X106833Y57334D01*
X106810Y57567D01*
Y57765D01*
X106798Y57847D01*
Y57917D01*
Y57975D01*
Y58022D01*
Y58045D01*
Y58057D01*
X106810Y58360D01*
X106821Y58488D01*
X106833Y58616D01*
X106845Y58710D01*
X106856Y58791D01*
X106868Y58850D01*
Y58861D01*
X106926Y59164D01*
X106961Y59304D01*
X106996Y59421D01*
X107031Y59526D01*
X107055Y59607D01*
X107066Y59654D01*
X107078Y59677D01*
X107194Y59969D01*
X107253Y60109D01*
X107311Y60225D01*
X107369Y60318D01*
X107404Y60388D01*
X107428Y60447D01*
X107439Y60458D01*
X107521Y60598D01*
X107603Y60727D01*
X107684Y60855D01*
X107766Y60948D01*
X107824Y61041D01*
X107882Y61100D01*
X107917Y61146D01*
X107929Y61158D01*
X108151Y61403D01*
X108255Y61508D01*
X108349Y61589D01*
X108442Y61671D01*
X108512Y61729D01*
X108559Y61764D01*
X108570Y61776D01*
X108838Y61962D01*
X108967Y62044D01*
X109095Y62114D01*
X109200Y62172D01*
X109281Y62219D01*
X109328Y62242D01*
X109351Y62254D01*
X109689Y62382D01*
X109853Y62440D01*
X109993Y62475D01*
X110121Y62510D01*
X110214Y62534D01*
X110284Y62557D01*
X110307D01*
X110692Y62615D01*
X110879Y62639D01*
X111053Y62650D01*
X111205Y62662D01*
X111706D01*
X111765Y62650D01*
X111788Y62639D01*
X111800D01*
X111520Y63070D01*
X111240Y63490D01*
X110972Y63886D01*
X110715Y64271D01*
X110471Y64644D01*
X110237Y65005D01*
X110004Y65355D01*
X109783Y65693D01*
X109573Y66008D01*
X109375Y66323D01*
X109176Y66614D01*
X108990Y66894D01*
X108815Y67162D01*
X108652Y67407D01*
X108500Y67652D01*
X108349Y67873D01*
X108209Y68083D01*
X108081Y68281D01*
X107952Y68468D01*
X107847Y68643D01*
X107742Y68794D01*
X107649Y68934D01*
X107556Y69074D01*
X107486Y69191D01*
X107416Y69284D01*
X107358Y69377D01*
X107311Y69447D01*
X107264Y69517D01*
X107229Y69564D01*
X107218Y69599D01*
X107194Y69610D01*
Y69622D01*
X107276Y69750D01*
X107334Y69844D01*
X107369Y69902D01*
X107381Y69914D01*
X117594D01*
X117617Y69820D01*
D02*
G37*
G36*
X101319Y72047D02*
X101528D01*
X101750Y72035D01*
X101971Y72024D01*
X102181Y72012D01*
X102356Y72000D01*
X102519Y71989D01*
X102636D01*
X102683Y71977D01*
X102741D01*
X102951Y71965D01*
X103149Y71942D01*
X103324Y71930D01*
X103475Y71919D01*
X103592Y71907D01*
X103685Y71895D01*
X103743Y71884D01*
X103767D01*
X104105Y71849D01*
X104256Y71837D01*
X104408Y71826D01*
X104525Y71814D01*
X104618Y71802D01*
X104676Y71791D01*
X104816D01*
Y71581D01*
Y71382D01*
Y71208D01*
Y71056D01*
Y70928D01*
Y70846D01*
Y70788D01*
Y70765D01*
Y70601D01*
Y70462D01*
Y70322D01*
Y70205D01*
Y70112D01*
Y70042D01*
Y69995D01*
Y69984D01*
Y69692D01*
Y69447D01*
Y69237D01*
Y69062D01*
Y68923D01*
Y68829D01*
Y68771D01*
Y68748D01*
Y68584D01*
Y68421D01*
Y68258D01*
Y68106D01*
Y67967D01*
Y67862D01*
Y67792D01*
Y67780D01*
Y67768D01*
Y67628D01*
Y67500D01*
Y67454D01*
Y67407D01*
Y67384D01*
Y67372D01*
Y67209D01*
Y67045D01*
Y66987D01*
Y66929D01*
Y66894D01*
Y66882D01*
Y66673D01*
Y66579D01*
Y66486D01*
Y66404D01*
Y66346D01*
Y66299D01*
Y66288D01*
Y66031D01*
Y65903D01*
Y65786D01*
Y65682D01*
Y65600D01*
Y65553D01*
Y65530D01*
Y65273D01*
Y65017D01*
Y64760D01*
Y64516D01*
Y64306D01*
Y64212D01*
Y64142D01*
Y64073D01*
Y64026D01*
Y64003D01*
Y63991D01*
Y63653D01*
Y63292D01*
Y62953D01*
Y62639D01*
Y62487D01*
Y62359D01*
Y62242D01*
Y62137D01*
Y62056D01*
Y61986D01*
Y61951D01*
Y61939D01*
Y61659D01*
Y61356D01*
Y60761D01*
Y60167D01*
Y59887D01*
Y59619D01*
Y59363D01*
Y59129D01*
Y58931D01*
Y58745D01*
Y58605D01*
Y58500D01*
Y58430D01*
Y58418D01*
Y58407D01*
Y58022D01*
Y57625D01*
Y56809D01*
Y56413D01*
Y56017D01*
Y55632D01*
Y55270D01*
Y54932D01*
Y54629D01*
Y54349D01*
Y54116D01*
Y54011D01*
Y53930D01*
Y53848D01*
Y53778D01*
Y53731D01*
Y53696D01*
Y53673D01*
Y53661D01*
X104490Y53615D01*
X104338Y53591D01*
X104186Y53580D01*
X104070Y53568D01*
X103965Y53556D01*
X103907Y53545D01*
X103883D01*
X103510Y53510D01*
X103324Y53498D01*
X103161Y53487D01*
X103021Y53475D01*
X102904Y53463D01*
X102869Y53452D01*
X102811D01*
X102601Y53428D01*
X102391Y53417D01*
X102193Y53405D01*
X102018Y53393D01*
X101867Y53382D01*
X101750Y53370D01*
X101423D01*
X101214Y53358D01*
X100467D01*
X100024Y53370D01*
X99605Y53382D01*
X99197Y53417D01*
X98812Y53452D01*
X98439Y53487D01*
X98101Y53545D01*
X97774Y53591D01*
X97483Y53650D01*
X97215Y53696D01*
X96981Y53755D01*
X96772Y53801D01*
X96597Y53836D01*
X96468Y53883D01*
X96364Y53906D01*
X96305Y53918D01*
X96282Y53930D01*
X95956Y54046D01*
X95641Y54163D01*
X95338Y54303D01*
X95058Y54443D01*
X94790Y54583D01*
X94545Y54722D01*
X94323Y54874D01*
X94114Y55002D01*
X93927Y55142D01*
X93764Y55259D01*
X93624Y55375D01*
X93507Y55469D01*
X93414Y55550D01*
X93356Y55608D01*
X93309Y55643D01*
X93297Y55655D01*
X93076Y55877D01*
X92866Y56110D01*
X92680Y56343D01*
X92505Y56588D01*
X92341Y56833D01*
X92190Y57077D01*
X92050Y57311D01*
X91933Y57532D01*
X91828Y57742D01*
X91735Y57940D01*
X91653Y58115D01*
X91595Y58267D01*
X91537Y58383D01*
X91502Y58477D01*
X91490Y58535D01*
X91479Y58558D01*
X91374Y58896D01*
X91280Y59246D01*
X91199Y59596D01*
X91129Y59945D01*
X91071Y60295D01*
X91024Y60633D01*
X90977Y60971D01*
X90942Y61286D01*
X90919Y61578D01*
X90907Y61846D01*
X90896Y62079D01*
X90884Y62289D01*
X90872Y62452D01*
Y62522D01*
Y62580D01*
Y62627D01*
Y62662D01*
Y62674D01*
Y62685D01*
X90884Y63105D01*
X90896Y63513D01*
X90931Y63898D01*
X90966Y64271D01*
X91012Y64620D01*
X91059Y64959D01*
X91117Y65262D01*
X91164Y65542D01*
X91222Y65798D01*
X91280Y66031D01*
X91327Y66229D01*
X91374Y66393D01*
X91409Y66521D01*
X91444Y66614D01*
X91455Y66673D01*
X91467Y66696D01*
X91584Y67011D01*
X91712Y67314D01*
X91852Y67605D01*
X91992Y67885D01*
X92143Y68141D01*
X92283Y68386D01*
X92435Y68608D01*
X92575Y68818D01*
X92715Y69004D01*
X92831Y69167D01*
X92948Y69307D01*
X93041Y69424D01*
X93123Y69517D01*
X93193Y69587D01*
X93227Y69634D01*
X93239Y69645D01*
X93472Y69867D01*
X93706Y70077D01*
X93950Y70263D01*
X94207Y70438D01*
X94452Y70601D01*
X94696Y70753D01*
X94941Y70881D01*
X95163Y71009D01*
X95384Y71114D01*
X95571Y71196D01*
X95757Y71278D01*
X95909Y71336D01*
X96025Y71394D01*
X96119Y71429D01*
X96177Y71441D01*
X96200Y71452D01*
X96538Y71557D01*
X96888Y71651D01*
X97250Y71732D01*
X97599Y71802D01*
X97961Y71860D01*
X98299Y71907D01*
X98637Y71954D01*
X98952Y71989D01*
X99243Y72012D01*
X99511Y72024D01*
X99756Y72035D01*
X99966Y72047D01*
X100129Y72059D01*
X101167D01*
X101319Y72047D01*
D02*
G37*
%LPC*%
G36*
X149713Y69342D02*
X149538Y68771D01*
X149375Y68223D01*
X149212Y67687D01*
X149060Y67174D01*
X148909Y66673D01*
X148769Y66195D01*
X148629Y65728D01*
X148501Y65285D01*
X148373Y64865D01*
X148244Y64457D01*
X148128Y64073D01*
X148023Y63699D01*
X147918Y63350D01*
X147813Y63012D01*
X147720Y62697D01*
X147626Y62394D01*
X147545Y62114D01*
X147463Y61858D01*
X147393Y61613D01*
X147323Y61391D01*
X147265Y61181D01*
X147207Y60983D01*
X147160Y60820D01*
X147114Y60668D01*
X147067Y60528D01*
X147032Y60412D01*
X147009Y60307D01*
X146985Y60225D01*
X146962Y60167D01*
X146950Y60120D01*
X146939Y60097D01*
Y60085D01*
X152465D01*
X152290Y60657D01*
X152127Y61205D01*
X151975Y61741D01*
X151824Y62254D01*
X151672Y62755D01*
X151532Y63233D01*
X151392Y63699D01*
X151264Y64142D01*
X151136Y64562D01*
X151019Y64970D01*
X150903Y65355D01*
X150786Y65728D01*
X150681Y66078D01*
X150588Y66416D01*
X150494Y66731D01*
X150401Y67034D01*
X150320Y67314D01*
X150238Y67570D01*
X150168Y67815D01*
X150098Y68048D01*
X150040Y68246D01*
X149981Y68445D01*
X149935Y68608D01*
X149888Y68771D01*
X149842Y68899D01*
X149807Y69016D01*
X149783Y69121D01*
X149760Y69202D01*
X149737Y69261D01*
X149725Y69307D01*
X149713Y69331D01*
Y69342D01*
D02*
G37*
G36*
X101027Y69774D02*
X99920D01*
X99663Y69762D01*
X99430Y69739D01*
X99220Y69727D01*
X99045Y69704D01*
X98963Y69692D01*
X98905Y69680D01*
X98859D01*
X98824Y69669D01*
X98789D01*
X98544Y69634D01*
X98311Y69587D01*
X98089Y69541D01*
X97902Y69494D01*
X97739Y69459D01*
X97623Y69424D01*
X97576Y69412D01*
X97541Y69401D01*
X97529Y69389D01*
X97518D01*
X97296Y69319D01*
X97086Y69237D01*
X96888Y69156D01*
X96725Y69074D01*
X96585Y69004D01*
X96480Y68946D01*
X96410Y68911D01*
X96387Y68899D01*
X96200Y68783D01*
X96014Y68654D01*
X95851Y68526D01*
X95711Y68410D01*
X95594Y68316D01*
X95501Y68235D01*
X95454Y68188D01*
X95431Y68165D01*
X95279Y68001D01*
X95128Y67827D01*
X95000Y67675D01*
X94883Y67523D01*
X94790Y67395D01*
X94720Y67290D01*
X94673Y67220D01*
X94662Y67209D01*
Y67197D01*
X94533Y66987D01*
X94417Y66777D01*
X94323Y66568D01*
X94242Y66381D01*
X94172Y66229D01*
X94125Y66101D01*
X94102Y66055D01*
X94090Y66020D01*
X94079Y65996D01*
Y65985D01*
X93997Y65728D01*
X93927Y65472D01*
X93869Y65215D01*
X93810Y64994D01*
X93775Y64795D01*
X93764Y64714D01*
X93752Y64644D01*
X93740Y64586D01*
X93729Y64539D01*
Y64516D01*
Y64504D01*
X93682Y64201D01*
X93659Y63898D01*
X93636Y63606D01*
X93612Y63338D01*
Y63210D01*
Y63105D01*
X93601Y63012D01*
Y62930D01*
Y62860D01*
Y62814D01*
Y62779D01*
Y62767D01*
Y62394D01*
X93624Y62044D01*
X93636Y61718D01*
X93647Y61578D01*
X93659Y61438D01*
X93671Y61309D01*
X93682Y61205D01*
X93694Y61111D01*
X93706Y61030D01*
X93717Y60960D01*
Y60913D01*
X93729Y60890D01*
Y60878D01*
X93775Y60563D01*
X93834Y60272D01*
X93892Y60004D01*
X93950Y59782D01*
X93997Y59596D01*
X94020Y59514D01*
X94044Y59444D01*
X94055Y59398D01*
X94067Y59363D01*
X94079Y59339D01*
Y59328D01*
X94172Y59071D01*
X94265Y58838D01*
X94370Y58628D01*
X94452Y58453D01*
X94533Y58302D01*
X94603Y58185D01*
X94650Y58115D01*
X94662Y58103D01*
Y58092D01*
X94790Y57894D01*
X94930Y57719D01*
X95058Y57555D01*
X95174Y57415D01*
X95279Y57299D01*
X95373Y57217D01*
X95419Y57171D01*
X95443Y57147D01*
X95606Y56996D01*
X95781Y56868D01*
X95944Y56751D01*
X96096Y56646D01*
X96224Y56564D01*
X96317Y56494D01*
X96387Y56459D01*
X96399Y56448D01*
X96410D01*
X96608Y56343D01*
X96807Y56250D01*
X97005Y56180D01*
X97180Y56110D01*
X97331Y56063D01*
X97448Y56028D01*
X97494Y56005D01*
X97529D01*
X97541Y55993D01*
X97553D01*
X97786Y55935D01*
X98019Y55877D01*
X98229Y55830D01*
X98427Y55795D01*
X98602Y55772D01*
X98730Y55748D01*
X98777D01*
X98812Y55737D01*
X98847D01*
X99348Y55690D01*
X99593Y55678D01*
X99803Y55667D01*
X99989Y55655D01*
X100572D01*
X100654Y55667D01*
X100829D01*
X101027Y55678D01*
X101202D01*
X101260Y55690D01*
X101365D01*
X101563Y55713D01*
X101738Y55725D01*
X101890Y55737D01*
X102018Y55748D01*
X102111Y55760D01*
X102181Y55772D01*
X102240D01*
Y55935D01*
Y56087D01*
Y56215D01*
Y56331D01*
Y56436D01*
Y56506D01*
Y56553D01*
Y56564D01*
Y56798D01*
Y56891D01*
Y56984D01*
Y57054D01*
Y57112D01*
Y57147D01*
Y57159D01*
Y57381D01*
Y57567D01*
Y57730D01*
Y57859D01*
Y57964D01*
Y58045D01*
Y58092D01*
Y58103D01*
Y58360D01*
Y58488D01*
Y58605D01*
Y58698D01*
Y58780D01*
Y58826D01*
Y58850D01*
Y58955D01*
Y59059D01*
Y59141D01*
Y59153D01*
Y59164D01*
Y59293D01*
Y59409D01*
Y59467D01*
Y59502D01*
Y59526D01*
Y59537D01*
Y59689D01*
Y59840D01*
Y59910D01*
Y59957D01*
Y59992D01*
Y60004D01*
Y60202D01*
Y60295D01*
Y60388D01*
Y60458D01*
Y60517D01*
Y60563D01*
Y60575D01*
Y60773D01*
Y60971D01*
Y61170D01*
Y61356D01*
Y61508D01*
Y61636D01*
Y61683D01*
Y61718D01*
Y61741D01*
Y61753D01*
Y62009D01*
Y62289D01*
Y62545D01*
Y62790D01*
Y63012D01*
Y63093D01*
Y63175D01*
Y63245D01*
Y63292D01*
Y63315D01*
Y63326D01*
Y63769D01*
Y64224D01*
Y64679D01*
Y64900D01*
Y65099D01*
Y65297D01*
Y65472D01*
Y65623D01*
Y65763D01*
Y65868D01*
Y65950D01*
Y66008D01*
Y66020D01*
Y66323D01*
Y66626D01*
Y67255D01*
Y67862D01*
Y68153D01*
Y68433D01*
Y68689D01*
Y68934D01*
Y69144D01*
Y69319D01*
Y69471D01*
Y69576D01*
Y69645D01*
Y69669D01*
X102076Y69692D01*
X101925Y69704D01*
X101867Y69715D01*
X101773D01*
X101575Y69739D01*
X101493Y69750D01*
X101412D01*
X101342Y69762D01*
X101237D01*
X101027Y69774D01*
D02*
G37*
%LPD*%
D14*
X154500Y95500D02*
Y154500D01*
X95500Y95500D02*
Y154500D01*
X154500D01*
X95500Y95500D02*
X154500D01*
X63079Y212996D02*
Y211330D01*
X59747Y207998D01*
X56415Y211330D01*
Y212996D01*
X59747Y207998D02*
Y203000D01*
X63079Y194996D02*
X56415D01*
Y193330D01*
X63079Y186666D01*
Y185000D01*
X56415D01*
D15*
X168250Y161250D02*
G03*
X168250Y161250I-1250J0D01*
G01*
D29*
X86001Y215620D02*
G03*
X83461Y218160I-2540J0D01*
G01*
X66824D02*
G03*
X64284Y215620I0J-2540D01*
G01*
Y182380D02*
G03*
X66824Y179840I2540J0D01*
G01*
X83461D02*
G03*
X86001Y182380I0J2540D01*
G01*
X66825Y218160D02*
X83462D01*
X66825Y179839D02*
X83462D01*
D30*
X183238Y136222D02*
X192762D01*
X183238Y139778D02*
X192762D01*
X183238Y103222D02*
X192762D01*
X183238Y106778D02*
X192762D01*
X200936Y178476D02*
Y181524D01*
X209064Y178476D02*
Y181524D01*
X57238Y119778D02*
X66762D01*
X57238Y116222D02*
X66762D01*
X173488Y198504D02*
X186512D01*
X173488Y201496D02*
X186512D01*
X144000Y44002D02*
Y47050D01*
X105950D02*
X144000D01*
X105950Y44002D02*
Y47050D01*
X144000Y9000D02*
Y12000D01*
X105950Y9000D02*
X144000D01*
X105950D02*
Y12000D01*
D31*
X244709Y150400D02*
G03*
X244709Y150400I-11709J0D01*
G01*
X0Y75000D02*
X15000D01*
X235000Y175000D02*
X250000D01*
X235000Y75000D02*
X250000D01*
X0Y175000D02*
X15000D01*
D32*
X34002Y84000D02*
Y90665D01*
X30669Y87332D02*
X37334D01*
X34002Y109000D02*
Y115665D01*
D33*
X171000Y174997D02*
Y168333D01*
X169667Y167000D01*
X167001D01*
X165668Y168333D01*
Y174997D01*
X163003Y167000D02*
X160337D01*
X161670D01*
Y174997D01*
X163003Y173664D01*
X189232Y81706D02*
X190565Y83039D01*
X193231D01*
X194564Y81706D01*
Y76375D01*
X193231Y75042D01*
X190565D01*
X189232Y76375D01*
X182568Y75042D02*
Y83039D01*
X186567Y79041D01*
X181235D01*
X210294Y202132D02*
Y210129D01*
X206295D01*
X204962Y208797D01*
Y206131D01*
X206295Y204798D01*
X210294D01*
X207628D02*
X204962Y202132D01*
X202297D02*
X199631D01*
X200964D01*
Y210129D01*
X202297Y208797D01*
X189248Y166618D02*
X190581Y167951D01*
X193247D01*
X194580Y166618D01*
Y161287D01*
X193247Y159954D01*
X190581D01*
X189248Y161287D01*
X186583Y166618D02*
X185250Y167951D01*
X182584D01*
X181251Y166618D01*
Y165286D01*
X182584Y163953D01*
X183917D01*
X182584D01*
X181251Y162620D01*
Y161287D01*
X182584Y159954D01*
X185250D01*
X186583Y161287D01*
X179928Y229660D02*
X181261Y230993D01*
X183927D01*
X185260Y229660D01*
Y224329D01*
X183927Y222996D01*
X181261D01*
X179928Y224329D01*
X177263Y222996D02*
X174597D01*
X175930D01*
Y230993D01*
X177263Y229660D01*
X62740Y146618D02*
X64073Y147951D01*
X66739D01*
X68072Y146618D01*
Y141287D01*
X66739Y139954D01*
X64073D01*
X62740Y141287D01*
X54743Y139954D02*
X60075D01*
X54743Y145286D01*
Y146618D01*
X56076Y147951D01*
X58742D01*
X60075Y146618D01*
X37664Y132332D02*
X38997Y130999D01*
Y128333D01*
X37664Y127000D01*
X36332D01*
X34999Y128333D01*
Y130999D01*
X33666Y132332D01*
X32333D01*
X31000Y130999D01*
Y128333D01*
X32333Y127000D01*
X38997Y134997D02*
X31000D01*
Y138996D01*
X32333Y140329D01*
X37664D01*
X38997Y138996D01*
Y134997D01*
X31000Y142995D02*
X36332D01*
X38997Y145661D01*
X36332Y148326D01*
X31000D01*
X34999D01*
Y142995D01*
X37664Y159332D02*
X38997Y157999D01*
Y155333D01*
X37664Y154000D01*
X36332D01*
X34999Y155333D01*
Y157999D01*
X33666Y159332D01*
X32333D01*
X31000Y157999D01*
Y155333D01*
X32333Y154000D01*
X37664Y167329D02*
X38997Y165996D01*
Y163330D01*
X37664Y161997D01*
X32333D01*
X31000Y163330D01*
Y165996D01*
X32333Y167329D01*
X38997Y169995D02*
X31000D01*
Y175326D01*
D47*
X147500Y144500D02*
G03*
X147500Y144500I-3000J0D01*
G01*
M02*
