G04 Layer_Color=65535*
%FSLAX44Y44*%
%MOMM*%
G71*
G01*
G75*
%ADD29C,0.2032*%
%ADD30C,0.1270*%
%ADD31C,0.2540*%
%ADD32C,0.1800*%
%ADD33C,0.1500*%
G36*
X98741Y76872D02*
X98975D01*
X99114Y76860D01*
X99184D01*
X99243Y76849D01*
X99359D01*
X99499Y76837D01*
X99522D01*
X99557Y76826D01*
X99604D01*
X99721Y76814D01*
X99849Y76791D01*
Y76779D01*
X99860Y76756D01*
X99872Y76721D01*
X99884Y76674D01*
X99907Y76604D01*
X99930Y76522D01*
X99965Y76441D01*
X100000Y76336D01*
X100070Y76091D01*
X100164Y75823D01*
X100257Y75508D01*
X100373Y75170D01*
X100490Y74809D01*
X100607Y74436D01*
X100735Y74039D01*
X100863Y73631D01*
X101131Y72827D01*
X101260Y72419D01*
X101388Y72034D01*
X101399Y72010D01*
X101423Y71941D01*
X101446Y71836D01*
X101493Y71696D01*
X101551Y71521D01*
X101621Y71311D01*
X101691Y71090D01*
X101772Y70833D01*
X101866Y70565D01*
X101959Y70285D01*
X102146Y69690D01*
X102344Y69096D01*
X102437Y68804D01*
X102530Y68513D01*
Y68501D01*
X102542Y68466D01*
X102565Y68396D01*
X102600Y68315D01*
X102624Y68210D01*
X102670Y68093D01*
X102717Y67965D01*
X102764Y67814D01*
X102868Y67487D01*
X102973Y67149D01*
X103090Y66788D01*
X103207Y66449D01*
Y66438D01*
X103218Y66414D01*
X103230Y66368D01*
X103253Y66298D01*
X103277Y66228D01*
X103312Y66135D01*
X103370Y65925D01*
X103451Y65680D01*
X103533Y65423D01*
X103615Y65167D01*
X103696Y64910D01*
X103708Y64887D01*
X103720Y64840D01*
X103743Y64759D01*
X103778Y64666D01*
X103813Y64549D01*
X103859Y64421D01*
X103941Y64164D01*
Y64153D01*
X103964Y64106D01*
X103988Y64048D01*
X104011Y63966D01*
X104046Y63873D01*
X104069Y63768D01*
X104139Y63558D01*
Y63546D01*
X104151Y63511D01*
X104174Y63465D01*
X104186Y63395D01*
X104244Y63243D01*
X104303Y63068D01*
Y63057D01*
X104314Y63033D01*
X104326Y62987D01*
X104349Y62940D01*
X104384Y62812D01*
X104419Y62672D01*
Y62660D01*
X104431Y62649D01*
X104454Y62579D01*
X104489Y62474D01*
X104536Y62346D01*
X104582Y62182D01*
X104641Y62019D01*
X104687Y61856D01*
X104746Y61693D01*
X104757Y61669D01*
X104769Y61611D01*
X104804Y61518D01*
X104850Y61390D01*
X104897Y61215D01*
X104967Y61005D01*
X105060Y60760D01*
X105154Y60469D01*
Y60457D01*
X105177Y60410D01*
X105200Y60340D01*
X105224Y60235D01*
X105259Y60119D01*
X105305Y59991D01*
X105352Y59839D01*
X105398Y59676D01*
X105410Y59652D01*
X105422Y59594D01*
X105457Y59501D01*
X105492Y59384D01*
X105538Y59233D01*
X105597Y59058D01*
X105655Y58871D01*
X105725Y58661D01*
X105702D01*
X105632Y58638D01*
X105538Y58626D01*
X105410Y58603D01*
X105340D01*
X105305Y58591D01*
X105189D01*
X105049Y58580D01*
X104932D01*
X104804Y58568D01*
X104571D01*
X104454Y58556D01*
X104104D01*
X103988Y58568D01*
X103766D01*
X103650Y58580D01*
X103591D01*
X103545Y58591D01*
X103428D01*
X103312Y58603D01*
X103288D01*
X103218Y58615D01*
X103113Y58638D01*
X103008Y58661D01*
Y58673D01*
X102997Y58685D01*
X102985Y58720D01*
X102973Y58766D01*
X102938Y58883D01*
X102892Y59035D01*
X102845Y59198D01*
X102787Y59384D01*
X102729Y59571D01*
X102670Y59757D01*
Y59781D01*
X102647Y59839D01*
X102624Y59921D01*
X102589Y60037D01*
X102554Y60154D01*
X102519Y60294D01*
X102472Y60434D01*
X102425Y60562D01*
Y60574D01*
X102414Y60608D01*
X102402Y60667D01*
X102379Y60737D01*
X102332Y60888D01*
X102274Y61040D01*
Y61052D01*
X102262Y61075D01*
X102250Y61110D01*
X102239Y61168D01*
X102216Y61285D01*
X102181Y61401D01*
Y61413D01*
X102169Y61424D01*
X102157Y61494D01*
X102122Y61599D01*
X102087Y61716D01*
X102052Y61833D01*
X102017Y61949D01*
X101982Y62031D01*
Y62066D01*
X101971Y62089D01*
X101959Y62112D01*
X101947Y62159D01*
X101936Y62217D01*
X101901Y62311D01*
X101866Y62450D01*
X101842Y62532D01*
X101807Y62625D01*
X101772Y62730D01*
X101738Y62847D01*
X94847D01*
Y62835D01*
X94824Y62777D01*
X94801Y62695D01*
X94766Y62590D01*
X94731Y62439D01*
X94672Y62252D01*
X94614Y62042D01*
X94544Y61798D01*
X94463Y61518D01*
X94369Y61215D01*
X94264Y60865D01*
X94159Y60492D01*
X94043Y60084D01*
X93915Y59641D01*
X93775Y59163D01*
X93623Y58661D01*
X93600D01*
X93565Y58650D01*
X93518Y58638D01*
X93413Y58626D01*
X93285Y58603D01*
X93262D01*
X93180Y58591D01*
X93087D01*
X92970Y58580D01*
X92865D01*
X92760Y58568D01*
X92527D01*
X92422Y58556D01*
X92084D01*
X91956Y58568D01*
X91735D01*
X91606Y58580D01*
X91583D01*
X91501Y58591D01*
X91408D01*
X91292Y58603D01*
X91268D01*
X91198Y58615D01*
X91105Y58638D01*
X91000Y58661D01*
Y58673D01*
X91012Y58696D01*
X91023Y58731D01*
X91035Y58778D01*
X91058Y58848D01*
X91082Y58930D01*
X91117Y59011D01*
X91152Y59116D01*
X91222Y59349D01*
X91315Y59629D01*
X91420Y59932D01*
X91525Y60270D01*
X91641Y60632D01*
X91770Y61017D01*
X91898Y61413D01*
X92026Y61809D01*
X92294Y62625D01*
X92422Y63022D01*
X92551Y63407D01*
Y63418D01*
X92562Y63430D01*
X92586Y63500D01*
X92609Y63605D01*
X92655Y63745D01*
X92714Y63931D01*
X92784Y64129D01*
X92854Y64363D01*
X92935Y64619D01*
X93029Y64887D01*
X93122Y65167D01*
X93308Y65761D01*
X93507Y66356D01*
X93600Y66659D01*
X93693Y66939D01*
Y66951D01*
X93705Y66986D01*
X93728Y67056D01*
X93763Y67137D01*
X93786Y67242D01*
X93833Y67359D01*
X93868Y67487D01*
X93926Y67639D01*
X94020Y67953D01*
X94136Y68292D01*
X94253Y68653D01*
X94358Y68991D01*
Y69003D01*
X94369Y69026D01*
X94381Y69073D01*
X94404Y69142D01*
X94428Y69212D01*
X94463Y69306D01*
X94533Y69516D01*
X94614Y69760D01*
X94696Y70017D01*
X94777Y70273D01*
X94859Y70530D01*
X94871Y70553D01*
X94882Y70600D01*
X94906Y70682D01*
X94941Y70786D01*
X94976Y70903D01*
X95022Y71031D01*
X95104Y71288D01*
Y71299D01*
X95127Y71346D01*
X95150Y71404D01*
X95174Y71486D01*
X95209Y71579D01*
X95232Y71672D01*
X95302Y71882D01*
Y71894D01*
X95314Y71929D01*
X95337Y71987D01*
X95360Y72045D01*
X95407Y72209D01*
X95465Y72384D01*
Y72395D01*
X95477Y72419D01*
X95489Y72465D01*
X95500Y72512D01*
X95547Y72640D01*
X95594Y72768D01*
Y72780D01*
X95605Y72792D01*
X95628Y72862D01*
X95652Y72967D01*
X95698Y73106D01*
X95745Y73258D01*
X95803Y73421D01*
X95850Y73584D01*
X95908Y73748D01*
X95920Y73771D01*
X95932Y73829D01*
X95967Y73923D01*
X96013Y74062D01*
X96072Y74237D01*
X96141Y74447D01*
X96223Y74692D01*
X96316Y74984D01*
Y74995D01*
X96340Y75042D01*
X96363Y75112D01*
X96386Y75205D01*
X96421Y75322D01*
X96468Y75462D01*
X96515Y75601D01*
X96561Y75765D01*
X96573Y75788D01*
X96585Y75846D01*
X96619Y75939D01*
X96666Y76056D01*
X96713Y76208D01*
X96771Y76382D01*
X96829Y76581D01*
X96899Y76791D01*
X96923D01*
X97004Y76802D01*
X97109Y76826D01*
X97237Y76837D01*
X97307D01*
X97354Y76849D01*
X97471D01*
X97610Y76860D01*
X97680D01*
X97727Y76872D01*
X98065D01*
X98123Y76884D01*
X98613D01*
X98741Y76872D01*
D02*
G37*
G36*
X116416Y71684D02*
X116521Y71672D01*
X116719D01*
X116835Y71661D01*
X116894D01*
X116940Y71649D01*
X117045D01*
X117162Y71638D01*
X117185D01*
X117255Y71626D01*
X117348Y71614D01*
X117453Y71591D01*
Y71568D01*
Y71509D01*
Y71404D01*
Y71276D01*
Y71113D01*
Y70915D01*
Y70705D01*
Y70472D01*
Y70227D01*
Y69959D01*
Y69411D01*
Y68851D01*
Y68303D01*
Y68292D01*
Y68245D01*
Y68163D01*
Y68070D01*
Y67953D01*
Y67802D01*
Y67650D01*
Y67475D01*
Y67289D01*
Y67102D01*
Y66694D01*
Y66286D01*
Y65890D01*
Y65878D01*
Y65855D01*
Y65808D01*
Y65750D01*
Y65680D01*
Y65598D01*
Y65400D01*
Y65179D01*
Y64934D01*
Y64689D01*
Y64444D01*
Y64433D01*
Y64421D01*
Y64386D01*
Y64339D01*
Y64234D01*
Y64083D01*
Y63920D01*
Y63745D01*
Y63558D01*
Y63383D01*
Y63372D01*
Y63337D01*
Y63278D01*
Y63220D01*
Y63045D01*
Y62870D01*
Y62859D01*
Y62835D01*
Y62789D01*
Y62730D01*
Y62590D01*
Y62450D01*
Y62439D01*
Y62415D01*
Y62380D01*
Y62334D01*
Y62229D01*
Y62112D01*
Y62101D01*
Y62089D01*
Y62031D01*
Y61937D01*
Y61833D01*
Y61821D01*
Y61774D01*
Y61693D01*
Y61611D01*
Y61506D01*
Y61390D01*
Y61168D01*
Y61156D01*
Y61110D01*
Y61052D01*
Y60946D01*
Y60830D01*
Y60678D01*
Y60504D01*
Y60305D01*
Y60294D01*
Y60270D01*
Y60212D01*
Y60154D01*
Y60072D01*
Y59979D01*
Y59769D01*
Y59757D01*
Y59711D01*
Y59652D01*
Y59559D01*
Y59454D01*
Y59338D01*
Y59198D01*
Y59058D01*
X117430D01*
X117372Y59035D01*
X117290Y59011D01*
X117174Y58988D01*
X117022Y58953D01*
X116859Y58906D01*
X116684Y58860D01*
X116497Y58813D01*
X116474D01*
X116404Y58790D01*
X116299Y58766D01*
X116148Y58743D01*
X115984Y58708D01*
X115786Y58661D01*
X115576Y58626D01*
X115343Y58580D01*
X115320D01*
X115285Y58568D01*
X115238D01*
X115122Y58545D01*
X114958Y58521D01*
X114772Y58487D01*
X114562Y58463D01*
X114340Y58428D01*
X114107Y58405D01*
X114049D01*
X114002Y58393D01*
X113874D01*
X113711Y58382D01*
X113513Y58370D01*
X113303D01*
X113070Y58358D01*
X112603D01*
X112440Y58370D01*
X112254D01*
X112055Y58382D01*
X111834Y58393D01*
X111612Y58405D01*
X111589D01*
X111554Y58417D01*
X111519D01*
X111403Y58428D01*
X111263Y58452D01*
X111088Y58475D01*
X110890Y58498D01*
X110691Y58533D01*
X110482Y58568D01*
X110458D01*
X110388Y58591D01*
X110283Y58615D01*
X110155Y58650D01*
X109992Y58696D01*
X109817Y58755D01*
X109444Y58895D01*
X109421Y58906D01*
X109362Y58930D01*
X109269Y58988D01*
X109152Y59046D01*
X109012Y59128D01*
X108861Y59221D01*
X108709Y59326D01*
X108546Y59443D01*
X108523Y59454D01*
X108476Y59501D01*
X108395Y59571D01*
X108301Y59664D01*
X108185Y59781D01*
X108068Y59921D01*
X107940Y60072D01*
X107812Y60235D01*
X107800Y60259D01*
X107753Y60317D01*
X107695Y60410D01*
X107613Y60539D01*
X107520Y60690D01*
X107427Y60865D01*
X107334Y61075D01*
X107240Y61285D01*
Y61296D01*
X107229Y61308D01*
X107217Y61343D01*
X107205Y61390D01*
X107159Y61518D01*
X107112Y61681D01*
X107054Y61879D01*
X106996Y62112D01*
X106937Y62380D01*
X106891Y62660D01*
Y62672D01*
Y62695D01*
X106879Y62742D01*
X106867Y62800D01*
X106856Y62870D01*
Y62952D01*
X106844Y63057D01*
X106832Y63173D01*
X106809Y63430D01*
X106786Y63721D01*
X106774Y64048D01*
X106762Y64409D01*
Y64421D01*
Y64456D01*
Y64514D01*
Y64596D01*
Y64689D01*
Y64794D01*
Y64922D01*
Y65050D01*
Y65342D01*
Y65668D01*
Y65983D01*
Y66298D01*
Y66309D01*
Y66333D01*
Y66379D01*
Y66426D01*
Y66496D01*
Y66578D01*
Y66764D01*
Y66986D01*
Y67219D01*
Y67452D01*
Y67685D01*
Y67709D01*
Y67767D01*
Y67848D01*
Y67953D01*
Y68082D01*
Y68222D01*
Y68501D01*
Y68513D01*
Y68560D01*
Y68618D01*
Y68699D01*
Y68793D01*
Y68898D01*
Y69108D01*
Y69119D01*
Y69142D01*
Y69189D01*
Y69236D01*
Y69376D01*
Y69551D01*
Y69725D01*
Y69889D01*
Y70029D01*
Y70087D01*
Y70134D01*
Y70145D01*
Y70168D01*
Y70227D01*
Y70297D01*
Y70402D01*
Y70530D01*
Y70693D01*
Y70880D01*
Y70891D01*
Y70903D01*
Y70961D01*
Y71066D01*
Y71183D01*
Y71194D01*
Y71218D01*
Y71253D01*
Y71299D01*
Y71428D01*
Y71591D01*
X106797D01*
X106856Y71603D01*
X106926Y71614D01*
X107007D01*
X107112Y71626D01*
X107240Y71649D01*
X107392Y71661D01*
X107462D01*
X107509Y71672D01*
X107742D01*
X107812Y71684D01*
X107905Y71696D01*
X108091D01*
X108185Y71684D01*
X108290Y71672D01*
X108511D01*
X108639Y71661D01*
X108663D01*
X108744Y71649D01*
X108849D01*
X108966Y71638D01*
X108989D01*
X109059Y71626D01*
X109152Y71614D01*
X109269Y71591D01*
Y71579D01*
Y71544D01*
Y71486D01*
Y71416D01*
Y71323D01*
Y71218D01*
Y71090D01*
Y70961D01*
Y70670D01*
Y70355D01*
Y70040D01*
Y69725D01*
Y69714D01*
Y69690D01*
Y69655D01*
Y69597D01*
Y69527D01*
Y69446D01*
Y69259D01*
Y69049D01*
Y68816D01*
Y68583D01*
Y68350D01*
Y68326D01*
Y68280D01*
Y68186D01*
Y68082D01*
Y67965D01*
Y67825D01*
Y67557D01*
Y67545D01*
Y67499D01*
Y67440D01*
Y67359D01*
Y67266D01*
Y67161D01*
Y66962D01*
Y66951D01*
Y66927D01*
Y66881D01*
Y66834D01*
Y66694D01*
Y66531D01*
Y66356D01*
Y66193D01*
Y66053D01*
Y65995D01*
Y65948D01*
Y65936D01*
Y65913D01*
Y65855D01*
Y65785D01*
Y65680D01*
Y65563D01*
Y65412D01*
Y65225D01*
Y65214D01*
Y65202D01*
Y65132D01*
Y65039D01*
Y64910D01*
Y64899D01*
Y64875D01*
Y64840D01*
Y64794D01*
Y64666D01*
Y64502D01*
Y64491D01*
Y64479D01*
Y64444D01*
Y64398D01*
Y64293D01*
X109281Y64141D01*
Y63966D01*
X109292Y63780D01*
X109316Y63395D01*
Y63372D01*
X109327Y63313D01*
X109339Y63220D01*
X109362Y63103D01*
X109386Y62964D01*
X109409Y62812D01*
X109490Y62509D01*
Y62485D01*
X109514Y62439D01*
X109537Y62369D01*
X109560Y62264D01*
X109607Y62159D01*
X109654Y62042D01*
X109770Y61798D01*
X109782Y61786D01*
X109805Y61751D01*
X109840Y61693D01*
X109887Y61611D01*
X110015Y61436D01*
X110167Y61250D01*
X110178Y61238D01*
X110213Y61215D01*
X110260Y61168D01*
X110318Y61121D01*
X110388Y61063D01*
X110482Y61005D01*
X110668Y60877D01*
X110680Y60865D01*
X110715Y60853D01*
X110773Y60818D01*
X110855Y60783D01*
X110948Y60748D01*
X111053Y60702D01*
X111286Y60632D01*
X111298D01*
X111344Y60620D01*
X111403Y60597D01*
X111496Y60585D01*
X111601Y60562D01*
X111717Y60539D01*
X111846Y60515D01*
X111986Y60492D01*
X112055D01*
X112125Y60480D01*
X112230D01*
X112347Y60469D01*
X112487D01*
X112790Y60457D01*
X113023D01*
X113186Y60469D01*
X113373D01*
X113571Y60480D01*
X113979Y60515D01*
X114002D01*
X114072Y60527D01*
X114177Y60550D01*
X114317Y60574D01*
X114469Y60597D01*
X114644Y60632D01*
X114993Y60725D01*
Y60748D01*
Y60795D01*
Y60888D01*
Y60993D01*
Y61133D01*
Y61308D01*
Y61483D01*
Y61693D01*
Y61902D01*
Y62136D01*
Y62614D01*
Y63092D01*
Y63570D01*
Y63581D01*
Y63628D01*
Y63686D01*
Y63780D01*
Y63885D01*
Y64001D01*
Y64141D01*
Y64293D01*
Y64631D01*
Y64980D01*
Y65342D01*
Y65692D01*
Y65703D01*
Y65727D01*
Y65761D01*
Y65808D01*
Y65948D01*
Y66111D01*
Y66309D01*
Y66519D01*
Y66729D01*
Y66939D01*
Y66951D01*
Y66962D01*
Y67032D01*
Y67126D01*
Y67254D01*
Y67394D01*
Y67545D01*
Y67697D01*
Y67848D01*
Y67860D01*
Y67895D01*
Y67942D01*
Y68000D01*
Y68140D01*
Y68292D01*
Y68303D01*
Y68326D01*
Y68361D01*
Y68408D01*
Y68525D01*
Y68653D01*
Y68664D01*
Y68676D01*
Y68711D01*
Y68758D01*
Y68874D01*
Y69014D01*
Y69166D01*
Y69317D01*
Y69469D01*
Y69586D01*
Y69597D01*
Y69644D01*
Y69702D01*
Y69807D01*
Y69924D01*
Y70087D01*
Y70285D01*
Y70507D01*
Y70518D01*
Y70542D01*
Y70588D01*
Y70647D01*
Y70716D01*
Y70798D01*
Y70973D01*
Y70985D01*
Y71020D01*
Y71078D01*
Y71148D01*
Y71241D01*
Y71346D01*
Y71463D01*
Y71591D01*
X115017D01*
X115075Y71603D01*
X115168Y71626D01*
X115285Y71638D01*
X115308D01*
X115378Y71649D01*
X115483D01*
X115611Y71661D01*
X115635D01*
X115716Y71672D01*
X115949D01*
X116019Y71684D01*
X116113Y71696D01*
X116322D01*
X116416Y71684D01*
D02*
G37*
G36*
X140631Y74902D02*
X140666Y74844D01*
X140724Y74750D01*
X140806Y74622D01*
Y74610D01*
X140782Y74599D01*
X140771Y74564D01*
X140736Y74517D01*
X140689Y74447D01*
X140642Y74377D01*
X140584Y74284D01*
X140514Y74191D01*
X140444Y74074D01*
X140351Y73934D01*
X140258Y73794D01*
X140153Y73643D01*
X140048Y73468D01*
X139920Y73281D01*
X139791Y73083D01*
X139651Y72873D01*
X139500Y72652D01*
X139348Y72407D01*
X139185Y72162D01*
X139010Y71894D01*
X138824Y71614D01*
X138625Y71323D01*
X138427Y71008D01*
X138217Y70693D01*
X137996Y70355D01*
X137763Y70005D01*
X137529Y69644D01*
X137285Y69271D01*
X137028Y68886D01*
X136760Y68490D01*
X136480Y68070D01*
X136200Y67639D01*
X136212D01*
X136235Y67650D01*
X136294Y67662D01*
X136795D01*
X136946Y67650D01*
X137121Y67639D01*
X137308Y67615D01*
X137693Y67557D01*
X137716D01*
X137786Y67534D01*
X137879Y67510D01*
X138007Y67475D01*
X138147Y67440D01*
X138311Y67382D01*
X138649Y67254D01*
X138672Y67242D01*
X138719Y67219D01*
X138800Y67172D01*
X138905Y67114D01*
X139033Y67044D01*
X139162Y66962D01*
X139430Y66776D01*
X139441Y66764D01*
X139488Y66729D01*
X139558Y66671D01*
X139651Y66589D01*
X139745Y66508D01*
X139850Y66403D01*
X140071Y66158D01*
X140083Y66146D01*
X140118Y66100D01*
X140176Y66041D01*
X140234Y65948D01*
X140316Y65855D01*
X140398Y65727D01*
X140479Y65598D01*
X140561Y65458D01*
X140572Y65447D01*
X140596Y65388D01*
X140631Y65318D01*
X140689Y65225D01*
X140747Y65109D01*
X140806Y64969D01*
X140922Y64677D01*
X140934Y64654D01*
X140945Y64607D01*
X140969Y64526D01*
X141004Y64421D01*
X141039Y64304D01*
X141074Y64164D01*
X141132Y63861D01*
Y63850D01*
X141144Y63791D01*
X141155Y63710D01*
X141167Y63616D01*
X141179Y63488D01*
X141190Y63360D01*
X141202Y63057D01*
Y63045D01*
Y63022D01*
Y62975D01*
Y62917D01*
Y62847D01*
X141190Y62765D01*
Y62567D01*
X141167Y62334D01*
X141144Y62077D01*
X141109Y61821D01*
X141062Y61553D01*
Y61541D01*
X141050Y61518D01*
Y61483D01*
X141039Y61436D01*
X141015Y61378D01*
X141004Y61296D01*
X140957Y61133D01*
X140887Y60935D01*
X140817Y60713D01*
X140736Y60480D01*
X140631Y60259D01*
Y60247D01*
X140619Y60235D01*
X140607Y60200D01*
X140584Y60165D01*
X140514Y60049D01*
X140444Y59909D01*
X140339Y59746D01*
X140234Y59559D01*
X140106Y59373D01*
X139978Y59186D01*
X139966Y59163D01*
X139908Y59104D01*
X139826Y59011D01*
X139721Y58895D01*
X139593Y58766D01*
X139453Y58626D01*
X139290Y58475D01*
X139115Y58323D01*
X139092Y58312D01*
X139033Y58253D01*
X138928Y58183D01*
X138800Y58090D01*
X138637Y57985D01*
X138462Y57869D01*
X138264Y57752D01*
X138066Y57647D01*
X138054D01*
X138042Y57635D01*
X138007Y57624D01*
X137972Y57600D01*
X137856Y57554D01*
X137704Y57484D01*
X137518Y57414D01*
X137308Y57332D01*
X137086Y57251D01*
X136853Y57181D01*
X136842D01*
X136830Y57169D01*
X136795D01*
X136748Y57158D01*
X136620Y57123D01*
X136445Y57076D01*
X136247Y57041D01*
X136025Y56994D01*
X135781Y56948D01*
X135524Y56901D01*
X135489D01*
X135454Y56889D01*
X135408D01*
X135338Y56878D01*
X135268D01*
X135093Y56866D01*
X134883Y56843D01*
X134638Y56831D01*
X134382Y56819D01*
X133880D01*
X133729Y56831D01*
X133542D01*
X133332Y56843D01*
X133111Y56854D01*
X132889Y56866D01*
X132866D01*
X132831Y56878D01*
X132784D01*
X132668Y56889D01*
X132528Y56913D01*
X132353Y56924D01*
X132155Y56959D01*
X131747Y57018D01*
X131723D01*
X131653Y57041D01*
X131537Y57064D01*
X131397Y57087D01*
X131222Y57123D01*
X131036Y57169D01*
X130639Y57274D01*
X130628D01*
X130616Y57286D01*
X130546Y57309D01*
X130429Y57332D01*
X130289Y57379D01*
X130126Y57437D01*
X129940Y57496D01*
X129543Y57647D01*
Y57659D01*
X129555Y57694D01*
Y57752D01*
X129567Y57822D01*
X129590Y57904D01*
X129602Y57997D01*
X129648Y58195D01*
Y58207D01*
X129660Y58242D01*
X129683Y58300D01*
X129706Y58370D01*
X129730Y58452D01*
X129765Y58545D01*
X129835Y58731D01*
Y58743D01*
X129858Y58778D01*
X129870Y58825D01*
X129905Y58895D01*
X129940Y58976D01*
X129975Y59069D01*
X130056Y59256D01*
X130068Y59268D01*
X130080Y59303D01*
X130103Y59349D01*
X130138Y59419D01*
X130173Y59489D01*
X130219Y59583D01*
X130324Y59769D01*
X130348Y59757D01*
X130394Y59746D01*
X130476Y59711D01*
X130581Y59676D01*
X130709Y59629D01*
X130849Y59583D01*
X131152Y59478D01*
X131175D01*
X131222Y59454D01*
X131304Y59431D01*
X131420Y59396D01*
X131549Y59361D01*
X131688Y59326D01*
X132015Y59233D01*
X132038D01*
X132097Y59221D01*
X132178Y59198D01*
X132295Y59174D01*
X132446Y59151D01*
X132598Y59128D01*
X132773Y59104D01*
X132959Y59081D01*
X132983D01*
X133053Y59069D01*
X133146D01*
X133286Y59058D01*
X133449Y59046D01*
X133624D01*
X133822Y59035D01*
X134207D01*
X134335Y59046D01*
X134475D01*
X134638Y59058D01*
X134965Y59081D01*
X134988D01*
X135046Y59093D01*
X135128Y59104D01*
X135244Y59128D01*
X135373Y59139D01*
X135524Y59174D01*
X135839Y59233D01*
X135862D01*
X135909Y59256D01*
X135990Y59279D01*
X136096Y59314D01*
X136224Y59349D01*
X136352Y59396D01*
X136620Y59501D01*
X136632Y59513D01*
X136678Y59536D01*
X136760Y59571D01*
X136842Y59618D01*
X136946Y59664D01*
X137063Y59734D01*
X137296Y59897D01*
X137308Y59909D01*
X137355Y59932D01*
X137413Y59979D01*
X137483Y60049D01*
X137576Y60119D01*
X137669Y60212D01*
X137856Y60422D01*
X137868Y60434D01*
X137902Y60469D01*
X137949Y60539D01*
X138007Y60608D01*
X138066Y60713D01*
X138147Y60818D01*
X138217Y60946D01*
X138287Y61075D01*
X138299Y61086D01*
X138322Y61133D01*
X138346Y61203D01*
X138392Y61308D01*
X138439Y61424D01*
X138474Y61553D01*
X138520Y61704D01*
X138555Y61856D01*
Y61879D01*
X138567Y61937D01*
X138590Y62019D01*
X138614Y62147D01*
X138625Y62287D01*
X138649Y62450D01*
X138660Y62637D01*
Y62824D01*
Y62835D01*
Y62859D01*
Y62905D01*
Y62952D01*
X138649Y63022D01*
Y63103D01*
X138625Y63290D01*
X138590Y63500D01*
X138544Y63733D01*
X138485Y63966D01*
X138392Y64188D01*
Y64199D01*
X138380Y64211D01*
X138346Y64281D01*
X138287Y64398D01*
X138206Y64526D01*
X138089Y64677D01*
X137961Y64840D01*
X137809Y64992D01*
X137623Y65144D01*
X137599Y65155D01*
X137529Y65202D01*
X137413Y65272D01*
X137273Y65353D01*
X137098Y65447D01*
X136888Y65540D01*
X136667Y65633D01*
X136422Y65715D01*
X136410D01*
X136387Y65727D01*
X136352Y65738D01*
X136305Y65750D01*
X136235Y65761D01*
X136165Y65773D01*
X135979Y65808D01*
X135757Y65843D01*
X135501Y65878D01*
X135221Y65890D01*
X134918Y65901D01*
X134592D01*
X134405Y65890D01*
X134312D01*
X134242Y65878D01*
X134090D01*
X133904Y65866D01*
X133857D01*
X133810Y65855D01*
X133740D01*
X133659Y65843D01*
X133577Y65831D01*
X133379Y65796D01*
X133367D01*
X133332Y65785D01*
X133286D01*
X133216Y65773D01*
X133064Y65738D01*
X132878Y65703D01*
X132866Y65715D01*
X132854Y65738D01*
X132831Y65785D01*
X132796Y65831D01*
X132773Y65878D01*
X132749Y65913D01*
X132726Y65936D01*
Y65948D01*
Y65960D01*
X132703Y65983D01*
X132668Y66041D01*
Y66053D01*
X132680Y66065D01*
X132703Y66100D01*
X132738Y66146D01*
X132773Y66205D01*
X132819Y66274D01*
X132866Y66356D01*
X132936Y66461D01*
X133006Y66566D01*
X133076Y66694D01*
X133169Y66823D01*
X133262Y66974D01*
X133367Y67137D01*
X133472Y67312D01*
X133601Y67499D01*
X133729Y67697D01*
X133857Y67918D01*
X134009Y68140D01*
X134160Y68385D01*
X134312Y68630D01*
X134487Y68898D01*
X134662Y69177D01*
X134848Y69469D01*
X135035Y69772D01*
X135244Y70087D01*
X135454Y70425D01*
X135664Y70763D01*
X135897Y71125D01*
X136130Y71486D01*
X136364Y71871D01*
X136620Y72267D01*
X136877Y72675D01*
X130406D01*
Y72687D01*
X130394Y72722D01*
X130383Y72768D01*
X130371Y72838D01*
X130359Y72908D01*
X130348Y73001D01*
X130324Y73188D01*
Y73200D01*
Y73235D01*
X130313Y73293D01*
Y73363D01*
Y73456D01*
X130301Y73549D01*
Y73759D01*
Y73771D01*
Y73783D01*
Y73853D01*
Y73934D01*
Y74039D01*
Y74051D01*
Y74062D01*
X130313Y74132D01*
Y74226D01*
X130324Y74342D01*
Y74354D01*
Y74366D01*
X130336Y74436D01*
Y74529D01*
X130348Y74634D01*
Y74645D01*
X130359Y74657D01*
X130371Y74727D01*
X130383Y74820D01*
X130406Y74914D01*
X140619D01*
X140631Y74902D01*
D02*
G37*
G36*
X127540Y28000D02*
X125000D01*
Y30540D01*
X127540D01*
Y28000D01*
D02*
G37*
G36*
X124927Y71871D02*
X125101D01*
X125451Y71847D01*
X125475D01*
X125533Y71836D01*
X125626Y71824D01*
X125754Y71812D01*
X125894Y71789D01*
X126057Y71766D01*
X126396Y71707D01*
X126419D01*
X126477Y71684D01*
X126570Y71672D01*
X126687Y71638D01*
X126827Y71614D01*
X126978Y71579D01*
X127282Y71498D01*
X127305D01*
X127352Y71474D01*
X127433Y71451D01*
X127538Y71428D01*
X127655Y71393D01*
X127783Y71346D01*
X128063Y71264D01*
Y71253D01*
Y71218D01*
X128051Y71171D01*
X128039Y71101D01*
X128016Y70938D01*
X127981Y70751D01*
Y70740D01*
X127969Y70705D01*
X127958Y70658D01*
X127946Y70600D01*
X127934Y70518D01*
X127911Y70437D01*
X127865Y70250D01*
Y70238D01*
X127853Y70203D01*
X127841Y70157D01*
X127830Y70099D01*
X127771Y69947D01*
X127713Y69772D01*
Y69760D01*
X127701Y69737D01*
X127678Y69690D01*
X127666Y69632D01*
X127608Y69492D01*
X127538Y69329D01*
X127526D01*
X127491Y69341D01*
X127433Y69364D01*
X127352Y69387D01*
X127258Y69422D01*
X127153Y69457D01*
X126920Y69527D01*
X126909D01*
X126862Y69539D01*
X126792Y69562D01*
X126699Y69586D01*
X126594Y69609D01*
X126477Y69644D01*
X126197Y69702D01*
X126186D01*
X126127Y69725D01*
X126057Y69737D01*
X125953Y69760D01*
X125836Y69784D01*
X125696Y69807D01*
X125405Y69854D01*
X125381D01*
X125335Y69865D01*
X125253D01*
X125148Y69877D01*
X125020Y69889D01*
X124868D01*
X124717Y69900D01*
X124390D01*
X124274Y69889D01*
X124134Y69877D01*
X123994Y69865D01*
X123679Y69819D01*
X123656D01*
X123609Y69807D01*
X123527Y69784D01*
X123423Y69749D01*
X123306Y69714D01*
X123178Y69679D01*
X122898Y69574D01*
X122886Y69562D01*
X122840Y69539D01*
X122781Y69504D01*
X122700Y69457D01*
X122618Y69387D01*
X122525Y69317D01*
X122443Y69224D01*
X122362Y69119D01*
X122350Y69108D01*
X122338Y69073D01*
X122303Y69003D01*
X122268Y68921D01*
X122233Y68816D01*
X122210Y68699D01*
X122187Y68560D01*
X122175Y68408D01*
Y68396D01*
Y68373D01*
Y68326D01*
X122187Y68280D01*
X122198Y68152D01*
X122222Y68012D01*
Y68000D01*
X122233Y67988D01*
X122257Y67907D01*
X122303Y67802D01*
X122362Y67685D01*
Y67674D01*
X122373Y67662D01*
X122420Y67592D01*
X122478Y67499D01*
X122560Y67405D01*
X122583Y67382D01*
X122641Y67324D01*
X122723Y67254D01*
X122840Y67172D01*
X122851D01*
X122863Y67161D01*
X122933Y67114D01*
X123038Y67044D01*
X123154Y66974D01*
X123166D01*
X123189Y66962D01*
X123224Y66939D01*
X123271Y66916D01*
X123388Y66869D01*
X123527Y66811D01*
X123539D01*
X123562Y66799D01*
X123597Y66788D01*
X123656Y66764D01*
X123784Y66718D01*
X123935Y66648D01*
X123947D01*
X123970Y66636D01*
X124017Y66624D01*
X124075Y66601D01*
X124215Y66554D01*
X124379Y66508D01*
X124390D01*
X124413Y66496D01*
X124460Y66484D01*
X124507Y66461D01*
X124635Y66414D01*
X124787Y66368D01*
X124938Y66309D01*
X125055Y66263D01*
X125101Y66251D01*
X125136Y66240D01*
X125160Y66228D01*
X125183D01*
X125218Y66216D01*
X125276Y66193D01*
X125370Y66170D01*
X125486Y66123D01*
X125498D01*
X125533Y66100D01*
X125591Y66088D01*
X125673Y66053D01*
X125754Y66030D01*
X125859Y65995D01*
X126069Y65913D01*
X126081D01*
X126116Y65890D01*
X126174Y65866D01*
X126244Y65831D01*
X126337Y65796D01*
X126431Y65750D01*
X126629Y65657D01*
X126640Y65645D01*
X126675Y65633D01*
X126734Y65598D01*
X126804Y65563D01*
X126967Y65458D01*
X127142Y65330D01*
X127153Y65318D01*
X127177Y65295D01*
X127223Y65260D01*
X127282Y65214D01*
X127422Y65097D01*
X127573Y64945D01*
X127585Y64934D01*
X127608Y64910D01*
X127643Y64864D01*
X127690Y64805D01*
X127795Y64666D01*
X127911Y64491D01*
X127923Y64479D01*
X127934Y64444D01*
X127969Y64398D01*
X128004Y64328D01*
X128051Y64246D01*
X128098Y64153D01*
X128203Y63943D01*
Y63931D01*
X128226Y63896D01*
X128238Y63826D01*
X128272Y63745D01*
X128296Y63651D01*
X128319Y63535D01*
X128366Y63290D01*
Y63278D01*
X128378Y63232D01*
X128389Y63150D01*
X128401Y63057D01*
X128412Y62940D01*
X128424Y62812D01*
X128436Y62672D01*
Y62520D01*
Y62497D01*
Y62439D01*
Y62346D01*
X128424Y62229D01*
X128412Y62101D01*
X128401Y61949D01*
X128343Y61623D01*
Y61599D01*
X128331Y61553D01*
X128308Y61471D01*
X128272Y61366D01*
X128238Y61238D01*
X128191Y61098D01*
X128063Y60807D01*
X128051Y60795D01*
X128028Y60748D01*
X127981Y60667D01*
X127934Y60574D01*
X127865Y60469D01*
X127783Y60352D01*
X127608Y60096D01*
X127596Y60084D01*
X127561Y60037D01*
X127503Y59979D01*
X127433Y59909D01*
X127340Y59816D01*
X127235Y59711D01*
X127107Y59606D01*
X126978Y59501D01*
X126967Y59489D01*
X126920Y59454D01*
X126850Y59408D01*
X126757Y59338D01*
X126640Y59268D01*
X126512Y59186D01*
X126361Y59104D01*
X126209Y59023D01*
X126186Y59011D01*
X126139Y58988D01*
X126057Y58953D01*
X125941Y58895D01*
X125813Y58848D01*
X125649Y58778D01*
X125486Y58720D01*
X125300Y58661D01*
X125276Y58650D01*
X125218Y58638D01*
X125113Y58615D01*
X124985Y58580D01*
X124833Y58533D01*
X124658Y58498D01*
X124460Y58463D01*
X124262Y58428D01*
X124239D01*
X124169Y58417D01*
X124064Y58405D01*
X123924Y58393D01*
X123761Y58382D01*
X123562Y58370D01*
X123353Y58358D01*
X122770D01*
X122595Y58370D01*
X122408D01*
X122000Y58393D01*
X121977D01*
X121907Y58405D01*
X121814D01*
X121685Y58428D01*
X121534Y58440D01*
X121371Y58463D01*
X121021Y58521D01*
X120998D01*
X120939Y58533D01*
X120858Y58556D01*
X120741Y58580D01*
X120601Y58603D01*
X120461Y58638D01*
X120147Y58720D01*
X120123D01*
X120077Y58731D01*
X119995Y58755D01*
X119878Y58790D01*
X119762Y58825D01*
X119622Y58860D01*
X119330Y58965D01*
Y58976D01*
Y59011D01*
X119342Y59058D01*
X119354Y59128D01*
X119365Y59279D01*
X119400Y59466D01*
Y59478D01*
X119412Y59513D01*
X119424Y59559D01*
X119435Y59629D01*
X119459Y59711D01*
X119482Y59792D01*
X119540Y59991D01*
Y60002D01*
X119552Y60037D01*
X119575Y60084D01*
X119599Y60142D01*
X119622Y60224D01*
X119645Y60305D01*
X119715Y60492D01*
Y60504D01*
X119727Y60539D01*
X119750Y60585D01*
X119773Y60655D01*
X119797Y60725D01*
X119832Y60818D01*
X119902Y61005D01*
X119913Y60993D01*
X119960Y60981D01*
X120030Y60958D01*
X120123Y60923D01*
X120228Y60877D01*
X120356Y60842D01*
X120625Y60748D01*
X120636D01*
X120694Y60737D01*
X120764Y60713D01*
X120858Y60690D01*
X120974Y60667D01*
X121114Y60632D01*
X121406Y60562D01*
X121429D01*
X121476Y60550D01*
X121557Y60539D01*
X121662Y60515D01*
X121790Y60504D01*
X121919Y60480D01*
X122222Y60445D01*
X122292D01*
X122373Y60434D01*
X122478D01*
X122606Y60422D01*
X122735D01*
X123038Y60410D01*
X123213D01*
X123306Y60422D01*
X123399D01*
X123597Y60434D01*
X123644D01*
X123702Y60445D01*
X123772Y60457D01*
X123854Y60469D01*
X123947Y60480D01*
X124145Y60527D01*
X124157D01*
X124192Y60539D01*
X124239Y60550D01*
X124309Y60574D01*
X124460Y60620D01*
X124635Y60690D01*
X124647D01*
X124670Y60702D01*
X124717Y60725D01*
X124775Y60748D01*
X124915Y60818D01*
X125066Y60900D01*
X125078D01*
X125101Y60923D01*
X125136Y60946D01*
X125183Y60981D01*
X125300Y61063D01*
X125416Y61180D01*
X125428Y61191D01*
X125440Y61203D01*
X125475Y61238D01*
X125510Y61285D01*
X125603Y61401D01*
X125696Y61529D01*
X125708Y61541D01*
X125719Y61564D01*
X125743Y61588D01*
X125766Y61634D01*
X125824Y61751D01*
X125883Y61902D01*
Y61914D01*
X125894Y61937D01*
Y61984D01*
X125906Y62031D01*
X125918Y62171D01*
X125929Y62334D01*
Y62346D01*
Y62380D01*
Y62427D01*
Y62497D01*
X125918Y62649D01*
X125894Y62812D01*
Y62824D01*
X125883Y62847D01*
X125871Y62882D01*
X125859Y62940D01*
X125813Y63057D01*
X125743Y63173D01*
Y63185D01*
X125731Y63197D01*
X125684Y63278D01*
X125614Y63372D01*
X125521Y63477D01*
Y63488D01*
X125498Y63500D01*
X125440Y63558D01*
X125358Y63640D01*
X125241Y63733D01*
X125230D01*
X125218Y63756D01*
X125183Y63768D01*
X125136Y63803D01*
X125020Y63861D01*
X124892Y63943D01*
X124880D01*
X124868Y63955D01*
X124833Y63978D01*
X124787Y64001D01*
X124670Y64059D01*
X124518Y64129D01*
X124507D01*
X124483Y64141D01*
X124437Y64164D01*
X124390Y64176D01*
X124250Y64223D01*
X124087Y64281D01*
X124075D01*
X124052Y64293D01*
X124005Y64316D01*
X123935Y64328D01*
X123784Y64374D01*
X123609Y64433D01*
X123597D01*
X123586Y64444D01*
X123504Y64467D01*
X123399Y64514D01*
X123283Y64549D01*
X123166Y64596D01*
X123073Y64631D01*
X123026Y64654D01*
X123003D01*
X122991Y64666D01*
X122968Y64677D01*
X122945Y64689D01*
X122898Y64701D01*
X122816Y64736D01*
X122723Y64771D01*
X122711D01*
X122688Y64782D01*
X122641Y64805D01*
X122595Y64817D01*
X122525Y64852D01*
X122443Y64887D01*
X122257Y64957D01*
X122035Y65050D01*
X121802Y65167D01*
X121569Y65283D01*
X121336Y65412D01*
X121324D01*
X121312Y65423D01*
X121242Y65470D01*
X121138Y65540D01*
X120998Y65633D01*
X120846Y65738D01*
X120694Y65855D01*
X120531Y65983D01*
X120391Y66123D01*
X120380Y66146D01*
X120333Y66193D01*
X120263Y66274D01*
X120182Y66379D01*
X120088Y66508D01*
X119995Y66659D01*
X119913Y66834D01*
X119832Y67021D01*
Y67032D01*
X119820Y67044D01*
X119808Y67114D01*
X119773Y67207D01*
X119750Y67347D01*
X119715Y67522D01*
X119680Y67709D01*
X119669Y67918D01*
X119657Y68152D01*
Y68163D01*
Y68186D01*
Y68233D01*
Y68303D01*
X119669Y68373D01*
Y68466D01*
X119692Y68664D01*
X119727Y68909D01*
X119785Y69166D01*
X119855Y69434D01*
X119960Y69690D01*
Y69702D01*
X119972Y69725D01*
X119995Y69760D01*
X120018Y69807D01*
X120088Y69935D01*
X120193Y70099D01*
X120321Y70285D01*
X120473Y70483D01*
X120660Y70682D01*
X120881Y70880D01*
X120893Y70891D01*
X120904Y70903D01*
X120939Y70926D01*
X120998Y70961D01*
X121056Y71008D01*
X121126Y71055D01*
X121301Y71160D01*
X121522Y71288D01*
X121779Y71416D01*
X122070Y71533D01*
X122397Y71638D01*
X122408D01*
X122443Y71649D01*
X122490Y71661D01*
X122560Y71672D01*
X122641Y71696D01*
X122746Y71719D01*
X122863Y71742D01*
X122991Y71766D01*
X123143Y71777D01*
X123294Y71801D01*
X123469Y71824D01*
X123656Y71847D01*
X124040Y71871D01*
X124472Y71882D01*
X124787D01*
X124927Y71871D01*
D02*
G37*
G36*
X148034Y77047D02*
X148244Y77035D01*
X148489Y77024D01*
X148757Y77012D01*
X149048Y76989D01*
X149363Y76954D01*
X149701Y76907D01*
X150039Y76860D01*
X150401Y76802D01*
X150750Y76732D01*
X151112Y76651D01*
X151461Y76557D01*
X151800Y76452D01*
X151823Y76441D01*
X151881Y76429D01*
X151974Y76394D01*
X152091Y76336D01*
X152243Y76278D01*
X152429Y76196D01*
X152616Y76114D01*
X152837Y76009D01*
X153059Y75881D01*
X153304Y75753D01*
X153548Y75601D01*
X153793Y75438D01*
X154050Y75263D01*
X154295Y75077D01*
X154528Y74867D01*
X154761Y74645D01*
X154773Y74634D01*
X154808Y74587D01*
X154878Y74517D01*
X154959Y74424D01*
X155052Y74307D01*
X155169Y74167D01*
X155286Y74004D01*
X155425Y73818D01*
X155565Y73608D01*
X155717Y73386D01*
X155857Y73141D01*
X156008Y72885D01*
X156148Y72605D01*
X156288Y72314D01*
X156416Y72010D01*
X156533Y71696D01*
X156545Y71672D01*
X156556Y71614D01*
X156591Y71521D01*
X156626Y71393D01*
X156673Y71229D01*
X156720Y71031D01*
X156778Y70798D01*
X156836Y70542D01*
X156883Y70262D01*
X156941Y69959D01*
X156988Y69620D01*
X157034Y69271D01*
X157069Y68898D01*
X157104Y68513D01*
X157116Y68105D01*
X157128Y67685D01*
Y67674D01*
Y67662D01*
Y67627D01*
Y67580D01*
Y67522D01*
Y67452D01*
X157116Y67289D01*
X157104Y67079D01*
X157093Y66846D01*
X157081Y66578D01*
X157058Y66286D01*
X157023Y65971D01*
X156976Y65633D01*
X156929Y65295D01*
X156871Y64945D01*
X156801Y64596D01*
X156720Y64246D01*
X156626Y63896D01*
X156521Y63558D01*
X156510Y63535D01*
X156498Y63477D01*
X156463Y63383D01*
X156405Y63267D01*
X156346Y63115D01*
X156265Y62940D01*
X156172Y62742D01*
X156067Y62532D01*
X155950Y62311D01*
X155810Y62077D01*
X155659Y61833D01*
X155495Y61588D01*
X155321Y61343D01*
X155134Y61110D01*
X154924Y60877D01*
X154703Y60655D01*
X154691Y60643D01*
X154644Y60608D01*
X154586Y60550D01*
X154493Y60469D01*
X154376Y60375D01*
X154236Y60259D01*
X154073Y60142D01*
X153886Y60002D01*
X153677Y59874D01*
X153455Y59722D01*
X153210Y59583D01*
X152942Y59443D01*
X152662Y59303D01*
X152359Y59163D01*
X152044Y59046D01*
X151718Y58930D01*
X151695Y58918D01*
X151636Y58906D01*
X151531Y58883D01*
X151403Y58836D01*
X151228Y58801D01*
X151018Y58755D01*
X150785Y58696D01*
X150517Y58650D01*
X150226Y58591D01*
X149899Y58545D01*
X149561Y58487D01*
X149188Y58452D01*
X148803Y58417D01*
X148395Y58382D01*
X147976Y58370D01*
X147533Y58358D01*
X146786D01*
X146576Y58370D01*
X146250D01*
X146133Y58382D01*
X145982Y58393D01*
X145807Y58405D01*
X145609Y58417D01*
X145399Y58428D01*
X145189Y58452D01*
X145131D01*
X145096Y58463D01*
X144979Y58475D01*
X144839Y58487D01*
X144676Y58498D01*
X144490Y58510D01*
X144117Y58545D01*
X144093D01*
X144035Y58556D01*
X143930Y58568D01*
X143813Y58580D01*
X143662Y58591D01*
X143510Y58615D01*
X143184Y58661D01*
Y58673D01*
Y58696D01*
Y58731D01*
Y58778D01*
Y58848D01*
Y58930D01*
Y59011D01*
Y59116D01*
Y59349D01*
Y59629D01*
Y59932D01*
Y60270D01*
Y60632D01*
Y61017D01*
Y61413D01*
Y61809D01*
Y62625D01*
Y63022D01*
Y63407D01*
Y63418D01*
Y63430D01*
Y63500D01*
Y63605D01*
Y63745D01*
Y63931D01*
Y64129D01*
Y64363D01*
Y64619D01*
Y64887D01*
Y65167D01*
Y65761D01*
Y66356D01*
Y66659D01*
Y66939D01*
Y66951D01*
Y66986D01*
Y67056D01*
Y67137D01*
Y67242D01*
Y67359D01*
Y67487D01*
Y67639D01*
Y67953D01*
Y68292D01*
Y68653D01*
Y68991D01*
Y69003D01*
Y69026D01*
Y69073D01*
Y69142D01*
Y69212D01*
Y69306D01*
Y69516D01*
Y69760D01*
Y70017D01*
Y70273D01*
Y70530D01*
Y70553D01*
Y70600D01*
Y70682D01*
Y70786D01*
Y70903D01*
Y71031D01*
Y71288D01*
Y71299D01*
Y71346D01*
Y71404D01*
Y71486D01*
Y71579D01*
Y71672D01*
Y71882D01*
Y71894D01*
Y71929D01*
Y71987D01*
Y72045D01*
Y72209D01*
Y72372D01*
Y72384D01*
Y72407D01*
Y72454D01*
Y72500D01*
Y72628D01*
Y72768D01*
Y72780D01*
Y72792D01*
Y72862D01*
Y72967D01*
Y73106D01*
Y73258D01*
Y73421D01*
Y73584D01*
Y73748D01*
Y73771D01*
Y73829D01*
Y73923D01*
Y74062D01*
Y74237D01*
Y74447D01*
Y74692D01*
Y74984D01*
Y74995D01*
Y75042D01*
Y75112D01*
Y75205D01*
Y75322D01*
Y75462D01*
Y75601D01*
Y75765D01*
Y75788D01*
Y75846D01*
Y75928D01*
Y76056D01*
Y76208D01*
Y76382D01*
Y76581D01*
Y76791D01*
X143324D01*
X143382Y76802D01*
X143475Y76814D01*
X143592Y76826D01*
X143743Y76837D01*
X143895Y76849D01*
X144233Y76884D01*
X144256D01*
X144315Y76895D01*
X144408Y76907D01*
X144525Y76919D01*
X144676Y76930D01*
X144851Y76942D01*
X145049Y76965D01*
X145259Y76977D01*
X145317D01*
X145364Y76989D01*
X145481D01*
X145644Y77000D01*
X145819Y77012D01*
X146029Y77024D01*
X146250Y77035D01*
X146472Y77047D01*
X146681D01*
X146833Y77059D01*
X147871D01*
X148034Y77047D01*
D02*
G37*
%LPC*%
G36*
X98287Y74342D02*
Y74331D01*
X98275Y74307D01*
X98263Y74261D01*
X98240Y74202D01*
X98217Y74121D01*
X98193Y74016D01*
X98158Y73899D01*
X98112Y73771D01*
X98065Y73608D01*
X98019Y73445D01*
X97960Y73246D01*
X97902Y73048D01*
X97832Y72815D01*
X97762Y72570D01*
X97680Y72314D01*
X97599Y72034D01*
X97506Y71731D01*
X97412Y71416D01*
X97319Y71078D01*
X97214Y70728D01*
X97097Y70355D01*
X96981Y69970D01*
X96864Y69562D01*
X96736Y69142D01*
X96608Y68699D01*
X96468Y68233D01*
X96328Y67755D01*
X96176Y67254D01*
X96025Y66741D01*
X95873Y66205D01*
X95710Y65657D01*
X95535Y65085D01*
X101061D01*
Y65097D01*
X101050Y65120D01*
X101038Y65167D01*
X101015Y65225D01*
X100991Y65307D01*
X100968Y65412D01*
X100933Y65528D01*
X100886Y65668D01*
X100840Y65820D01*
X100793Y65983D01*
X100735Y66181D01*
X100677Y66391D01*
X100607Y66613D01*
X100537Y66857D01*
X100455Y67114D01*
X100373Y67394D01*
X100280Y67697D01*
X100187Y68012D01*
X100082Y68350D01*
X99977Y68699D01*
X99872Y69073D01*
X99756Y69457D01*
X99627Y69865D01*
X99499Y70285D01*
X99371Y70728D01*
X99231Y71194D01*
X99091Y71672D01*
X98940Y72174D01*
X98788Y72687D01*
X98625Y73223D01*
X98462Y73771D01*
X98287Y74342D01*
D02*
G37*
G36*
X148081Y74774D02*
X146973D01*
X146763Y74762D01*
X146658D01*
X146588Y74750D01*
X146507D01*
X146425Y74739D01*
X146227Y74715D01*
X146133D01*
X146075Y74704D01*
X145924Y74692D01*
X145760Y74669D01*
Y74645D01*
Y74575D01*
Y74471D01*
Y74319D01*
Y74144D01*
Y73934D01*
Y73689D01*
Y73433D01*
Y73153D01*
Y72862D01*
Y72255D01*
Y71626D01*
Y71323D01*
Y71020D01*
Y71008D01*
Y70950D01*
Y70868D01*
Y70763D01*
Y70623D01*
Y70472D01*
Y70297D01*
Y70099D01*
Y69900D01*
Y69679D01*
Y69224D01*
Y68769D01*
Y68326D01*
Y68315D01*
Y68292D01*
Y68245D01*
Y68175D01*
Y68093D01*
Y68012D01*
Y67790D01*
Y67545D01*
Y67289D01*
Y67009D01*
Y66753D01*
Y66741D01*
Y66718D01*
Y66683D01*
Y66636D01*
Y66508D01*
Y66356D01*
Y66170D01*
Y65971D01*
Y65773D01*
Y65575D01*
Y65563D01*
Y65517D01*
Y65458D01*
Y65388D01*
Y65295D01*
Y65202D01*
Y65004D01*
Y64992D01*
Y64957D01*
Y64910D01*
Y64840D01*
Y64689D01*
Y64537D01*
Y64526D01*
Y64502D01*
Y64467D01*
Y64409D01*
Y64293D01*
Y64164D01*
Y64153D01*
Y64141D01*
Y64059D01*
Y63955D01*
Y63850D01*
Y63826D01*
Y63780D01*
Y63698D01*
Y63605D01*
Y63488D01*
Y63360D01*
Y63103D01*
Y63092D01*
Y63045D01*
Y62964D01*
Y62859D01*
Y62730D01*
Y62567D01*
Y62380D01*
Y62159D01*
Y62147D01*
Y62112D01*
Y62054D01*
Y61984D01*
Y61891D01*
Y61798D01*
Y61564D01*
Y61553D01*
Y61506D01*
Y61436D01*
Y61331D01*
Y61215D01*
Y61086D01*
Y60935D01*
Y60772D01*
X145819D01*
X145889Y60760D01*
X145982Y60748D01*
X146110Y60737D01*
X146262Y60725D01*
X146437Y60713D01*
X146635Y60690D01*
X146740D01*
X146798Y60678D01*
X146973D01*
X147171Y60667D01*
X147346D01*
X147428Y60655D01*
X148011D01*
X148197Y60667D01*
X148407Y60678D01*
X148652Y60690D01*
X149153Y60737D01*
X149188D01*
X149223Y60748D01*
X149270D01*
X149398Y60772D01*
X149573Y60795D01*
X149771Y60830D01*
X149981Y60877D01*
X150214Y60935D01*
X150447Y60993D01*
X150459D01*
X150471Y61005D01*
X150506D01*
X150552Y61028D01*
X150669Y61063D01*
X150820Y61110D01*
X150995Y61180D01*
X151193Y61250D01*
X151391Y61343D01*
X151590Y61448D01*
X151601D01*
X151613Y61459D01*
X151683Y61494D01*
X151776Y61564D01*
X151904Y61646D01*
X152056Y61751D01*
X152219Y61868D01*
X152394Y61996D01*
X152557Y62147D01*
X152581Y62171D01*
X152627Y62217D01*
X152721Y62299D01*
X152826Y62415D01*
X152942Y62555D01*
X153070Y62719D01*
X153210Y62894D01*
X153338Y63092D01*
Y63103D01*
X153350Y63115D01*
X153397Y63185D01*
X153467Y63302D01*
X153548Y63453D01*
X153630Y63628D01*
X153735Y63838D01*
X153828Y64071D01*
X153921Y64328D01*
Y64339D01*
X153933Y64363D01*
X153945Y64398D01*
X153956Y64444D01*
X153980Y64514D01*
X154003Y64596D01*
X154050Y64782D01*
X154108Y65004D01*
X154166Y65272D01*
X154225Y65563D01*
X154271Y65878D01*
Y65890D01*
X154283Y65913D01*
Y65960D01*
X154295Y66030D01*
X154306Y66111D01*
X154318Y66205D01*
X154330Y66309D01*
X154341Y66438D01*
X154353Y66578D01*
X154365Y66718D01*
X154376Y67044D01*
X154399Y67394D01*
Y67767D01*
Y67779D01*
Y67814D01*
Y67860D01*
Y67930D01*
Y68012D01*
X154388Y68105D01*
Y68210D01*
Y68338D01*
X154365Y68606D01*
X154341Y68898D01*
X154318Y69201D01*
X154271Y69504D01*
Y69516D01*
Y69539D01*
X154260Y69586D01*
X154248Y69644D01*
X154236Y69714D01*
X154225Y69795D01*
X154190Y69994D01*
X154131Y70215D01*
X154073Y70472D01*
X154003Y70728D01*
X153921Y70985D01*
Y70996D01*
X153910Y71020D01*
X153898Y71055D01*
X153875Y71101D01*
X153828Y71229D01*
X153758Y71381D01*
X153677Y71568D01*
X153583Y71777D01*
X153467Y71987D01*
X153338Y72197D01*
Y72209D01*
X153327Y72220D01*
X153280Y72290D01*
X153210Y72395D01*
X153117Y72523D01*
X153000Y72675D01*
X152872Y72827D01*
X152721Y73001D01*
X152569Y73165D01*
X152546Y73188D01*
X152499Y73235D01*
X152406Y73316D01*
X152289Y73410D01*
X152149Y73526D01*
X151986Y73654D01*
X151800Y73783D01*
X151613Y73899D01*
X151590Y73911D01*
X151520Y73946D01*
X151415Y74004D01*
X151275Y74074D01*
X151112Y74156D01*
X150913Y74237D01*
X150704Y74319D01*
X150482Y74389D01*
X150471D01*
X150459Y74401D01*
X150424Y74412D01*
X150377Y74424D01*
X150261Y74459D01*
X150097Y74494D01*
X149911Y74541D01*
X149689Y74587D01*
X149456Y74634D01*
X149211Y74669D01*
X149176D01*
X149141Y74680D01*
X149095D01*
X149037Y74692D01*
X148955Y74704D01*
X148780Y74727D01*
X148570Y74739D01*
X148337Y74762D01*
X148081Y74774D01*
D02*
G37*
%LPD*%
D29*
X103226Y111220D02*
G03*
X103226Y111220I-2286J0D01*
G01*
X93500Y105000D02*
Y145066D01*
D30*
X75936Y26476D02*
Y29524D01*
X84064Y26476D02*
Y29524D01*
X165936Y26476D02*
Y29524D01*
X174064Y26476D02*
Y29524D01*
X106000Y44002D02*
Y47050D01*
X144050D01*
Y44002D02*
Y47050D01*
X106000Y9000D02*
Y12000D01*
Y9000D02*
X144050D01*
Y12000D01*
X78238Y151222D02*
X87762D01*
X78238Y154778D02*
X87762D01*
X78238Y116222D02*
X87762D01*
X78238Y119778D02*
X87762D01*
D31*
X235000Y175000D02*
X250000D01*
X0Y75000D02*
X15000D01*
X0Y175000D02*
X15000D01*
X235000Y75000D02*
X250000D01*
D32*
X59300Y235916D02*
Y244913D01*
X62299Y241914D01*
X65298Y244913D01*
Y235916D01*
X69797Y241914D02*
X72796D01*
X74295Y240414D01*
Y235916D01*
X69797D01*
X68297Y237415D01*
X69797Y238915D01*
X74295D01*
X80293Y232917D02*
X81793D01*
X83292Y234416D01*
Y241914D01*
X78794D01*
X77294Y240414D01*
Y237415D01*
X78794Y235916D01*
X83292D01*
X86291D02*
Y241914D01*
X90790D01*
X92289Y240414D01*
Y235916D01*
X99787D02*
X96788D01*
X95288Y237415D01*
Y240414D01*
X96788Y241914D01*
X99787D01*
X101286Y240414D01*
Y238915D01*
X95288D01*
X105785Y243413D02*
Y241914D01*
X104285D01*
X107284D01*
X105785D01*
Y237415D01*
X107284Y235916D01*
X111783D02*
X114782D01*
X113282D01*
Y241914D01*
X111783D01*
X125279D02*
X120780D01*
X119281Y240414D01*
Y237415D01*
X120780Y235916D01*
X125279D01*
X143273Y244913D02*
X137275D01*
Y235916D01*
X143273D01*
X137275Y240414D02*
X140274D01*
X146272Y235916D02*
Y241914D01*
X150770D01*
X152270Y240414D01*
Y235916D01*
X161267Y241914D02*
X156768D01*
X155269Y240414D01*
Y237415D01*
X156768Y235916D01*
X161267D01*
X165765D02*
X168765D01*
X170264Y237415D01*
Y240414D01*
X168765Y241914D01*
X165765D01*
X164266Y240414D01*
Y237415D01*
X165765Y235916D01*
X179261Y244913D02*
Y235916D01*
X174763D01*
X173263Y237415D01*
Y240414D01*
X174763Y241914D01*
X179261D01*
X186759Y235916D02*
X183760D01*
X182260Y237415D01*
Y240414D01*
X183760Y241914D01*
X186759D01*
X188258Y240414D01*
Y238915D01*
X182260D01*
X191257Y241914D02*
Y235916D01*
Y238915D01*
X192757Y240414D01*
X194256Y241914D01*
X195756D01*
X59300Y217800D02*
Y226797D01*
X62299Y223798D01*
X65298Y226797D01*
Y217800D01*
X69797D02*
X72796D01*
X74295Y219300D01*
Y222299D01*
X72796Y223798D01*
X69797D01*
X68297Y222299D01*
Y219300D01*
X69797Y217800D01*
X83292Y226797D02*
Y217800D01*
X78794D01*
X77294Y219300D01*
Y222299D01*
X78794Y223798D01*
X83292D01*
X86291D02*
Y219300D01*
X87791Y217800D01*
X92289D01*
Y223798D01*
X95288Y217800D02*
X98287D01*
X96788D01*
Y226797D01*
X95288D01*
X107284Y217800D02*
X104285D01*
X102786Y219300D01*
Y222299D01*
X104285Y223798D01*
X107284D01*
X108784Y222299D01*
Y220799D01*
X102786D01*
X120780Y226797D02*
Y220799D01*
X123779Y217800D01*
X126778Y220799D01*
Y226797D01*
X129777Y217800D02*
X132776D01*
X131277D01*
Y226797D01*
X129777Y225298D01*
X137275Y217800D02*
Y219300D01*
X138774D01*
Y217800D01*
X137275D01*
X144772Y225298D02*
X146272Y226797D01*
X149271D01*
X150770Y225298D01*
Y219300D01*
X149271Y217800D01*
X146272D01*
X144772Y219300D01*
Y225298D01*
X153769Y226797D02*
Y217800D01*
X158268D01*
X159768Y219300D01*
Y220799D01*
X158268Y222299D01*
X153769D01*
X158268D01*
X159768Y223798D01*
Y225298D01*
X158268Y226797D01*
X153769D01*
X35998Y109000D02*
Y115665D01*
Y84000D02*
Y90665D01*
X39331Y87332D02*
X32666D01*
D33*
X52578Y23876D02*
Y31873D01*
X56577D01*
X57910Y30540D01*
Y27875D01*
X56577Y26542D01*
X52578D01*
X55244D02*
X57910Y23876D01*
X65907D02*
X60575D01*
X65907Y29208D01*
Y30540D01*
X64574Y31873D01*
X61908D01*
X60575Y30540D01*
X184150Y23876D02*
Y31873D01*
X188149D01*
X189482Y30540D01*
Y27875D01*
X188149Y26542D01*
X184150D01*
X186816D02*
X189482Y23876D01*
X192147Y30540D02*
X193480Y31873D01*
X196146D01*
X197479Y30540D01*
Y29208D01*
X196146Y27875D01*
X194813D01*
X196146D01*
X197479Y26542D01*
Y25209D01*
X196146Y23876D01*
X193480D01*
X192147Y25209D01*
X93980Y179701D02*
Y173037D01*
X95313Y171704D01*
X97979D01*
X99312Y173037D01*
Y179701D01*
X107309Y171704D02*
X101977D01*
X107309Y177036D01*
Y178368D01*
X105976Y179701D01*
X103310D01*
X101977Y178368D01*
X60958Y155763D02*
X59625Y157095D01*
X56959D01*
X55626Y155763D01*
Y150431D01*
X56959Y149098D01*
X59625D01*
X60958Y150431D01*
X68955Y157095D02*
X66289Y155763D01*
X63623Y153097D01*
Y150431D01*
X64956Y149098D01*
X67622D01*
X68955Y150431D01*
Y151764D01*
X67622Y153097D01*
X63623D01*
X60958Y120710D02*
X59625Y122043D01*
X56959D01*
X55626Y120710D01*
Y115379D01*
X56959Y114046D01*
X59625D01*
X60958Y115379D01*
X68955Y122043D02*
X63623D01*
Y118045D01*
X66289Y119378D01*
X67622D01*
X68955Y118045D01*
Y115379D01*
X67622Y114046D01*
X64956D01*
X63623Y115379D01*
X66000Y207665D02*
X67333Y208997D01*
X69999D01*
X71332Y207665D01*
Y206332D01*
X69999Y204999D01*
X68666D01*
X69999D01*
X71332Y203666D01*
Y202333D01*
X69999Y201000D01*
X67333D01*
X66000Y202333D01*
X73997Y208997D02*
Y203666D01*
X76663Y201000D01*
X79329Y203666D01*
Y208997D01*
X32335Y159332D02*
X31003Y157999D01*
Y155333D01*
X32335Y154000D01*
X33668D01*
X35001Y155333D01*
Y157999D01*
X36334Y159332D01*
X37667D01*
X39000Y157999D01*
Y155333D01*
X37667Y154000D01*
X32335Y167329D02*
X31003Y165996D01*
Y163330D01*
X32335Y161997D01*
X37667D01*
X39000Y163330D01*
Y165996D01*
X37667Y167329D01*
X31003Y169995D02*
X39000D01*
Y175326D01*
X32335Y132332D02*
X31003Y130999D01*
Y128333D01*
X32335Y127000D01*
X33668D01*
X35001Y128333D01*
Y130999D01*
X36334Y132332D01*
X37667D01*
X39000Y130999D01*
Y128333D01*
X37667Y127000D01*
X31003Y134997D02*
X39000D01*
Y138996D01*
X37667Y140329D01*
X32335D01*
X31003Y138996D01*
Y134997D01*
X39000Y142995D02*
X33668D01*
X31003Y145661D01*
X33668Y148326D01*
X39000D01*
X35001D01*
Y142995D01*
M02*
