G04 Layer_Color=8388736*
%FSLAX44Y44*%
%MOMM*%
G71*
G01*
G75*
%ADD34R,0.8382X1.4732*%
G04:AMPARAMS|DCode=35|XSize=1.2032mm|YSize=1.1032mm|CornerRadius=0.2141mm|HoleSize=0mm|Usage=FLASHONLY|Rotation=180.000|XOffset=0mm|YOffset=0mm|HoleType=Round|Shape=RoundedRectangle|*
%AMROUNDEDRECTD35*
21,1,1.2032,0.6750,0,0,180.0*
21,1,0.7750,1.1032,0,0,180.0*
1,1,0.4282,-0.3875,0.3375*
1,1,0.4282,0.3875,0.3375*
1,1,0.4282,0.3875,-0.3375*
1,1,0.4282,-0.3875,-0.3375*
%
%ADD35ROUNDEDRECTD35*%
%ADD36R,1.2192X1.0668*%
%ADD37R,0.6096X1.8542*%
%ADD38C,1.7032*%
%ADD39C,3.8032*%
%ADD40C,1.8032*%
D34*
X184572Y200000D02*
D03*
X175500D02*
D03*
X68500Y192000D02*
D03*
X77572D02*
D03*
D35*
X80000Y19500D02*
D03*
Y36500D02*
D03*
X170000Y19500D02*
D03*
Y36500D02*
D03*
X83000Y161500D02*
D03*
Y144500D02*
D03*
Y126500D02*
D03*
Y109500D02*
D03*
D36*
X107500Y36890D02*
D03*
X142526D02*
D03*
X107500Y19250D02*
D03*
X142526D02*
D03*
D37*
X155360Y94500D02*
D03*
X148756D02*
D03*
X142406D02*
D03*
X135802D02*
D03*
X129250D02*
D03*
X122750D02*
D03*
X116250D02*
D03*
X109750D02*
D03*
X103250D02*
D03*
X96750D02*
D03*
X155360Y155734D02*
D03*
X148756D02*
D03*
X142406D02*
D03*
X135802D02*
D03*
X129250D02*
D03*
X116250D02*
D03*
X122750D02*
D03*
X109750D02*
D03*
X103250D02*
D03*
X96750D02*
D03*
D38*
X16000Y86800D02*
D03*
Y112200D02*
D03*
Y137600D02*
D03*
Y163000D02*
D03*
D39*
X25000Y225000D02*
D03*
X225000D02*
D03*
Y25000D02*
D03*
X25000D02*
D03*
D40*
X233000Y150400D02*
D03*
X207600D02*
D03*
X233000Y125000D02*
D03*
X207600D02*
D03*
X233000Y99600D02*
D03*
X207600D02*
D03*
M02*
