G04 Layer_Color=8421504*
%FSLAX44Y44*%
%MOMM*%
G71*
G01*
G75*
G04:AMPARAMS|DCode=10|XSize=1mm|YSize=0.9mm|CornerRadius=0.1125mm|HoleSize=0mm|Usage=FLASHONLY|Rotation=0.000|XOffset=0mm|YOffset=0mm|HoleType=Round|Shape=RoundedRectangle|*
%AMROUNDEDRECTD10*
21,1,1.0000,0.6750,0,0,0.0*
21,1,0.7750,0.9000,0,0,0.0*
1,1,0.2250,0.3875,-0.3375*
1,1,0.2250,-0.3875,-0.3375*
1,1,0.2250,-0.3875,0.3375*
1,1,0.2250,0.3875,0.3375*
%
%ADD10ROUNDEDRECTD10*%
%ADD11R,1.0160X0.8636*%
%ADD12R,0.6350X1.2700*%
%ADD13R,0.4064X1.6510*%
D10*
X83000Y109500D02*
D03*
Y126500D02*
D03*
Y144500D02*
D03*
Y161500D02*
D03*
X170000Y36500D02*
D03*
Y19500D02*
D03*
X80000Y36500D02*
D03*
Y19500D02*
D03*
D11*
X142526Y19250D02*
D03*
X107500D02*
D03*
X142526Y36890D02*
D03*
X107500D02*
D03*
D12*
X77572Y192000D02*
D03*
X68500D02*
D03*
X175500Y200000D02*
D03*
X184572D02*
D03*
D13*
X155360Y94500D02*
D03*
X148756D02*
D03*
X142406D02*
D03*
X135802D02*
D03*
X129250D02*
D03*
X122750D02*
D03*
X116250D02*
D03*
X109750D02*
D03*
X103250D02*
D03*
X96750D02*
D03*
X155360Y155734D02*
D03*
X148756D02*
D03*
X142406D02*
D03*
X135802D02*
D03*
X129250D02*
D03*
X116250D02*
D03*
X122750D02*
D03*
X109750D02*
D03*
X103250D02*
D03*
X96750D02*
D03*
M02*
