G04 Layer_Physical_Order=1*
G04 Layer_Color=255*
%FSLAX44Y44*%
%MOMM*%
G71*
G01*
G75*
G04:AMPARAMS|DCode=10|XSize=1mm|YSize=0.9mm|CornerRadius=0.1125mm|HoleSize=0mm|Usage=FLASHONLY|Rotation=0.000|XOffset=0mm|YOffset=0mm|HoleType=Round|Shape=RoundedRectangle|*
%AMROUNDEDRECTD10*
21,1,1.0000,0.6750,0,0,0.0*
21,1,0.7750,0.9000,0,0,0.0*
1,1,0.2250,0.3875,-0.3375*
1,1,0.2250,-0.3875,-0.3375*
1,1,0.2250,-0.3875,0.3375*
1,1,0.2250,0.3875,0.3375*
%
%ADD10ROUNDEDRECTD10*%
%ADD11R,1.0160X0.8636*%
%ADD12R,0.6350X1.2700*%
%ADD13R,0.4064X1.6510*%
%ADD14C,0.2500*%
%ADD15C,0.2000*%
%ADD16C,0.3000*%
%ADD17C,1.6000*%
%ADD18C,3.6000*%
%ADD19C,1.5000*%
%ADD20C,0.5000*%
%ADD21C,0.6000*%
G36*
X215951Y118192D02*
Y108020D01*
X214681Y107452D01*
X212915Y108807D01*
X210352Y109869D01*
X208870Y110064D01*
Y99600D01*
Y89136D01*
X210352Y89331D01*
X212915Y90393D01*
X214681Y91748D01*
X215951Y91180D01*
Y89556D01*
X189944Y63549D01*
X181813D01*
X181327Y64722D01*
X194802Y78198D01*
X195355Y79025D01*
X195549Y80000D01*
Y107944D01*
X203868Y116263D01*
X205120Y115744D01*
X207600Y115418D01*
X210080Y115744D01*
X212391Y116702D01*
X214375Y118225D01*
X214681Y118623D01*
X215951Y118192D01*
D02*
G37*
G36*
X25000Y247176D02*
X223772D01*
X225000Y247176D01*
X225000Y247176D01*
X225000Y247176D01*
Y247176D01*
X226234Y247088D01*
X229333Y246783D01*
X233499Y245519D01*
X237339Y243467D01*
X240705Y240705D01*
X243467Y237339D01*
X245519Y233499D01*
X246783Y229333D01*
X247088Y226234D01*
X247176Y225000D01*
X247176D01*
X247176Y225000D01*
Y26228D01*
X247176Y25000D01*
X247176Y25000D01*
X247176Y25000D01*
X247176D01*
X247088Y23766D01*
X246783Y20667D01*
X245519Y16501D01*
X243467Y12661D01*
X240705Y9295D01*
X237339Y6533D01*
X233499Y4481D01*
X229333Y3217D01*
X226234Y2912D01*
X225000Y2824D01*
Y2824D01*
X225000Y2824D01*
X26228D01*
X25000Y2824D01*
X25000Y2824D01*
X25000Y2824D01*
Y2824D01*
X23766Y2912D01*
X20667Y3217D01*
X16501Y4481D01*
X12661Y6533D01*
X9295Y9295D01*
X6533Y12661D01*
X4481Y16501D01*
X3217Y20667D01*
X2912Y23766D01*
X2824Y25000D01*
X2824D01*
X2824Y25000D01*
Y97414D01*
X4094Y97941D01*
X9249Y92786D01*
X8138Y91339D01*
X7232Y89149D01*
X6922Y86800D01*
X7232Y84451D01*
X8138Y82261D01*
X9581Y80381D01*
X11461Y78938D01*
X13650Y78032D01*
X16000Y77722D01*
X18349Y78032D01*
X20539Y78938D01*
X22419Y80381D01*
X23861Y82261D01*
X24768Y84451D01*
X25078Y86800D01*
X24768Y89149D01*
X23861Y91339D01*
X22419Y93219D01*
X20539Y94661D01*
X18349Y95568D01*
X16000Y95878D01*
X14310Y95655D01*
X7804Y102161D01*
Y104486D01*
X9074Y104859D01*
X10937Y103430D01*
X13379Y102418D01*
X14730Y102240D01*
Y112200D01*
Y122159D01*
X13379Y121981D01*
X10937Y120970D01*
X9074Y119541D01*
X7804Y119914D01*
Y131411D01*
X9074Y131842D01*
X9581Y131181D01*
X11461Y129739D01*
X13650Y128832D01*
X16000Y128522D01*
X18349Y128832D01*
X20084Y129550D01*
X46196Y103439D01*
Y77000D01*
X46410Y75927D01*
X47017Y75017D01*
X75017Y47017D01*
X77196Y44839D01*
Y42551D01*
X76125D01*
X75101Y42348D01*
X74233Y41768D01*
X73652Y40899D01*
X73449Y39875D01*
Y33125D01*
X73561Y32561D01*
X73000Y32000D01*
Y24000D01*
X73561Y23439D01*
X73449Y22875D01*
Y16125D01*
X73652Y15101D01*
X74233Y14232D01*
X75101Y13652D01*
X76125Y13449D01*
X83875D01*
X84899Y13652D01*
X85767Y14232D01*
X86348Y15101D01*
X86551Y16125D01*
Y16446D01*
X100920D01*
Y13432D01*
X109353D01*
X114767Y8017D01*
X115677Y7410D01*
X116750Y7196D01*
X160500D01*
X161573Y7410D01*
X162483Y8017D01*
X167914Y13449D01*
X173875D01*
X174899Y13652D01*
X175767Y14232D01*
X176348Y15101D01*
X176551Y16125D01*
Y22875D01*
X176439Y23439D01*
X177000Y24000D01*
Y32000D01*
X176439Y32561D01*
X176551Y33125D01*
Y39875D01*
X176348Y40899D01*
X175767Y41768D01*
X174899Y42348D01*
X173875Y42551D01*
X172804D01*
Y44000D01*
X172591Y45073D01*
X171983Y45983D01*
X167060Y50906D01*
X167078Y51000D01*
X166768Y52561D01*
X166019Y53681D01*
X166249Y54449D01*
X166573Y54951D01*
X194500D01*
X195476Y55145D01*
X196302Y55698D01*
X223802Y83198D01*
X224355Y84025D01*
X224549Y85000D01*
Y92922D01*
X225819Y93353D01*
X226224Y92825D01*
X228209Y91302D01*
X230520Y90344D01*
X233000Y90018D01*
X235480Y90344D01*
X237791Y91302D01*
X239775Y92825D01*
X241298Y94809D01*
X242255Y97120D01*
X242582Y99600D01*
X242255Y102080D01*
X241298Y104391D01*
X239775Y106376D01*
X237791Y107898D01*
X235480Y108855D01*
X233000Y109182D01*
X232520Y109119D01*
X231926Y110322D01*
X234803Y113198D01*
X235355Y114025D01*
X235549Y115000D01*
Y115773D01*
X237791Y116702D01*
X239775Y118225D01*
X241298Y120209D01*
X242255Y122520D01*
X242582Y125000D01*
X242255Y127480D01*
X241298Y129791D01*
X239775Y131776D01*
X237791Y133298D01*
X235480Y134256D01*
X233000Y134582D01*
X230520Y134256D01*
X228209Y133298D01*
X226224Y131776D01*
X224702Y129791D01*
X223745Y127480D01*
X223418Y125000D01*
X223745Y122520D01*
X224702Y120209D01*
X226224Y118225D01*
X228209Y116702D01*
X229195Y116293D01*
X229443Y115048D01*
X222222Y107827D01*
X221049Y108313D01*
Y134843D01*
X228279Y142073D01*
X230520Y141145D01*
X233000Y140818D01*
X235480Y141145D01*
X237791Y142102D01*
X239775Y143625D01*
X241298Y145609D01*
X242255Y147920D01*
X242582Y150400D01*
X242255Y152880D01*
X241298Y155191D01*
X239775Y157176D01*
X237791Y158698D01*
X235480Y159656D01*
X233000Y159982D01*
X230520Y159656D01*
X228209Y158698D01*
X226224Y157176D01*
X224702Y155191D01*
X223745Y152880D01*
X223418Y150400D01*
X223745Y147920D01*
X224674Y145677D01*
X216698Y137702D01*
X216145Y136875D01*
X215951Y135899D01*
Y131808D01*
X214681Y131377D01*
X214375Y131776D01*
X212391Y133298D01*
X210080Y134256D01*
X207600Y134582D01*
X205120Y134256D01*
X202809Y133298D01*
X200825Y131776D01*
X199302Y129791D01*
X198344Y127480D01*
X198018Y125000D01*
X198344Y122520D01*
X199302Y120209D01*
X199867Y119472D01*
X191198Y110802D01*
X190645Y109976D01*
X190451Y109000D01*
Y81056D01*
X176944Y67549D01*
X95056D01*
X93336Y69269D01*
X93239Y69756D01*
X92244Y71244D01*
X90756Y72239D01*
X89000Y72588D01*
X87244Y72239D01*
X85819Y71287D01*
X85464Y71360D01*
X84549Y71724D01*
Y78291D01*
X85244Y78756D01*
X86239Y80244D01*
X86588Y82000D01*
X86239Y83756D01*
X85244Y85244D01*
X83756Y86239D01*
X82000Y86588D01*
X80244Y86239D01*
X78756Y85244D01*
X77761Y83756D01*
X77412Y82000D01*
X77761Y80244D01*
X78756Y78756D01*
X79451Y78291D01*
Y66000D01*
X79464Y65937D01*
X78293Y65312D01*
X69425Y74180D01*
X69588Y75000D01*
X69239Y76756D01*
X68244Y78244D01*
X66756Y79239D01*
X65000Y79588D01*
X63244Y79239D01*
X61756Y78244D01*
X60859Y76902D01*
X60136Y76566D01*
X59571Y76395D01*
X55804Y80161D01*
Y126000D01*
X55590Y127073D01*
X54983Y127983D01*
X24050Y158916D01*
X24768Y160651D01*
X25078Y163000D01*
X24768Y165349D01*
X23861Y167539D01*
X22419Y169419D01*
X20539Y170861D01*
X18349Y171768D01*
X16000Y172078D01*
X13650Y171768D01*
X11461Y170861D01*
X9581Y169419D01*
X9074Y168758D01*
X7804Y169189D01*
Y174839D01*
X16161Y183196D01*
X45000D01*
X46073Y183410D01*
X46983Y184017D01*
X56023Y193058D01*
X57196Y192572D01*
Y168000D01*
X57410Y166927D01*
X58017Y166017D01*
X73017Y151017D01*
X73927Y150410D01*
X74771Y150242D01*
X75092Y149908D01*
X75225Y149717D01*
X75597Y148926D01*
X75388Y147875D01*
Y145770D01*
X83000D01*
Y144500D01*
X84270D01*
Y137388D01*
X86875D01*
X87926Y137597D01*
X89196Y136857D01*
Y134161D01*
X87468Y132433D01*
X86875Y132551D01*
X79125D01*
X78101Y132348D01*
X77232Y131768D01*
X76652Y130899D01*
X76449Y129875D01*
Y123125D01*
X76561Y122561D01*
X76000Y122000D01*
Y114795D01*
X75673Y114305D01*
X75388Y112875D01*
Y110770D01*
X90612D01*
Y112875D01*
X90327Y114305D01*
X90000Y114795D01*
Y122000D01*
X89439Y122561D01*
X89551Y123125D01*
Y126586D01*
X93983Y131017D01*
X105233Y142267D01*
X105840Y143177D01*
X106054Y144250D01*
Y145979D01*
X132998D01*
Y135111D01*
X132761Y134756D01*
X132412Y133000D01*
X132761Y131244D01*
X133756Y129756D01*
X135244Y128761D01*
X137000Y128412D01*
X138676Y128745D01*
X138949Y128742D01*
X139946Y128209D01*
Y123372D01*
X139756Y123244D01*
X138761Y121756D01*
X138412Y120000D01*
X138761Y118244D01*
X139756Y116756D01*
X141244Y115761D01*
X143000Y115412D01*
X144756Y115761D01*
X146244Y116756D01*
X147239Y118244D01*
X147588Y120000D01*
X147239Y121756D01*
X146244Y123244D01*
X146205Y123271D01*
X146236Y123907D01*
X146577Y124196D01*
X147540Y124702D01*
X149000Y124412D01*
X150756Y124761D01*
X152244Y125756D01*
X153239Y127244D01*
X153588Y129000D01*
X153239Y130756D01*
X152244Y132244D01*
X151804Y132539D01*
Y145979D01*
X158892D01*
Y165489D01*
X112554D01*
Y168250D01*
X112340Y169323D01*
X111733Y170233D01*
X107983Y173983D01*
X107073Y174590D01*
X106000Y174804D01*
X87000D01*
X85927Y174590D01*
X85017Y173983D01*
X81017Y169983D01*
X80722Y169540D01*
X79243Y169222D01*
X71304Y177161D01*
Y184150D01*
X82247D01*
Y188196D01*
X125069D01*
X125543Y186926D01*
X124761Y185756D01*
X124412Y184000D01*
X124761Y182244D01*
X125756Y180756D01*
X127244Y179761D01*
X129000Y179412D01*
X129820Y179575D01*
X136198Y173198D01*
X137025Y172645D01*
X138000Y172451D01*
X186291D01*
X186756Y171756D01*
X188244Y170761D01*
X190000Y170412D01*
X191756Y170761D01*
X193244Y171756D01*
X194239Y173244D01*
X194588Y175000D01*
X194239Y176756D01*
X193244Y178244D01*
X191756Y179239D01*
X190000Y179588D01*
X188244Y179239D01*
X186756Y178244D01*
X186291Y177549D01*
X184634D01*
X183955Y178819D01*
X184239Y179244D01*
X184588Y181000D01*
X184239Y182756D01*
X183244Y184244D01*
X182930Y184454D01*
Y185982D01*
X182983Y186017D01*
X187063Y190097D01*
X187670Y191007D01*
X187884Y192080D01*
Y192150D01*
X189247D01*
Y207850D01*
X181215D01*
Y208890D01*
X176770D01*
Y200000D01*
X174230D01*
Y208890D01*
X169785D01*
Y205600D01*
X168515Y205215D01*
X167994Y205994D01*
X166162Y207219D01*
X165270Y207396D01*
Y202000D01*
Y196604D01*
X166162Y196781D01*
X167994Y198006D01*
X168515Y198785D01*
X169785Y198400D01*
Y191110D01*
X168642Y190804D01*
X156937D01*
X156884Y190884D01*
X155561Y191768D01*
X154000Y192078D01*
X152439Y191768D01*
X151116Y190884D01*
X150232Y189561D01*
X149922Y188000D01*
X150232Y186439D01*
X151116Y185116D01*
X151180Y185074D01*
X150794Y183804D01*
X143161D01*
X133982Y192983D01*
X133073Y193591D01*
X132000Y193804D01*
X82247D01*
Y199850D01*
X80376D01*
Y201428D01*
X80162Y202501D01*
X79555Y203411D01*
X77983Y204983D01*
X77073Y205590D01*
X76000Y205804D01*
X62000D01*
X60927Y205590D01*
X60017Y204983D01*
X58017Y202983D01*
X43839Y188804D01*
X15000D01*
X13927Y188590D01*
X13017Y187983D01*
X4094Y179060D01*
X2824Y179586D01*
Y223772D01*
X2824Y225000D01*
X2824Y225000D01*
X2824Y225000D01*
X2824D01*
X2912Y226234D01*
X3217Y229333D01*
X4481Y233499D01*
X6533Y237339D01*
X9295Y240705D01*
X12661Y243467D01*
X16501Y245519D01*
X20667Y246783D01*
X23766Y247088D01*
X25000Y247176D01*
Y247176D01*
X25000Y247176D01*
D02*
G37*
G36*
X161439Y47232D02*
X163000Y46922D01*
X163094Y46940D01*
X166213Y43821D01*
X166184Y43397D01*
X165760Y42479D01*
X165101Y42348D01*
X164233Y41768D01*
X163652Y40899D01*
X163449Y39875D01*
Y33125D01*
X163561Y32561D01*
X163000Y32000D01*
Y24000D01*
X163561Y23439D01*
X163449Y22875D01*
Y16914D01*
X159339Y12804D01*
X150116D01*
X149106Y13432D01*
X149106Y14074D01*
Y25068D01*
X135946D01*
Y14074D01*
X135946Y13432D01*
X134936Y12804D01*
X117911D01*
X115442Y15273D01*
X115928Y16446D01*
X121712D01*
X122006Y16006D01*
X123494Y15011D01*
X125250Y14662D01*
X127006Y15011D01*
X128495Y16006D01*
X129489Y17494D01*
X129838Y19250D01*
X129489Y21006D01*
X128495Y22494D01*
X127006Y23489D01*
X125250Y23838D01*
X123494Y23489D01*
X122006Y22494D01*
X121712Y22054D01*
X115441D01*
X115362Y22288D01*
X116197Y23376D01*
X116315Y23430D01*
X117980Y23761D01*
X119468Y24756D01*
X120463Y26244D01*
X120812Y28000D01*
X120463Y29756D01*
X119468Y31244D01*
X117980Y32239D01*
X116224Y32588D01*
X115704Y32485D01*
X114080Y34109D01*
Y42708D01*
X100920D01*
Y31072D01*
X109187D01*
X111739Y28520D01*
X111636Y28000D01*
X111966Y26338D01*
X111947Y26048D01*
X111424Y25068D01*
X100920D01*
Y22054D01*
X86551D01*
Y22875D01*
X86439Y23439D01*
X87000Y24000D01*
Y32000D01*
X86439Y32561D01*
X86551Y33125D01*
Y39875D01*
X86348Y40899D01*
X85767Y41768D01*
X84899Y42348D01*
X83875Y42551D01*
X82804D01*
Y46000D01*
X82965Y46196D01*
X150839D01*
X151940Y45094D01*
X151922Y45000D01*
X152232Y43439D01*
X153116Y42116D01*
X154439Y41232D01*
X156000Y40922D01*
X157561Y41232D01*
X158884Y42116D01*
X159768Y43439D01*
X160078Y45000D01*
X159768Y46561D01*
X159453Y47032D01*
X160369Y47947D01*
X161439Y47232D01*
D02*
G37*
G36*
X9581Y156581D02*
X11461Y155139D01*
X13650Y154232D01*
X16000Y153922D01*
X18349Y154232D01*
X20084Y154950D01*
X50196Y124838D01*
Y109028D01*
X49023Y108542D01*
X24050Y133516D01*
X24768Y135251D01*
X25078Y137600D01*
X24768Y139949D01*
X23861Y142139D01*
X22419Y144019D01*
X20539Y145461D01*
X18349Y146368D01*
X16000Y146678D01*
X13650Y146368D01*
X11461Y145461D01*
X9581Y144019D01*
X9074Y143358D01*
X7804Y143789D01*
Y156811D01*
X9074Y157242D01*
X9581Y156581D01*
D02*
G37*
%LPC*%
G36*
X206330Y110064D02*
X204848Y109869D01*
X202285Y108807D01*
X200083Y107117D01*
X198393Y104916D01*
X197331Y102352D01*
X197136Y100870D01*
X206330D01*
Y110064D01*
D02*
G37*
G36*
Y98330D02*
X197136D01*
X197331Y96848D01*
X198393Y94284D01*
X200083Y92083D01*
X202285Y90393D01*
X204848Y89331D01*
X206330Y89136D01*
Y98330D01*
D02*
G37*
G36*
X225000Y244594D02*
X221177Y244218D01*
X217501Y243103D01*
X214114Y241292D01*
X211145Y238855D01*
X208708Y235886D01*
X206897Y232498D01*
X205782Y228822D01*
X205406Y225000D01*
X205782Y221177D01*
X206897Y217501D01*
X208708Y214114D01*
X211145Y211145D01*
X214114Y208708D01*
X217501Y206897D01*
X221177Y205782D01*
X225000Y205406D01*
X228822Y205782D01*
X232498Y206897D01*
X235886Y208708D01*
X238855Y211145D01*
X241292Y214114D01*
X243103Y217501D01*
X244218Y221177D01*
X244594Y225000D01*
X244218Y228822D01*
X243103Y232498D01*
X241292Y235886D01*
X238855Y238855D01*
X235886Y241292D01*
X232498Y243103D01*
X228822Y244218D01*
X225000Y244594D01*
D02*
G37*
G36*
X116000Y123078D02*
X114439Y122768D01*
X113116Y121884D01*
X112232Y120561D01*
X111922Y119000D01*
X112232Y117439D01*
X113116Y116116D01*
X113196Y116063D01*
Y104255D01*
X93218D01*
Y84745D01*
X137834D01*
Y83705D01*
X141136D01*
Y94500D01*
Y105295D01*
X138804D01*
Y108000D01*
X138590Y109073D01*
X137983Y109983D01*
X137060Y110906D01*
X137078Y111000D01*
X136768Y112561D01*
X135884Y113884D01*
X134561Y114768D01*
X133000Y115078D01*
X131439Y114768D01*
X130116Y113884D01*
X129232Y112561D01*
X128922Y111000D01*
X129232Y109439D01*
X130116Y108116D01*
X131439Y107232D01*
X133000Y106922D01*
X133196Y105686D01*
Y104255D01*
X125554D01*
Y110813D01*
X125634Y110866D01*
X126518Y112189D01*
X126828Y113750D01*
X126518Y115311D01*
X125634Y116634D01*
X124311Y117518D01*
X122750Y117828D01*
X121189Y117518D01*
X121061Y117432D01*
X119918Y118196D01*
X120078Y119000D01*
X119768Y120561D01*
X118884Y121884D01*
X117561Y122768D01*
X116000Y123078D01*
D02*
G37*
G36*
X25959Y110930D02*
X17270D01*
Y102240D01*
X18621Y102418D01*
X21063Y103430D01*
X23161Y105039D01*
X24770Y107137D01*
X25782Y109579D01*
X25959Y110930D01*
D02*
G37*
G36*
X146978Y105295D02*
X143676D01*
Y94500D01*
Y83705D01*
X146978D01*
Y84745D01*
X158892D01*
Y104255D01*
X146978D01*
Y105295D01*
D02*
G37*
G36*
X25000Y44595D02*
X21177Y44218D01*
X17502Y43103D01*
X14114Y41292D01*
X11145Y38856D01*
X8708Y35886D01*
X6897Y32499D01*
X5782Y28823D01*
X5406Y25000D01*
X5782Y21177D01*
X6897Y17502D01*
X8708Y14114D01*
X11145Y11145D01*
X14114Y8708D01*
X17502Y6897D01*
X21177Y5782D01*
X25000Y5406D01*
X28823Y5782D01*
X32499Y6897D01*
X35886Y8708D01*
X38856Y11145D01*
X41292Y14114D01*
X43103Y17502D01*
X44218Y21177D01*
X44595Y25000D01*
X44218Y28823D01*
X43103Y32499D01*
X41292Y35886D01*
X38856Y38856D01*
X35886Y41292D01*
X32499Y43103D01*
X28823Y44218D01*
X25000Y44595D01*
D02*
G37*
G36*
X225000D02*
X221177Y44218D01*
X217501Y43103D01*
X214114Y41292D01*
X211145Y38856D01*
X208708Y35886D01*
X206897Y32499D01*
X205782Y28823D01*
X205406Y25000D01*
X205782Y21177D01*
X206897Y17502D01*
X208708Y14114D01*
X211145Y11145D01*
X214114Y8708D01*
X217501Y6897D01*
X221177Y5782D01*
X225000Y5406D01*
X228822Y5782D01*
X232498Y6897D01*
X235886Y8708D01*
X238855Y11145D01*
X241292Y14114D01*
X243103Y17502D01*
X244218Y21177D01*
X244594Y25000D01*
X244218Y28823D01*
X243103Y32499D01*
X241292Y35886D01*
X238855Y38856D01*
X235886Y41292D01*
X232498Y43103D01*
X228822Y44218D01*
X225000Y44595D01*
D02*
G37*
G36*
X207600Y159982D02*
X205120Y159656D01*
X202809Y158698D01*
X200825Y157176D01*
X199302Y155191D01*
X198344Y152880D01*
X198018Y150400D01*
X198344Y147920D01*
X199302Y145609D01*
X200825Y143625D01*
X202809Y142102D01*
X205120Y141145D01*
X207600Y140818D01*
X210080Y141145D01*
X212391Y142102D01*
X214375Y143625D01*
X215898Y145609D01*
X216855Y147920D01*
X217182Y150400D01*
X216855Y152880D01*
X215898Y155191D01*
X214375Y157176D01*
X212391Y158698D01*
X210080Y159656D01*
X207600Y159982D01*
D02*
G37*
G36*
X186730Y153730D02*
X182604D01*
X182781Y152838D01*
X184006Y151006D01*
X185838Y149781D01*
X186730Y149604D01*
Y153730D01*
D02*
G37*
G36*
X181270Y124396D02*
Y120270D01*
X185396D01*
X185219Y121162D01*
X183994Y122994D01*
X182162Y124219D01*
X181270Y124396D01*
D02*
G37*
G36*
X81730Y143230D02*
X75388D01*
Y141125D01*
X75673Y139695D01*
X76483Y138483D01*
X77695Y137673D01*
X79125Y137388D01*
X81730D01*
Y143230D01*
D02*
G37*
G36*
X189270Y160396D02*
Y156270D01*
X193396D01*
X193219Y157162D01*
X191994Y158994D01*
X190162Y160219D01*
X189270Y160396D01*
D02*
G37*
G36*
X162730Y200730D02*
X158604D01*
X158781Y199838D01*
X160006Y198006D01*
X161838Y196781D01*
X162730Y196604D01*
Y200730D01*
D02*
G37*
G36*
X193396Y153730D02*
X189270D01*
Y149604D01*
X190162Y149781D01*
X191994Y151006D01*
X193219Y152838D01*
X193396Y153730D01*
D02*
G37*
G36*
X186730Y160396D02*
X185838Y160219D01*
X184006Y158994D01*
X182781Y157162D01*
X182604Y156270D01*
X186730D01*
Y160396D01*
D02*
G37*
G36*
X25000Y244594D02*
X21177Y244218D01*
X17502Y243103D01*
X14114Y241292D01*
X11145Y238855D01*
X8708Y235886D01*
X6897Y232498D01*
X5782Y228822D01*
X5406Y225000D01*
X5782Y221177D01*
X6897Y217501D01*
X8708Y214114D01*
X11145Y211145D01*
X14114Y208708D01*
X17502Y206897D01*
X21177Y205782D01*
X25000Y205406D01*
X28823Y205782D01*
X32499Y206897D01*
X35886Y208708D01*
X38856Y211145D01*
X41292Y214114D01*
X43103Y217501D01*
X44218Y221177D01*
X44595Y225000D01*
X44218Y228822D01*
X43103Y232498D01*
X41292Y235886D01*
X38856Y238855D01*
X35886Y241292D01*
X32499Y243103D01*
X28823Y244218D01*
X25000Y244594D01*
D02*
G37*
G36*
X17270Y122159D02*
Y113470D01*
X25959D01*
X25782Y114821D01*
X24770Y117263D01*
X23161Y119361D01*
X21063Y120970D01*
X18621Y121981D01*
X17270Y122159D01*
D02*
G37*
G36*
X81730Y108230D02*
X75388D01*
Y106125D01*
X75673Y104695D01*
X76483Y103483D01*
X77695Y102673D01*
X79125Y102388D01*
X81730D01*
Y108230D01*
D02*
G37*
G36*
X90612D02*
X84270D01*
Y102388D01*
X86875D01*
X88305Y102673D01*
X89517Y103483D01*
X90327Y104695D01*
X90612Y106125D01*
Y108230D01*
D02*
G37*
G36*
X162730Y207396D02*
X161838Y207219D01*
X160006Y205994D01*
X158781Y204162D01*
X158604Y203270D01*
X162730D01*
Y207396D01*
D02*
G37*
G36*
X178730Y124396D02*
X177838Y124219D01*
X176006Y122994D01*
X174781Y121162D01*
X174604Y120270D01*
X178730D01*
Y124396D01*
D02*
G37*
G36*
Y117730D02*
X174604D01*
X174781Y116838D01*
X176006Y115006D01*
X177838Y113781D01*
X178730Y113604D01*
Y117730D01*
D02*
G37*
G36*
X185396D02*
X181270D01*
Y113604D01*
X182162Y113781D01*
X183994Y115006D01*
X185219Y116838D01*
X185396Y117730D01*
D02*
G37*
G36*
X125730Y42396D02*
X124838Y42219D01*
X123006Y40994D01*
X121781Y39162D01*
X121604Y38270D01*
X125730D01*
Y42396D01*
D02*
G37*
G36*
X128270D02*
Y38270D01*
X132396D01*
X132219Y39162D01*
X130994Y40994D01*
X129162Y42219D01*
X128270Y42396D01*
D02*
G37*
G36*
X141256Y35620D02*
X134906D01*
Y30032D01*
X141256D01*
Y35620D01*
D02*
G37*
G36*
X150146D02*
X143796D01*
Y30032D01*
X150146D01*
Y35620D01*
D02*
G37*
G36*
X141256Y43748D02*
X134906D01*
Y38160D01*
X141256D01*
Y43748D01*
D02*
G37*
G36*
X150146D02*
X143796D01*
Y38160D01*
X150146D01*
Y43748D01*
D02*
G37*
G36*
X125730Y35730D02*
X121604D01*
X121781Y34838D01*
X123006Y33006D01*
X124838Y31781D01*
X125730Y31604D01*
Y35730D01*
D02*
G37*
G36*
X132396D02*
X128270D01*
Y31604D01*
X129162Y31781D01*
X130994Y33006D01*
X132219Y34838D01*
X132396Y35730D01*
D02*
G37*
%LPD*%
D10*
X83000Y109500D02*
D03*
Y126500D02*
D03*
Y144500D02*
D03*
Y161500D02*
D03*
X170000Y36500D02*
D03*
Y19500D02*
D03*
X80000Y36500D02*
D03*
Y19500D02*
D03*
D11*
X142526Y19250D02*
D03*
X107500D02*
D03*
X142526Y36890D02*
D03*
X107500D02*
D03*
D12*
X77572Y192000D02*
D03*
X68500D02*
D03*
X175500Y200000D02*
D03*
X184572D02*
D03*
D13*
X155360Y94500D02*
D03*
X148756D02*
D03*
X142406D02*
D03*
X135802D02*
D03*
X129250D02*
D03*
X122750D02*
D03*
X116250D02*
D03*
X109750D02*
D03*
X103250D02*
D03*
X96750D02*
D03*
X155360Y155734D02*
D03*
X148756D02*
D03*
X142406D02*
D03*
X135802D02*
D03*
X129250D02*
D03*
X116250D02*
D03*
X122750D02*
D03*
X109750D02*
D03*
X103250D02*
D03*
X96750D02*
D03*
D14*
X185080Y192080D02*
Y200000D01*
X181000Y188000D02*
X185080Y192080D01*
X154000Y188000D02*
X181000D01*
X49000Y77000D02*
X77000Y49000D01*
X16000Y163000D02*
X53000Y126000D01*
Y79000D02*
Y126000D01*
Y79000D02*
X59250Y72750D01*
Y72618D02*
Y72750D01*
X16000Y137600D02*
X49000Y104600D01*
Y77000D02*
Y104600D01*
X15000Y186000D02*
X45000D01*
X5000Y176000D02*
X15000Y186000D01*
X5000Y101000D02*
Y176000D01*
Y101000D02*
X16000Y90000D01*
Y86800D02*
Y90000D01*
X87000Y172000D02*
X106000D01*
X83000Y168000D02*
X87000Y172000D01*
X83000Y161500D02*
Y168000D01*
X109750Y155734D02*
Y168250D01*
X106000Y172000D02*
X109750Y168250D01*
X77572Y192000D02*
Y201428D01*
X76000Y203000D02*
X77572Y201428D01*
X62000Y203000D02*
X76000D01*
X75000Y153000D02*
X89000D01*
X60000Y168000D02*
X75000Y153000D01*
X60000Y168000D02*
Y201000D01*
X62000Y203000D01*
X73000Y119500D02*
X83000Y109500D01*
X73000Y119500D02*
Y141000D01*
X76500Y144500D01*
X83000D01*
X85500Y126500D02*
X92000Y133000D01*
X83000Y126500D02*
X85500D01*
X92000Y133000D02*
X103250Y144250D01*
X92000Y133000D02*
Y146276D01*
X91968Y146308D02*
X92000Y146276D01*
X91968Y146308D02*
Y150032D01*
X89000Y153000D02*
X91968Y150032D01*
X103250Y155734D02*
X103250Y155734D01*
X103250Y144250D02*
Y155734D01*
X68500Y176000D02*
Y191000D01*
Y176000D02*
X83000Y161500D01*
Y92000D02*
Y109500D01*
X142406Y83406D02*
Y94500D01*
X139000Y80000D02*
X142406Y83406D01*
X95000Y80000D02*
X139000D01*
X83000Y92000D02*
X95000Y80000D01*
X135802Y94500D02*
X136000Y94698D01*
Y108000D01*
X133000Y111000D02*
X136000Y108000D01*
X122750Y94500D02*
Y113750D01*
X116000Y94750D02*
X116250Y94500D01*
X116000Y94750D02*
Y119000D01*
X168000Y200000D02*
X172424D01*
X166000Y202000D02*
X168000Y200000D01*
X164000Y202000D02*
X166000D01*
X77572Y191000D02*
X132000D01*
X142000Y181000D01*
X180000D01*
X148756Y155734D02*
X149000Y155490D01*
Y129000D02*
Y155490D01*
X142750Y120250D02*
X143000Y120000D01*
X142750Y120250D02*
Y155390D01*
X142406Y155734D02*
X142750Y155390D01*
X135802Y134198D02*
Y155734D01*
Y134198D02*
X137000Y133000D01*
X107500Y36724D02*
Y36890D01*
Y36724D02*
X116224Y28000D01*
X107500Y19250D02*
X125250D01*
X80250D02*
X107500D01*
X160500Y10000D02*
X170000Y19500D01*
X116750Y10000D02*
X160500D01*
X107500Y19250D02*
X116750Y10000D01*
X170000Y36500D02*
Y44000D01*
X163000Y51000D02*
X170000Y44000D01*
X80000Y36500D02*
Y46000D01*
X77000Y49000D02*
X80000Y46000D01*
X152000Y49000D02*
X156000Y45000D01*
X77000Y49000D02*
X152000D01*
X160250Y53750D02*
X163000Y51000D01*
X59250Y72618D02*
X78118Y53750D01*
X160250D01*
X45000Y186000D02*
X60000Y201000D01*
D15*
X94000Y65000D02*
X178000D01*
X91000Y68000D02*
X94000Y65000D01*
X82000Y66000D02*
Y82000D01*
X89000Y68000D02*
X91000D01*
X178000Y65000D02*
X193000Y80000D01*
Y109000D01*
X207600Y123600D01*
Y125000D01*
X233000Y115000D02*
Y125000D01*
X129000Y184000D02*
X138000Y175000D01*
X190000D01*
X194500Y57500D02*
X222000Y85000D01*
Y104000D01*
X233000Y115000D01*
X191000Y61000D02*
X218500Y88500D01*
Y135899D01*
X233000Y150400D01*
X82000Y66000D02*
X87000Y61000D01*
X191000D01*
X65000Y75000D02*
X82500Y57500D01*
X194500D01*
D16*
X127000Y37000D02*
X127110Y36890D01*
X142526D01*
D17*
X207600Y99600D02*
D03*
X233000D02*
D03*
X207600Y125000D02*
D03*
X233000D02*
D03*
X207600Y150400D02*
D03*
X233000D02*
D03*
D18*
X25000Y25000D02*
D03*
X225000D02*
D03*
Y225000D02*
D03*
X25000D02*
D03*
D19*
X16000Y163000D02*
D03*
Y137600D02*
D03*
Y112200D02*
D03*
Y86800D02*
D03*
D20*
X154000Y188000D02*
D03*
X163000Y51000D02*
D03*
X156000Y45000D02*
D03*
X133000Y111000D02*
D03*
X122750Y113750D02*
D03*
X116000Y119000D02*
D03*
D21*
X89000Y68000D02*
D03*
X164000Y202000D02*
D03*
X180000Y181000D02*
D03*
X82000Y82000D02*
D03*
X65000Y75000D02*
D03*
X129000Y184000D02*
D03*
X190000Y175000D02*
D03*
X149000Y129000D02*
D03*
X143000Y120000D02*
D03*
X137000Y133000D02*
D03*
X116224Y28000D02*
D03*
X125250Y19250D02*
D03*
X127000Y37000D02*
D03*
X180000Y119000D02*
D03*
X188000Y155000D02*
D03*
M02*
