G04 Layer_Color=32896*
%FSLAX44Y44*%
%MOMM*%
G71*
G01*
G75*
%ADD14C,0.2500*%
%ADD15C,0.2000*%
%ADD29C,0.2032*%
%ADD30C,0.1270*%
%ADD31C,0.2540*%
%ADD32C,0.1800*%
%ADD33C,0.1500*%
%ADD47C,0.6000*%
G36*
X125000Y28000D02*
X122460D01*
Y30540D01*
X125000D01*
Y28000D01*
D02*
G37*
D14*
X168250Y161250D02*
G03*
X168250Y161250I-1250J0D01*
G01*
D15*
X95500Y95500D02*
X154500D01*
X95500Y154500D02*
X154500D01*
X95500Y95500D02*
Y154500D01*
X154500Y95500D02*
Y154500D01*
X63079Y194996D02*
X56415D01*
Y193330D01*
X63079Y186666D01*
Y185000D01*
X56415D01*
X63079Y212996D02*
Y211330D01*
X59747Y207998D01*
X56415Y211330D01*
Y212996D01*
X59747Y207998D02*
Y203000D01*
D29*
X83461Y179840D02*
G03*
X86001Y182380I0J2540D01*
G01*
X64284D02*
G03*
X66824Y179840I2540J0D01*
G01*
Y218160D02*
G03*
X64284Y215620I0J-2540D01*
G01*
X86001D02*
G03*
X83461Y218160I-2540J0D01*
G01*
X66825Y179839D02*
X83462D01*
X66825Y218160D02*
X83462D01*
D30*
X105950Y9000D02*
Y12000D01*
Y9000D02*
X144000D01*
Y12000D01*
X105950Y44002D02*
Y47050D01*
X144000D01*
Y44002D02*
Y47050D01*
X173488Y201496D02*
X186512D01*
X173488Y198504D02*
X186512D01*
X57238Y116222D02*
X66762D01*
X57238Y119778D02*
X66762D01*
X209064Y178476D02*
Y181524D01*
X200936Y178476D02*
Y181524D01*
X183238Y106778D02*
X192762D01*
X183238Y103222D02*
X192762D01*
X183238Y139778D02*
X192762D01*
X183238Y136222D02*
X192762D01*
D31*
X244709Y150400D02*
G03*
X244709Y150400I-11709J0D01*
G01*
X0Y175000D02*
X15000D01*
X235000Y75000D02*
X250000D01*
X235000Y175000D02*
X250000D01*
X0Y75000D02*
X15000D01*
D32*
X34002Y109000D02*
Y115665D01*
Y84000D02*
Y90665D01*
X30669Y87332D02*
X37334D01*
D33*
X62740Y146618D02*
X64073Y147951D01*
X66739D01*
X68072Y146618D01*
Y141287D01*
X66739Y139954D01*
X64073D01*
X62740Y141287D01*
X54743Y139954D02*
X60075D01*
X54743Y145286D01*
Y146618D01*
X56076Y147951D01*
X58742D01*
X60075Y146618D01*
X179928Y229660D02*
X181261Y230993D01*
X183927D01*
X185260Y229660D01*
Y224329D01*
X183927Y222996D01*
X181261D01*
X179928Y224329D01*
X177263Y222996D02*
X174597D01*
X175930D01*
Y230993D01*
X177263Y229660D01*
X189248Y166618D02*
X190581Y167951D01*
X193247D01*
X194580Y166618D01*
Y161287D01*
X193247Y159954D01*
X190581D01*
X189248Y161287D01*
X186583Y166618D02*
X185250Y167951D01*
X182584D01*
X181251Y166618D01*
Y165286D01*
X182584Y163953D01*
X183917D01*
X182584D01*
X181251Y162620D01*
Y161287D01*
X182584Y159954D01*
X185250D01*
X186583Y161287D01*
X210294Y202132D02*
Y210129D01*
X206295D01*
X204962Y208797D01*
Y206131D01*
X206295Y204798D01*
X210294D01*
X207628D02*
X204962Y202132D01*
X202297D02*
X199631D01*
X200964D01*
Y210129D01*
X202297Y208797D01*
X189232Y81706D02*
X190565Y83039D01*
X193231D01*
X194564Y81706D01*
Y76375D01*
X193231Y75042D01*
X190565D01*
X189232Y76375D01*
X182568Y75042D02*
Y83039D01*
X186567Y79041D01*
X181235D01*
X171000Y174997D02*
Y168333D01*
X169667Y167000D01*
X167001D01*
X165668Y168333D01*
Y174997D01*
X163003Y167000D02*
X160337D01*
X161670D01*
Y174997D01*
X163003Y173664D01*
X37664Y159332D02*
X38997Y157999D01*
Y155333D01*
X37664Y154000D01*
X36332D01*
X34999Y155333D01*
Y157999D01*
X33666Y159332D01*
X32333D01*
X31000Y157999D01*
Y155333D01*
X32333Y154000D01*
X37664Y167329D02*
X38997Y165996D01*
Y163330D01*
X37664Y161997D01*
X32333D01*
X31000Y163330D01*
Y165996D01*
X32333Y167329D01*
X38997Y169995D02*
X31000D01*
Y175326D01*
X37664Y132332D02*
X38997Y130999D01*
Y128333D01*
X37664Y127000D01*
X36332D01*
X34999Y128333D01*
Y130999D01*
X33666Y132332D01*
X32333D01*
X31000Y130999D01*
Y128333D01*
X32333Y127000D01*
X38997Y134997D02*
X31000D01*
Y138996D01*
X32333Y140329D01*
X37664D01*
X38997Y138996D01*
Y134997D01*
X31000Y142995D02*
X36332D01*
X38997Y145661D01*
X36332Y148326D01*
X31000D01*
X34999D01*
Y142995D01*
X186100Y61465D02*
Y56466D01*
X184434Y54800D01*
X182768Y56466D01*
X181102Y54800D01*
X179436Y56466D01*
Y61465D01*
X176103D02*
Y56466D01*
X174437Y54800D01*
X172771Y56466D01*
X171105Y54800D01*
X169439Y56466D01*
Y61465D01*
X166106D02*
Y56466D01*
X164440Y54800D01*
X162774Y56466D01*
X161108Y54800D01*
X159442Y56466D01*
Y61465D01*
X156110Y54800D02*
Y56466D01*
X154444D01*
Y54800D01*
X156110D01*
X147779Y64797D02*
Y54800D01*
X141115D01*
X137782Y64797D02*
Y54800D01*
X134450Y58132D01*
X131118Y54800D01*
Y64797D01*
X127786D02*
Y54800D01*
X122787D01*
X121121Y56466D01*
Y63131D01*
X122787Y64797D01*
X127786D01*
X117789Y63131D02*
X116123Y64797D01*
X112790D01*
X111124Y63131D01*
Y61465D01*
X112790Y59798D01*
X114456D01*
X112790D01*
X111124Y58132D01*
Y56466D01*
X112790Y54800D01*
X116123D01*
X117789Y56466D01*
X107792Y64797D02*
Y54800D01*
X102794D01*
X101127Y56466D01*
Y63131D01*
X102794Y64797D01*
X107792D01*
X97795Y54800D02*
Y56466D01*
X96129D01*
Y54800D01*
X97795D01*
X82800Y61465D02*
X87798D01*
X89465Y59798D01*
Y56466D01*
X87798Y54800D01*
X82800D01*
X77802D02*
X74469D01*
X72803Y56466D01*
Y59798D01*
X74469Y61465D01*
X77802D01*
X79468Y59798D01*
Y56466D01*
X77802Y54800D01*
X69471D02*
Y61465D01*
X67805D01*
X66139Y59798D01*
Y54800D01*
Y59798D01*
X64472Y61465D01*
X62806Y59798D01*
Y54800D01*
X89000Y244497D02*
Y238832D01*
X86168Y236000D01*
X83335Y238832D01*
Y244497D01*
X80503Y236000D02*
X77670D01*
X79086D01*
Y244497D01*
X80503Y243081D01*
X73422Y236000D02*
Y237416D01*
X72006D01*
Y236000D01*
X73422D01*
X66341Y243081D02*
X64924Y244497D01*
X62092D01*
X60676Y243081D01*
Y237416D01*
X62092Y236000D01*
X64924D01*
X66341Y237416D01*
Y243081D01*
X57843Y244497D02*
Y236000D01*
X53595D01*
X52179Y237416D01*
Y238832D01*
X53595Y240249D01*
X57843D01*
X53595D01*
X52179Y241665D01*
Y243081D01*
X53595Y244497D01*
X57843D01*
D47*
X147500Y144500D02*
G03*
X147500Y144500I-3000J0D01*
G01*
M02*
