G04 Layer_Color=8388736*
%FSLAX44Y44*%
%MOMM*%
G71*
G01*
G75*
%ADD34R,0.6919X0.4000*%
G04:AMPARAMS|DCode=35|XSize=1.2032mm|YSize=1.1032mm|CornerRadius=0.2141mm|HoleSize=0mm|Usage=FLASHONLY|Rotation=0.000|XOffset=0mm|YOffset=0mm|HoleType=Round|Shape=RoundedRectangle|*
%AMROUNDEDRECTD35*
21,1,1.2032,0.6750,0,0,0.0*
21,1,0.7750,1.1032,0,0,0.0*
1,1,0.4282,0.3875,-0.3375*
1,1,0.4282,-0.3875,-0.3375*
1,1,0.4282,-0.3875,0.3375*
1,1,0.4282,0.3875,0.3375*
%
%ADD35ROUNDEDRECTD35*%
%ADD36R,0.8382X1.4732*%
%ADD37R,0.6096X1.8542*%
%ADD38R,1.2192X1.0668*%
%ADD39C,1.4032*%
%ADD40C,3.8032*%
%ADD41C,1.7032*%
D34*
X180460Y199000D02*
D03*
D35*
X83000Y108500D02*
D03*
Y125500D02*
D03*
Y143500D02*
D03*
Y160500D02*
D03*
D36*
X185080Y199000D02*
D03*
X174920D02*
D03*
X77572Y191000D02*
D03*
X68500D02*
D03*
D37*
X96750Y154734D02*
D03*
X103250D02*
D03*
X109750D02*
D03*
X122750D02*
D03*
X116250D02*
D03*
X129250D02*
D03*
X135802D02*
D03*
X142406D02*
D03*
X148756D02*
D03*
X155360D02*
D03*
X96750Y93500D02*
D03*
X103250D02*
D03*
X109750D02*
D03*
X116250D02*
D03*
X122750D02*
D03*
X129250D02*
D03*
X135802D02*
D03*
X142406D02*
D03*
X148756D02*
D03*
X155360D02*
D03*
D38*
X142526Y18250D02*
D03*
X107500D02*
D03*
X142526Y35890D02*
D03*
X107500D02*
D03*
D39*
X207600Y98600D02*
D03*
X233000D02*
D03*
X207600Y124000D02*
D03*
X233000D02*
D03*
X207600Y149400D02*
D03*
X233000D02*
D03*
D40*
X25000Y24000D02*
D03*
X225000D02*
D03*
Y224000D02*
D03*
X25000D02*
D03*
D41*
X16000Y162000D02*
D03*
Y136600D02*
D03*
Y111200D02*
D03*
Y85800D02*
D03*
M02*
