G04 Layer_Color=8421504*
%FSLAX44Y44*%
%MOMM*%
G71*
G01*
G75*
G04:AMPARAMS|DCode=10|XSize=1mm|YSize=0.9mm|CornerRadius=0.1125mm|HoleSize=0mm|Usage=FLASHONLY|Rotation=0.000|XOffset=0mm|YOffset=0mm|HoleType=Round|Shape=RoundedRectangle|*
%AMROUNDEDRECTD10*
21,1,1.0000,0.6750,0,0,0.0*
21,1,0.7750,0.9000,0,0,0.0*
1,1,0.2250,0.3875,-0.3375*
1,1,0.2250,-0.3875,-0.3375*
1,1,0.2250,-0.3875,0.3375*
1,1,0.2250,0.3875,0.3375*
%
%ADD10ROUNDEDRECTD10*%
%ADD11R,0.6350X1.2700*%
%ADD12R,0.4064X1.6510*%
%ADD13R,1.0160X0.8636*%
D10*
X83000Y108500D02*
D03*
Y125500D02*
D03*
Y143500D02*
D03*
Y160500D02*
D03*
D11*
X185080Y199000D02*
D03*
X174920D02*
D03*
X77572Y191000D02*
D03*
X68500D02*
D03*
D12*
X96750Y154734D02*
D03*
X103250D02*
D03*
X109750D02*
D03*
X122750D02*
D03*
X116250D02*
D03*
X129250D02*
D03*
X135802D02*
D03*
X142406D02*
D03*
X148756D02*
D03*
X155360D02*
D03*
X96750Y93500D02*
D03*
X103250D02*
D03*
X109750D02*
D03*
X116250D02*
D03*
X122750D02*
D03*
X129250D02*
D03*
X135802D02*
D03*
X142406D02*
D03*
X148756D02*
D03*
X155360D02*
D03*
D13*
X142526Y18250D02*
D03*
X107500D02*
D03*
X142526Y35890D02*
D03*
X107500D02*
D03*
M02*
