G04 Layer_Color=128*
%FSLAX44Y44*%
%MOMM*%
G71*
G01*
G75*
%ADD10R,0.6350X1.2700*%
G04:AMPARAMS|DCode=11|XSize=1mm|YSize=0.9mm|CornerRadius=0.1125mm|HoleSize=0mm|Usage=FLASHONLY|Rotation=180.000|XOffset=0mm|YOffset=0mm|HoleType=Round|Shape=RoundedRectangle|*
%AMROUNDEDRECTD11*
21,1,1.0000,0.6750,0,0,180.0*
21,1,0.7750,0.9000,0,0,180.0*
1,1,0.2250,-0.3875,0.3375*
1,1,0.2250,0.3875,0.3375*
1,1,0.2250,0.3875,-0.3375*
1,1,0.2250,-0.3875,-0.3375*
%
%ADD11ROUNDEDRECTD11*%
%ADD12R,1.0160X0.8636*%
%ADD22R,1.2000X1.8000*%
%ADD23R,0.6000X1.5500*%
%ADD24O,1.6500X0.5500*%
%ADD25O,0.5500X1.6500*%
G04:AMPARAMS|DCode=26|XSize=1.4mm|YSize=1mm|CornerRadius=0.125mm|HoleSize=0mm|Usage=FLASHONLY|Rotation=0.000|XOffset=0mm|YOffset=0mm|HoleType=Round|Shape=RoundedRectangle|*
%AMROUNDEDRECTD26*
21,1,1.4000,0.7500,0,0,0.0*
21,1,1.1500,1.0000,0,0,0.0*
1,1,0.2500,0.5750,-0.3750*
1,1,0.2500,-0.5750,-0.3750*
1,1,0.2500,-0.5750,0.3750*
1,1,0.2500,0.5750,0.3750*
%
%ADD26ROUNDEDRECTD26*%
D10*
X80160Y208000D02*
D03*
X70000D02*
D03*
X80160Y190000D02*
D03*
X70000D02*
D03*
D11*
X188000Y146500D02*
D03*
Y129500D02*
D03*
X188000Y113500D02*
D03*
Y96500D02*
D03*
X205000Y188500D02*
D03*
Y171500D02*
D03*
X62000Y109500D02*
D03*
Y126500D02*
D03*
D12*
X142500Y36890D02*
D03*
X107474D02*
D03*
X142500Y19250D02*
D03*
X107474D02*
D03*
D22*
X99500Y239000D02*
D03*
X155500D02*
D03*
D23*
X112500Y200000D02*
D03*
X122500D02*
D03*
X132500D02*
D03*
X142500D02*
D03*
D24*
X167000Y153000D02*
D03*
Y145000D02*
D03*
Y137000D02*
D03*
Y129000D02*
D03*
Y121000D02*
D03*
Y113000D02*
D03*
Y105000D02*
D03*
Y97000D02*
D03*
X83000D02*
D03*
Y105000D02*
D03*
Y113000D02*
D03*
Y121000D02*
D03*
Y129000D02*
D03*
Y137000D02*
D03*
Y145000D02*
D03*
Y153000D02*
D03*
D25*
X153000Y83000D02*
D03*
X145000D02*
D03*
X137000D02*
D03*
X129000D02*
D03*
X121000D02*
D03*
X113000D02*
D03*
X105000D02*
D03*
X97000D02*
D03*
Y167000D02*
D03*
X105000D02*
D03*
X113000D02*
D03*
X121000D02*
D03*
X129000D02*
D03*
X137000D02*
D03*
X145000D02*
D03*
X153000D02*
D03*
D26*
X180000Y191000D02*
D03*
Y209000D02*
D03*
M02*
