M48
;Layer_Color=9474304
;FILE_FORMAT=4:4
METRIC
;TYPE=PLATED
T1F00S00C0.2500
T2F00S00C0.3000
T3F00S00C0.7000
T4F00S00C0.9500
T5F00S00C3.2000
%
T01
X00156000Y00045000
X00163000Y00051000
X00133000Y00111000
X00122750Y00113750
X00116000Y00119000
X00154000Y00188000
T02
X00065000Y00075000
X00082000Y00082000
X00089000Y00068000
X00116224Y00028000
X00125250Y00019250
X00127000Y00037000
X00143000Y00120000
X00149000Y00129000
X00137000Y00133000
X00180000Y00119000
X00188000Y00155000
X00190000Y00175000
X00180000Y00181000
X00129000Y00184000
X00164000Y00202000
T03
X00207600Y00099600
Y00125000
Y00150400
X00233000
Y00125000
Y00099600
T04
X00016000Y00086800
Y00112200
Y00137600
Y00163000
T05
X00025000Y00025000
X00225000
Y00225000
X00025000
M30
