G04 Layer_Color=8388736*
%FSLAX44Y44*%
%MOMM*%
G71*
G01*
G75*
G04:AMPARAMS|DCode=27|XSize=0.8032mm|YSize=1.2032mm|CornerRadius=0.1766mm|HoleSize=0mm|Usage=FLASHONLY|Rotation=270.000|XOffset=0mm|YOffset=0mm|HoleType=Round|Shape=RoundedRectangle|*
%AMROUNDEDRECTD27*
21,1,0.8032,0.8500,0,0,270.0*
21,1,0.4500,1.2032,0,0,270.0*
1,1,0.3532,-0.4250,-0.2250*
1,1,0.3532,-0.4250,0.2250*
1,1,0.3532,0.4250,0.2250*
1,1,0.3532,0.4250,-0.2250*
%
%ADD27ROUNDEDRECTD27*%
G04:AMPARAMS|DCode=28|XSize=1.2032mm|YSize=1.1032mm|CornerRadius=0.2141mm|HoleSize=0mm|Usage=FLASHONLY|Rotation=270.000|XOffset=0mm|YOffset=0mm|HoleType=Round|Shape=RoundedRectangle|*
%AMROUNDEDRECTD28*
21,1,1.2032,0.6750,0,0,270.0*
21,1,0.7750,1.1032,0,0,270.0*
1,1,0.4282,-0.3375,-0.3875*
1,1,0.4282,-0.3375,0.3875*
1,1,0.4282,0.3375,0.3875*
1,1,0.4282,0.3375,-0.3875*
%
%ADD28ROUNDEDRECTD28*%
G04:AMPARAMS|DCode=29|XSize=1.2032mm|YSize=1.1032mm|CornerRadius=0.2141mm|HoleSize=0mm|Usage=FLASHONLY|Rotation=0.000|XOffset=0mm|YOffset=0mm|HoleType=Round|Shape=RoundedRectangle|*
%AMROUNDEDRECTD29*
21,1,1.2032,0.6750,0,0,0.0*
21,1,0.7750,1.1032,0,0,0.0*
1,1,0.4282,0.3875,-0.3375*
1,1,0.4282,-0.3875,-0.3375*
1,1,0.4282,-0.3875,0.3375*
1,1,0.4282,0.3875,0.3375*
%
%ADD29ROUNDEDRECTD29*%
G04:AMPARAMS|DCode=30|XSize=1.0032mm|YSize=1.0032mm|CornerRadius=0.2016mm|HoleSize=0mm|Usage=FLASHONLY|Rotation=90.000|XOffset=0mm|YOffset=0mm|HoleType=Round|Shape=RoundedRectangle|*
%AMROUNDEDRECTD30*
21,1,1.0032,0.6000,0,0,90.0*
21,1,0.6000,1.0032,0,0,90.0*
1,1,0.4032,0.3000,0.3000*
1,1,0.4032,0.3000,-0.3000*
1,1,0.4032,-0.3000,-0.3000*
1,1,0.4032,-0.3000,0.3000*
%
%ADD30ROUNDEDRECTD30*%
%ADD31R,0.6096X1.8542*%
%ADD32P,2.2544X8X202.5*%
%ADD33C,3.8032*%
%ADD34C,0.8032*%
D27*
X49000Y-60000D02*
D03*
X26000Y-69500D02*
D03*
Y-50500D02*
D03*
X-28500Y-60000D02*
D03*
X-51500Y-69500D02*
D03*
Y-50500D02*
D03*
X-83500Y-20000D02*
D03*
X-106500Y-29500D02*
D03*
Y-10500D02*
D03*
D28*
X108500Y10000D02*
D03*
X91500D02*
D03*
X108500Y45000D02*
D03*
X91500D02*
D03*
X108500Y-25000D02*
D03*
X91500D02*
D03*
X91500Y-60000D02*
D03*
X108500D02*
D03*
D29*
X-60000Y31500D02*
D03*
Y48500D02*
D03*
X-80000Y31500D02*
D03*
Y48500D02*
D03*
X-100000Y31500D02*
D03*
Y48500D02*
D03*
X55000Y-91500D02*
D03*
Y-108500D02*
D03*
D30*
X20000Y-91500D02*
D03*
Y-108500D02*
D03*
X-50000Y-91500D02*
D03*
Y-108500D02*
D03*
X-15000Y-91500D02*
D03*
Y-108500D02*
D03*
D31*
X-29400Y30734D02*
D03*
X-22900D02*
D03*
X-16400D02*
D03*
X-3400D02*
D03*
X-9900D02*
D03*
X3100D02*
D03*
X9652D02*
D03*
X16256D02*
D03*
X22606D02*
D03*
X29210D02*
D03*
X-29400Y-30500D02*
D03*
X-22900D02*
D03*
X-16400D02*
D03*
X-9900D02*
D03*
X-3400D02*
D03*
X3100D02*
D03*
X9652D02*
D03*
X16256D02*
D03*
X22606D02*
D03*
X29210D02*
D03*
D32*
X-33100Y82300D02*
D03*
Y107700D02*
D03*
X-7700Y82300D02*
D03*
Y107700D02*
D03*
X17700Y82300D02*
D03*
Y107700D02*
D03*
X43100Y82300D02*
D03*
Y107700D02*
D03*
D33*
X-100000Y-100000D02*
D03*
X100000D02*
D03*
Y100000D02*
D03*
X-100000D02*
D03*
D34*
X77500Y-17500D02*
D03*
X-22500Y-82500D02*
D03*
X-52500Y-77500D02*
D03*
X17500Y-12500D02*
D03*
X-7500D02*
D03*
X2500Y-50000D02*
D03*
X17512Y-42500D02*
D03*
X-30000Y-92500D02*
D03*
X-5000Y-112500D02*
D03*
X42500Y-82500D02*
D03*
X-35000Y-102500D02*
D03*
X2500Y47500D02*
D03*
X-42500Y-117500D02*
D03*
X-107500Y-40000D02*
D03*
X45000Y-110000D02*
D03*
X77500Y-60000D02*
D03*
X7500Y-75000D02*
D03*
X-65000Y-70000D02*
D03*
X70000Y55000D02*
D03*
X-17500Y45000D02*
D03*
X-45000Y25000D02*
D03*
M02*
